<?xml version="1.0" encoding="utf-8"?>
<!-- Generator: Adobe Illustrator 25.0.0, SVG Export Plug-In . SVG Version: 6.00 Build 0)  -->
<svg version="1.1" id="Layer_1" xmlns:serif="http://www.serif.com/"
	 xmlns="http://www.w3.org/2000/svg" xmlns:xlink="http://www.w3.org/1999/xlink" x="0px" y="0px" viewBox="0 0 456 456"
	 style="enable-background:new 0 0 456 456;" xml:space="preserve">
<style type="text/css">
	.st0{fill-rule:evenodd;clip-rule:evenodd;fill:#734D33;}
	.st1{fill-rule:evenodd;clip-rule:evenodd;fill:#F3B37B;}
	.st2{fill-rule:evenodd;clip-rule:evenodd;fill:#5DB2E4;}
	.st3{fill-rule:evenodd;clip-rule:evenodd;fill:#1B4C3C;}
	.st4{fill-rule:evenodd;clip-rule:evenodd;fill:#171710;}
	.st5{fill-rule:evenodd;clip-rule:evenodd;fill:#C5AA77;}
	.st6{fill-rule:evenodd;clip-rule:evenodd;fill:#494537;}
	.st7{fill-rule:evenodd;clip-rule:evenodd;fill:#472A18;}
	.st8{fill-rule:evenodd;clip-rule:evenodd;fill:#E99153;}
	.st9{fill-rule:evenodd;clip-rule:evenodd;fill:#FFFFFF;}
	.st10{fill-rule:evenodd;clip-rule:evenodd;fill:#743110;}
	.st11{fill-rule:evenodd;clip-rule:evenodd;fill:#D61016;}
	.st12{fill-rule:evenodd;clip-rule:evenodd;fill:#8B8832;}
	.st13{fill-rule:evenodd;clip-rule:evenodd;fill:#8D1913;}
	.st14{fill-rule:evenodd;clip-rule:evenodd;fill:#AE734A;}
	.st15{fill-rule:evenodd;clip-rule:evenodd;fill:#9F5B1C;}
	.st16{fill-rule:evenodd;clip-rule:evenodd;fill:#B1AFAC;}
	.st17{fill-rule:evenodd;clip-rule:evenodd;fill:#786756;}
	.st18{fill-rule:evenodd;clip-rule:evenodd;fill:#948870;}
	.st19{fill-rule:evenodd;clip-rule:evenodd;fill:#5A8896;}
	.st20{fill-rule:evenodd;clip-rule:evenodd;fill:#325D69;}
</style>
<g id="Layer_x0020_1">
	<g id="_2334105817456">
		<path class="st0" d="M185.9,282.4c4,5.6,7,9,11.9,13.7c2.5,2.4,12.5,9.8,12.9,12l-8.5-1.5l0.1,0.2c2.8,2.7,9.2,1.3,12.5,3.6
			c16.1,10.9,13.5,7.1,21.1,3.2c6.3-3.3,3.5-3.7,11.9-4.9l-1.7-0.8l-1.1-0.1c-0.9-0.4-0.9,0,0-0.6l0.5-0.7l0.6-0.5
			c9.4-5.5,17.6-17,25.4-24.9l-1.8,0.1l13.4-21.4c5.4-8.2,1.6-2.2,5.5-5.5c-2.1-2.1,6.7-20.2,7.8-24.4c2.5-9.2,4.5-18.8,5.1-28.4
			c0.4-6.9,0.8-62.7-0.4-65.4L152.4,136c0.3,21.4-0.7,44.8,0.8,66c1.7,23.7,8,31.4,14.3,51.9l-2-0.2l-0.3-0.6l-0.8,0.5l1.1,0.1
			c0.9,1.9,0.5,1.1,2.6,2.6c-0.6-1.4-0.7-0.6,0.5-2.3c0,3,9.4,11.7,12.9,20.7c0.5,1.2,0.9,2.9,1.6,3.9c1.4,2,1.8,1,2.4,3.8
			c1.7,0.6,2.1,0.2,2.4,1.7L185.9,282.4L185.9,282.4z M179.1,272.3l0.6,2l-1.6-0.1c0.3-1.1,0.5-0.9-0.6-0.6c0.3-1,0.4-0.8-0.7-0.6
			c0.2-1,0.3-0.7-0.7-0.8c0,1.2-0.4,1,0.7,0.8c-0.2,1.1-0.4,0.8,0.7,0.6c-0.3,1.1-0.5,0.9,0.6,0.6l1.6,2.1c2.3-1.5,1.5,0.4,0.9-2.3
			C180.3,273,179.7,272.8,179.1,272.3L179.1,272.3z M176,267.2l-0.1-1c0.4-1.4,0.6-1-0.9-1c0.2,1.2-0.2,1,0.9,1L176,267.2l1,1.6
			L176,267.2z M169.2,257.6c1.4,2.5,1.3,3.5,4.1,4.9c-0.5,1.2-0.8,1,0.4,1c0.2-1.4,0.7-1.5-0.4-1c-1.1-1.9-1.1-1-2-2.2
			C169.7,258.3,171.4,259.4,169.2,257.6L169.2,257.6z M164,252.7l-0.7,0.5l1.4-0.4L164,252.7z M162.5,252.1l-0.6,0.5l1.7-0.5H162.5z
			 M149.9,251.5l-8,6.7c0.5,0.9-0.3,0.9,1.4-1.1c0.9-1,1.2-1.7,1.9-2.5C146.5,253.2,148.3,253.2,149.9,251.5
			c2.5-0.2,3.9-0.6,6.6-0.4c1.5,0.1,1.6,0.2,3.1,0.6c2.9,0.7,1,0.7,2.6-0.1L149.9,251.5L149.9,251.5z M140.4,261
			c1.2,2.1,1.2-1.6,0.9-2.3L140.4,261z M137.9,268.3c0.8,1.2,0.2,0.8,0.9,0.1c0.5-2.6,2.6-4.8,1.2-6.7L137.9,268.3z M149.6,271.8
			c0.8-1.5,0.5-1,0.8-3.1l-0.8-2.4c-3.9-1.2-5.8-0.4-8.8,5.9c0.1-4.2,1-5.6,1.6-9.2c-3.7,1.8-3,11.4-2.2,14.4
			c1,3.7,3.3,10.7,7.7,8.6c1.1-2.1,0.8-1.7,0.2-3.8c-2,2.1,0.3,1-1.8,3.2c-3.3-0.9-5.1-7-5.6-10.7l3-4.6
			C147.4,264.8,149.4,265.9,149.6,271.8L149.6,271.8z M136,273.5c1,1.4,0.6,0.4,1.2-1.4c0.9-2.6,1.1-1.8,0-3.3L136,273.5L136,273.5z
			 M135.4,275.2c0.7,1,0,1,0.8,0.1l-0.7-1.2L135.4,275.2L135.4,275.2z M134.8,277c0.7,1,0,1,0.8,0.1l-0.6-1.2L134.8,277L134.8,277z
			 M134.1,278.6c0.6,1.2,0.1,0.9,0.7,0.3l-0.5-1.2L134.1,278.6z M132.9,282c1.3,1.7,1.2-1.6,0.7-2.8L132.9,282z M132.2,283.7
			c0.7,1,0,0.9,0.9,0.1l-0.6-1.3L132.2,283.7L132.2,283.7z M131.6,285.6c0.7,0.8,0.1,0.7,0.7,0.1l-0.6-1.4L131.6,285.6L131.6,285.6z
			 M130.3,289c0.6,1.3,0,1,0.8,0.4c0.6-2.4,1.1-1.6,0.1-3.3L130.3,289z M129.2,296.3l0.3,0.4c0-2.1,1.1-5.5,0.4-6.8L129.2,296.3
			L129.2,296.3z M284.8,258.8l3.6-3.9l2.2-1.7l1-0.1l-0.5-0.6l-0.5,0.7l-2.2,1.1v0.6C285.8,256.1,285.6,255.9,284.8,258.8
			L284.8,258.8z M308.6,251.5c-10.2-3-7.7-2.5-17.4,0.4c2.1,2,1.6-1.2,8.6-1.3C307.9,250.4,305.8,253.1,308.6,251.5L308.6,251.5z
			 M309.9,253.3c0.1,0.2,0.2,0.4,0.3,0.6c1.2,2.1,0.7-0.4,0.9-0.6H309.9l-1.1-1.2l-0.3,1L309.9,253.3L309.9,253.3z M283.9,259.7
			c1,0,0.6,0.2,0.9-1C283.3,258.7,283.5,258.3,283.9,259.7l-0.4,0.8C284.4,260.4,284.2,260.6,283.9,259.7z M283,261.3l-0.9,0.7
			L283,261.3z M280.9,264.2l0.8-1C280.3,263.1,280.6,262.8,280.9,264.2l-0.3,0.8L280.9,264.2z M278.8,266.7l-0.3,1.1L278.8,266.7
			l0.9-0.7l0.7-1.2c-1.4,0-1-0.3-0.7,1.2L278.8,266.7z M277.8,269c1-0.2,0.7,0.1,0.8-1.2C277.1,267.9,277.5,267.5,277.8,269l-0.1,1
			L277.8,269z M276.6,275.1l0.5-0.8c1.2,0.2,1,0.4,0.7-0.7c-1.2,0-1-0.3-0.7,0.7C276,274,276.4,273.9,276.6,275.1
			c-1.6-0.2-1.2,0.2-1.1-1.4l-2.2,3.8L276.6,275.1L276.6,275.1z M254,306.1l-6.6,1.5c1.4,1.8,4.9,0,7-0.4
			C255.5,306,255.1,307.3,254,306.1L254,306.1z M259.7,304.2l-5,1.4c1.2,1.4,1.4,1.1,3.5,0.4C262.2,304.7,260.3,305.1,259.7,304.2
			L259.7,304.2z M261.4,303.6l-1.3,0.3l1.8,1.1C262.8,303.6,262.5,304.9,261.4,303.6z M266.1,302l-4.3,1.2c1.4,1.3,0.9,1.2,3.1,0.3
			C268,302.2,266.2,302.3,266.1,302L266.1,302z M267.3,301.4l-0.7,0.2c1.2,1.2,0.2,0.6,1.7,0.4L267.3,301.4L267.3,301.4z
			 M186.4,271.5c-1.8-0.4-0.3,1.1-1.9-1.3c-1.4-2.1-0.7,0.1-0.6-2.3c-1.8-1-1.4-0.6-1.7-2.6c-1.7-0.5-0.6,0.5-1.5-1
			c-0.9-1.6-0.4-0.4-0.4-2c-1.7-0.7-2-1.8-3.1-3.8c-1.3-2.3-1.9-2.7-1.7-5c-1-0.2-1.3,1.4-0.6-1.1c-0.2-0.1-0.6-0.4-0.5-0.3
			c0.1,0.1,0.1-0.3,0.2-0.4c0.2-0.2,0.6-0.4,0.8-0.6l-0.5,0.1c-1.9-0.9-0.6,0.3-2.2-1.7c-0.4-0.5-0.9-2-1.2-2.6
			c-1-2.7-1.9-2.8-1.4-5.5c-1.2-0.7-1,0.4-2.4-3.9c-1.3-3.9-4.4-11.7-3.6-15.3c2.6-0.8,59-0.8,60.3-0.3c1.1,0.9,0.8,40.4,0.8,42.6
			c-0.1,8.7,1.8,35.8-0.2,41.9c-3.4-0.6-6.1-1.6-7.2-4.2c-2.3,0.9-1.3,0.3-3.8-1.6l-14-11.3l-12.5-14.5
			C186.3,272.5,186.6,273.6,186.4,271.5L186.4,271.5z M194.1,280.1c1.7,1.4,3.6,4,5.5,5.8s4.3,3.9,5.7,5.5L194.1,280.1L194.1,280.1z
			 M215.1,298.7l0.5,0.8L215.1,298.7z M219.4,301.7v0.3V301.7z M221.2,302.8l0.1,0.3L221.2,302.8z M222.4,303.5v0.3V303.5z
			 M166.3,227.8l0.3,0.4L166.3,227.8z M171.8,243.6h0.2H171.8z M172.3,245l0.1-0.2L172.3,245z M173.5,247.5
			c-0.1,0.8-0.8,1.2,0.4,0.4L173.5,247.5z M174.2,249.1l0.3,0.1L174.2,249.1z M180.3,260.7l0.4,0.1L180.3,260.7z M183.9,266.3
			l0.3,0.2L183.9,266.3z M191.5,276.3l-1.6-1.3L191.5,276.3z M231.5,305.7l-0.4-41.9c0.1-6.6-1.4-39,0.7-41.9l58.5-0.4
			c2.5,8.2-15.8,41.9-21,49.9C262.9,281.1,242.7,302.6,231.5,305.7L231.5,305.7z M190.1,144.2l14.9,0.5c2.1-1.7,15.8-0.9,19.6-0.9
			c0.4,7.1,0.6,68.7-0.4,71.1c-7,0.4-15.7-0.1-23.1,0c-3.9,0.1-7.8-0.1-11.7,0.1c-1.8,0.1-3.6,0.2-5.3,0.3c-2.9,0.1-3.2,0.5-4.4-1.5
			L163,214c1.2,1.1,0,0.4,1.9,0.8c0,0,2.2,0.2,2.4,0.2c3.9,0.1,10.6-0.9,13,0.2l-18.4-0.4l1.3-2.3l-0.6-1.3l-0.6,1.1
			c-0.9-5.1-2.2-25.9-1.2-30.3l-0.2-1.4l0.1-6.2l0.3-1.1c-0.7-0.4-0.7-0.4-0.6-2.1c0.1-2.3,0.1-1.2,0.7-2.3l0.3-0.4
			c-1.8-2-1.4-20.2-0.8-24.3H190.1L190.1,144.2z M292.2,145.5l0.3,33.8c-0.6-4.1,0-19.9,0-26.2c0-7.7-0.9-5.9,1.7-8.6
			c-0.1,10.8,0.3,58.5-0.9,64.7c-1.8-1.9-1.6-1.9-1-4.9l-0.3,4c1.9,2.7,1.4,2.9,0.4,6.2c-4.4,0.9-44.9,0.8-54.7,0.5
			c-6.7-0.2-7.2,0.8-7.4-4.1c-0.6-12.9-0.1-28.8,0-41.8c0-5.6-0.8-12.5,1.4-15.3c0-2.7-0.4-5.8,0.4-8.3l0.5-0.3l-0.5,0.3
			c-0.7,1.6-0.3,2.9-0.3,4.6c0,3.7,0.5,2.8-1.9,4.5l0.5-11.1l63.3-0.1C293.3,145.1,294.8,143.9,292.2,145.5
			c-2.2-1.2-10.2-0.2-13.2-0.5C282.7,144.9,289.1,144.3,292.2,145.5L292.2,145.5z"/>
		<path class="st1" d="M209.9,329.7c0.9-2.2,0.8-2.1-0.6-3.5l1.7-1.1c-0.1-3.2-0.4-4.7,0.2-5.7c1.3-0.3,1.1,0.2,2.2,1.6
			c-0.6,0.7-1,2.2-0.9,3.5c0.1,2.1-0.2,1.8,2.1,2.1c0.1-1,0.4-2.4,0.4-3.5c0-3.4-0.6-1-0.4-3.3c1.6-0.1,2,0.1,2.2,2.1
			c0.5,3.9-0.4,6.5-4.5,6.1l0.3,2.8C210.8,329.9,212.4,330.2,209.9,329.7L209.9,329.7z M201,319.4c-2.2-2.3-2-1.4-4.9-2
			c-2.7-0.5-3.3-2-4.9-2.1c-0.4,3.8,6,1.6,8.8,4.5c-0.2,3,0.4,2.4-2.7,2.9l1.5,1.2c-3.7,1.4-2,0.3-4.8-0.4c-2.3-0.6-3.4,0.6-5.2-1.1
			c2.3,0.6,1.8,1,3.4-0.1c-2-2-2.2-1.2-4.3-0.4v-2c2.6-0.7,2.1,0,4.7-0.1c-1.3-2.2-2.3,0-3-3.6c1-2,4.6-4.6,6.9-5
			c2.5,1.3,1,1.4,4.1,1.7l-1.8,1.8c-2.3-1.7-3.2-4.5-5.7-0.9c2.1,3.1,9.5,0,9.6,7.2c-1,1.5-1.6,2.4-3.4,2.3c0-0.1,0.1-0.3,0.1-0.2
			l0.9-1.1C201.1,320.6,200.9,321,201,319.4L201,319.4z M248.2,318.5l0.9-1.6l1.2-2.4l1.3,1.2l2-3.4l4.2,0.7c-2,2.6-1.3,0.6-4.3,1.9
			l2.3,8.9l3.9-2.2C257.6,328.4,247,326.2,248.2,318.5L248.2,318.5z M252.3,316.7c1.3,2.7,1.4,3.7-0.5,6l0.8,0.7l2.2,0.3l-1.9-9.1
			L252.3,316.7L252.3,316.7z M250.7,316.7l-0.5-1.4l-0.8,1.3c-0.2,3.1-0.4,3.5,1.8,5.8C251.9,320.5,251.1,319,250.7,316.7z
			 M230.3,320.2c1-0.1,0.7-0.3,0.5,0.9h1.5c1-1.8,0.8-1.1,1.7-0.9l2.4,0.8c4.1-1.6,0.3-1.3,5.5-1.4l-0.1-2c1.2,1.5,0.4,2.3-0.8,3.9
			c1.7,2.8,1.8,0.6,2.2,5c-3.9,3-6,0.9-9,2.5l-1-1.2c-0.7-1.5-0.5-3.8-0.6-5.8c-2,0.5-1,3.3-1,5.4l-1.5,1.8
			c-2.5-2.7,0.2-1.5-1.3-7.8c-0.7,0.5-1.9,2.1-2.9,3.1l-0.2-1.3c-0.4-1.2-0.2-0.8-1-1.9c-1.3,2.4,0,3,0,3c0.5,2.1,0.5-1.5,0.1,0.7
			c0,0-0.3,0.3-0.5,1.8c2.2,1.4,0.9,0,1.9,1.7c-2.1,0.9-1.7,0.6-3.9-0.3l0.3-6.7l2.9-1.5l2.1,2.1L230.3,320.2L230.3,320.2z
			 M236.5,321.3c-0.6,0.3-1,0.4-1.6,0.7c0,3-0.7,4.3,1.5,6.3l2.1-2.4C237,323.6,236.7,324.8,236.5,321.3L236.5,321.3z M220.8,327.8
			l-1.9,1.1c-1.3-2-1.1-6.9-0.2-8.7C223.1,320.6,217.4,324.9,220.8,327.8L220.8,327.8z M209.6,319.5c-0.5,1.5-0.8,2.5-1,4.1
			c-0.3,3.2,1.1,1.7-0.9,3.5c-1.9-0.4-0.5-0.1-2.1-1.8l-2.1,1.4c-1.8-2.5-1.3-2.7,0-4.9l0.8-3.3c2.9-1.4,2.3-0.2,5.2-0.3
			C211.1,320.8,209.9,318.6,209.6,319.5L209.6,319.5z M259.4,316.2l2.2-2.4l3,0.1l2.2,6l-2.1,2.6l-3.7-0.2L259.4,316.2L259.4,316.2z
			 M184.7,310.5l1,1.9c-3.1,0.7-0.2-1-3.5,0.4c-0.4,2.3,0.3,4.1,0.6,6.1c-3.2,0.6-2-0.2-2.8-3.6l-3.1,1.9l-0.9-1.6
			c3.4-2.1-0.2,1,3.3-0.6c1.4-2.3,0.9-4.7-0.8-5.4l2.3-0.7l1.2,3.6L184.7,310.5L184.7,310.5z M269.3,311.4c3.1-2.1,4.2,3.3,4.8,5.7
			c-1.1,1.8-0.9,2-2.8,2.6c0.5,2.2-0.5,1,1.5,2.6l-3.1,0.2c-1-4-0.8,0.3-1.5-4.7c-0.4-2.5-0.9-3.4-2.6-4.4c3.1-3.8,3.4,1.9,4.9,4.3
			l1.8-0.4c-0.9-2.6-0.6-2.8-2.1-4.6l-0.5-0.6C269.5,312,269.4,311.5,269.3,311.4L269.3,311.4z M273,309.2c2.7,0,1.6,0.6,2.8,3.5
			c1.2,3,2.1,1.8,2.1,4C274.4,317.7,272.8,310.5,273,309.2L273,309.2z M276.8,308.9l1.8-2.6l3.2-0.2l2.8,5.9l-2,2.5l-3.2,0.2
			L276.8,308.9L276.8,308.9z M173.2,315.3c-0.9-1.8,1.5-6.5,2.6-8.2c2.6,0.6,1.3,1-0.8,6.3C173.9,316,175.4,314.6,173.2,315.3
			L173.2,315.3z M303.5,307.9l1.8-1.8c-0.3-0.6-1.1,0.8,0.2-1c0.7-1.1,4.7-3.6,8-8.1c-2.3-4-6.4-7.4-8.6-11.1
			c-0.9-6.2,4.7-9.9,4.2-13.8l-5.8,5.8c-2,1.7-2,2.1-4,2.7c1-2.3,1.4-1.3,3-3l2.5-2.4c-0.2-3.2-1.2-10,3.4-10.2
			c3.1-0.1,4.6,4,6.5,6.3c0-3.5-1.5-6.9-1.4-9.4c3.6,2.3,2.9,12.8,1.6,16.7c-3.5,10.9-9.7,7.6-7.3,3c1.7,2.1,0.1,0.7,1.1,3.1
			c3.4-0.4,5.9-6.4,5.9-9.8c0-4.1-9.8-16-8.3-1.3l2.5-3c-0.2-2.1-1.1,0.4-0.1-2.3c7.1,4-6.3,12.8-1.5,19.1c1.6,2.1,4.8,5,6.3,7.2
			c1.5,2.3,4.2,5.6,5.9,7.2c1.9-0.3,3.7-0.8,4.9-2.4c1.1-1.6,1.2-4.3,2.1-2.9l0.5-0.7c-1-1.4-1.1-2,0-3.6l-0.3-0.6
			c-1,0.6,0.1,1.2-1.1,0l0.9-1.3l-0.4-0.5c-0.8,0.4-0.3,2.3-1.6-1.9c-0.7-2.1-1.3-1.4,0.3-2.8l-0.5-0.4c-0.2,0.1-0.7,2.5-1.3-0.7
			c-0.5-2.6,0-1,0.5-2l-0.4-0.4c-1.2,0.7,0.1,1.1-1,0.2c-0.6-2.3-1.9-3.1-0.4-4.5l-0.4-0.4l-1.1,0.7l1-1.9l-0.6-0.2l-1,0.1l1-1.5
			l-0.6-0.4c-1,0.6,0,1.7-1.2-0.7c-0.3-0.7-0.5-1.6-0.8-2.3c-0.7-1.7-1.9-3.3-0.6-4.4l-0.5-0.4c-0.9,0.4-0.7,0.3-1.4-1.9
			c-0.4-1.5-1-1.7,0.1-2.4l-0.5-0.7h-0.6l0.4-0.9l-0.5-0.7c-0.8,0.5,0.1,0.9-0.7-0.5c-0.2-0.3-0.5-1.1-0.8-1.7
			c-1.1-1.8-2-1.4-0.9-2.3l-0.8-1.3c-0.1,0.2,0.3,2.7-0.9,0.6c-0.1-0.2-0.2-0.4-0.3-0.6l-1.4-0.3l0.3-1l-0.2-0.6
			c-2.8,1.6-0.7-1.1-8.8-0.9c-7,0.1-6.5,3.3-8.6,1.3l-0.1,0.6l0.5,0.6l-1,0.1l-2.2,1.7l-3.6,3.9l-0.1-0.1c-0.2,1.2,0.2,1-0.9,1
			c0.3,1,0.5,0.8-0.4,0.8l-0.5,0.9l-0.9,0.7c0,1.4,0.8,0.8-0.4,1.1l-0.8,1l-0.3,0.8l-0.2-0.2l-0.7,1.2l-0.9,0.7l-0.3,1.1v0.1
			c-0.1,1.2,0.3,0.9-0.8,1.2l-0.1,1l-2.2,3.7c-0.2,1.6-0.5,1.2,1.1,1.4c-0.2-1.1-0.5-1,0.5-0.8c-0.3-1-0.5-0.7,0.7-0.7
			c1.8-4.3,10.7-5.7,15-4.8c3.1,0.5,3.4,1.4,6,2.1l-0.6,1.2l0.3,0.5l1.5-0.6l1.1,1.8l-1.4-0.5l1.5,1.2l1.1-0.6l0.4,1.4
			c0.8,0.5,1.9-0.3-0.3,1c-0.8,2.9-2.4,1.3-3.8,4.4c0.4,0.6,1.3-0.1-0.6,1.8c-1.1,1.1-0.9,0.9-2.3,1.2l1.9-2.1l-2.5,2.3l0.3,1
			c-3.4,1.4-2.1,2.5-4.9,2.9l-0.9,0.9c-1.8,3-8.3,5.4-11.1,8.2c0,1,0.2,0.7-0.9,0.7l-3.9,1.8l-0.4,0.7l-4.7,1.4l0.6-1l-1.7,1.1
			l0.9,0.7c-1.5,0.2-0.5,0.8-1.7-0.4l-0.4,0.4c0.1,0.2,1.9,0.2-1.2,1.5c-2.2,0.9-1.7,1-3.1-0.3l-0.5,0.4c1.1,1.3,1.4,0,0.5,1.4
			l-1.8-1.1l-0.4,0.4c0.6,0.9,2.5,0.5-1.5,1.8c-2.1,0.7-2.3,1.1-3.5-0.4l-0.7,0.4c1,1.2,1.5,0,0.4,1.1c-2.1,0.4-5.7,2.2-7,0.4
			c-2.4,0.1-0.9,0.2-1.9-0.9l0.6-0.5l-0.6,0.5l-0.5,0.7c-1,0.6-0.9,0.2,0,0.6v-0.6l1.1,0.7l1.7,0.8c-8.4,1.3-5.5,1.7-11.9,4.9
			c-7.5,3.9-5,7.7-21.1-3.2c-3.4-2.3-9.8-0.9-12.5-3.6c-2.2,0.1-2.4,0.1-3.9-1c-0.7,0-5.8-0.4-3.2-1.4c0-0.9,0.2-0.7-0.7-0.6
			c-0.6,0.3,0.4,1.3-2.4,0.3c-1.8-0.7-1.1-0.4-0.1-0.9l-0.7-0.5c-0.5,0.3,0.3,1.4-2.1,0.2c-1.8-0.8-1.4-0.3-0.1-0.9
			c0-1,0.3-0.8-0.7-0.6c-2,1.3-0.9-0.1-4.3-0.2c-1.1,0.4-0.8,0.5-0.8-0.6l-0.4,0.1c-1.2,0.3-0.8,0.5-0.8-0.8c-1-1.2-7.2-4.5-8.9-4.8
			c-1.2,0.3-0.8,0.5-0.8-0.8v-0.2l-1.7-1c-0.3-1.2,0.3-0.4-1.2-0.4c-1.1,0.3-0.8,0.5-0.8-0.8l-11-8.6l1-1c0-1,0.2-0.7-0.7-0.8
			l-0.5-0.4l0.5,0.4c-1,0.9-0.1,1.6-2.5-0.5c-0.8-0.6-1.4-1.4-2.2-2.2c-1.7-1.6-4-2.3-3.9-4.1l-0.2,0.1c-1.6-1.4-0.9-1-3-1.8
			l-0.2,0.9c1,0.2,0.6-1.3,0.8,1.1c1.8,4.7,4.3,5.7,4.5,11.8c-2.2,2.5-4.5,6.6-7,7.8c1.3-2.5,4.2-5.6,6-7.7c-0.3-7.7-5.3-8.7-4.7-16
			l2.5-1.6l-1.1,1.3v0.6l3,2.9v-2.1c-0.2-5.8-2.3-7-5.9-1.8l-3,4.6c0.5,3.7,2.4,9.8,5.6,10.7c2.1-2.2-0.2-1.1,1.8-3.2
			c0.5,2.1,0.9,1.7-0.2,3.8c-4.4,2.1-6.7-5-7.7-8.6c-0.8-3.1-1.5-12.7,2.2-14.4c-0.6,3.7-1.6,5-1.6,9.2c3-6.3,4.9-7.1,8.8-5.9
			l0.8,2.4l0.4,5.2l0.5,2.2c1.3,0.2,3.1-2.6,4.5-3.6c2.3-1.6,3.6-2.4,6.4-3.1c3.9-0.7,11.2-0.8,13.7,2.8c1.1,0.1,0.9-0.2,0.7,0.8
			c1.1-0.2,1-0.5,0.7,0.6c1.1-0.3,0.9-0.5,0.6,0.6l1.6,0.1l-0.6-2l-2.1-3.6l-1-1.6l-0.1-1c-1-0.1-0.6,0.2-0.9-1l-1.3-1.6
			c-1.2,0-0.8,0.2-0.4-1c-2.7-1.4-2.7-2.3-4.1-4.9l-1.2-1c-2.2-1.6-1.7-0.7-2.6-2.6l-1.1-0.1l0.8-0.5l-0.4-0.5l-1.4,0.4l0.7-0.5
			l-0.4-0.6l-1.7,0.5l0.6-0.5l-0.4-0.5c-1.6,0.8,0.3,0.8-2.6,0.1c-1.5-0.4-1.6-0.5-3.1-0.6c-2.7-0.2-4.1,0.2-6.6,0.4
			c-1.6,1.7-3.4,1.7-4.7,3.1c-0.7,0.7-1,1.4-1.9,2.5c-1.7,1.9-0.9,2-1.4,1.1l-0.6,0.6c0.3,0.7,0.3,4.4-0.9,2.3l-0.5,0.7
			c1.3,1.9-0.7,4-1.2,6.7c-0.7,0.7,0,1-0.9-0.1l-0.6,0.5c1,1.5,0.9,0.7,0,3.3c-0.7,1.9-0.3,2.8-1.2,1.4l-0.5,0.6l0.7,1.2
			c-0.8,0.9-0.2,0.9-0.8-0.1l-0.4,0.7l0.6,1.2c-0.8,0.8-0.1,0.9-0.8-0.1l-0.4,0.7l0.5,1.2c-0.7,0.5-0.1,0.8-0.7-0.3l-0.5,0.7
			c0.6,1.2,0.6,4.5-0.7,2.8l-0.4,0.5l0.6,1.3c-0.8,0.8-0.2,0.8-0.9-0.1l-0.4,0.6l0.6,1.4c-0.6,0.7,0,0.8-0.7-0.1l-0.5,0.4
			c1,1.7,0.5,0.9-0.1,3.3c-0.7,0.6-0.1,0.9-0.8-0.4l-0.4,0.8c0.8,1.3-0.4,4.7-0.4,6.8c0.9,2.1,0.9,1.1,0.4,2.3l0.6,0.6
			c0.6-0.1-0.5-1.4,0.8,0.4c1.2,1.6,0.3,0.6,0.2,1c0,0.9-0.2,0.7,0.6,0.7l0.8,0.5l0.6,0.6l-0.6-0.6l-0.8-0.5
			c1.2-0.6-0.5-0.2,1.9,0.6c1.6,0.5,1.9,0.3,3.1,0.7l-1,0.4l1-0.4l0.7-0.4c-0.8-1.7,0.4-1.7,2.6-4.2c1.6-1.9,1.2-3,3.7-3.7l-1.9,3.3
			c1.8,3,5.3,4.4,6.6,6.9l-0.9-0.7l1,1.3l0.9-0.2l0.2,1c1.5,3.4,15.1,11.8,19.2,14c1.1-1.1-0.8-2,2.6-0.3c2.2,1,1.3,0.5,1.9,1.9
			c3.2-0.1,1,0.5,4.4,0.8c1,1.4-0.1,0.3,2.2,1.5c1.9,1,3.9,1.7,5.8,2.6c1,0.5,2,0.9,3.1,1.4c2.1,0.8,3.4,0.2,1.7,1.5l0.5,0.4
			l1.6-0.7l3.7,1.1l-1.3,0.3l0.9,0.6c1.8-1.5,3.5-0.3,6.1,0.3c2,0.5,4,0.7,6,1.3l-1.4,0.4l1,0.5c1.9-1.8,8.6,0.2,14.2,0.5
			c12.5,0.6,17.2,0,29.3-2.4c5.2-1,10.8-3.6,12.5-1.8l0.7-0.5l-1.1-0.6c3.8-1.8,15.4-5.5,17.8-8c0-0.9-0.2-0.8,0.6-0.6
			c2.8-0.5,4.3-2.7,5.8-1.2l0.4-0.7l-0.6-0.5l0.9,0.4l0.7-0.4c0-0.1-1.9-0.2,0.4-0.9c1.9-0.6,0.3-0.2,1.2,0.3l0.4-0.7
			c-0.3-0.8,0.7-1.1,2.1-2.1c1.9-1.4,1.8-1.9,3.1-0.8l0.5-0.6c-0.1-0.1-2-0.1,0.5-1.3c1.8-0.9,0.8-0.6,1.4,0.2l-0.7,0.4l0.7-0.4
			l0.6-0.5c-0.1-0.3-1.3-0.6,0.3-1.6c1.3-0.8,0.6-0.4,1.6,0.2l1.3-1.1l-1.4,0.4c1-1.5,1.8-2.2,3.5-2.8L303.5,307.9L303.5,307.9z
			 M165.4,306.9l-0.4,1.7c2.5,1.6,1.2-0.1,3.3,1.9l0.9-1.1l4-7.8c1.1,1.3,0.4,0.6,2.8,1c-2.8,2.4-5,6.7-5,10.5
			c-2.4,0.2-1.1,0.4-2.2-0.8l-1.2-1.9h-4.1l-1.6-3.1l1.3-1l2.8-4.3l3.3,0.3l1,3.8L165.4,306.9L165.4,306.9z M177.9,306
			c0-1.7-0.2-2.4,1.7-1.3L177.9,306z M289,301.2c1.3-2.1,0.1-1,1.6-1.7c1.8,0.9,2.7,4.1,4.3,5.8c1.6-2,1.4-1.6,0-4.1
			c-1.3-2.3-1.9-2-1.4-4c3.1,0.1,0.4,0.8,4.5,5.2c1.5,1.6,1-0.8,0.9,2c-1.9,0.7-0.2,0.9-2.7-0.3l-1.2,3
			C291.5,305.3,292,303.2,289,301.2L289,301.2z M287,299.9c1.5,1.3,0.8,2.2,0.4,4.1c0.1,0.1,0.4,0,0.5,0.2c0.5,1.2,1.8-1.2,3.5,3.6
			c-2,3.5-2.6,2.2-4.9,4.7l0.1-3.5c-2.2-1.1-2.1-0.7-3.4-3l1-3l2.8-0.8c0-0.2,0-0.7,0-0.6s0-0.5,0-0.6
			C287,299.6,286.5,300.8,287,299.9L287,299.9z M153.3,304.9c3.5-2.3,2,1.1,5-3.9c1.5-2.5,2.4-2.4,3.4-5.3c-2.7,0.7-4.5,5.6-6.1,8
			c-6.2,1.3-4,0.8-8-2c2.3-1.7,2.6,0,4.8,1.9c1.9-1.4,4.2-5,4.8-7.2l-3.1-1.5c2.7-0.5,1.8-0.3,4.5,0.2c1.7-1.5,2,0.4,6.1-0.1
			c1.4,1.5,1.7,1.6,3.2,2.7c-4,1.7-1.4-0.8-4.8-0.5c-0.4,3.3,0.2,0.6,1.2,3.4l-3.2-0.5C159.5,304.8,158.1,305.5,153.3,304.9
			L153.3,304.9z M298.3,296.3c2,1.9,1.2,0.3,2.8,2.6c-3.4,1.4-2.8,0.8-4.5-2l0.8-2.6l3-1.1c-0.2-1.1-0.5-1.5,0-2.4
			c0.9,1.9,0.6,2.2,0.5,4.4c2.8,1,1.6,0,4,2.3c-0.4,5.4-1.6,2.2-4.6,5.9c-0.2-5.2,1.9-2,2.8-4.8c-1.2-1.7,0.2-1-2.4-1
			c0-0.1-0.3-1.7-0.3-1.8c0-0.1-0.2-0.2-0.2-0.4c0-0.2-0.2-0.3-0.2-0.4c-0.1,0.1-1,0.6-1.2,0.7L298.3,296.3L298.3,296.3z"/>
		<path class="st2" d="M255,189.6l-1.8-0.6l-2.4-0.3l-0.5-4.9l-6.5,0.1l-1.9,0.8c0.2-3.8,3.1-5.4,2.9-8.9c-2.8-0.4-6.5-1.1-8.6-2.4
			c32.9-9,21.9-8,53.6,0.6c-2.3,1-21.4,7.1-24,7.2c-2.8,0.1-6.1-1.6-9-1.8c3.3,0.5,7.6,2.4,10.5,1.7c3.5-0.8,7.2-2.3,10.8-3
			c1.7,2.1,2.8,3.9,3.2,6.5c-9.8,0.4-7.6-0.2-16,4.4c-3.1-1.2-5.8-3.6-9.1-4.2C256,187.1,256.6,188.7,255,189.6L255,189.6z
			 M232.1,145.5c-0.8,2.5-0.4,5.6-0.4,8.3l0.2,59.9h59.3l0.8-5.3l0.3-4l0.2-25.1l-0.3-33.8c-3.1-1.2-9.6-0.6-13.2-0.5l-46.5,0.2
			L232.1,145.5L232.1,145.5z"/>
		<path class="st2" d="M205,265.8v-0.2c2.8,0.6,1.7,2,2.5,0.6l2-0.1l3.1-0.3l0.9-2.1l-1.2-0.7c0.6-3.5-0.1-0.7,1-1.7
			c0.9-0.9-0.1-0.5,2.2-1.2h-0.2c4.5,1.6,2.8,0,5.1,1.5c-0.3,2.6,0.1,0.8-1,2.6l-0.7,1.5c-0.1,3.5,2.3,10.7,0.2,12.9l-1.1-0.1
			l-1.2-0.1l-11.4-0.1l-5.5-0.3c0.5-7.3-0.8-1.1,0.7-8.3c1.3-6.4-0.6-3.1-0.7-8.7c0.7,0,1.9,0.5,1.9,0.5c1.4,0-0.9-0.5,1.6-0.5
			c2.2,0,0.9,1.9,3.4,0.1L205,265.8L205,265.8z M212.6,237.8l2.2-0.4c-0.7-1.9-1.2-1.9-0.6-4.3c1.5-0.1,0.9,0,1.4,0.7
			c1.5-1.6,0-0.5,2-1.1c0.3,1.4,0.2-0.1,0,0.8l2.7-0.5c0.2,3.3-0.6,3-0.7,4.7c-0.1,1.2,0.2,4,0.1,5.7c1.2-0.4,0.8-0.5,0.7,1.1
			l0.2,1.3l-0.3,4.2l-3.3,0.2l-11.5-0.2l-1.9,0.2l-3-0.2c-0.3-2.4-0.6-3.6,0.8-5.4l-1.6-0.1c3.2-5,0-8.2,0.6-11.5
			c3.6-0.1,0.5,0.5,1.5,0.6c0.2,0,0.2-0.6,1.9-0.7c2.5-0.1,0.5,0.3,2,0.7c2.4,0.5-0.6-0.5,1.8-0.2l0.2,5.1
			C209.1,237.2,210.1,237.9,212.6,237.8L212.6,237.8z M191.9,225.2l1,0.5l1.2-0.2l-0.1,2.9l-0.5,4.3v0.8l0.1,0.5l0.4,6.1l0.1,0.5
			l-0.1,1.9l-1.6,0.2h-1.1h-3h-6l-5.8-0.1l0.2,0.1l-2.3-0.2l-0.2-1.7V240c0.3-2.5-0.4-1.7,0-3.3c0.4-1.8,0.6-1.1,0.8-3.8
			c0.3-2.4,0.6-1.9-0.4-3.9l-0.4-2.9l1.5-0.4l1.5-0.1l4.1,1.1c-1.3,2.6,0.4,0.6-2.1,1.3c2.2,1.1,1.8,0.3,0.7,2.3l1.7,0.8
			c1.6-0.8,3.7-0.7,5.7,0.1l0.9-0.9l-1.1-1.7v-2.4c2.7-1,1.4-0.2,1.8,0.3L191.9,225.2L191.9,225.2z M166.3,227.8l0.3,0.4
			c0.9,3.7,3.8,9.9,3.5,13c1.5,0.4,1,0.4,1.7,2.3h0.2l0.4,1.4l0.1-0.2l1,2.7l0.4,0.4l0.3,1.1l0.3,0.1l0.4,2l0.5-0.1l-0.5,1.3
			c1.2,0.1,1.4-1.3,0.6,1.1c1.2,0.5,0.6-0.2,1.4,1.1c0.2,0.2,0.7,1.7,0.9,2.1c0.6,1.2,1.6,2.8,2.4,4l0.4,0.1l-0.4,1.3
			c1.9,0.5,1.9,1,1.9,3.1l1.2-0.1l0.5,1.2l0.3,0.2l-0.3,1.4c1.7,0.7,2.3,1.7,2.4,3.6c2.1,0.5,2,1.4,3.5,3.5l1.6,1.3l2.6,3.8
			l11.2,11.3c3.2,2.4,5.9,5.8,9.8,7.3l0.5,0.8c2,1.1,1.8,0.6,2.2,2.4l1.5-0.2v0.3l1.9,0.8l0.1,0.3l1.1,0.4v0.3l1.5,0.2l-0.2-81.1
			l-58.5,0.1L166.3,227.8L166.3,227.8z"/>
		<path class="st3" d="M240.5,262.5c0.7-3.1,3.3-2.9,6.1-2.8c1.4,0.1,2.8-0.1,3.8,0c2.7,0.2,2.4,0.3,2.6,2.1c2.3,0,0.8-0.3,1.7,1.1
			l0.3-0.4l1.9,0.4c0.7,3.4-0.3,2.2,1.3,4.7c0.8,1.2,0.6-0.4,1,1.9c0.8,4.1-0.1,2.5-0.9,3.1c0.1,1.1,0.3,1.5-0.2,2.8
			c-1.2,3.3-0.1,1-1.5,1.7c-0.1,0.1-0.2,0.2-0.3,0.4l-2,2.5l-2-1.5c6.7,2.6-10.7,10-16.7-4.6c-1.2-3,0-4.1,1-6.4
			c3.3,0.7,0.3,2.2,2.7,0.9c-2.3-1.4-1.2-0.7-1.6-2.2c-0.5-0.7-0.8,1.1-0.5-2C239.2,263.1,238.6,263.1,240.5,262.5L240.5,262.5z
			 M250.5,250.9l-0.6,1.7l-8-0.3l-1.1,1l-4.3-3.9c0.1,0,0.2,0.1,0.2,0.1c2.6,0.8,0.7,1,1.5,0l-0.9-0.9l-0.9,0.1l-2.2-4.9
			c-1.4-1.6-0.8-0.3-0.1-1.6l0.5-0.6l0.8-1.1c-1.1-0.8-1.2-1.2-1.5-1.5c2.3-0.2,1.2-0.1,2.1,0.3c1.1,0.5,0.4-1.1,1.3,1.3l-1.8,1.1
			l1.6-0.4l1.5-1.1L237,239l1.5,0.2l-1.9-1.2c-0.5,1.7-0.6,0.5-1.3-1.3c1-1.7,4.1-4.2,5.5-4.8c-1.2,1.9-1.3,1.7-2.9,3
			c3.6-1.2,2.7-3.3,4.1-1.3c-1.3-0.4-1-0.6-0.6,0.6c-1.2-0.4-0.8-0.5-1,0.8l-0.4-0.4l0.3,0.3l-2.7,1.3l0.2-1.6
			c-1.2,0.4-1.1-0.3-1.7,1.1c-1.2,2.9-0.2,1,0.6,2l0.5-1.7c2.2,1,2.9-0.5,4.3-2.3l-0.1,0.4l0.6-0.1l0.1-0.6l-0.4,0.1l1-1h0.3l-1-0.6
			c-1.2-1.8-0.5,1.2,0.1-1s1.1,0.8,0.2-0.5c0.7,0.4,1.4,1.2,2.2,2.2l1.6-2.1c-1.8,2.3-1.8,0.6,0.4,3l-2.3,0.2l2.2,3.1l1.1-3.6
			c-1.5-1.4-1-2.7-0.3-0.9l0.8-0.7c-0.6-0.5-1.8-0.1,0.3-0.3c2-0.2,2.5,0.8,3.3,1.6l-1.2-0.3l1.3,1.2c0.1-0.2,0.3-0.4,0.5-0.4
			c0.1,0,0.3,0.2,0.4,0c0.1-0.2,0.2,0.3,0.3,0.5c-1.4,0.4-4.5-0.4-2.1-1.4c0-1.6,0.4-1.4-1.2-0.9l-0.6,2l2.6,1.2l2.2,1.1l-0.6-1.6
			c2.3,0.9,1.3,0.1,1.9,2.3l0.9-0.9l-0.4,1.9l2.3-0.7c-1.6,3.2-0.4,2-0.1,3.7c0.1,0.7-0.2,4.5-0.7,3.8c-1.4-1.9-1.3-0.2-0.5-2.9
			l-1.1,0.8l0.1,6.4l-2.1,0.9c-0.1,2.4-0.7-1.9,0.2,0.6l0.2,0.7c0-0.1,0.1,0.3,0.1,0.4c-1.8-0.5-0.7-0.1-2.1-1.5L250.5,250.9
			L250.5,250.9z M281.7,243.5h-2.2c-0.6,1.3,0.5,0.1-0.3,1.3c0,0-0.1,0.2-0.2,0.2l-3.1,2.9c-2.8,0-8,0.3-10-1
			c-2.4-1.4-4.3-3.6-4.2-6.2c-1.5-0.8-0.8,0.5-1.3-1.8c-2.2-1.8,0-4.6,0.6-6.5c1.1-3.2,4.7-6.8,7-7c0.7-0.1,0.7,0.1,1.8,0l0.8-0.2
			c1.8-0.3,0.2,0,3,0.3c2.2,0.3,1.4-0.1,3.5,1.2l0.5,0.7c2.7,0.5,2.9,0.1,3.8,2.5C283.7,236,283.8,236.8,281.7,243.5
			c2.4-0.8,4.1-6.2,5.1-9c0.8-2.2,2.8-9.3,1.9-11.8c-2.5-0.9-53.1-0.8-56,0.1c-0.8,2.6-0.9,36.9-0.3,40.7c1.3,8.6-1.6,33.7,0.3,39.8
			C242.3,304.3,282.3,259.2,281.7,243.5L281.7,243.5z"/>
		<path class="st4" d="M160.6,180.6l0.2,1.4c1.4-0.6,4-2.9,5-1.3c1.1,1.9,0.2-1.1-0.1,1.1c0,0.1,0,0.3,0,0.4c0,0.1,0,0.3,0,0.4
			l1.7,0.9l8.3,2.3c0.7,2.2,1.1,4.7,1.7,6.9c0.6,2.2,1.7,4.6,2.3,6.9c1.2,0,1.1-0.3,0.6,0.7l0.7-3c-0.1-0.2-0.2-0.6-0.3-0.5
			l-1.9-10.3c0-0.6,0.2-1.1,0.2-1.7c-0.8-22.2,1.2-3.8,2.3-17.6c-1.8,0.4,0.1-0.8-1.1,0.6c-1.5,2-0.2,0.5-0.2,0.5v0.4
			c-1.2-1-0.6,0.2-1.2-2.4c-3.8,0.6-0.1,0.8-2.2,0.6c-1.2-1.6-0.7-0.4-0.7-2.6c3.1,0.8,1.2,0.5,3.4,2.4c3.1-1.9,0.9-1.7,3.8-3.4
			c1.6,0.9,0.7-0.1,1.2,1.5l0.7,0.2c-0.9-3.1-0.3-1,0.2-1.8c2.3-1,1.1-2.7,1.9-5.2l1.7-0.3l0.4,0.7c2.1-1.1,0.8-1.1,2.7-0.9
			c0.8,2.4,0.8,4.9-1.8,6c-0.1-2.1,0.1-3-0.8-4.6l0.3,1.2c-1.2,1.4-2.2,3.8-2.1,6c2.7,0.1,2.1,0.1,3.5-1.6h0.6v0.6
			c0.4-0.2,1.1,0.5,0-0.6l0.8-1.5c0.6,1.5,0.6,1.3,2.3,2.2l0.7,0.6l0.8-0.6l1,2.1l0.9,0.6c0.4-2.7-0.1-2.2,1.6-4.1
			c1,1.9-0.3,1.9,0.5,4c0.7-2.4-0.5,1.7,0.1-1.1c0.2-1.1-0.2-0.5,0.6-1.4c0.8,2.4-0.2,1,1.8,1.9c2.9,0.1,3.1-0.4,5.5-0.5
			c2.5-0.1,3.7,0.4,5.9,0.7c1-3.1,0.3-1.1-1.7-3.1c2-3.7-1.2-3.9,1.5-7c2.4,0,1.8-0.3,2.7,2l0.1,0.7l2.4-0.5c0.6-2.9,2-3.1,1.7-6
			l-2.5-0.7l-1.3-0.4l1.4-0.5c-0.1-2.2-0.7-1,0.4-2.7c-1.9-0.5-0.3,1-2.8,0.1c-0.2-0.1-2.9-1.5-3.2-1.6l2.5-2.4l-10.5-0.3l-14.9-0.5
			l-3.3,0.3l-0.2,2.1c-2.7-2.4-5.8-2.1-7.1,0.9c1.2,1.6,2.4,1.7,4.4,3.7l-0.6,1.1c-1.9,3.6,1.8-0.2,0,2.5l-2.2-1.3
			c1,4.7,3.3,0.6,2.8,3.9l-5,0.6l2.9,3.1c-3.2,1.2-1.7,0.7-4.2,2.4l-1-1.8c1.9-1.2,1.2,1,2.7-2.4l-3.6-0.4c-0.1-1.7,0.2-4.3,1.8-4
			c-2-1.8-1.4-1.7,0.3-2.7c0.8,2.1-0.4,3,2.4,5.5c3.3-2.4,0.4-1.4,0.6-3.7c0.2-2.7,1.2-1.2,0.9-4.6c-3-0.9-3.4-0.2-6.2,1.3
			c-1-1.7-0.3-1.4-2-1.9l0.4,1.2l-0.9,1.3c0.1,0.6,1.1,2.6,1.6,3.4l-3.4,1c0.2-3.2-1.9-1.5,0.7-2.5l-1-1.9c0.5,0,0.2,0.1,1-0.3
			l-1-1.8l1.5-0.7c-1.1-0.8-0.4-0.3-1.4-0.9c-0.1-0.1-0.3-0.2-0.4-0.2l-2-0.6c-0.1-0.2-0.4-0.1-0.6-0.1c0.6,2,1.4,1.6,1.5,1.6
			l-1.1,1.2c0.7,1.7,0.9,0.6,1,3.4l-3.9-2.1c1.9,0.1,0.1-0.1,3.3,1.5c-1.3-3.7-1,2.1-1.5-3.8c-1.1,2.1,0.2,1-1.4,1.8
			c0.2-1.8,0.6-4.1,1.4-5.6l-3.7-0.1c-0.4,1.6-0.4,3,0.3,5l-2.4,0.6c1.3,4,1.4,1.3,1,3.1c-0.6,3-1,5.8-0.5,8.9
			c1.9,1.2,0.6-0.8,1.5,0.7l-1.8,0.9l-0.1,4.5l-0.3,0.4l0.4,2.4l2.9-0.5l0.4,0.2l1.1-1.2l0.9,1.3c3.7,2.8,3.9,2.9,8.5,5
			c-1.8,1.2-4.1,0-7.7-1.4l0.7,1c-5.1,0.3-2,0.6-5.9-1.4c-1,1.2-0.8,1.8-0.8,2.7C161.2,179.7,161.4,179.7,160.6,180.6L160.6,180.6z
			 M161,173.3l-0.3,1.1c1.6-0.3,0.8,0.4,1.6-0.9L161,173.3z M201.6,153.1c0-2.1-0.7-2.4,0.1-2.9l-1.5-1.2c3.4,0.1,1.2,0.1,3.9,1.7
			l-2,0.3l1,1.4c0.4,1.1-0.1,1.4-0.7,3.3l2.1,1.1c-3.2,1.4-1.7,1-0.7,3.4c-3.8,0-1.1-1.5-4.9,0.8l1.6-1.6c-1.7,0-0.8-0.2-2.6,0.2
			c2.6-1.8,0.4-0.1,0.5-1.7c0.1-1.4,0.5-1.2,0.7-2.5l0.2-2.5c0.2-1,1.1,0.4,0-2.2L201.6,153.1L201.6,153.1z M196.5,153.8
			c-4.1-0.1-2.3-3.6-2.6-4.9c-0.2-1.1-1.3-1,0.4-4c4.1,5.8,0.6,2.9,3.5,6.5c-2.4-0.2,0.1-0.8-1.7-0.3L196.5,153.8z"/>
		<path class="st4" d="M244.8,175.9l3.8,1.1c-2.5,0.8-2.3-0.3-4,2.4c-0.8,1.3-1.4,2.6-2.3,4.2l1.5,0.4l6.5-0.1l0.5,4.9l2.4,0.3
			l-0.1-0.6l-2-0.5l0.2-5.6l-0.4-4.2l-2.2-0.8c1.8-0.1,1.6-0.1,2.7-1.1l0.4-0.9h1.1l1.2,0.3c1.8-1.4,2.1-1.1,4.4-1.3
			c2.1-0.2,1.5-0.8,3.3-0.1l-5.7,3.3l-0.8,0.3l0.1,7.3l-0.6,3.7l0.2,0.7c1.6-1,1-2.5,1.1-4.8c3.3,0.6,6,3.1,9.1,4.2
			c8.4-4.7,6.1-4,16-4.4c-0.4-2.6-1.5-4.4-3.2-6.5c-3.6,0.8-7.3,2.2-10.8,3c-2.9,0.7-7.2-1.2-10.5-1.7c2.9,0.2,6.2,1.9,9,1.8
			c2.6-0.1,21.7-6.1,24-7.2c-31.7-8.7-20.7-9.6-53.6-0.6C238.2,174.8,242,175.5,244.8,175.9L244.8,175.9z"/>
		<path class="st4" d="M214.2,190.3c0.9-3.6-1.2-3.3,1.5-4.4l-3.6-0.4c0.3,3.2,1.5,3.2,0.4,5.2c-3.1-1.1-3.5-4.7-3.2-7.7l3.7-0.5
			l-0.6-1.6l-0.7,0.2c-0.7-1.8,0.9-1-2.6-0.3c-4.3,0.8-4.8-1.8-5.6-4.1c2.8-0.6,3.1-0.6,6,0l0.1-0.3c-0.9,0.2-0.6,0.3-0.5-0.7
			l-0.6-0.7l-5.1-2.2l-0.6-2.6c-1.1,2.1,1,3.9-2,6.1c-1.8-3.1,0.8-2.9,0.1-6.2l-1.1,3.2l-0.4,5.2l0.6,1.3c-1.5,1.2-2.1,1.3-3.9,0.7
			c-0.3-2.1-0.3-4.2-1.7-5.6c-0.9-0.8-1.2,1-0.7-1.6l-0.5-1.2l0.5,4.4c-0.3-2.1-0.7-1.6-2.2-2.3l0.1,0.1c1.1-0.2,0.2,2.2,0.8-0.3
			c0-0.2,0.3-0.1,0.4-0.2c-3-2.9-2.5,0.3-3.2-3.1l-1.4,0.1c0.4,0.9,0.4,0.6-0.7,0.5c-3.8,1.4-3.6,3.2-3.2,7.2l11.1,3.4
			c2.4,0.5,3.5,0.9,5.7,1.7s4.3,0.8,5.2,2.4c-2.7,1.2-19-6.1-23.5-6.4c-0.4-1.4-0.7-1,0-1.3c0,0,0.1,0.1,0.1,0.2
			c-0.9-0.5-2.4-1.1-1.9-1.8c0.5,1,1,7.8,1.1,9.5l-0.4-6.1c2.8,0.2,3.7-0.3,3.5,2.8c1.2,3.8,0.3,8.2,6.5,8.4
			c0.4-1.4,0.7-2.8,1.9-4.3l1.1-0.4c5.9-0.6,3.6,1,5.7,4.2c1.6,2.4,3.9,1.7,4.9,4.2l1.6,1.5c2.3,2.2,0.6,1.9,3.2,4.4
			c1.9,1.3,1,2,3.2,4.5c1.7,1.8,1.3,2.3,3.4,4.1l1,2.4c3.5,2.6,1.6,2.4,5.8,1.5c0.4-3.5,1-9.7,0.2-13.1l-2.4,0.2l-0.4-4.2l-1.8,0.2
			c-0.1,0.1-0.4,0.1-0.4,0.3c-0.1,0.1-0.4-0.1-0.5-0.1c-0.2-0.1-0.3-0.3-0.5-0.5l0.5-0.1c-2,1-0.7,0.9-0.1,3.7
			c-6.1-2.4-6.4-3.6-10.8-6.8l-3.5-2.5c3.2-2.6,4.6,5.9,11.9,4.9C215.2,193.1,214.8,193.3,214.2,190.3L214.2,190.3z M216.9,195.5
			l-1.1,0.3l1.6-0.6L216.9,195.5L216.9,195.5z"/>
		<path class="st5" d="M169.8,203.6l0.4-0.1l0.8-0.2L169.8,203.6L169.8,203.6z M171.5,204h-0.2H171.5z M181.3,209.1l0.9-0.4l0.7-0.6
			l0.4-1l-0.1-0.4l-2.9-6.6l-0.6-0.7c-0.6-2.3-1.8-4.7-2.3-6.9c-0.6-2.2-1-4.7-1.7-6.9l-8.3-2.3l-5.4-1l0.7,28.7l0.6,1.3L163,214
			l16.8-0.3l0.4-2c-2.1-0.8-4.7-2.9-6.8-4.2c-2.8-1.7-5.7-2.4-6.1-5.5l0.4-1.6c3.2,2.8,1,1.8,2.4,2.2c1.2,0.4,2.4,1,3.8,1.9
			C175.1,205.2,180.6,208.5,181.3,209.1L181.3,209.1z"/>
		<path class="st0" d="M314.3,259.1c-0.6-2.4-1.3-2.5-2.4-4.5c-1.1,0.9-0.2,0.5,0.9,2.3c0.4,0.6,0.6,1.4,0.8,1.7
			C314.4,260,313.5,259.7,314.3,259.1L314.3,259.1z M315,260.8l-0.2-0.9l-0.4,0.9H315L315,260.8z M316.8,265.8l-1.3-4.3
			c-1.1,0.8-0.5,0.9-0.1,2.4C316.1,266.1,315.9,266.2,316.8,265.8z M319.9,273.6l-2.6-7.4c-1.3,1.1,0,2.8,0.6,4.4
			c0.3,0.7,0.4,1.5,0.8,2.3C319.9,275.3,318.9,274.2,319.9,273.6z M320.5,275.4l-0.1-1.4l-1,1.5L320.5,275.4L320.5,275.4z
			 M321.2,276.8v-1.2l-1,1.9L321.2,276.8z M323,281.5l-1.4-4.3c-1.6,1.4-0.2,2.2,0.4,4.5C323.1,282.7,321.8,282.2,323,281.5z
			 M324.2,284.7l-0.8-2.7c-0.5,1-1.1-0.7-0.5,2C323.5,287.2,324,284.8,324.2,284.7z M325.9,289.8l-1.3-4.7c-1.6,1.5-1,0.7-0.3,2.8
			C325.6,292,325.1,290.2,325.9,289.8L325.9,289.8z M326.5,291.6l-0.2-1.3l-0.9,1.3C326.7,292.9,325.5,292.2,326.5,291.6
			L326.5,291.6z M326.8,295.8v-3.6C325.7,293.8,325.8,294.4,326.8,295.8z M305.3,306.1l9.1-8.2c2.1,0.8,3.3,3.1,5,4.6
			c3.6-0.5,6.2-2.7,6.9-6.1c-0.9-1.3-1,1.4-2.1,2.9c-1.1,1.6-2.9,2.1-4.9,2.4c-1.7-1.6-4.4-5-5.9-7.2s-4.7-5.1-6.3-7.2
			c-4.8-6.3,8.6-15,1.5-19.1c-1,2.6-0.1,0.2,0.1,2.3l-2.5,3c-1.5-14.7,8.3-2.8,8.3,1.3c0,3.4-2.5,9.4-5.9,9.8
			c-1-2.4,0.6-0.9-1.1-3.1c-2.3,4.6,3.8,7.9,7.3-3c1.2-3.8,1.9-14.4-1.6-16.7c-0.1,2.4,1.4,5.9,1.4,9.4c-1.9-2.3-3.4-6.5-6.5-6.3
			c-4.6,0.2-3.6,7.1-3.4,10.2l-2.5,2.4c-1.6,1.7-2,0.7-3,3c2-0.5,2-1,4-2.7l5.8-5.8c0.6,3.9-5,7.6-4.2,13.8
			c2.1,3.7,6.3,7.1,8.6,11.1c-3.4,4.5-7.3,7-8,8.1C304.2,306.9,305,305.5,305.3,306.1L305.3,306.1z M302.5,308.8
			c0.7-1.3,0.1-0.3,1-0.9l1.1-1.6c-1.7,0.6-2.5,1.3-3.5,2.8L302.5,308.8L302.5,308.8z M299.3,311.2l1.9-1.3c-0.9-0.6-0.3-1-1.6-0.2
			C298,310.6,299.2,310.9,299.3,311.2L299.3,311.2z M296.8,312.9l1.1-0.8l0.7-0.4c-0.6-0.8,0.4-1.1-1.4-0.2
			C294.9,312.8,296.7,312.8,296.8,312.9L296.8,312.9z M291.1,316.5l5.2-2.9c-1.3-1.1-1.3-0.7-3.1,0.8
			C291.9,315.4,290.8,315.7,291.1,316.5L291.1,316.5z M289.1,317.7l1.6-0.6c-0.9-0.5,0.7-0.9-1.2-0.3
			C287.2,317.6,289.1,317.7,289.1,317.7z M288.1,318.3l0.4-0.1l-0.9-0.4L288.1,318.3L288.1,318.3z M281.9,320.2l1.9,1.6l2-1.6
			c0.2,3-0.7,4.6,0.9,6.8c0.2-1.8,0.1-2.8,0.2-4.5c0-0.9,0-1.4,0.2-2.3c0.5-2.2-0.6,0,0.6-1.2C286.2,317.5,284.7,319.8,281.9,320.2
			L281.9,320.2z M286.1,330.4v-2.3l-0.3-0.7C285.1,330.8,285.1,328.5,286.1,330.4L286.1,330.4z M285.3,331.7l0.3-1
			C284.5,328.6,284.8,330.7,285.3,331.7z M284.7,332.8l0.2-0.6C284.9,332.2,283.3,329.9,284.7,332.8z M279.8,338.6
			c2.3-1.7,3.5-2.5,4.6-5.2c-1-0.1,0.1-0.5-1.1,0.5c-0.5,0.5-0.9,1.1-1.4,1.7C279.7,338,278.9,336.9,279.8,338.6L279.8,338.6z
			 M272.9,342.2c2.8-0.6,4.2-1.7,6.7-3c-2.3-0.9-0.2-0.4-3.6,1c-0.3,0.1-2.2,0.8-2.2,0.8C271.5,342.2,272.5,341,272.9,342.2
			L272.9,342.2z M269.9,343.5l2.7-0.9c-1.2-0.9,1-1.1-1.8-0.5C267.7,342.8,269.8,343.2,269.9,343.5L269.9,343.5z M263.9,334.3
			l-7.5,2.9l10.1,0.8l-0.3,6.8l3.3-1c-2.3-1.5-0.4-0.4-2.4-0.7l0.5-6c-3-1.1-2.9-0.4-5.7-0.6C264.4,334.5,264.5,336.3,263.9,334.3
			L263.9,334.3z M265.2,333.7L264,334C267,335.4,265.5,334.9,265.2,333.7z M267.1,333.7l1-0.1c-0.1-0.1-0.3-0.6-0.3-0.4
			c0,0.1-0.3,0-0.3,0C267.4,333.3,267.2,333.6,267.1,333.7l-0.7-0.2l-1.1-0.1C266.8,334.4,265.6,334.6,267.1,333.7L267.1,333.7z
			 M264.6,329.4l5.8-2l0.1,1.3c1.9,1.4,1-0.6,2.1-1.9l6.8-3.5c4.2-1.9,3.3-0.8,1.8-2.5c-2.4,2.4-14,6.2-17.8,8L264.6,329.4
			L264.6,329.4z M270.2,329.9l0.5,0.7l-0.5-1.5V329.9L270.2,329.9z M207.9,333.6c10,1,19.3,2.6,29.5,1.4c4.5-0.6,9.2-1.1,13.7-2.2
			c3.6-0.9,9-2.4,12.8-2.9c-1.7-1.8-7.3,0.8-12.5,1.8c-12.1,2.4-16.8,3-29.3,2.4C216.5,333.8,209.8,331.8,207.9,333.6L207.9,333.6z
			 M196.2,331.1l10.7,2l1.4-0.4c-2-0.6-4-0.8-6-1.3C199.6,330.7,198,329.6,196.2,331.1L196.2,331.1z M191.4,329.7l3.9,0.7l1.3-0.3
			l-3.7-1.1L191.4,329.7z M180.3,323.9c-2.3-0.6-1.3-0.4-2.9-0.3c1.7,1.8,2.9,1.5,4.9,2.6c3,1.7,1.3,3.1,3.3,2.9l0.3-1.6l5,1.8
			c1.7-1.3,0.4-0.7-1.7-1.5c-1.1-0.4-2-0.9-3.1-1.4C184.1,325.6,182.1,324.9,180.3,323.9L180.3,323.9z M186,330.4
			c0.5,2.6,3.9,4.1,6.4,5.2l0.4-1.1C187.5,333.3,189.2,332.2,186,330.4l0.1-1C184.7,330.8,185.3,329.9,186,330.4L186,330.4z
			 M173.6,321.7c-0.6-1.4,0.3-0.8-1.9-1.9c-3.4-1.6-1.5-0.7-2.6,0.3l0.4,6c1.5-2.1,1-2.6,1-5.4C172.5,321.7,171.5,321.7,173.6,321.7
			c0.2,0.4-0.9,1,1.7,1.6c3.2,0.6,0.5,0.9,2.7-0.8C174.7,322.2,176.9,321.6,173.6,321.7L173.6,321.7z M170,328l1.3,5.4
			c0.9-2,0.4-0.6-0.1-3c-0.4-1.5-0.6-2.7-0.8-4.3L170,328L170,328z M174.1,337.2l1.2,0.2c-0.7-1-1-1.4-1.7-2.3
			c-2.1-2.4-0.2-1.9-1.9-1.3L174.1,337.2L174.1,337.2z M175.8,338.8l2.2,1.4c0.9-1,0.9,0,0.5-1.4l-2.6-0.9L175.8,338.8z
			 M179.2,340.8c0.3-1.6,0.5-0.9-0.9-0.2L179.2,340.8z M180.4,341.5c0.3-0.9,1.8-1.6-1.1-0.2L180.4,341.5z M182.1,342.2
			c1-0.9,0.8-0.2,0.2-1l-1.6,0.7L182.1,342.2L182.1,342.2z M185.2,343.5c0.5-1,1.6-0.3-0.4-1.1c-2.6-1.1-1.7,0-2.3,0.3L185.2,343.5z
			 M187,344.1l0.5-1.1l-2,0.8L187,344.1L187,344.1z M198,337.7l0.8-1.3l-4.3-0.7c0.9,0.9-1.4,0.2,1.6,1.3l-3.7,0.1l-3.2,0.2
			c-0.9,2.5-0.1,3.3,0,5.9c-0.7,0.6-0.9,0.6-2.1,1.3l3.1,0.5c0.3-3.3-0.9-3.8-0.1-7L198,337.7z M297.5,281.6l-1.9,2.1
			c1.5-0.3,1.2-0.1,2.3-1.2c1.8-1.8,0.9-1.1,0.6-1.8L297.5,281.6L297.5,281.6z M290.6,287.3l-0.2,0.4c-1,0.1-0.7-0.2-0.9,0.9
			l0.9-0.9c2.8-0.4,1.5-1.5,4.9-2.9l-0.3-1L290.6,287.3L290.6,287.3z M302.7,275.3l-0.4-1.4l-1.1,0.6L302.7,275.3l-0.3,1
			C304.5,275,303.5,275.9,302.7,275.3z M298.4,272.5c1.3,0.5,0.6-0.3,1.2,0.8l1.4,0.5l-1.1-1.8L298.4,272.5L298.4,272.5z
			 M292.8,268.8l-0.9,1c3.2,0.1,3.9,0.3,6.3,2.2l0.6-1.2C296.2,270.2,295.8,269.3,292.8,268.8L292.8,268.8z"/>
		<path class="st6" d="M232.1,145.5l0.5-0.3l46.5-0.2c2.9,0.3,11-0.6,13.2,0.5c2.5-1.6,1-0.4,1.4-2l-63.3,0.1l-0.5,11.1
			c2.5-1.8,1.9-0.9,1.9-4.5C231.8,148.4,231.5,147.1,232.1,145.5L232.1,145.5z M292.1,208.4l-0.8,5.3H232l-0.2-59.9
			c-2.2,2.9-1.3,9.7-1.4,15.3c-0.1,13.1-0.5,28.9,0,41.8c0.2,5,0.7,3.9,7.4,4.1c9.9,0.4,50.3,0.5,54.7-0.5
			C293.5,211.3,294,211.1,292.1,208.4z M292.5,179.3l-0.2,25.1c-0.5,3-0.8,3,1,4.9c1.2-6.2,0.8-53.9,0.9-64.7
			c-2.6,2.6-1.7,0.8-1.7,8.6C292.5,159.4,291.9,175.1,292.5,179.3L292.5,179.3z"/>
		<path class="st0" d="M185.2,182.9c0.1-3.1-0.7-2.5-3.5-2.8l0.4,6.1c-0.1-1.7-0.6-8.5-1.1-9.5c-0.5,0.8,1,1.3,1.9,1.8
			c0-0.1-0.1-0.2-0.1-0.2c-0.7,0.3-0.4-0.1,0,1.3c4.6,0.3,20.9,7.5,23.5,6.4c-0.9-1.6-2.9-1.6-5.2-2.4c-2.2-0.8-3.3-1.2-5.7-1.7
			l-11.1-3.4c-0.4-4-0.6-5.8,3.2-7.2c0-0.9-0.2-0.8,0.7-0.5c0.3-2.5,2.9-2.9,3.2-5.4c0-0.2,0.1-0.3,0.2-0.4v-0.6H191
			c-0.8,2.2-1,2.5-3.8,1.8c-0.3-2.1,0.5-4.9,2.4-6.2l-0.3-1.2l-0.2-0.5l-0.4-0.7l-1.7,0.3c-0.8,2.5,0.4,4.2-1.9,5.2l-0.2,2.4v-0.6
			l-0.7-0.2l0.1,1.4c-2.4,1.4-2,2-2.5,4.3c-0.7,3.6,0.3,0.3-2.5,3.5l1.5,23.1l-0.7,3c0.5-1,0.5-0.6-0.6-0.7l0.6,0.7l2.9,6.6
			c1.7,0.6,5,3.5,6.3,5.2l0.6,1c3.4,0.6,5,2.3,9.6,0.7c0-4.8-0.3-2.8-3.2-5.2l-0.8-0.5l-0.9-0.3c-1.1,0.5-0.8,0.6-0.6-0.6
			c-4.7-3.6-4.3-5.1-6.9-9.4c-1,1.3-2.2,1.5-0.9,3c0.6-3.7-0.4,0,3.5-6.5C186,187.2,185.9,193.5,185.2,182.9L185.2,182.9z
			 M190.6,214.2c1.2-1.1,1.5,0.3-0.3-1.7L190.6,214.2z"/>
		<path class="st7" d="M215.2,211.9c-2.1,1.9-0.3-0.3-0.3,2.3c-4.4,0.5-8.9-2.6-13-4.3l-0.8-0.5c0,1-0.2,0.8,0.8,0.5
			c-1.3,1.1-0.1,1.3-3,0c-1-0.5-1.1-0.8-2.5-1.4l-0.8-0.5c-0.1-1,0.1-0.8-0.9-0.3c0.4-0.9,0.5-0.6-0.6-0.6c-1.6-4.3-4.7-3.1-3.8-9.7
			c0.5-3.8,3.1-6.2,4.8-9.4c-1.7,0.1-1.3,0.5-1.5-1.1l1.1-0.4l-1.1,0.4c-1.2,1.5-1.5,2.8-1.9,4.3c-6.3-0.2-5.4-4.5-6.5-8.4
			c0.6,10.6,0.7,4.3,4.6,11.3c-3.9,6.5-2.9,2.8-3.5,6.5c-1.3-1.5-0.1-1.8,0.9-3c2.6,4.3,2.3,5.9,6.9,9.4c-0.2,1.2-0.5,1.1,0.6,0.6
			l0.9,0.3l0.8,0.5c3,2.4,3.2,0.3,3.2,5.2c-4.6,1.6-6.3-0.1-9.6-0.7l-0.6-1l0.6,1l0.3-0.5c1.7,2,1.5,0.7,0.3,1.7
			c-1.1-0.6-1.1-0.4-2.3-0.1c-1.5-2.2,0-0.7-1.9-1.3l-1.2,1.3c-3.7,0-4,1.5-4.3-1.7c1.7,1.9,0.8,1.6,3.8,1.3c-0.3-0.9,0.5-2-2.9-3
			l-10.2-6.8h-0.2l-1.1-0.5l-0.4,0.1l-2.5-1.6c0.4,3,3.3,3.7,6.1,5.5c2.1,1.3,4.6,3.4,6.8,4.2l-0.4,2c1.1,2,1.4,1.6,4.4,1.5
			c1.7-0.1,3.5-0.2,5.3-0.3c3.8-0.1,7.8,0,11.7-0.1c7.4-0.1,16,0.4,23.1,0c1-2.4,0.8-63.9,0.4-71.1c-3.8,0-17.5-0.8-19.6,0.9
			l10.5,0.3c2.8-0.1,2.6-0.7,5.1,0.1l2-0.2l1,0.5c0.2,3.7,0,7.4,0.2,10.9c0.1,2.2,0.4,9.4-2,9.4l-0.9,2.3c1.2,1.8,0.8,0.2-0.1,1.6
			l-2.2-1.5c-0.5-1.4-5.2-1.2-4.6-9.2l1.8,0.9l1.1-0.5c-1-2.3-0.3-1.9-2.7-2c-2.7,3.1,0.5,3.3-1.5,7c2,2,2.7,0,1.7,3.1
			c1.7,3.7-1.7-1.4,0.8,0.9l0.8,0.5c0.1-0.1,0.3,0.2,0.4,0.3c1.2-0.4,1.2-0.7,0.8,0.4c1.4-0.5,1.3-0.8,0.7,0.5
			c1.4-0.5,1.1-0.7,0.6,0.7l1.8,1.8h3l0.4,0.2l0.2,0.8v1.4l-0.2,0.3v1.1l0.4,0.9c-0.7,1.7,0.4,1.4-1.2,1.3c3.2,3.4-0.9-2.9,0.7,1
			c0.6,1.6,0.5,4,0.2,6.9l-1.1,0.9l-0.5-0.2l0.7-0.1l0.6-0.1v2.8v4c-3.3-1.1-2.4-3.7-6.8-4.3c0.2,2.4,1.1,3,2.8,4.8v2.2l-1.4-0.4
			c0.2,0.2,0.4,0.4,0.5,0.5s0.4,0.2,0.5,0.1c0.1-0.1,0.3-0.2,0.4-0.3l1.8-0.2l2.4,0.4l0.3,3.6c0.8,3.4,0.2,9.5-0.2,13.1
			c-4.3,0.9-2.3,1.1-5.8-1.5l0.4,1.1L215.2,211.9L215.2,211.9z M163,214l0.1-1.6l-1.3,2.3l18.4,0.4c-2.4-1.1-9-0.1-13-0.2
			c-0.2,0-2.4-0.1-2.4-0.2C163,214.4,164.2,215.1,163,214L163,214z M162.6,211.1l-0.7-28.7l5.4,1l-1.7-0.9c0-0.1,0-0.3,0-0.4
			c0-0.1,0-0.3,0-0.4c0.2-2.2,1.2,0.8,0.1-1.1c-0.9-1.6-3.6,0.7-5,1.3c-1,4.4,0.3,25.2,1.2,30.3L162.6,211.1L162.6,211.1z"/>
		<path class="st6" d="M170.1,241.2c-0.5,2.7,0.4,2.8,1.4,5.5c0.2,0.6,0.8,2.1,1.2,2.6c1.6,2,0.3,0.8,2.2,1.7l-0.4-2l-0.3-0.1
			l-0.3-1.1c-1.2,0.8-0.5,0.4-0.4-0.4l-1-2.7l-0.1,0.2l-0.4-1.4h-0.2C171.1,241.6,171.6,241.6,170.1,241.2c0.2-3.1-2.7-9.4-3.5-13
			l-0.3-0.4l-1.1-4.9l58.5-0.1l0.2,81.1l-1.5-0.2v-0.3l-1.1-0.4l-0.1-0.3l-1.9-0.8v-0.3l-1.5,0.2c-0.4-1.8-0.2-1.4-2.2-2.4l-0.5-0.8
			c-3.9-1.4-6.6-4.9-9.8-7.3c-1.4-1.6-3.9-3.7-5.7-5.5c-1.9-1.8-3.7-4.4-5.5-5.8l-2.6-3.8l-1.6-1.3c-1.5-2.1-1.4-3-3.5-3.5
			c-0.1-1.9-0.7-3-2.4-3.6l0.3-1.4l-0.3-0.2l-0.5-1.2l-1.2,0.1c0-2.1,0-2.5-1.9-3.1l0.4-1.3l-0.4-0.1c-0.7-1.2-1.8-2.8-2.4-4
			c-0.2-0.5-0.8-1.9-0.9-2.1c-0.8-1.3-0.2-0.6-1.4-1.1c0.8-2.4,0.6-1-0.6-1.1l0.5-1.3c-0.3,0.2-0.6,0.3-0.8,0.6
			c-0.1,0.1-0.1,0.5-0.2,0.4c-0.1-0.1,0.4,0.2,0.5,0.3c-0.7,2.5-0.4,1,0.6,1.1c-0.2,2.2,0.4,2.7,1.7,5c1.1,1.9,1.3,3,3.1,3.8
			c0,1.7-0.5,0.4,0.4,2c0.9,1.5-0.2,0.5,1.5,1c0.3,2-0.1,1.7,1.7,2.6c-0.2,2.4-0.8,0.3,0.6,2.3c1.6,2.4,0,0.8,1.9,1.3
			c0.2,2.1-0.1,1,1.2,3l12.5,14.5l14,11.3c2.5,1.8,1.5,2.5,3.8,1.6c1.1,2.7,3.8,3.6,7.2,4.2c1.9-6,0.1-33.2,0.2-41.9
			c0-2.2,0.3-41.7-0.8-42.6c-1.3-0.5-57.7-0.5-60.3,0.3c-0.8,3.6,2.3,11.5,3.6,15.3C169.2,241.6,168.9,240.6,170.1,241.2
			L170.1,241.2z"/>
		<path class="st8" d="M174.1,337.2l1.6,1.7l0.1-0.9l2.6,0.9c0.4,1.4,0.4,0.4-0.5,1.4l0.3,0.4c1.4-0.8,1.3-1.5,0.9,0.2l0.1,0.5
			c2.9-1.4,1.3-0.7,1.1,0.2l0.3,0.4l1.6-0.7c0.6,0.8,0.8,0-0.2,1l0.3,0.4c0.7-0.3-0.3-1.4,2.3-0.3c2,0.9,0.9,0.1,0.4,1.1l0.3,0.4
			l2-0.8l-0.5,1.1l0.1,0.4c1.3-0.7,1.4-0.8,2.1-1.3c-0.1-2.7-0.9-3.5,0-5.9l3.2-0.2v-1.5c-2.5-1-5.8-2.5-6.4-5.2
			c-0.7-0.5-1.3,0.4,0.1-1l-0.5-0.3c-2,0.1-0.3-1.3-3.3-2.9c-1.9-1.1-3.2-0.8-4.9-2.6c1.6-0.1,0.6-0.3,2.9,0.3
			c-2.3-1.1-1.2,0-2.2-1.5c-2.2,1.7,0.5,1.4-2.7,0.8c-2.6-0.5-1.5-1.2-1.7-1.6c-2.1,0-1.2,0-3.2-1c0,2.8,0.5,3.3-1,5.4l0.5,1.9
			l0.3-1.9c0.3,1.6,0.4,2.8,0.8,4.3c0.6,2.4,1,1,0.1,3l0.4,0.4c1.7-0.6-0.1-1.1,1.9,1.3c0.7,0.9,1,1.2,1.7,2.3L174.1,337.2
			L174.1,337.2z"/>
		<path class="st8" d="M281.9,320.2c-0.9-0.2-0.6-0.3-0.6,0.6c1.5,1.7,2.4,0.6-1.8,2.5l-6.8,3.5c-1.1,1.3-0.2,3.3-2.1,1.9l-0.3,0.4
			l0.5,1.5l-2.6,3l-1,0.1c-1.6,0.8-0.3,0.7-1.8-0.3l-0.2,0.4c0.3,1.1,1.9,1.7-1.2,0.2l-0.1,0.3c0.5,2,0.5,0.2-2.1,2.3
			c2.8,0.3,2.7-0.5,5.7,0.6l-0.5,6c2.1,0.3,0.2-0.8,2.4,0.7l0.3-0.3c-0.1-0.3-2.2-0.7,1-1.4c2.8-0.6,0.6-0.3,1.8,0.5l0.3-0.5
			c-0.4-1.2-1.4,0,0.9-1.2c0,0,1.9-0.6,2.2-0.8c3.4-1.4,1.2-1.9,3.6-1l0.2-0.5c-0.9-1.8-0.1-0.6,2.1-3c0.5-0.5,0.9-1.2,1.4-1.7
			c1.2-1.1,0.1-0.6,1.1-0.5l0.3-0.6c-1.4-2.9,0.2-0.6,0.2-0.6l0.5-0.5c-0.5-1-0.9-3.1,0.3-1l0.5-0.4c-1-1.9-1,0.4-0.2-3l0.3,0.7
			l0.5-1c-1.6-2.2-0.7-3.8-0.9-6.8l-2,1.6L281.9,320.2L281.9,320.2z"/>
		<path class="st7" d="M281.7,243.6l-0.1-0.1c0.6,15.7-39.4,60.8-49.1,59.8c-1.9-6,1-31.1-0.3-39.8c-0.6-3.7-0.5-38,0.3-40.7
			c2.9-1,53.5-1.1,56-0.1c0.9,2.4-1.1,9.6-1.9,11.8C285.7,237.3,284,242.7,281.7,243.6L281.7,243.6z M231.5,305.7
			c11.2-3.1,31.3-24.6,37.7-34.4c5.2-8,23.5-41.7,21-49.9l-58.5,0.4c-2.1,2.9-0.6,35.3-0.7,41.9L231.5,305.7L231.5,305.7z"/>
		<path class="st9" d="M248.9,231.7h-1.4l-0.8,0.7l0.3,0.9l-1,3.7l-2.2-3.1l-1.4-1.3l-1,1l0.3,0.5l-0.5-0.3
			c-1.4,1.8-2.1,3.3-4.3,2.3l-0.5,1.7v0.3l1.9,1.2l1.5,1.2c-1.7,1-0.3,0.7-3,0.8l-1.6,0.4l-0.6,0.9c1,1.6,4,4.7,2.4,6.1l0.9,0.9
			c2.5-1,2-2.3,4.3-2.6l-2.2,4.6l1.6,0.9l8,0.3l0.6-1.7l-0.8-4.1c2.8,0.2,2.3,1.1,5.2,2l-0.1-6.4l0.6-1.6l1.3,0.9v-0.3l-4.1-0.6
			l-1.4-0.8l3.1-3.2c-0.6-2.2,0.5-1.4-1.9-2.3l0.6,1.6l-2.1,0.4l-2,2.4c0.1,1.1,0.4,0.9-0.6,0.9l2.3,3.5l-3.8,1l-1.1,3.5
			c-1.7-3.2-1-3.5-4.9-3.9l2-2.1l-0.7-3.4c2.8,0.5,3.4,2,6.3-0.3c1.3-2.9,0.9-0.3,2.3-3.1l-2.6-1.2L248.9,231.7L248.9,231.7z
			 M251.2,233.9l-1.3-1.2l0.2-0.1c-2.4,1.1,0.7,1.8,2.1,1.4L251.2,233.9L251.2,233.9z M240.1,234.9l-0.3-0.3L240.1,234.9
			c0.2-1.3-0.2-1.1,1.1-0.7c-0.4-1.3-0.6-1,0.6-0.6c-1.4-1.9-0.5,0.2-4.1,1.3l-0.1-0.2l-0.2,1.6L240.1,234.9L240.1,234.9z
			 M241.7,232l1,0.6L241.7,232z"/>
		<path class="st10" d="M168.6,287.3l0.4-6.5c0.6,0.9,5.4,2.7,7.1,3.2c3.1,0.8,6.4,0.8,7.9,3.3c1.2-0.6,0.8-0.6,0.6,0.6l0.3-1
			l-0.2-4c0.7-1.1-0.2-0.4,0.8-0.1l0.4-0.3l2,2c-0.3-1.5-0.6-1.1-2.4-1.7c-0.7-2.8-1.1-1.9-2.4-3.8c-0.7-1-1.1-2.7-1.6-3.9
			c-3.4-9-12.9-17.7-12.9-20.7c-1.2,1.7-1.2,0.8-0.5,2.3l1.2,1c2.2,1.8,0.5,0.7,2,2.6c1,1.2,0.9,0.4,2,2.2c1.1-0.4,0.6-0.4,0.4,1
			l1.3,1.6c1.5,0,1.2-0.4,0.9,1l0.1,1l1,1.6l2.1,3.6c0.6,0.5,1.2,0.7,1.4,1.6c0.6,2.6,1.4,0.8-0.9,2.3c2,0.5,4,4.7,4,7
			c-4-1.1,0-0.9-7.9-3.1c-5-1.5,0.4-1.5-7.8-2.2l-1.2-0.2l0.9,1.8l0.3-1.6c0.4,3.2,0.6,1.2-0.7,3l0.4,8.1c-1.8-0.4-7.7-5.3-9.2-6.9
			l-1,1l11,8.6c1.7-0.9,1.3,0.3,1.1-1.2C168.2,289.3,168.9,290.2,168.6,287.3L168.6,287.3z M170.4,292.9c1.6-0.9,1.3,0.2,0.9-1.1
			c-2.9-0.7-0.7-0.3-2.1,0.7C170.7,292.5,170.2,291.7,170.4,292.9L170.4,292.9z M172.2,293.9v0.2c2-1,1.5-0.1,0.9-1.1
			C171.7,292.8,171.1,291.9,172.2,293.9z M182,299.8c1.9-1,1.9-0.2-0.3-1.6L176,295c-3-1.6-1.2-1.5-2.9-0.1
			C174.8,295.3,180.9,298.6,182,299.8z M183.2,300.5l1.6-0.8c-3.1-0.2-0.4-0.3-2,0.8H183.2L183.2,300.5z M188.2,301.4l-1.8-0.5
			l-0.2-9c-1.1,1.6-0.6,5.3-0.5,7.7l-1.7,1.6C187.4,301.2,186.3,302.7,188.2,301.4L188.2,301.4z M185.7,290.4l-0.1-1.8l-0.4,0.1
			l0.1,3.1L185.7,290.4L185.7,290.4z M191.2,302.7L189,302c-1.3,0.6-1.6,0.1,0.1,0.9C191.6,304.1,190.8,303,191.2,302.7L191.2,302.7
			z M194.5,303.8l-2.5-0.6c-0.9,0.5-1.7,0.2,0.1,0.9C194.9,305.2,193.9,304.1,194.5,303.8z M198.4,305.8c1.5,1.1,1.7,1.1,3.9,1
			l-0.1-0.2L198.4,305.8l-3.2-1.4C192.7,305.5,197.7,305.8,198.4,305.8L198.4,305.8z M157.3,280.8l-4.3-3.5c1.7-3.4,5.6-6,9.5-6.9
			l-0.2-1.1c-2.8,0.7-4.1,1.5-6.4,3.1c-1.4,1-3.2,3.8-4.5,3.6l-0.5-2.2l-1.7,0.6c-0.7-1.7-3.7-3.4-2.6-3.5v-0.6l0.6-1l-2,1.2
			c-0.6,7.4,4.5,8.3,4.7,16c-1.9,2.1-4.8,5.2-6,7.7c2.5-1.2,4.9-5.3,7-7.8c-0.1-6.1-2.7-7.1-4.5-11.8l-0.8-1.1l0.2-0.9
			c1.8-0.6,2.1,0.1,3,1.8l0.2-0.1c-0.1,1.9,2.3,2.5,3.9,4.1c0.8,0.7,1.4,1.5,2.2,2.2c2.5,2.1,1.5,1.3,2.5,0.5L157.3,280.8
			L157.3,280.8z M137.8,302.5c0.9-2,1.7-3.2,3.7-3.9l6.3,5.5l0.9,0.7c-1.3-2.5-4.8-3.9-6.6-6.9l1.9-3.3c-2.5,0.7-2.1,1.8-3.7,3.7
			C138.2,300.8,137,300.8,137.8,302.5L137.8,302.5z M149.9,306.1l-0.2-1l-0.9,0.2C149.1,305.6,149.6,305.8,149.9,306.1L149.9,306.1z
			 M132.2,301.6l0.8,0.4l0.6,0.6l2.5,0.6l1-0.4c-1.1-0.4-1.5-0.2-3.1-0.7C131.7,301.4,133.4,301,132.2,301.6L132.2,301.6z
			 M130.5,299.5l1,1.4c0.1-0.4,1,0.6-0.2-1C130,298.2,131.1,299.5,130.5,299.5L130.5,299.5z M129.5,296.7l-0.3-0.4l0.7,2.7
			C130.4,297.8,130.4,298.7,129.5,296.7L129.5,296.7z"/>
		<path class="st11" d="M267.3,237.9c1.8-3.1,1.5-1.1,1.4-5c2,0,4,0.1,5.8,0.1c-0.7,2.5,0.2,2.4,1.6,4.1c-2.5,2.1-1.6-0.1-3.5,2.3
			c-0.6,0.7,0.3,0.2-1.1,1.5C268,237.5,272.3,239.5,267.3,237.9L267.3,237.9z M273.2,237.7c0.1-2.1,0.1-2.1-1.6-2.9
			c-2.1,0.9-1.6,1.2-1.2,3.3L273.2,237.7L273.2,237.7z M263.4,229.8l-1.1,1.1l3,2.7c1.1,0.9,0.9-0.4,0.7,1.6l-4.4,1
			c0.4,2.3,1.3,3,2.6,4.9c-0.5,3.6,0.2,0.5-1.3,2h1.9c1.1-2.6,1-2.5,3.8-2.4c0,3.5-1,1.5-1.2,4.2l8.4,0.8c0-2.9-0.8-1.8-0.1-4.9
			c3.8-0.8,1.2-0.2,2.2,0.4l0.9,0.8l1.6-0.2c-0.7-2.5,0.1-3.3,0.6-6l-3-1.5l-1.1-0.1l0.8-0.7c-0.2-1.4-0.8-1.6,0.4-0.9
			c-0.5-1.4-0.7-1.1,0.7-0.6c-0.5-1.3-0.6-1,0.7-0.5c-0.8-2.9-0.9-1.3-2.9-2.1c-2.8-1.1-0.5-1.8-3.7-1.8c-0.3,1.9-0.1,1.5-1.3,2.7
			l-1-1.4c-1.2-0.7-1.3,1-1-1.5c-0.4,0.1-4.6,3-5.5,3.6L263.4,229.8L263.4,229.8z"/>
		<path class="st7" d="M275.5,273.7l2.2-3.7l0.1-1c-0.3-1.5-0.7-1.2,0.8-1.2v-0.1l0.3-1.1l0.9-0.7c-0.3-1.5-0.7-1.2,0.7-1.2l0.2,0.2
			l0.3-0.8c-0.3-1.4-0.6-1.1,0.8-1c1.2-0.3,0.3,0.3,0.4-1.1l0.9-0.7l0.5-0.9l0.4-0.8c-0.3-1.3-0.6-1,0.9-1l0.1,0.1
			c0.7-2.9,1-2.7,3.6-3.9v-0.6l0.1,0.1c-3.8,3.3-0.1-2.7-5.5,5.5l-13.4,21.4l1.8-0.1l0.1,1.1c2.5,1.5,3.6-1.1,6.3-1.8
			c2.6-0.6,6.6-1.1,9.1-0.5l0.2,3l-0.1,2.7l-0.2,1h0.7c0.1-4.5,0.7-14,4-17.1l0.9-1c-4.3-0.9-13.2,0.5-15,4.8
			c0.3,1.2,0.5,0.9-0.7,0.7l-0.5,0.8l-3.2,2.5L275.5,273.7L275.5,273.7z M271.4,284.6c-0.2,2-0.3,0.4,0.4,1.1c0-2.9,0.2-1.3-0.6-2.7
			L271.4,284.6L271.4,284.6z"/>
		<path class="st11" d="M244.2,266.4c2.5,0.5,1.8,1.8,4.7,0.8c1.8-0.6,0.8-1.6,3.7-1.9l-2.2,4.3l2.5,2.4c-1.5,1.2-2.8,1.1-3.7,2
			c-1.1,1.1-0.3,1.3-2.1,3.1c-2.1-4.9-1-1.2-4.7-5.3C245.6,268.4,243,270.7,244.2,266.4z M239.5,264.6c0.4,1.2,0.4,0.8-1,0.6
			l-0.5,1.2c2,0.5,2.4,0.9,3.3,2.9l-4.4,1.8c0.6,1.5,1.4,2.2,2,3.6c0.9,1.8,0.5,2.3,1,3.2l3.6-2.2c0.1,2.2,0.4,0.4-0.3,2.6
			c-0.5,1.6-0.3-0.1-0.7,2.1l9.7,0.2c0-3.2-1-2.3-0.6-4.9c3.9-0.3,1.7,1.3,4.2,1.3c0.2-2.3,0.3-6.1,1.7-7.2l-4.6-0.4l0.8-2.1
			l0.9-0.4c-0.3-1-0.3-0.7,0.8-0.4l-0.4-1.8c-3.5-0.7-2.6-1.1-5.4-2.3l-1.7,2.6l-0.5,1.1l-0.8-1.7l-1.1-1.7h-1.3
			C243,264.2,241.5,266.1,239.5,264.6L239.5,264.6z"/>
		<path class="st7" d="M190.1,144.2h-29.6c-0.6,4.1-1,22.3,0.8,24.3l0.1-4.5l1.8-0.9c-1-1.5,0.3,0.5-1.5-0.7
			c-0.5-3.1-0.1-5.9,0.5-8.9c0.4-1.7,0.3,1-1-3.1l2.4-0.6c-0.7-2-0.7-3.4-0.3-5l3.7,0.1c-0.8,1.5-1.2,3.8-1.4,5.6
			c1.6-0.8,0.2,0.3,1.4-1.8c0.5,5.9,0.2,0.1,1.5,3.8c-3.1-1.6-1.4-1.3-3.3-1.5l3.9,2.1c-0.1-2.8-0.2-1.7-1-3.4l1.1-1.2
			c0,0-0.8,0.4-1.5-1.6c0.2,0,0.5-0.1,0.6,0.1l2,0.6c0.1,0.1,0.3,0.2,0.4,0.2c1.1,0.6,0.3,0.1,1.4,0.9l1.5,0.9
			c0-0.1,0.2,0.1,0.3,0.2l-0.4-1.2c1.7,0.5,1,0.2,2,1.9c2.7-1.6,3.2-2.3,6.2-1.3c0.3,3.4-0.6,1.8-0.9,4.6c-0.2,2.4,2.7,1.3-0.6,3.7
			c-2.8-2.5-1.6-3.4-2.4-5.5c-1.7,1.1-2.2,0.9-0.3,2.7c-1.6-0.3-1.9,2.3-1.8,4l3.6,0.4c-1.5,3.4-0.8,1.2-2.7,2.4l1,1.8
			c2.5-1.7,1.1-1.2,4.2-2.4l-2.9-3.1l5-0.6c0.5-3.3-1.8,0.8-2.8-3.9l2.2,1.3c1.8-2.7-1.9,1.1,0-2.5l0.6-1.1c-2-2-3.2-2.1-4.4-3.7
			c1.3-3,4.5-3.3,7.1-0.9l0.2-2.1L190.1,144.2L190.1,144.2z"/>
		<path class="st6" d="M211,275.9l-0.8,0.3l1,0.3l-0.1,0.2c-0.1,1.1-0.3,0.8,0.9,0.8l5.7-0.9c0.4,1.4,1.3-0.4-0.2,1.9l1.1,0.1
			c0.4-1.4,0.4-0.8-0.1-1.7c-0.4-0.7-0.4,0.8-0.8-0.8c-0.1-0.3-0.4-0.2-0.5-0.4c1.8-0.5,1.2,0.2,1.6-1c-2.5,2.2-0.9,2.4-5,1.7
			c-0.5-2.7,0.8-3.4-0.4-6.1c-2.3,1.8-0.9,0.2-1.6,3.1c-0.3,1.1,0.4-0.1-0.5,1l-0.9-0.6l0.4,1.3l1.3,1.3L211,275.9L211,275.9z
			 M218.6,265.7l0.7-1.5v-2l-2.1-0.1l1,1.5c-0.9,0.8-0.8,1.3-1.6,0.9c-0.1,0-0.8-0.6-1.1-1.1l0.6-1l0.2-1.4
			c-1.2,1.2-0.7,1.2-2.7,1.1c0.6-1.2,0.7-0.4-0.3-0.8l0.2,2.4l0.9,1.9c-3.7,2.4-1.7,1.4-6.6,1.1l1.7-0.7l-2,0.1
			c-0.8,1.4,0.3,0-2.5-0.6c-1.1,1.1-2.8-0.9-0.1,1.6c-3.4-0.6-2.3,0.7-2.1-1.6l2.2,0.3l1.6-4.6c-2.5,1.8-1.2-0.1-3.4-0.1
			c-2.5,0-0.2,0.5-1.6,0.5c-0.1,0-1.3-0.5-1.9-0.5c0,5.5,2,2.3,0.7,8.7c-1.5,7.2-0.2,1-0.7,8.3l5.5,0.3l0.1-0.5l1.1,0.1l-0.2-1.5
			l-1,0.1l0.2,1.4h-2.9l-0.3-3.3c0.1-1,0.3-0.3,0.3-1.9l0.7-3.3c0.9,2.3,0.2,1.6,0.4,3.2l1.2-2.4c0.9,2.2-1,0.6,1.3,2.2l-2.5,0.3
			c0.2,0.2,0.8,0.4,0.9,0.5l-1.6,1.2c1.9,0,0.8-0.2,1.6,0.3l1.7,1.1l0.2-1.3c1.2,1.7,0,1.9,0.5,2.6c0.8,1.2-0.5,0.2,1,0.3
			c0.3-0.3,1.2,0.7,0.7-1.6c-0.3-1.4-0.1-0.7-1.2-1.1l3-1.1l-0.7-1.6c1.1-1,1.2-1.2,2.2-2.2c2.5,1.3-2.3,0,1-1.2
			c-2.3,0.1-2.1,0-3.3-1.1c3.5-0.5,2.3,0.3,5.5,0.2l0.2,2.8c3.7-2.3,2.3-4.1-0.4-4.7C217.6,264.8,215.4,265.1,218.6,265.7
			L218.6,265.7z M210.7,273.6l0.7,0.7C211.6,273.2,211.8,273.4,210.7,273.6z M207.2,271.6c4.5,0.8,2,0.9,2.3,1.8
			c-2.8-0.8-1.8-0.8-3-2.7L207.2,271.6L207.2,271.6z M206,263.5c-4.2,1.1-4.8,0.1-4.2,0.1c0.7-0.6-1.2-0.8,1.9-0.9
			C204.5,262.8,205.4,263.3,206,263.5L206,263.5z"/>
		<path class="st8" d="M168.6,287.3c0.3,2.9-0.4,1.9,1,3.1c0.2,1.5,0.7,0.3-1.1,1.2c0,1.3-0.4,1.1,0.8,0.8c1.4-1-0.8-1.4,2.1-0.7
			c0.3,1.4,0.7,0.2-0.9,1.1l1.7,1c-1.1-2-0.5-1.1,0.9-0.8c0.6,1,1.2,0.1-0.9,1.1c0,1.3-0.3,1.1,0.8,0.8c1.8-1.4,0-1.5,2.9,0.1
			l5.7,3.1c2.2,1.4,2.3,0.6,0.3,1.6c0,1.3-0.3,1.1,0.8,0.8c1.5-1.2-1.1-1,2-0.8l-1.6,0.8c0,1.2-0.3,1,0.8,0.6l1.7-1.6
			c-0.1-2.4-0.5-6.1,0.5-7.7l-0.4-1.5l-0.4,1.3l-0.1-3.1c-1.1,0-0.9,0.3-0.7-0.7c-1.2,0.3-1.1,0.5-0.6-0.6
			c-3.2,0.5-10.6-1.1-14.4-1.5L168.6,287.3L168.6,287.3z"/>
		<path class="st8" d="M271.6,287.2c-1.5,4.2-1.4,7.3-1.1,11.9c1.3,0.5,0.4,0,1.3,0.3c1.1,0.4-0.2-0.5,1.3,0.6l0.4-0.7
			c-0.9-1.1-1.1,0-0.6-1.1c3.2-0.7,2.6-2.7,4.5-0.6c1.1,0.1,0.9,0.4,0.9-0.7c-1.4-1-1.4,0.1-1-1.1c2.2-0.6,8.4-4.8,9.8-6.3l-0.2-2.6
			l0.2-1c-3.1-0.2-5.9-0.3-8.8,0.4C277.5,286.4,271.2,288.4,271.6,287.2L271.6,287.2z"/>
		<path class="st7" d="M256.7,277.2c1.5-0.7,0.4,1.6,1.5-1.7c0.5-1.4,0.2-1.7,0.2-2.8c0.8-0.6,1.7,1,0.9-3.1c-0.4-2.3-0.3-0.7-1-1.9
			c-1.6-2.5-0.6-1.4-1.3-4.7l-1.9-0.4l1.2,2.6c-0.3,1.9,0.3,0.7-1,1.3l-0.8,0.4l-0.9,0.4l0.9,1.8c0.6,0,1.2-0.1,1.9,0
			c2,0.4,0.1-0.4,1.1,0.7c1.7,1.1,0.6,0,0.9,2.9c-1,0.5-0.6-1.4-1.6,1.8C256.6,275.4,256.7,276.4,256.7,277.2l-0.9-0.3
			c-2.5,0-0.3-1.6-4.2-1.3c-0.4,2.6,0.6,1.7,0.6,4.9l-9.7-0.2c0.4-2.2,0.3-0.5,0.7-2.1c0.6-2.2,0.3-0.4,0.3-2.6l-3.6,2.2
			c-0.4-0.8-0.1-1.3-1-3.2c-0.7-1.4-1.5-2-2-3.6l4.4-1.8c-0.9-2.1-1.3-2.4-3.3-2.9l0.5-1.2c0-1.2-0.3-0.9,1-0.6l1-2.1
			c2.5-0.5,1.3-1.2,4.5-1.5l0.3,1.7l1.1,1.7c1.3,0.4,0.7-0.1,1.3,0.6c1.4-5.3,1.4-3.7,5.3-3.1l0.2,1.2l1.5-0.1
			c-0.9-1.4,0.6-1.2-1.7-1.1c-0.2-1.8,0.1-1.9-2.6-2.1c-1.1-0.1-2.5,0.1-3.8,0c-2.8-0.1-5.5-0.3-6.1,2.8c-2,0.6-1.3,0.6-3,1.9
			c-0.3,3,0,1.2,0.5,2c0.4,1.5-0.7,0.7,1.6,2.2c-2.4,1.3,0.5-0.1-2.7-0.9c-1,2.3-2.2,3.4-1,6.4c5.9,14.6,23.3,7.2,16.7,4.6l2,1.5
			l2-2.5C256.5,277.4,256.7,277.4,256.7,277.2L256.7,277.2z"/>
		<path class="st0" d="M210.2,200.9c-2.5-2.5-0.9-2.2-3.2-4.4c-2.8-1.6,0.3,0.3-2.9-0.3c-1.3-0.3-2.3-0.9-3.6-1.4
			c-0.2,1.1-2.4,0.5,1.3,1.8l-3.6-1c4.6-2.8-1-0.6,2.3-2.9c-1.2-2.3,0.2-0.7-2.2-2.1c-0.1,0.2-0.2,0.4-0.3,0.5l-1.7,5
			c-0.7,5.2,0.5,6.2,1.8,10.8l2.6,0.3c3.5,0.3,1.6,0.5,5.4,2c3,1.1,6.7,1.7,9.1,2.7l3,1l-0.4-1.1l-1-2.4l-1.2-1
			c-2,2.7-0.3,0.4-0.4,2.2c-2,0-3.9-0.6-5.8-1.4c-1.5-0.7-1.5-0.9-2.3-1.4l-1.8-0.6c-2.4-0.5-5.7-2.1-6.5-3.7
			c3.2,1.2,10.4,4.7,13.5,3.7c-1.6-1.2-5.7-2-8.3-3.8c5-0.5,0.6,1.6,5.4,0.4c-1.2-2.1-0.2-1.1-3.4-1.6l0.9-2.3l-2.7-0.3
			c0.1,0.8-0.3-0.3,0.6,0.8c1.9,2.4,0.7-1.1,0.4,0.5c-2.4-0.3-5.9-1-7.2-3.3l5.5,1.8l-1-2c3.6,0.7,2.2-0.2,3.6-0.3
			C208.2,199.3,207.5,203.1,210.2,200.9L210.2,200.9z"/>
		<path class="st7" d="M162.3,269.3l0.2,1.1c2.9,0.4,3.8,4.6,4.2,7.2l1.2,0.2c8.2,0.7,2.8,0.8,7.8,2.2c7.9,2.3,3.9,2,7.9,3.1
			c0-2.4-2-6.5-4-7L178,274c-1.1,0.3-0.9,0.5-0.6-0.6c-1.1,0.3-0.9,0.5-0.7-0.6c-1.1,0.2-0.7,0.4-0.7-0.8
			C173.5,268.6,166.3,268.7,162.3,269.3L162.3,269.3z M167.6,279.5l-0.3,1.4c1.3-1.8,1.1,0.3,0.7-3L167.6,279.5L167.6,279.5z"/>
		<path class="st5" d="M222.5,187.4l1.1-0.9c0.2-2.9,0.4-5.3-0.2-6.9c-1.6-3.9,2.6,2.4-0.7-1c-1.5,1.4-5.2,2.1-7.2,2.8
			c-1,0.2-0.3,0-1.3,0.5c-0.2,0.1-0.6,0.8-0.8,0.5c-0.1-0.1-0.2,0.2-0.3,0.3l-3.7,0.5c-0.3,3,0.1,6.6,3.2,7.7c1.1-2-0.1-2-0.4-5.2
			l3.6,0.4c-2.7,1.1-0.5,0.8-1.5,4.4l2.7,5.1l0.5-0.3c1.4-0.5,1.1-0.7,1.1,0.7l-0.5,0.1l1.4,0.4v-2.2c-1.7-1.8-2.5-2.4-2.8-4.8
			c4.4,0.6,3.6,3.2,6.8,4.3v-4c-2.2-1.5-0.9-2.3-4.6-3.1L222.5,187.4L222.5,187.4z M222.1,187.2c0.1,0.2,0.1,0.5,0.2,0.6
			c0,0,0.2,0,0.3,0c0.1-0.2,0.2-0.4,0.3-0.6l0.6-0.1l-0.6,0.1H222.1z"/>
		<path class="st10" d="M215.2,211.9c-2.4-1-6.1-1.6-9.1-2.7c-3.9-1.5-1.9-1.7-5.4-2l-2.6-0.3l3,2.4l0.8,0.5c4.1,1.7,8.6,4.8,13,4.3
			C214.9,211.6,213.1,213.9,215.2,211.9L215.2,211.9z M216.8,209.4c-2.2-1.8-1.8-2.3-3.4-4.1c-2.2-2.4-1.3-3.2-3.2-4.5
			c-2.7,2.2-2-1.6-4.1-3.7c-1.4,0.1,0,1-3.6,0.3l1,2l-5.5-1.8c1.3,2.3,4.8,3,7.2,3.3c0.3-1.6,1.5,1.9-0.4-0.5
			c-0.9-1.1-0.5,0-0.6-0.8l2.7,0.3l-0.9,2.3c3.2,0.5,2.2-0.5,3.4,1.6c-4.8,1.2-0.4-0.9-5.4-0.4c2.6,1.8,6.7,2.6,8.3,3.8
			c-3,1-10.3-2.5-13.5-3.7c0.8,1.5,4.1,3.2,6.5,3.7l1.8,0.6c0.8,0.5,0.8,0.7,2.3,1.4c1.9,0.8,3.8,1.4,5.8,1.4
			c0.1-1.8-1.6,0.5,0.4-2.2L216.8,209.4L216.8,209.4z M207,196.5l-1.6-1.5l-0.1-0.6l-4.3-2c0,0,0.1,0.4,0,0.5s0,0.1-0.5-0.2
			c-3.3,2.3,2.3,0.1-2.3,2.9l3.6,1c-3.7-1.3-1.5-0.7-1.3-1.8c1.3,0.5,2.3,1.1,3.6,1.4C207.3,196.8,204.2,194.8,207,196.5L207,196.5z
			"/>
		<path class="st7" d="M174.4,240.6l0.2,1.7l2.3,0.2l-0.2-0.1l5.8,0.1l1.2-2.5l-1.3-1.6v-0.9l0.7,0.9h1c-1.9-1.9-3.1-1.5-2.9-4.3
			l1.2,2c2.7-1.2,1.2,1,3.8-2.1c2.6,0.3,1-0.5,1.6,1.7l-0.2,1.1l-0.8,0.8l0.3-0.7l0.4,2l-1.7-0.1v-0.9c-2.7-1.2-0.9-0.6-1.6,0.2
			c0.1,0,1.5,0.7,1.6,0.8l-0.8,1.9c2.3,2,0.7,1.3,3.3,1.2l0.4,0.7h3l-1-0.1l-2.4-0.6c0.6-1.6,0.3-2,0-5.2l0.1-0.1l0.7,0.6l1.3-0.2
			c-2-0.5-1.2,1.2-1.6-1.4c-0.3-1.6,1.7-1.6,3.3-1.7v-1.8c2.6,2.2-0.3,0,0.9,2.9l-3,1.2l1.2-0.1l-0.5-0.4l2.5-0.1c0,0.2,0,0.5,0,0.6
			l1.2,4l-0.4-6.1l-0.8-0.1l0.6-0.4v-0.8c-1.5-1.1-3-2.3-5.1-2.7l-0.9,0.9c-1.7,2.1,2-0.3-0.8,0.7c-2.6,0.9,1.3,0-1.1,0.2
			c0,0-2.1-0.4-2.2-0.4l4,0.5l0.6,0.3c2-0.2,1.1,0.6,2.2-1c0.2,2.5-0.2,4.1-1.6,1.5c-2.2,1.5-1.1,1.8-4.4,1l3-0.6l-3.7,0.8
			c-2.7,0.1-1.3,0.6-2.9-1.4l2.4-0.7c-1.3-0.6-0.7,0.5-1.3-0.9l-1.7-0.8c1.1-2,1.5-1.2-0.7-2.3c2.5-0.7,0.8,1.3,2.1-1.3l-4.1-1.1
			l1.2,0.3c-0.5,1.2,1.1,0.8-0.7,1.1l1.6,0.9c-1.2,1,0.3,0.9-2,0.6h-0.4l-2-0.4l0.7-2.5l-1.5,0.4l0.4,2.9c1.9,1.3,0.4-0.1,1,1.4
			c0.1,0.2,0.2,0.8,0.3,0.9l0.3,0.9c2.3-3.7-0.5-1.8,2.7-2.6c0,0.1,0,0.3,0,0.3v1.4c0,0.1,0.1,0.2,0.2,0.3l0.6,2.3
			c0.1,1.4-0.3-0.2,0,1.9c-2.1-0.3-2.3,1.8-2.6,1.4c-0.1-0.1-0.3,0.3-0.4,0.5c0.1-3.3,1.2-1.4-0.8-2.7c2.4-0.8,1-0.6,3-0.2l-0.6-3.6
			c-0.5,0.4-0.9,0.7-1.3,1.3l-0.6,1.6l-1.2-1.1c-0.2,2.7-0.4,2-0.8,3.8c-0.3,1.6,0.3,0.8,0,3.3c1.1,1.5,0,0.5,2.2,1
			c0.9-2.4,0.5-0.3,0-2.3c1,0.1-0.5-1,2,0.6c-1.5-2.5-1.8-1.2,0-3.3c1.7,0.2,1.9,0.1,2.3,1.5l-1.7-1c0.2,2.3-0.9,0.5,1.6,1.9
			l-1.2,0.8c-0.9,1.3,2.2,2.5-0.9,3c-0.2,0-0.4,0.1-0.6,0.1L174.4,240.6L174.4,240.6z"/>
		<path class="st6" d="M206.9,247.8c0.1,0.2,0.5,1,0.6,1.1c1.7,1.2-0.6,0.3,1.4,0.5c1.2-1.2,1.3-0.1,0.3-2c-1.5-2.8-0.3,2-1-1.1
			l0.6-1.9c-2.1,0.5-1.7,0.3-3.8,0.2l2.1,1l-1.9,2.1C206.9,247.1,206,246.7,206.9,247.8L206.9,247.8z M213.2,243.8l0.1,2.5l2-2
			c-0.5-0.3-1,0.3-0.4-0.9c0.8-1.6-0.5-0.7,1.5-1.2c-1-1.1-0.7-1.3-0.4-1.9c-2.3,0.3-4.3,0.7-6.8,0.4l0.2,0.3
			c1.2,2.9,0.6-2.1,0.2,0.9c-3.1-1.2-2.5-1.8-2.9-2.3c1.1-0.3,2-0.6,3.3-0.6c3.1-0.1,1.7,0.4,1.6,0.5l0.8-1.7
			c-2.5,0.1-3.5-0.6-4.5,0.7l-0.2-5.1c-2.4-0.3,0.6,0.7-1.8,0.2c-1.6-0.4,0.4-0.7-2-0.7c-1.7,0-1.7,0.7-1.9,0.7
			c-1.1-0.1,2.1-0.6-1.5-0.6c-0.5,3.4,2.6,6.5-0.6,11.5l1.6,0.1c-1.5,1.8-1.2,3-0.8,5.4l3,0.2c-1.3-2.6-0.9-1.3-1-3.5
			c0-0.8-0.8-0.2,0.3-0.5l0.5-3.4c2.9,2.8-0.4-0.8,2.9,0.9c0,0,1,0.8,1.1,0.9c0.7-1.2,1.4-1.5,0-2.1c2.7,0.4,0.6-0.2,3.5,1.1
			c0.4-2.5,0.3-1.4,2.4-1.4l-3-0.9c2.2-0.4,2.1-0.9,3.1,0.3C214.3,242.4,214,242.1,213.2,243.8L213.2,243.8z M204.9,236.9
			c0.3,1.4-0.4,0.4,1,1.5l-0.9,0.4c-0.1,0.1-0.4,0.1-0.5,0.2c-0.2,0.1-0.4,0.2-0.5,0.2l-1.2,0.6c1,0.9-0.2-1.2,0.4,0.9
			c0.5,2.1-0.1,0,0.1,0.6C201.2,238.9,203,237.8,204.9,236.9L204.9,236.9z M203.2,235.3c1-0.7-0.5-1.8,2.2,0
			C202.9,236.8,204.2,235.9,203.2,235.3z"/>
		<path class="st4" d="M263.4,229.8c1.3-1.5,5.6-5.7,6.2-2.3c1.3,0.1,1.1-1.5,1,1.5l1,1.4c1.2-1.3,0.9-0.8,1.3-2.7l0.4-1.5
			c2.9,0.1,2.5,1.2,3.8,0.5c-2.1-1.3-1.3-0.9-3.5-1.2c-2.8-0.3-1.2-0.6-3-0.3l-0.8,0.2c-1,0.1-1.1,0-1.8,0c-2.2,0.2-5.9,3.8-7,7
			c-0.6,1.9-2.8,4.7-0.6,6.5c0.5,2.3-0.2,1,1.3,1.8c0,2.6,1.8,4.7,4.2,6.2c2,1.2,7.3,1,10,1l3.1-2.9c0,0,0.1-0.2,0.2-0.2
			c0.8-1.2-0.3,0,0.3-1.3h2.2l0.1,0.1c2-6.8,1.9-7.7-0.4-13.7c-0.9-2.4-1.1-2-3.8-2.5c-0.5,0,2.1,1.1,3,2.3c-0.4,3.5-0.1,1-1.1,1.8
			c0.4,1.3,0.6,1.1-0.7,0.5c0.5,1.3,0.6,1.1-0.7,0.6c0.5,1.1,0.7,0.8-0.4,0.9l0.4,0.8l4.6-0.1c0.1,2.3-0.2,6.2-2.2,7.5l-0.1,1
			l-1.5-0.8c-1.8,0.3-0.8,0.4-0.9-0.8l-1.6,0.7c0.2,4.1,1.9,2-0.1,4.8l-9.3-0.2c-1.2-2.2,0.8-1.7-2.1-3.3H263
			c-0.3-1.2-0.1-2.6-1.2-2.4c0-0.8,0.7-2-1.3-1.8l0.1-3.2l4.4-0.8l0.3-1.4l-3-2.7L263.4,229.8L263.4,229.8z"/>
		<path class="st4" d="M194.2,207.2c1.1,0,1-0.3,0.6,0.6c1-0.4,0.8-0.7,0.9,0.3l0.8,0.5c1.4,0.6,1.5,0.9,2.5,1.4
			c2.8,1.3,1.6,1.1,3,0c-1,0.2-0.8,0.5-0.8-0.5l-3-2.4c-1.3-4.5-2.5-5.6-1.8-10.8c0-1.8,0.9-7.3-1.2-8c-1.7,3.1-4.3,5.6-4.8,9.4
			C189.5,204.1,192.6,202.8,194.2,207.2L194.2,207.2z"/>
		<path class="st5" d="M204.2,168.7l-0.7,4.3l5.1,2.2l0.6,0.7c0.9,0.1,0.7-0.1,0.5,0.7c3.6-0.3,8.7-1,10.3-4.1
			c-2.6-1-1.3-0.4-1.8-1.8c-1.4,0.5-1.1,0.7-0.6-0.7c-1.3,0.5-1.1,0.8-0.7-0.5c-1.3,0.5-1.2,0.8-0.8-0.4c-3.3,0.1-2.8-0.9-5.5-1.2
			C207.5,167.6,206.8,168.4,204.2,168.7L204.2,168.7z"/>
		<path class="st0" d="M201,319.4c-0.1,1.6,0.1,1.2-0.6,2.6l-0.9,1.1c0-0.1-0.1,0.1-0.1,0.2c1.8,0.1,2.4-0.8,3.4-2.3
			c-0.1-7.3-7.5-4.2-9.6-7.2c2.5-3.5,3.4-0.8,5.7,0.9l1.8-1.8c-3.1-0.3-1.6-0.4-4.1-1.7c-2.4,0.5-5.9,3-6.9,5c0.7,3.5,1.7,1.3,3,3.6
			c-2.6,0.1-2.1-0.6-4.7,0.1v2c2.1-0.9,2.3-1.7,4.3,0.4c-1.6,1.2-1.1,0.7-3.4,0.1c1.8,1.7,2.9,0.6,5.2,1.1c2.8,0.7,1.1,1.7,4.8,0.4
			l-1.5-1.2c3.1-0.5,2.5,0,2.7-2.9c-2.8-2.9-9.2-0.7-8.8-4.5c1.6,0.1,2.2,1.6,4.9,2.1C199,318,198.8,317.2,201,319.4L201,319.4z
			 M193.3,319.8c2.5,0,2.9,0,4.9,1.3c-1.1,0.9-1,1.5-2.7,1.1c-1.2-0.3-1.6-1.2-2-1.9C193.4,320.2,193.4,319.9,193.3,319.8
			L193.3,319.8z"/>
		<path class="st10" d="M271.6,282.4l-0.5,0.6c0.8,1.4,0.6-0.2,0.6,2.7c-0.7-0.7-0.6,0.9-0.4-1.1c-3.5,3.6,0.1,12.1-2.3,15.7l-0.6,1
			l4.7-1.4c-1.6-1.2-0.2-0.3-1.3-0.6c-0.8-0.3,0,0.3-1.3-0.3c-0.2-4.6-0.3-7.7,1.1-11.9l0.2-1.5c2.1,0.4,4.6-1.6,7.4-2
			c3-0.5,5.2-1.7,8.2-0.5l-0.2-3c-2.5-0.6-6.6-0.1-9.1,0.5C275.3,281.3,274.1,283.8,271.6,282.4L271.6,282.4z M277.5,297.5
			c-1.9-2.1-1.3,0-4.5,0.6c-0.6,1.1-0.3,0,0.6,1.1L277.5,297.5L277.5,297.5z M289.5,288.6c0.2-1.1-0.1-0.8,0.9-0.9l0.2-0.4l-2.5,1.4
			l-0.3-1.9h-0.7l0.2,2.6c-1.4,1.6-7.7,5.8-9.8,6.3c-0.4,1.2-0.4,0.1,1,1.1C281.2,294,287.7,291.6,289.5,288.6L289.5,288.6z"/>
		<path class="st0" d="M153.3,304.9c4.7,0.6,6.2-0.1,7.8-4.8l3.2,0.5c-1-2.8-1.6-0.1-1.2-3.4c3.4-0.3,0.8,2.2,4.8,0.5
			c-1.5-1.1-1.7-1.2-3.2-2.7c-4.1,0.5-4.4-1.3-6.1,0.1c-2.7-0.5-1.8-0.7-4.5-0.2l3.1,1.5c-0.6,2.3-2.9,5.8-4.8,7.2
			c-2.1-1.9-2.4-3.6-4.8-1.9c3.9,2.8,1.7,3.3,8,2c1.5-2.4,3.4-7.3,6.1-8c-1,3-1.9,2.8-3.4,5.3C155.4,306,156.9,302.5,153.3,304.9
			L153.3,304.9z"/>
		<path class="st12" d="M210.3,273.7l0.4-0.1c1.1-0.3,0.9-0.5,0.7,0.7v0.3c1-1.1,0.3,0.1,0.5-1c0.7-2.9-0.7-1.4,1.6-3.1
			c1.2,2.6-0.1,3.4,0.4,6.1c4,0.6,2.4,0.5,5-1.7c-0.5,1.2,0.2,0.5-1.6,1c0.2,0.1,0.4,0.1,0.5,0.4c0.4,1.6,0.4,0,0.8,0.8
			c0.5,0.9,0.5,0.3,0.1,1.7c2.1-2.3-0.3-9.4-0.2-12.9c-3.2-0.6-1-0.9-3.8,0.2c2.6,0.6,4,2.4,0.4,4.7l-0.2-2.8
			c-3.3,0.2-2-0.7-5.5-0.2c1.2,1.1,1.1,1.1,3.3,1.1c-3.3,1.2,1.5,2.4-1,1.2c-1,1-1.1,1.2-2.2,2.2L210.3,273.7L210.3,273.7z
			 M212.1,277.5c2,0.1,3,0.1,4.4,1l1.2,0.1c1.5-2.3,0.6-0.6,0.2-1.9L212.1,277.5L212.1,277.5z M211.2,276.5l-0.1,0.2L211.2,276.5
			L211.2,276.5z M211,275.3l0.1,0.6l1.3,0.7L211,275.3L211,275.3z"/>
		<path class="st0" d="M212.6,237.8l-0.8,1.7c0.1-0.1,1.6-0.6-1.6-0.5c-1.3,0-2.2,0.3-3.3,0.6c0.4,0.5-0.2,1.1,2.9,2.3
			c0.4-3,1,2-0.2-0.9l-0.2-0.3c2.4,0.2,4.5-0.1,6.8-0.4c-0.2,0.6-0.6,0.8,0.4,1.9c1.8-0.7-0.3-0.9,2.4,0.1c-0.5,0.3-0.9,0.4-1.5,0.6
			l-1.1,0.4c-0.1,0.1-0.4,0.1-0.5,0.2h4c-0.5,1.4-0.7,1.1,0.7,1.1c0-1.5,0.5-1.5-0.7-1.1c0.1-1.7-0.3-4.4-0.1-5.7
			c0.2-1.7,0.9-1.4,0.7-4.7l-2.7,0.5c0.1-0.9,0.3,0.6,0-0.8c-2,0.6-0.5-0.5-2,1.1c-0.5-0.6,0.1-0.8-1.4-0.7
			c-0.5,2.4-0.1,2.4,0.6,4.3L212.6,237.8L212.6,237.8z"/>
		<path class="st13" d="M272.9,227.6c3.2,0,0.9,0.6,3.7,1.8c2,0.8,2.1-0.8,2.9,2.1c-1.3-0.4-1.2-0.7-0.7,0.5
			c-1.4-0.6-1.2-0.8-0.7,0.6c-1.2-0.7-0.6-0.5-0.4,0.9l-0.8,0.7l1.1,0.1l3,1.5c-0.6,2.6-1.3,3.5-0.6,6l-1.6,0.2l-0.9-0.8
			c-1-0.6,1.6-1.2-2.2-0.4c-0.8,3.1,0,1.9,0.1,4.9l-8.4-0.8c0.2-2.8,1.1-0.7,1.2-4.2c-2.8-0.1-2.7-0.2-3.8,2.4
			c3,1.7,0.9,1.2,2.1,3.3l9.3,0.2c2-2.7,0.3-0.7,0.1-4.8l1.6-0.7c0.1,1.2-0.9,1.1,0.9,0.8l1.5,0.8l0.1-1c2-1.4,2.3-5.2,2.2-7.5
			l-4.6,0.1l-0.4-0.8c1.1-0.1,0.9,0.2,0.4-0.9c1.3,0.5,1.1,0.8,0.7-0.6c1.3,0.6,1.1,0.8,0.7-0.5c1.1-0.8,0.7,1.7,1.1-1.8
			c-0.9-1.2-3.6-2.2-3-2.3l-0.5-0.7c-1.3,0.6-0.9-0.4-3.8-0.5L272.9,227.6L272.9,227.6z"/>
		<path class="st0" d="M223.9,177.3l-0.4-0.9c-0.5-0.6-1,0.1,0-1.1l0.2-0.3l-1.7-0.2c0-2.5-0.7-1,1.6-2l0.2,0.8l-0.2-0.8l-0.4-0.2
			h-3l-1.8-1.8c0.5-1.3,0.7-1.1-0.6-0.7c0.6-1.4,0.6-1-0.7-0.5c0.4-1.2,0.5-0.8-0.8-0.4c-0.1-0.1-0.4-0.4-0.4-0.3l-0.8-0.5
			c-2.5-2.3,0.9,2.7-0.8-0.9c-2.2-0.3-3.4-0.8-5.9-0.7c-2.4,0.1-2.6,0.6-5.5,0.5l0.6,2.6l0.9-1c2.6-0.4,3.2-1.2,6.4-0.8
			c2.8,0.3,2.3,1.3,5.5,1.2c-0.5,1.3-0.5,0.9,0.8,0.4c-0.4,1.3-0.5,1,0.7,0.5c-0.5,1.4-0.8,1.2,0.6,0.7c0.5,1.4-0.8,0.8,1.8,1.8
			c-1.6,3.1-6.7,3.8-10.3,4.1c0.2-0.9,0.3-0.6-0.5-0.7l-0.6-0.7l0.6,0.7c0,1-0.3,0.9,0.5,0.7l-0.1,0.3l1.6,0.4l1.8,0.3
			c0.2,0.2,0.5,0.4,0.6,0.7c0.1,0.1,0.1,0.6,0.1,0.5c0.1-0.1-0.3,0.2-0.4,0.3l-1.6,2.2l0.7-0.2l0.6,1.6c0.1-0.1,0.3-0.4,0.3-0.3
			c0.1,0.3,0.6-0.4,0.8-0.5c1-0.5,0.3-0.3,1.3-0.5l-0.4-0.8c2.4-0.9,1.8,0.5,1.1-1.7l2.5,0.3c-3.7-1.2-3.1,0.1-2.3-0.8
			c-1.3-1.2-0.4,0.9-0.8-1.4c-0.6-3.9-0.8,1.3,0.6-1.4c3.4,2.7-0.7,1.9,4,3c-0.4-0.3-1.2-0.8-1.4-1l-0.7-0.9
			c-0.1-0.1-0.2-0.3-0.3-0.6c-0.1-0.4-0.2-0.5-0.3-0.7l1.9,0.8c0.1,0.1,0.3,0.2,0.4,0.3l1.9,1.4c-1.6-1.7-1.5-1.2-2.4-3.6
			c2.6,0.2,2.2,0.8,2.5,1.3c0.1,0.2-0.3,0.7,0.7,1.4L223.9,177.3L223.9,177.3z M213.7,177.6c-0.1-0.4,0.2-1,0.8,0
			C215.1,178.7,213.8,177.8,213.7,177.6z"/>
		<path class="st13" d="M248.6,271.9c-2.2,0-1.2,0.3-2.7-1l1.9-0.9C248.9,271.5,248.5,269.9,248.6,271.9z M244.2,266.4
			c-1.2,4.3,1.3,2-1.8,5.2c3.7,4.1,2.6,0.4,4.7,5.3c1.8-1.7,1-1.9,2.1-3.1c0.9-0.8,2.2-0.8,3.7-2l-2.5-2.4l2.2-4.3
			c-2.9,0.3-2,1.2-3.7,1.9C246,268.2,246.7,266.9,244.2,266.4L244.2,266.4z"/>
		<path class="st10" d="M238.5,325.9c1-1.6,0.6-1.6,2.7-1.6l0.1,2.4L238.5,325.9L238.5,325.9z M239,323.4c-1.2-1.6-0.8-0.1-0.5-2.6
			l2.3,0.7C239.8,323.8,240.5,322.9,239,323.4L239,323.4z M236.4,321l0.1,0.3c0.1,3.5,0.5,2.3,2,4.6l-2.1,2.4
			c-2.1-2-1.4-3.3-1.5-6.3l-0.9-1.9l-1.7,0.9l0.3,1c1,1.8,0.7,3.4,0.6,5.8l1,1.2c3.1-1.6,5.1,0.6,9-2.5c-0.4-4.4-0.5-2.3-2.2-5
			c1.1-1.6,2-2.4,0.8-3.9l0.1,2C236.8,319.7,240.5,319.4,236.4,321L236.4,321z"/>
		<path class="st14" d="M199.8,173.5l1.1-3.2c0.7,3.2-1.9,3.1-0.1,6.2c3-2.1,0.9-4,2-6.1l0.6,2.6l0.7-4.3l-0.9,1l-0.6-2.6
			c-2.1-0.8-1,0.5-1.8-1.9c-0.7,0.9-0.3,0.3-0.6,1.4c-0.6,2.8,0.6-1.3-0.1,1.1c-0.8-2.2,0.5-2.2-0.5-4c-1.7,1.9-1.2,1.4-1.6,4.1
			l-0.9-0.6l-1.1,0.6l-0.7-2.1l-0.7-0.6c-1.3,1.8-0.3-0.1-0.4,2c0,1,0.4-0.1-0.1,2.1c1.8-1.2,1.3-0.6,4-0.6c-0.3,2-0.4-0.9-0.5,0.7
			c0,0.4,0.1,2.4,0,3.5C199.8,174.8,197.8,173.2,199.8,173.5L199.8,173.5z"/>
		<path class="st7" d="M180.9,197.2l-1.5-23.1c2.9-3.2,1.8,0.1,2.5-3.5c0.5-2.4,0.1-3,2.5-4.3l-0.1-1.4c-0.5-1.6,0.4-0.6-1.2-1.5
			c-2.9,1.7-0.7,1.5-3.8,3.4c-2.3-1.9-0.4-1.6-3.4-2.4c0,2.3-0.5,1,0.7,2.6c2.1,0.2-1.6,0,2.2-0.6c0.7,2.7,0.1,1.4,1.2,2.4v-0.4
			c0,0-1.3,1.5,0.2-0.5c1.1-1.5-0.8-0.2,1.1-0.6c-1.1,13.9-3.1-4.5-2.3,17.6c0,0.6-0.2,1-0.2,1.7l1.9,10.3
			C180.7,196.6,180.8,197,180.9,197.2L180.9,197.2z M185.3,163.3c-0.6,0.8-1.1-1.4-0.2,1.8v0.6L185.3,163.3z"/>
		<path class="st5" d="M218.6,151.6l-0.1,0.9l2.5,0.7c0.3,2.9-1.1,3.2-1.7,6c1.7,1.8,0.8,1.2,3.9,0.6c0.9-3.4-0.2-2.6,0-5.6
			c0.2-2,0.1-3.7,0.1-5.6c-1.5,0.2-0.9-0.6-0.7-3.8l-2,0.2l-0.1,4.6c-0.6-0.4-0.6-0.6-1.1,0.3c-0.3,0.6,0.1,0.1,0.7,0.3L218.6,151.6
			L218.6,151.6z"/>
		<path class="st15" d="M168.6,287.3l1-1.6c3.8,0.4,11.2,2.1,14.4,1.5c-0.5,1.2-0.7,0.9,0.6,0.6c-0.3,1-0.4,0.7,0.7,0.7l0.4-0.1
			c-0.2-2.5,0.1-1.3-0.7-1.7l-0.3,1c0.3-1.3,0.6-1.2-0.6-0.6c-1.5-2.4-4.8-2.5-7.9-3.3c-1.6-0.4-6.5-2.3-7.1-3.2L168.6,287.3
			L168.6,287.3z"/>
		<path class="st10" d="M269.3,311.4c0.1,0.2,0.2,0.6,0.3,0.7l0.5,0.6c1.5,1.8,1.2,2,2.1,4.6l-1.8,0.4c-1.5-2.4-1.9-8.2-4.9-4.3
			c1.6,1,2.2,1.9,2.6,4.4c0.8,5,0.6,0.7,1.5,4.7l3.1-0.2c-2-1.6-1-0.4-1.5-2.6c1.9-0.6,1.7-0.8,2.8-2.6
			C273.5,314.6,272.4,309.3,269.3,311.4L269.3,311.4z"/>
		<path class="st6" d="M166.6,171l-0.9-1.3l-1.1,1.2L166.6,171c0.7,2.2,0.6,0.3,1.7,2.9c-2.2-0.3-2.4-1.2-2.4-1.3
			c-2.9-2.3,0,2.6-1.6-2l-2.9,0.5l-0.4-2.4c-0.6,1.1-0.6,0-0.7,2.3c0,1.7,0,1.7,0.6,2.1l1.2,0.2c-0.8,1.3,0,0.7-1.6,0.9l-0.1,6.2
			c0.9-0.9,0.6-0.9,0.7-3.7c0-0.9-0.2-1.5,0.8-2.7c3.9,1.9,0.8,1.6,5.9,1.4l-0.7-1c3.6,1.4,5.9,2.6,7.7,1.4
			C170.5,174,170.3,173.8,166.6,171L166.6,171z"/>
		<path class="st7" d="M191.1,164.5c-1.4,1.7-0.8,1.8-3.5,1.6c-0.1-2.1,0.9-4.6,2.1-6c-1.8,1.2-2.6,4.1-2.4,6.2
			C190.1,167,190.3,166.7,191.1,164.5z M188.2,170.9c-0.9-0.2-0.6-0.4-0.7,0.5C188.7,171.5,188.6,171.8,188.2,170.9l1.4-0.1
			c0.7,3.3,0.2,0.1,3.2,3.1c-0.1,0.1-0.4,0.1-0.4,0.2c-0.6,2.6,0.3,0.1-0.8,0.3l-0.1-0.1c1.5,0.7,1.9,0.1,2.2,2.3l-0.5-4.4l0.5,1.2
			c-0.6,2.6-0.3,0.8,0.7,1.6c0.2-2.9,0.4-1.4-0.7-1.6l0.2-0.9l-0.7-0.3c1-2.5-0.4-0.9,1.5-1.8l-4-0.8l3.6-0.4
			c0.5-2.2,0.1-1.1,0.1-2.1c0-2-0.9-0.2,0.4-2l0.7,0.6l0.7,2.1l1.1-0.6l-1-2.1l-0.8,0.6l-0.7-0.6c-1.7-0.9-1.7-0.7-2.3-2.2l-0.8,1.5
			c1.1,1.1,0.3,0.4,0,0.6c-0.1,0.1-0.2,0.2-0.2,0.4C191.1,168,188.6,168.4,188.2,170.9L188.2,170.9z"/>
		<path class="st5" d="M194.3,169.3l-3.6,0.4l4,0.8c-1.9,0.9-0.5-0.7-1.5,1.8l0.7,0.3c4,2.9,1.1,3.6,3.1,7.7c0.8,0,0.7,0.5,2.4-1.6
			l0.4-5.2c-2-0.3,0,1.3-2.1-0.7c0.1-1.1,0-3.1,0-3.5c0.2-1.6,0.2,1.3,0.5-0.7C195.5,168.6,196.1,168,194.3,169.3L194.3,169.3z"/>
		<path class="st12" d="M208.2,246.2l3.8-0.7c1.1-0.4,0.6-0.4,0.6,1.1l1.1,0.1l-0.9-1.9l0.5-1c0.7-1.7,1.1-1.4,0.4-2.2
			c-1-1.2-1-0.7-3.1-0.3l3,0.9c-2.1,0-2-1.1-2.4,1.4c-2.9-1.3-0.8-0.7-3.5-1.1c1.4,0.6,0.8,0.9,0,2.1c-0.1-0.1-1.1-0.9-1.1-0.9
			c-3.3-1.7,0,1.9-2.9-0.9l-0.5,3.4c-1.1,0.3-0.3-0.3-0.3,0.5c0.1,2.3-0.4,0.9,1,3.5l1.9-0.2c1.4-1.3,0.8-0.3,1.3-2.3
			c-0.9-1,0-0.7-1.8-0.2l1.9-2.1l-2.1-1c2.2,0.1,1.7,0.3,3.8-0.2L208.2,246.2L208.2,246.2z"/>
		<path class="st7" d="M209.9,329.7c2.5,0.5,0.9,0.1,2.7,1.2l-0.3-2.8c4.1,0.3,4.9-2.3,4.5-6.1c-0.2-2-0.7-2.2-2.2-2.1
			c-0.2,2.3,0.4-0.1,0.4,3.3c0,1-0.3,2.4-0.4,3.5c-2.3-0.3-2,0-2.1-2.1c0-1.3,0.4-2.7,0.9-3.5c-1.2-1.4-1-1.8-2.2-1.6
			c-0.6,1-0.4,2.4-0.2,5.7l-1.7,1.1C210.7,327.6,210.8,327.5,209.9,329.7L209.9,329.7z"/>
		<path class="st7" d="M231.7,327.5c-1.2-1.3-0.6-4.2-0.8-6.4l-0.5-0.9l-2.8,2l-2.1-2.1l-2.9,1.5l-0.3,6.7c2.3,0.9,1.9,1.2,3.9,0.3
			c-1.1-1.7,0.3-0.2-1.9-1.7c0.2-1.5,0.5-1.7,0.5-1.8c0.4-2.2,0.5,1.4-0.1-0.7c0,0-1.3-0.6,0-3c0.8,1,0.7,0.6,1,1.9l0.2,1.3
			c1-1,2.2-2.6,2.9-3.1c1.4,6.3-1.2,5.2,1.3,7.8L231.7,327.5L231.7,327.5z"/>
		<path class="st16" d="M255.5,185.3l-0.1-7.3l-1.2,1l-0.8-1.8l-0.5,10.2c1.6-2.5,0.1-2.6,1.3-5.2v5.6L255.5,185.3z M256.1,177.7
			l5.7-3.3c-1.8-0.7-1.1-0.1-3.3,0.1c-2.3,0.2-2.6,0-4.4,1.3l-1.3,0.6l2,1.9c0.3-1.1,0.1,0,0.1-0.9c0-2.7-0.6,1.8,0-0.6L256.1,177.7
			L256.1,177.7z M250.9,177l0.2,1.9c1.7,3.2-0.7,5.7,1.1,8.2c0.3-2.9-1-7.9,0.6-10.2L250.9,177L250.9,177z M251.8,175.5v0.5l1.1-0.5
			H251.8L251.8,175.5z"/>
		<path class="st15" d="M271.8,285.7l-0.2,1.5c-0.5,1.3,5.9-0.7,6.8-0.9c3-0.7,5.7-0.6,8.8-0.4l0.1-2.7c-3-1.1-5.2,0.1-8.2,0.5
			C276.4,284.1,273.9,286.1,271.8,285.7L271.8,285.7z"/>
		<path class="st3" d="M199.4,150.5c1.2,2.7,0.2,1.2,0,2.2l-0.2,2.5c-0.2,1.3-0.6,1-0.7,2.5c-0.1,1.7,2.1-0.1-0.5,1.7
			c1.8-0.5,0.9-0.3,2.6-0.2l-1.6,1.6c3.8-2.3,1.1-0.7,4.9-0.8c-1-2.4-2.5-2,0.7-3.4l-2.1-1.1c0.6-2,1.2-2.2,0.7-3.3l-1-1.4l2-0.3
			c-2.8-1.6-0.5-1.6-3.9-1.7l1.5,1.2c-0.7,0.5-0.1,0.8-0.1,2.9L199.4,150.5L199.4,150.5z"/>
		<path class="st0" d="M286.9,309.7c0-2.1-0.2-2.9,2.3-2.8C289.7,309.4,289.6,308.5,286.9,309.7z M286.3,304.1c0.6,0.9,1.8,0,0,2.4
			C283.9,304.9,284.6,305,286.3,304.1z M287,299.9c-0.5,0.9,0-0.3,0,1.3c0,0.1,0,0.7,0,0.6s0,0.4,0,0.6l-2.8,0.8l-1,3
			c1.3,2.3,1.2,1.9,3.4,3l-0.1,3.5c2.2-2.5,2.9-1.2,4.9-4.7c-1.6-4.7-3-2.4-3.5-3.6c-0.1-0.2-0.3-0.1-0.5-0.2
			C287.8,302.2,288.5,301.2,287,299.9L287,299.9z"/>
		<path class="st0" d="M298.3,296.3l0.5-0.6c0.2-0.1,1.1-0.7,1.2-0.7c0.1,0.1,0.2,0.2,0.2,0.4c0,0.3,0.2,0.3,0.2,0.4
			s0.3,1.7,0.3,1.8c2.7,0,1.2-0.7,2.4,1c-0.8,2.8-2.9-0.4-2.8,4.8c3-3.8,4.1-0.5,4.6-5.9c-2.4-2.3-1.1-1.3-4-2.3
			c0.1-2.2,0.4-2.5-0.5-4.4c-0.5,0.9-0.2,1.4,0,2.4l-3,1.1l-0.8,2.6c1.6,2.8,1.1,3.3,4.5,2C299.5,296.6,300.3,298.1,298.3,296.3
			L298.3,296.3z"/>
		<path class="st10" d="M264.2,320.9c-2.3-0.7-2.3-2.2-2.9-5.1c2.4-0.4,1.9-0.9,2.9,1.7C264.9,319.7,264.8,319.4,264.2,320.9
			L264.2,320.9z M261,322.3l3.7,0.2l2.1-2.6l-2.2-6l-3-0.1l-2.2,2.4L261,322.3L261,322.3z"/>
		<path class="st0" d="M289,301.2c3,2.1,2.5,4.1,6.1,5.9l1.2-3c2.4,1.1,0.7,1,2.7,0.3c0.1-2.8,0.6-0.4-0.9-2
			c-4.1-4.5-1.4-5.1-4.5-5.2c-0.5,2,0.1,1.8,1.4,4c1.5,2.5,1.6,2.1,0,4.1c-1.6-1.7-2.5-4.9-4.3-5.8
			C289.1,300.2,290.3,299.1,289,301.2L289,301.2z"/>
		<path class="st4" d="M243.8,242.4c0.4-1.6,1.2-1.8,2.8-1.4c1.3,1.6,1.2,0.8,0.4,2.7C244.9,244.5,244.8,244.3,243.8,242.4
			L243.8,242.4z M248.4,239.8c-0.1-1.2-0.5-1.1,0.6-0.9l-0.4-0.8c-2.9,2.3-3.5,0.8-6.3,0.3l0.7,3.4l-2,2.1c4,0.4,3.2,0.7,4.9,3.9
			l1.1-3.5l3.8-1L248.4,239.8L248.4,239.8z"/>
		<path class="st10" d="M250.7,316.7c0.4,2.3,1.2,3.7,0.4,5.7c-2.1-2.2-1.9-2.7-1.8-5.8l-0.3,0.3c0.3,2.6,0.2,0.8-0.9,1.6
			c-1.2,7.7,9.4,9.9,11.4,3.1l-3.9,2.2c0,0.1,1.4,1-1.4,0.7c-2.8-0.3-0.7,0-1.7-1l-0.8-0.7c1.9-2.3,1.8-3.3,0.5-6
			c-2.4-1.9-0.2,1.4-0.8-0.7c0-0.1,0-0.2,0-0.3C251.9,317.1,252.2,316.7,250.7,316.7L250.7,316.7z"/>
		<path class="st14" d="M215.5,181.4c2.1-0.6,5.8-1.4,7.2-2.8c1.5,0.1,0.5,0.4,1.2-1.3l-1.3-0.4c-1.1-0.7-0.6-1.2-0.7-1.4
			c-0.3-0.5,0.1-1.1-2.5-1.3c0.9,2.4,0.8,1.9,2.4,3.6l-1.9-1.4c-0.1-0.1-0.2-0.2-0.4-0.3l-1.9-0.8c0.1,0.2,0.2,0.3,0.3,0.7
			s0.2,0.5,0.3,0.6l0.7,0.9c0.2,0.2,1,0.7,1.4,1c-4.7-1.1-0.6-0.3-4-3c-1.4,2.6-1.2-2.6-0.6,1.4c0.4,2.3-0.5,0.2,0.8,1.4
			c-0.8,0.9-1.4-0.4,2.3,0.8l-2.5-0.3c0.8,2.2,1.4,0.9-1.1,1.7L215.5,181.4L215.5,181.4z M223.5,175.3c-1,1.3-0.5,0.5,0,1.1V175.3z
			 M223.6,175v-1.4l-0.2-0.8c-2.3,1-1.6-0.5-1.6,2L223.6,175z"/>
		<path class="st10" d="M211.8,181.3l1.6-2.2c0.1-0.1,0.5-0.4,0.4-0.3c-0.1,0.1,0-0.4-0.1-0.5c-0.1-0.2-0.4-0.4-0.6-0.7l0.4,1.5
			l-1.9-0.5l-0.2-1.3l-1.6-0.4c-2.9-0.6-3.2-0.6-6,0c0.8,2.3,1.3,4.9,5.6,4.1C212.6,180.3,211.1,179.5,211.8,181.3L211.8,181.3z"/>
		<path class="st12" d="M174.4,239.8v0.8l3.7,1.4c0.2,0,0.4-0.1,0.6-0.1c3-0.5,0-1.7,0.9-3l1.2-0.8c-2.5-1.4-1.4,0.4-1.6-1.9l1.7,1
			c-0.3-1.4-0.5-1.3-2.3-1.5c-1.8,2.1-1.5,0.8,0,3.3c-2.5-1.6-1-0.6-2-0.6c0.5,2.1,1,0,0,2.3C174.4,240.3,175.5,241.2,174.4,239.8
			L174.4,239.8z M176.7,242.5l0.2,0.1L176.7,242.5z M174.8,228.7c1,2.1,0.7,1.6,0.4,3.9l1.2,1.1l0.6-1.6c0.4-0.5,0.9-0.8,1.3-1.3
			l0.6,3.6c-2-0.4-0.6-0.6-3,0.2c2.1,1.3,0.9-0.6,0.8,2.7c0.2-0.2,0.3-0.6,0.4-0.5c0.2,0.4,0.4-1.8,2.6-1.4c-0.3-2.1,0.1-0.4,0-1.9
			l-0.6-2.3c0-0.1-0.1-0.2-0.2-0.3v-1.4c0,0,0-0.2,0-0.3c-3.3,0.8-0.4-1.1-2.7,2.6l-0.3-0.9c0-0.1-0.2-0.8-0.3-0.9
			C175.1,228.6,176.7,230,174.8,228.7L174.8,228.7z"/>
		<path class="st7" d="M270.3,238.1c-0.4-2-0.9-2.4,1.2-3.3c1.8,0.7,1.7,0.8,1.6,2.9L270.3,238.1L270.3,238.1z M267.3,237.9
			c5,1.6,0.6-0.3,4.2,3.1c1.4-1.3,0.6-0.8,1.1-1.5c1.9-2.4,0.9-0.2,3.5-2.3c-1.4-1.7-2.2-1.6-1.6-4.1c-1.9,0-3.9-0.1-5.8-0.1
			C268.9,236.8,269.2,234.8,267.3,237.9L267.3,237.9z"/>
		<path class="st10" d="M282.7,312.8c-2.7,0.1-1.9,0.7-3.2-1.9c-0.5-1-0.9-1.8-1-2.9C281.7,307.6,282,309.8,282.7,312.8z
			 M279.4,314.7l3.2-0.2l2-2.5l-2.8-5.9l-3.2,0.2l-1.8,2.6L279.4,314.7L279.4,314.7z"/>
		<path class="st17" d="M190.1,237l-0.4-0.9l3-1.2c-1.2-2.9,1.7-0.6-0.9-2.9v1.8c-1.7,0.1-3.6,0.1-3.3,1.7
			C188.9,238.2,188.2,236.5,190.1,237L190.1,237z M193.6,233.5l-0.6,0.4l0.8,0.1L193.6,233.5L193.6,233.5z M190.5,235.6l0.5,0.4
			h-0.5V235.6z M188.8,237.1l-0.7-0.6L188.8,237.1z M187.4,231.8l-0.1,1.1l-3,0.6c3.3,0.8,2.2,0.5,4.4-1c1.4,2.6,1.8,0.9,1.6-1.5
			c-1.1,1.7-0.3,0.8-2.2,1L187.4,231.8z M181.8,230.7c0.6,1.4,0,0.3,1.3,0.9l0.3-0.3c0,0,2.1,0.4,2.2,0.4c2.4-0.2-1.5,0.7,1.1-0.2
			c2.8-1-0.9,1.4,0.8-0.7C185.5,230,183.4,229.9,181.8,230.7L181.8,230.7z M193.6,232.7l0.5-4.3c-0.2,0.3-1.1,1.3-1.1,1.4l-0.4,1.1
			c0-0.1-0.1,0.3-0.2,0.5c-0.1-0.2-0.2-0.4-0.2-0.5l-0.3-1.2c0-0.1,0-0.2,0-0.4l-4.5-1l1.1,1.7C190.6,230.4,192.1,231.6,193.6,232.7
			L193.6,232.7z"/>
		<path class="st18" d="M218.5,195.9c0-1.4,0.3-1.2-1.1-0.7l-1.6,0.6l1.1-0.3l-2.7-5.1c0.6,2.9,1,2.7,1.8,5
			c-7.3,0.9-8.7-7.5-11.9-4.9l3.5,2.5c4.4,3.2,4.7,4.3,10.8,6.8C217.7,196.8,216.5,196.9,218.5,195.9L218.5,195.9z"/>
		<path class="st0" d="M212.5,246.6c0-1.5,0.5-1.5-0.6-1.1l-0.1,3.7c2.5,0.1,0.9,0.6,2.2-0.7C213.8,246.1,214.1,247.9,212.5,246.6
			L212.5,246.6z M217.1,250.2l3.3-0.2l0.3-4.2l-3,2.3c-3.2-0.5,0.7-0.3-2.6-0.8c3.2-2.1,1.8-1.4,1.5-1.6c0-0.6,2-0.4-1.2-1.5l-2,2
			l-0.1-2.5l-0.5,1l0.9,1.9l1.1,1.2c0.5,1.2,0.7,0-0.6,1.6L217.1,250.2L217.1,250.2z"/>
		<path class="st0" d="M182.1,312.5l-1.2-3.6l-2.3,0.7c1.7,0.8,2.1,3.1,0.8,5.4c-3.5,1.6,0.1-1.5-3.3,0.6l0.9,1.6l3.1-1.9
			c0.8,3.4-0.4,4.2,2.8,3.6c-0.3-2-0.9-3.8-0.6-6.1c3.3-1.4,0.3,0.3,3.5-0.4l-1-1.9L182.1,312.5L182.1,312.5z"/>
		<path class="st17" d="M218.6,151.6l-1.4,0.5l1.3,0.4L218.6,151.6l1.5-1.3c-0.6-0.2-0.9,0.3-0.7-0.3c0.4-0.9,0.5-0.7,1.1-0.3
			l0.1-4.6c-2.4-0.8-2.3-0.1-5.1-0.1l-2.5,2.4c0.3,0.1,3,1.5,3.2,1.6c2.5,0.8,0.9-0.7,2.8-0.1C217.9,150.6,218.4,149.4,218.6,151.6
			L218.6,151.6z"/>
		<path class="st13" d="M247.8,264.9c-0.6-0.7,0-0.2-1.3-0.6l0.8,1.7L247.8,264.9l1.7-2.6c2.9,1.2,2,1.6,5.4,2.3l0.4,1.8
			c-1.1-0.3-1-0.6-0.8,0.4l-0.9,0.4l-0.8,2.1l4.6,0.4c-1.4,1.1-1.5,4.9-1.7,7.2l0.9,0.3c0-0.9-0.2-1.9,0.1-2.8
			c1-3.2,0.6-1.2,1.6-1.8c-0.4-2.9,0.7-1.8-0.9-2.9c-0.9-1.1,0.9-0.4-1.1-0.7c-0.6-0.1-1.2,0-1.9,0l-0.9-1.8l0.9-0.4l0.8-0.4
			c1.3-0.5,0.7,0.6,1-1.3l-1.2-2.6l-0.3,0.4l-1.5,0.1l-0.2-1.2C249.2,261.2,249.2,259.6,247.8,264.9L247.8,264.9z"/>
		<path class="st0" d="M167.6,303.3c1.4,2.9,0.7,1.8-0.6,2.7c-0.1-0.2-0.1-0.4-0.1-0.5l0.1-1.3C166.9,304.1,167.5,303.4,167.6,303.3
			L167.6,303.3z M163.2,306.4c-0.9,2.3-0.2,2.5,1.6,4.2c0.8-1.8,0.3-0.7,0.4-2.3c0.1-1.3-1.3,0.9,0.2-1.4l4.9-0.9l-1-3.8L166,302
			L163.2,306.4L163.2,306.4z"/>
		<path class="st17" d="M205.4,195c-0.9-2.5-3.3-1.8-4.9-4.2c-2.1-3.1,0.2-4.8-5.7-4.2l-1.1,0.4c0.2,1.7-0.2,1.2,1.5,1.1
			c2.1,0.7,1.1,6.2,1.2,8l1.7-5c0.1-0.1,0.2-0.4,0.3-0.5c2.4,1.4,0.9-0.2,2.2,2.1c0.5,0.2,0.4,0.2,0.5,0.2c0.1-0.1,0-0.4,0-0.5
			l4.3,2V195L205.4,195z"/>
		<path class="st13" d="M218.5,168l2.4-0.1l0.9-2.3l-5.1-1.4l-1-4.5l-1.8-0.9C213.3,166.8,218,166.7,218.5,168L218.5,168z"/>
		<path class="st10" d="M206.1,319.7h0.3l1.4,0.5l-1,2.8c-0.3,2.3-0.3,1.5-1.8,2.2c-1.2-2-0.8-0.9-0.6-3.3l-0.8-0.1
			c-1.3,2.2-1.9,2.5,0,4.9l2.1-1.4c1.6,1.7,0.2,1.4,2.1,1.8c2-1.8,0.6-0.2,0.9-3.5c0.2-1.6,0.5-2.6,1-4.1c-1.4-0.6-1.7-0.8-3-1.7
			L206.1,319.7L206.1,319.7z"/>
		<path class="st12" d="M187.3,233l0.1-1.1l-4-0.5l-0.3,0.3l-2.4,0.7c1.6,2.1,0.2,1.5,2.9,1.4L187.3,233L187.3,233z M183.9,238.4
			l0.1-0.4c0.7-0.7-1.2-1.4,1.6-0.2l1.1-0.3l0.8-0.8l-0.5-1.8l0.8,0.7c-0.6-2.2,0.9-1.4-1.6-1.7c-2.7,3.1-1.2,0.9-3.8,2.1l-1.2-2
			C180.8,236.8,182,236.5,183.9,238.4L183.9,238.4z M182.3,238.4l0.7-0.1l-0.7-0.9V238.4z"/>
		<path class="st0" d="M167.3,202l2.5,1.6l1.3-0.3l-0.8,0.2l1.1,0.5h0.2l10.2,6.8c3.4,0.9,2.7,2,2.9,3c-3,0.3-2.1,0.7-3.8-1.3
			c0.3,3.2,0.6,1.7,4.3,1.7l1.2-1.3l-0.9-2.3c-1.2,2.2-0.3,0.8-1.5,1.1l-2.7-2.6l0.9-0.4c1,0.2,0.8,0.4,0.7-0.6l0.4-1l-0.4,1
			l-0.7,0.6l-0.9,0.4c-0.8-0.6-6.2-3.9-7.4-4.6c-1.5-0.9-2.6-1.5-3.8-1.9c-1.4-0.5,0.8,0.6-2.4-2.2L167.3,202L167.3,202z"/>
		<path class="st0" d="M169.2,309.4l-0.4,3c1,1.2-0.2,1,2.2,0.8c-0.1-3.8,2.2-8.1,5-10.5c-2.4-0.4-1.7,0.2-2.8-1L169.2,309.4
			L169.2,309.4z"/>
		<path class="st9" d="M254.1,175.7l-1.2-0.3l-1.1,0.5l-0.4,0.3l-0.5,0.7l2-0.1c-1.7,2.3-0.3,7.3-0.6,10.2c-1.8-2.5,0.6-5-1.1-8.2
			l0.2,3.5l-0.2,5.6l2,0.5l1.8,0.5l0.6-3.7l-1.3,2.5v-5.6c-1.2,2.6,0.4,2.7-1.3,5.2l0.5-10.2l0.8,1.8l1.2-1l0.8-0.3l-1.2-0.9
			c-0.6,2.4,0-2.1,0,0.6c0,0.8,0.2-0.2-0.1,0.9l-2-1.9L254.1,175.7L254.1,175.7z"/>
		<path class="st4" d="M190.6,214.2l-0.3-1.7L190,213l-0.6-1c-1.3-1.7-4.6-4.6-6.3-5.2l0.1,0.4l-0.4,1c0.1,1,0.3,0.7-0.7,0.6
			l-0.9,0.4l2.7,2.6c1.2-0.3,0.3,1.1,1.5-1.1l0.9,2.3c1.9,0.6,0.4-1,1.9,1.3C189.4,213.8,189.5,213.6,190.6,214.2L190.6,214.2z"/>
		<path class="st1" d="M221.8,165.6l0.4-4.2c-2.3-0.9-3.4-0.3-5.2-1.6l-1.2-0.1l1,4.5L221.8,165.6z"/>
		<path class="st12" d="M190.4,242.5l1,0.1h1.1c1.6-2.3-0.4-0.8,1.7-2.1l-0.1-0.5l-1.2-4c0-0.1,0-0.4,0-0.6l-2.5,0.1v0.3l-0.5,2.5
			c0.9,0.7,0.2,0.3-1.2,1.4l1.5-0.2L190.4,242.5L190.4,242.5z"/>
		<path class="st17" d="M219.3,159.3l-2.4,0.5l-0.1-0.7l-1.1,0.5l1.2,0.1c1.8,1.3,2.9,0.8,5.2,1.6l-0.4,4.2c2.4,0,2.1-7.2,2-9.4
			c-0.2-3.5,0-7.2-0.2-10.9l-1-0.5c-0.2,3.2-0.7,4.1,0.7,3.8c0.1,2,0.1,3.6-0.1,5.6c-0.3,3,0.9,2.2,0,5.6
			C220,160.6,221,161.1,219.3,159.3L219.3,159.3z"/>
		<path class="st0" d="M251.5,315.7l-1.3-1.2l-1.2,2.4l-0.9,1.6c1.1-0.7,1.1,1,0.9-1.6l0.3-0.3l0.8-1.3l0.5,1.4
			C252.2,316.7,251.9,317.1,251.5,315.7c0,0.1,0,0.2,0,0.3c0.6,2.1-1.6-1.1,0.8,0.7l0.7-2.1l1.9,9.1l-2.2-0.3c1,1-1.1,0.7,1.7,1
			c2.8,0.3,1.4-0.7,1.4-0.7l-2.3-8.9c3-1.2,2.3,0.7,4.3-1.9l-4.2-0.7L251.5,315.7L251.5,315.7z"/>
		<path class="st4" d="M234.4,241.6l-0.5,0.6c-0.7,1.3-1.3,0,0.1,1.6l2.2,4.9c-0.6-2.8-0.9-2.6-2.2-4.9l-0.1-1.6
			C234.8,242.2,234.6,242.4,234.4,241.6l0.9,0.1l1.8-1.1c-0.9-2.4-0.2-0.8-1.3-1.3c-1-0.4,0.2-0.5-2.1-0.3c0.3,0.3,0.5,0.7,1.5,1.5
			L234.4,241.6L234.4,241.6z M238.4,239.2L237,239l1.5,1.1l-1.5,1.1c2.7-0.1,1.3,0.2,3-0.8L238.4,239.2L238.4,239.2z M236.6,237.8
			c-0.8-1.1-1.8,0.8-0.6-2c0.6-1.4,0.5-0.7,1.7-1.1l0.1,0.2c1.6-1.3,1.7-1.1,2.9-3c-1.3,0.6-4.5,3.1-5.5,4.8
			c0.7,1.8,0.8,3.1,1.3,1.3L236.6,237.8L236.6,237.8z M242.7,232.6h-0.3l1.4,1.3l2.3-0.2c-2.2-2.4-2.2-0.7-0.4-3l-1.6,2.1
			c-0.8-1-1.5-1.8-2.2-2.2c0.9,1.3,0.4-1.8-0.2,0.5c-0.6,2.1-1.3-0.9-0.1,1L242.7,232.6L242.7,232.6z M247.1,233.4l-0.3-0.9
			C246.1,230.7,245.5,232,247.1,233.4z M248.9,231.7c1.6-0.5,1.2-0.8,1.2,0.9l-0.2,0.1l1.2,0.3c-0.8-0.8-1.3-1.8-3.3-1.6
			c-2.1,0.2-0.9-0.2-0.3,0.3H248.9L248.9,231.7z M252.2,234c-0.1-0.2-0.2-0.7-0.3-0.5c-0.1,0.1-0.3-0.1-0.4,0
			c-0.1,0.1-0.3,0.3-0.5,0.4L252.2,234L252.2,234z M241.8,234.1l-0.6,0.1l0.1-0.4L241.8,234.1l-0.3-0.5l0.4-0.1L241.8,234.1
			L241.8,234.1z M239.9,234.6l0.3,0.3L239.9,234.6l0.4,0.4L239.9,234.6z"/>
		<path class="st6" d="M196.1,151.1c1.9-0.6-0.6,0,1.7,0.3c-2.9-3.5,0.6-0.7-3.5-6.5c-1.7,3-0.7,2.9-0.4,4c0.3,1.3-1.5,4.8,2.6,4.9
			L196.1,151.1z"/>
		<path class="st12" d="M215.3,244.3c3.2,1.1,1.2,0.9,1.2,1.5c0.3,0.3,1.7-0.4-1.5,1.6c3.3,0.5-0.7,0.3,2.6,0.8l3-2.3l-0.2-1.3
			c-1.4,0-1.2,0.3-0.7-1.1h-4c0.2-0.1,0.4-0.1,0.5-0.2l1.1-0.4c0.6-0.2,1-0.3,1.5-0.6c-2.7-1-0.6-0.8-2.4-0.1
			c-2.1,0.5-0.8-0.4-1.5,1.2C214.4,244.6,214.8,243.9,215.3,244.3L215.3,244.3z"/>
		<path class="st4" d="M208.2,246.2c0.7,3.2-0.5-1.7,1,1.1c1,1.9,0.8,0.8-0.3,2c-2-0.2,0.3,0.6-1.4-0.5c-0.1-0.1-0.5-0.9-0.6-1.1
			c-0.5,1.9,0.1,1-1.3,2.3l11.5,0.2l-3.1-0.7c1.3-1.6,1.2-0.4,0.6-1.6l-1.1-1.2l-1.1-0.1c1.5,1.4,1.3-0.5,1.5,2
			c-1.3,1.3,0.4,0.8-2.2,0.7l0.1-3.7L208.2,246.2L208.2,246.2z"/>
		<path class="st4" d="M206.1,275.9l-0.1,0.5l0.2,1.5l-1.1-0.1l-0.1,0.5l11.4,0.1c-1.4-0.9-2.4-0.9-4.4-1c-1.3,0-1,0.3-0.9-0.8
			l0.1-0.2l-1-0.3l0.8-0.3l-0.1-0.6l-0.4-1.3l0.9,0.6v-0.3l-0.7-0.7l-0.4,0.1l-3,1.1c1.1,0.4,0.9-0.3,1.2,1.1
			c0.5,2.3-0.4,1.3-0.7,1.6c-1.4-0.1-0.2,0.9-1-0.3c-0.4-0.6,0.7-0.9-0.5-2.6L206.1,275.9L206.1,275.9z"/>
		<path class="st6" d="M191.9,225.2l-2.7,0.9c-0.5-0.5,0.8-1.3-1.8-0.3v2.4l4.5,1c0,0.2,0,0.3,0,0.4l0.3,1.2c0,0.1,0.1,0.3,0.2,0.5
			c0.1-0.2,0.1-0.6,0.2-0.5l0.4-1.1c0.1-0.1,0.9-1.1,1.1-1.4l0.1-2.9l-1.2,0.2l-1.3,1c1.2,1.4,1,0.8-0.3,2.1
			c-1.1-1.2,0.6-0.2-1.6-1.2l1.3-1.3c0.1-0.1-0.4-0.3,0.6,0.2L191.9,225.2z"/>
		<path class="st19" d="M213.2,261.3c-1.1,1-0.4-1.8-1,1.7l1.2,0.7l-0.9,2.1l-3.1,0.3l-1.7,0.7c4.9,0.3,2.9,1.3,6.6-1.1l-0.9-1.9
			L213.2,261.3c1,0.4,0.8-0.4,0.3,0.8c2,0.1,1.5,0.1,2.7-1.1l-0.2,1.4l1.2-0.3l2.1,0.1v2c1.1-1.8,0.6,0.1,1-2.6
			c-2.4-1.5-0.6,0.1-5.1-1.5h0.2C213.1,260.9,214.1,260.5,213.2,261.3L213.2,261.3z"/>
		<path class="st12" d="M205.2,277.9l-0.2-1.4l1-0.1l0.1-0.5l-1.7-1.1c-0.9-0.5,0.2-0.3-1.6-0.3l1.6-1.2c-0.1-0.1-0.7-0.3-0.9-0.5
			l2.5-0.3c-2.3-1.6-0.4,0-1.3-2.2l-1.2,2.4c-0.2-1.6,0.5-0.9-0.4-3.2l-0.7,3.3c0,1.5-0.2,0.9-0.3,1.9l0.3,3.3L205.2,277.9
			L205.2,277.9z"/>
		<path class="st10" d="M275.8,312.6c-1.2-2.9-0.1-3.5-2.8-3.5c-0.2,1.3,1.4,8.5,4.9,7.5C277.9,314.5,277,315.6,275.8,312.6
			L275.8,312.6z"/>
		<path class="st6" d="M173.9,149.8c-0.1-0.1-0.3-0.3-0.3-0.2l-1.5-0.9l-1.5,0.7l1,1.8c-0.8,0.4-0.5,0.3-1,0.3l1,1.9
			c-2.6,1.1-0.5-0.7-0.7,2.5l3.6-1.4c-0.5-0.9-1.5-2.9-1.6-3.4L173.9,149.8L173.9,149.8z"/>
		<path class="st7" d="M220.8,327.8c-3.3-2.9,2.4-7.2-2.1-7.6c-0.9,1.8-1,6.7,0.2,8.7L220.8,327.8L220.8,327.8z"/>
		<path class="st10" d="M173.2,315.3c2.1-0.7,0.6,0.8,1.7-1.9c2.1-5.3,3.4-5.7,0.8-6.3C174.8,308.7,172.4,313.5,173.2,315.3
			L173.2,315.3z"/>
		<path class="st4" d="M254.4,236.8l-3.1,3.2l1.4,0.8c0.8-1.6,3.2-0.7,4.1,0.6v0.3l-0.3,2.9c0.4,0.7,0.8-3.1,0.7-3.8
			c-0.3-1.7-1.5-0.4,0.1-3.7l-2.3,0.7l0.4-1.9L254.4,236.8L254.4,236.8z"/>
		<path class="st13" d="M260.4,238.9c2-0.1,1.2,1,1.3,1.8c1.1-0.2,0.9,1.1,1.2,2.4c1.5-1.6,0.8,1.5,1.3-2c-1.2-1.8-2.2-2.6-2.6-4.9
			l4.4-1c0.2-2,0.4-0.7-0.7-1.6L265,235l-4.4,0.8L260.4,238.9L260.4,238.9z"/>
		<path class="st13" d="M263.4,229.8l0.7,1.3c0.9-0.6,5.1-3.5,5.5-3.6c-0.4,2.5-0.2,0.8,1,1.5c0.1-3,0.3-1.4-1-1.5
			C269,224,264.7,228.3,263.4,229.8z"/>
		<path class="st13" d="M240.5,262.5l-1,2.1c-1.3-0.3-1-0.6-1,0.6c1.5,0.2,1.4,0.6,1-0.6c2,1.5,3.5-0.3,4.7-1.9h1.3l-0.3-1.7
			C241.9,261.3,243,262,240.5,262.5L240.5,262.5z"/>
		<path class="st4" d="M238.1,249.5c-0.8,1.1,1.2,0.8-1.5,0l-0.2-0.1l4.3,3.9l1.1-1l-1.6-0.9l2.2-4.6
			C240.1,247.2,240.6,248.4,238.1,249.5z"/>
		<path class="st0" d="M187.4,236.8l0.2-1.1l-0.8-0.7L187.4,236.8z M188,241.9l2.4,0.6l-0.1-2.8l-1.5,0.2c1.4-1.1,2.1-0.7,1.2-1.4
			l0.5-2.5h0.5l-1.2,0.1l0.4,0.9l-1.3,0.2l-0.7-0.6l-0.1,0.1C188.3,239.8,188.6,240.2,188,241.9L188,241.9z M186.6,237.6l-1.1,0.3
			v0.9l1.7,0.1l-0.4-2L186.6,237.6L186.6,237.6z"/>
		<path class="st1" d="M282.7,312.8c-0.7-3-1-5.1-4.3-4.8c0.2,1.1,0.5,1.9,1,2.9C280.8,313.5,280,312.9,282.7,312.8z"/>
		<path class="st7" d="M189.2,158.5l-0.4-0.7L189.2,158.5l0.2,0.5c0.9,1.6,0.7,2.6,0.8,4.6c2.6-1.1,2.5-3.6,1.8-6
			C190,157.4,191.3,157.4,189.2,158.5L189.2,158.5z"/>
		<path class="st14" d="M206.9,323l1-2.8l-1.4-0.5L206.9,323L206.9,323z M209.7,319.5c0.2-1,1.4,1.3-0.1-1.4
			c-2.9,0.1-2.2-1.1-5.2,0.3l-0.8,3.3l0.8,0.1l1.8,0.1l-1.2-2l1.1-0.3l0.5-1.9C207.9,318.7,208.3,319,209.7,319.5L209.7,319.5z"/>
		<path class="st4" d="M250.5,250.9l0.8-1c1.4,1.3,0.3,1,2.1,1.5c0-0.1-0.1-0.5-0.1-0.4l-0.2-0.7c-0.9-2.5-0.3,1.8-0.2-0.6l2.1-0.9
			c-2.9-0.9-2.4-1.8-5.2-2L250.5,250.9L250.5,250.9z"/>
		<path class="st1" d="M264.2,320.9c0.6-1.5,0.7-1.2-0.1-3.3c-1-2.6-0.5-2.1-2.9-1.7C261.9,318.7,261.8,320.1,264.2,320.9
			L264.2,320.9z"/>
		<path class="st4" d="M182.4,242.6h6l-0.4-0.7c-2.5,0.1-1,0.9-3.3-1.2l0.8-1.9c-0.1,0-1.5-0.7-1.6-0.8l-0.1,0.4h-1l-0.7,0.1
			l1.3,1.6L182.4,242.6L182.4,242.6z"/>
		<path class="st19" d="M251.3,182.4l-0.2-3.5l-0.2-1.9l0.5-0.7l0.4-0.3v-0.5l-0.4,0.9c-1.1,0.9-0.9,1-2.7,1.1l2.2,0.8L251.3,182.4
			L251.3,182.4z M244.8,175.9c0.1,3.5-2.7,5.1-2.9,8.9l1.9-0.8l-1.5-0.4c0.9-1.6,1.5-2.9,2.3-4.2c1.6-2.7,1.5-1.5,4-2.4L244.8,175.9
			L244.8,175.9z"/>
		<path class="st5" d="M232.3,321h-1.5c0.2-1.1,0.5-1-0.5-0.9l0.5,0.9c0.2,2.2-0.4,5.1,0.8,6.4c0-2.1-1-4.9,1-5.4
			c0.1,1.9-0.1,4.3,0.6,5.8c0-2.3,0.4-4-0.6-5.8L232.3,321l1.7-0.9l0.9,1.9c0.6-0.4,0.9-0.4,1.6-0.7l-0.1-0.3l-2.4-0.8
			C233.1,319.9,233.4,319.3,232.3,321L232.3,321z"/>
		<path class="st17" d="M194.4,175c1.4,1.5,1.4,3.6,1.7,5.6c1.8,0.6,2.4,0.5,3.9-0.7l-0.6-1.3c-1.7,2.1-1.5,1.5-2.4,1.6
			c-2-4.1,0.9-4.8-3.1-7.7l-0.2,0.9C194.9,173.6,194.6,172.1,194.4,175L194.4,175z"/>
		<path class="st18" d="M234,242.2l0.1,1.6c1.3,2.3,1.6,2.1,2.2,4.9l0.9-0.1c1.7-1.3-1.4-4.5-2.4-6.1l0.6-0.9l-0.9-0.1
			C234.6,242.4,234.8,242.2,234,242.2L234,242.2z"/>
		<polygon class="st18" points="223.9,200.2 223.5,196.6 221.2,196.2 221.5,200.4 		"/>
		<path class="st9" d="M243.8,242.4c1,1.9,1,2.1,3.2,1.3c0.8-1.9,0.9-1.2-0.4-2.7C245.1,240.6,244.3,240.7,243.8,242.4L243.8,242.4z
			"/>
		<path class="st1" d="M204.4,321.9c-0.2,2.4-0.5,1.3,0.6,3.3c1.5-0.7,1.5,0.1,1.8-2.2l-0.4-3.3h-0.3L205,320l1.2,2L204.4,321.9
			L204.4,321.9z"/>
		<path class="st15" d="M146,272.7c2.1,0.8,1.4,0.3,3,1.8C148.1,272.9,147.8,272.1,146,272.7z M149.2,274.5l1.7-0.6l-0.4-5.2
			c-0.3,2.1,0,1.6-0.8,3.1v2.1l-3-2.9C145.5,271,148.5,272.8,149.2,274.5L149.2,274.5z M146.6,270.4l1.1-1.3l-2.5,1.6l2-1.2
			L146.6,270.4z M146.5,274.8c-0.2-2.4,0.3-0.9-0.8-1.1L146.5,274.8z"/>
		<path class="st1" d="M193.3,319.8c0.1,0.1,0.1,0.4,0.2,0.5c0.4,0.7,0.8,1.7,2,1.9c1.7,0.4,1.7-0.2,2.7-1.1
			C196.1,319.9,195.8,319.9,193.3,319.8L193.3,319.8z"/>
		<path class="st14" d="M168.8,312.4l0.4-3l-0.9,1.1c-2.1-1.9-0.9-0.3-3.3-1.9l0.4-1.7c-1.5,2.3-0.2,0.1-0.2,1.4
			c-0.1,1.6,0.4,0.5-0.4,2.3c-1.8-1.7-2.5-2-1.6-4.2l-1.3,1l1.6,3.1h4.1L168.8,312.4L168.8,312.4z"/>
		<path class="st16" d="M256.4,244.6l0.3-2.9l-1.3-0.9l-0.6,1.6l1.1-0.8C255.1,244.4,255,242.7,256.4,244.6L256.4,244.6z
			 M252.7,240.9l4.1,0.6C255.8,240.1,253.5,239.3,252.7,240.9z"/>
		<path class="st17" d="M177.4,225.3l-1.5,0.1l-0.7,2.5l2,0.4h0.4h-0.4c-0.3-2.2-0.4-0.7,0.7-1.5c1.8-0.3,0.2,0.1,0.7-1.1
			L177.4,225.3L177.4,225.3z"/>
		<path class="st18" d="M248.6,238.1l0.4,0.8c-1.1-0.2-0.7-0.3-0.6,0.9c1,0,0.6,0.2,0.6-0.9l2-2.4l2.1-0.4l-2.2-1.1
			C249.6,237.7,249.9,235.2,248.6,238.1L248.6,238.1z"/>
		<path class="st17" d="M203.2,241.3c-0.1-0.6,0.5,1.5-0.1-0.6c-0.5-2.1,0.6,0-0.4-0.9l1.2-0.6c0.1-0.1,0.4-0.2,0.5-0.2
			c0.1-0.1,0.4-0.1,0.5-0.2l0.9-0.4c-1.4-1.1-0.7-0.1-1-1.5C203,237.8,201.2,238.9,203.2,241.3L203.2,241.3z"/>
		<path class="st16" d="M166.6,171l-2-0.1l-0.4-0.2c1.6,4.6-1.2-0.3,1.6,2c0.1,0.1,0.2,1,2.4,1.3C167.2,171.4,167.3,173.2,166.6,171
			z"/>
		<path class="st1" d="M286.9,309.7c2.7-1.2,2.7-0.3,2.3-2.8C286.7,306.7,286.9,307.6,286.9,309.7z"/>
		<path class="st18" d="M192.3,337.1l3.7-0.1c-3.1-1.1-0.7-0.4-1.6-1.3l-1.7-1.2l-0.4,1.1V337.1L192.3,337.1z"/>
		<path class="st18" d="M266.4,333.5l0.7,0.2c0.1-0.2,0.2-0.4,0.3-0.5c0,0,0.3,0.1,0.3,0c0.1-0.2,0.2,0.3,0.3,0.4l2.6-3l-0.5-0.7
			L266.4,333.5L266.4,333.5z"/>
		<path class="st1" d="M238.5,325.9l2.7,0.8l-0.1-2.4C239.1,324.3,239.5,324.3,238.5,325.9L238.5,325.9z"/>
		<path class="st1" d="M239,323.4c1.4-0.5,0.8,0.4,1.7-1.9l-2.3-0.7C238.2,323.3,237.8,321.8,239,323.4L239,323.4z"/>
		<path class="st12" d="M217.1,262.1l-1.2,0.3l-0.6,1c0.3,0.5,1,1.1,1.1,1.1c0.8,0.4,0.8,0,1.6-0.9L217.1,262.1L217.1,262.1z"/>
		<path class="st18" d="M193,225.7l-1-0.5l-0.3,1.3c-1-0.5-0.5-0.2-0.6-0.2l-1.3,1.3c2.2,1,0.5-0.1,1.6,1.2c1.3-1.3,1.5-0.7,0.3-2.1
			L193,225.7L193,225.7z"/>
		<path class="st5" d="M201.8,263.7c-0.6,0,0,1,4.2-0.1c-0.6-0.2-1.4-0.7-2.2-0.7C200.6,262.9,202.5,263,201.8,263.7L201.8,263.7z"
			/>
		<path class="st14" d="M223.4,189.8V187l-0.6,0.1c-0.1,0.2-0.3,0.4-0.3,0.6c0,0.1-0.2,0.1-0.3,0s-0.1-0.4-0.2-0.6l0.5,0.2l-3.7-0.7
			C222.5,187.6,221.2,188.3,223.4,189.8L223.4,189.8z"/>
		<path class="st11" d="M245.9,270.9c1.5,1.4,0.4,1.1,2.7,1c-0.1-2,0.4-0.4-0.8-1.9L245.9,270.9z"/>
		<path class="st1" d="M286.3,306.5c1.8-2.4,0.7-1.5,0-2.4C284.6,305,283.9,304.9,286.3,306.5z"/>
		<path class="st12" d="M209.5,273.4c-0.3-0.9,2.2-1-2.3-1.8l-0.7-0.9C207.7,272.6,206.7,272.6,209.5,273.4L209.5,273.4z"/>
		<path class="st5" d="M177.1,228.2h0.4c2.3,0.3,0.8,0.4,2-0.6l-1.6-0.9C176.7,227.5,176.8,226.1,177.1,228.2z"/>
		<path class="st1" d="M167,306c1.4-0.9,2,0.1,0.6-2.7c-0.1,0.2-0.7,0.8-0.7,0.9l-0.1,1.3C166.8,305.6,166.9,305.8,167,306L167,306z
			"/>
		<polygon class="st14" points="213.3,179.1 213,177.6 211.2,177.3 211.4,178.6 		"/>
		<path class="st5" d="M220.9,168l-2.4,0.1l2.2,1.5C221.7,168.2,222.1,169.8,220.9,168L220.9,168z"/>
		<path class="st18" d="M205,265.6v0.2l-2.2-0.3c-0.3,2.3-1.3,1,2.1,1.6C202.1,264.7,203.9,266.7,205,265.6L205,265.6z"/>
		<path class="st1" d="M203.2,235.3c0.9,0.6-0.3,1.5,2.2,0C202.8,233.5,204.3,234.5,203.2,235.3z"/>
		<path class="st6" d="M192.5,242.6l1.6-0.2l0.1-1.9C192.1,241.8,194.1,240.3,192.5,242.6L192.5,242.6z"/>
		<path class="st18" d="M198,337.7l2-0.1c-0.4-0.9,0.9-0.4-1.2-1.2L198,337.7z"/>
		<path class="st14" d="M179.6,304.7c-1.9-1.1-1.7-0.4-1.7,1.3L179.6,304.7z"/>
		<polygon class="st20" points="255,189.6 254.9,189 253.1,188.5 253.2,189 		"/>
		<path class="st8" d="M213.7,177.6c0,0.2,1.3,1,0.8,0S213.7,177.2,213.7,177.6z"/>
	</g>
</g>
</svg>
