<?xml version="1.0" encoding="utf-8"?>
<!-- Generator: Adobe Illustrator 25.0.0, SVG Export Plug-In . SVG Version: 6.00 Build 0)  -->
<svg version="1.1" id="Layer_1" xmlns="http://www.w3.org/2000/svg" xmlns:xlink="http://www.w3.org/1999/xlink" x="0px" y="0px"
	 viewBox="0 0 100 100" style="enable-background:new 0 0 100 100;" xml:space="preserve">
<style type="text/css">
	.st0{fill:#FFFFFF;}
</style>
<g>
	<g>
		<path class="st0" d="M100,99.9c-33.3,0-66.7,0-100,0C0,66.6,0,33.4,0,0.1c33.3,0,66.7,0,100,0C100,33.4,100,66.6,100,99.9z
			 M30.7,49.3c0,4,0,7.9,0,11.8c0,3.9,0,7.9,0,11.9c-0.3,0-0.5,0-0.7,0c-1.6,0-3.1,0-4.7,0c-4.8-0.1-8.6,3.9-8.5,8.4
			c0.1,3.6,2.7,7,6.2,7.9c2.2,0.6,4.5,0.1,6.7,0.2c0.9,0.1,1.8-0.1,2.6-0.1c1.5,0,3,0.1,4.5,0.1c9.8,0,19.7,0,29.5-0.1
			c1.8,0,3.7,0.1,5.5,0c0.9,0,1.8-0.2,2.7-0.5c3.5-1.3,5.5-4.2,5.5-8c0-3.2,0-6.5,0-9.7c0-4.4,0-8.7,0-13.1c0-10.3,0-20.6,0-30.9
			c0-0.2,0-0.5,0-0.8c1.1,0.9,2.2,1.5,3.4,1.8c5.7,1.6,11.2-3.4,10.3-9.2c-0.6-4.1-4.1-7.1-8.3-7.1c-7,0-14,0-21,0
			c-8.5,0-17.1,0-25.6,0c-2.8,0-5,1.3-6.7,3.4c-1.2,1.5-1.6,3.2-1.6,5c-0.1,2.6,0,5.1,0,7.7c0,0.2,0,0.4,0.1,0.5
			c0.8,0.8,1.7,1.6,2.6,2.6c0-0.4,0-0.6,0-0.9c0-3.3,0.1-6.7,0-10c0-2,0.8-3.5,2.3-4.6c1-0.7,2.2-1,3.5-1c10.2,0,20.5,0,30.7,0
			c2.8,0,5.6,0,8.5,0c0.3,0,0.7,0,1.1,0c-0.1,0.2-0.1,0.2-0.2,0.3c-1.3,1.6-1.9,3.3-1.9,5.3c0,1.7,0,3.3,0,5c0,12.2,0,24.3,0,36.5
			c0,6.4,0,12.9,0,19.3c0,2.9-2.1,5.2-4.9,5.6c-2.7,0.4-5.3-1.4-6.1-4c-1-3.4,1.6-7,5.2-7.1c0.6,0,1.1-0.2,1.4-0.8
			c0.5-1-0.2-2-1.5-2c-2.3,0-4.5,0-6.8,0c-9.7,0-19.5,0-29.2,0c-0.7,0-1.4,0-2.1,0c0-8,0-15.9,0-23.8C32.5,49.2,31.7,49.3,30.7,49.3
			z M12.1,27.7c-0.1,0.1-0.1,0.2-0.2,0.2c-1.8,1.7-1.8,3.7,0.2,5.2c1.3,1,2.9,1.7,4.5,2.2c0.5,0.2,1,0.3,1.6,0.5
			c-0.3,0.3-0.5,0.5-0.7,0.8c-0.8,0.9-0.9,2-0.3,2.8c0.4,0.5,0.9,0.8,1.5,1.1c1.7,0.7,3.5,0.9,5.4,1c0.5,0,1.1,0.1,1.6,0.1
			c-0.4,0.5-0.7,0.9-1,1.3c-0.8,1.4-0.5,2.6,1,3.2c0.8,0.3,1.8,0.5,2.6,0.5c3.2,0.1,6.3-0.3,9.3-0.9c1.6-0.3,1.6-0.3,2.5,1
			c2.2,3.3,4.3,6.7,5,10.7c0.1,0.6,0.6,0.9,1.2,0.8c0.6-0.1,1-0.6,0.8-1.3c-0.3-1.2-0.6-2.4-1-3.6c-1.3-3.4-3.3-6.5-5.4-9.4
			C36.2,37.5,30.4,32,24.6,26.7c-2.7-2.5-5.9-4.4-9-6.3c-2.5-1.5-5.1-3-7.7-4.5c-0.5-0.3-1.1-0.5-1.5,0c-0.2,0.3-0.4,0.7-0.4,1.1
			C5.8,20.6,7.4,23.6,10,26C10.7,26.6,11.4,27.1,12.1,27.7z M38.5,31.3c-0.1,0-0.2,0-0.4,0c-0.6,0-0.9,0.4-0.9,1c0,0.5,0.3,1,0.9,1
			c1.3,0,2.3,0.6,3.3,1.2c0.7,0.4,1.5,0.7,2.3,0.9c1.9,0.4,3.6-0.1,5.1-1.2c0.5-0.4,1.1-0.7,1.7-0.8c1.4-0.4,2.7,0,3.9,0.8
			c0.8,0.6,1.7,1,2.7,1.2c1.9,0.3,3.6-0.1,5.1-1.2c1.1-0.8,2.3-1.2,3.6-0.8c0.8,0.2,1.7,0.7,2.4,1.1c1,0.6,2.1,1,3.3,1
			c0.3,0,0.8-0.2,1-0.5c0.2-0.2,0.1-0.7,0-0.9c-0.2-0.3-0.7-0.5-1-0.5c-1,0-1.8-0.4-2.6-0.9c-0.7-0.4-1.4-0.8-2.1-1.1
			c-2.1-0.6-4-0.2-5.8,1.1c-1.8,1.3-3.6,1.2-5.5,0c-0.7-0.4-1.4-0.9-2.1-1.1c-2.1-0.6-4-0.2-5.8,1c-0.6,0.4-1.4,0.8-2.2,0.9
			c-1.3,0.3-2.4-0.1-3.5-0.9C41,31.8,39.8,31.3,38.5,31.3z M38.5,21.6c-0.8,0-1.2,0.3-1.3,0.9c0,0.7,0.3,0.9,1.1,1
			c0.9,0.1,1.7,0.3,2.4,0.8c0.9,0.6,1.8,1.2,2.9,1.3c2,0.3,3.7-0.2,5.3-1.4c0.9-0.7,2-0.8,3.1-0.8c1.1,0.1,1.9,0.7,2.8,1.3
			c1.3,0.8,2.7,1,4.2,0.9c1.3-0.1,2.4-0.7,3.5-1.5c0.9-0.6,1.8-0.7,2.8-0.7c1.1,0,1.9,0.6,2.8,1.2c1,0.7,2.2,1,3.5,1
			c0.6,0,1-0.4,1.1-0.9c0-0.5-0.3-1-0.9-1c-1.3,0-2.3-0.6-3.3-1.2c-2.2-1.5-5.1-1.4-7.2,0.2c-1.8,1.3-3.9,1.3-5.7,0.1
			c-0.7-0.4-1.4-0.9-2.2-1.1c-2.1-0.6-4-0.2-5.8,1.1c-0.8,0.5-1.6,0.9-2.5,0.9c-1,0-2-0.2-2.8-0.8C41.1,22.2,39.9,21.6,38.5,21.6z
			 M38.8,60.3c-1.1,0-1.5,0.3-1.6,0.9c0,0.7,0.3,1,1.2,1c1,0,1.9,0.4,2.7,1c1,0.7,2,1.1,3.2,1.2c1.8,0.2,3.4-0.4,4.8-1.4
			c0.9-0.7,2-0.9,3.2-0.7c0.8,0.2,1.6,0.6,2.3,1c0.9,0.5,1.8,1,2.8,1.1c1.7,0.2,3.3-0.1,4.8-1.1c0.5-0.3,1-0.6,1.5-0.8
			c1.5-0.5,2.9-0.2,4.2,0.7c1.1,0.8,2.3,1.2,3.6,1.3c0.8,0,1.3-0.3,1.3-0.9c0-0.6-0.4-1-1.2-1c-0.9,0-1.8-0.3-2.5-0.9
			c-2.7-1.8-5.3-1.9-8,0c-1.5,1.1-3.9,1.1-5.4,0c-0.7-0.5-1.4-0.9-2.2-1.1c-2.1-0.6-4.1-0.2-5.8,1.1c-1.5,1.1-3.9,1.1-5.4,0
			C41.1,60.8,39.9,60.3,38.8,60.3z M43.7,43c0.5,0.8,0.9,1.4,1.3,1.9c0.1,0.1,0.3,0.2,0.5,0.1c1.2-0.1,2.2-0.5,3.2-1.2
			c0.5-0.3,1-0.6,1.5-0.8c1.5-0.5,2.9-0.1,4.2,0.8c1.4,1,3,1.3,4.7,1.2c1.3-0.1,2.3-0.7,3.3-1.4c1-0.7,2.1-1,3.3-0.7
			c0.7,0.2,1.5,0.5,2.1,1c1.1,0.7,2.3,1.1,3.6,1.2c0.5,0,0.9-0.1,1.1-0.5c0.4-0.7-0.1-1.4-1-1.4c-1,0-1.8-0.4-2.6-0.9
			c-2.6-1.8-5.3-1.9-7.9,0c-1.8,1.2-4.1,1.1-5.6,0c-2.3-1.7-4.8-1.9-7.3-0.3C46.9,42.8,45.5,43.4,43.7,43z M49.3,53.2
			c0.1,0,0.2-0.1,0.3-0.1c1.6-0.8,3.1-0.7,4.6,0.3c0.6,0.4,1.2,0.8,1.8,1c2.1,0.8,4.2,0.5,6.1-0.8c0.6-0.4,1.2-0.8,1.8-0.9
			c1.2-0.3,2.5-0.2,3.6,0.6c0.6,0.4,1.2,0.8,1.9,1.1c0.8,0.3,1.6,0.3,2.4,0.4c0.5,0.1,0.8-0.2,1-0.7c0.1-0.5,0-0.9-0.5-1
			c-0.4-0.1-0.8-0.2-1.2-0.3c-0.4-0.1-0.8-0.2-1.2-0.4c-0.4-0.2-0.8-0.6-1.2-0.8c-1-0.4-2.1-0.9-3.1-1c-1.6-0.2-3.1,0.4-4.5,1.3
			c-1.7,1.2-3.5,1.1-5.2,0c-0.3-0.2-0.6-0.4-1-0.6c-2-1.1-4.1-1-6.2-0.1C48.8,52,49,52.5,49.3,53.2z M41.1,53.6c0,0,0.1-0.1,0.1-0.1
			c-0.3-0.7-0.7-1.3-1-2c-0.3-0.7-0.8-1-1.6-0.9c-0.2,0-0.3,0-0.5,0c-0.5,0-0.9,0.4-0.9,0.9c0,0.6,0.3,1,0.9,1
			C39.2,52.6,40.2,52.9,41.1,53.6z"/>
		<path d="M30.7,49.3c0.9-0.1,1.8-0.1,2.7-0.2c0,7.9,0,15.8,0,23.8c0.8,0,1.4,0,2.1,0c9.7,0,19.5,0,29.2,0c2.3,0,4.5,0,6.8,0
			c1.2,0,2,1,1.5,2c-0.3,0.6-0.8,0.7-1.4,0.8c-3.6,0.1-6.2,3.6-5.2,7.1c0.8,2.7,3.4,4.4,6.1,4c2.8-0.4,4.9-2.7,4.9-5.6
			c0-6.4,0-12.9,0-19.3c0-12.2,0-24.3,0-36.5c0-1.7,0-3.3,0-5c0-2,0.6-3.8,1.9-5.3c0-0.1,0.1-0.1,0.2-0.3c-0.4,0-0.8,0-1.1,0
			c-2.8,0-5.6,0-8.5,0c-10.2,0-20.5,0-30.7,0c-1.3,0-2.5,0.3-3.5,1c-1.5,1.1-2.4,2.6-2.3,4.6c0.1,3.3,0,6.7,0,10c0,0.2,0,0.5,0,0.9
			c-0.9-0.9-1.8-1.7-2.6-2.6c-0.1-0.1-0.1-0.3-0.1-0.5c0-2.6,0-5.1,0-7.7c0-1.8,0.4-3.5,1.6-5c1.7-2.1,3.9-3.4,6.7-3.4
			c8.5,0,17.1,0,25.6,0c7,0,14,0,21,0c4.2,0,7.6,3,8.3,7.1c0.9,5.8-4.7,10.8-10.3,9.2c-1.2-0.3-2.3-0.9-3.4-1.8c0,0.3,0,0.6,0,0.8
			c0,10.3,0,20.6,0,30.9c0,4.4,0,8.7,0,13.1c0,3.2,0,6.5,0,9.7c0,3.7-2,6.7-5.5,8c-0.8,0.3-1.8,0.4-2.7,0.5c-1.8,0.1-3.7,0-5.5,0
			c-9.8,0-19.7,0-29.5,0.1c-1.5,0-3-0.1-4.5-0.1c-0.9,0-1.8,0.1-2.6,0.1c-2.2-0.1-4.5,0.3-6.7-0.2c-3.5-0.9-6.1-4.2-6.2-7.9
			c-0.1-4.6,3.7-8.5,8.5-8.4c1.6,0,3.1,0,4.7,0c0.2,0,0.4,0,0.7,0c0-4,0-7.9,0-11.9C30.7,57.2,30.7,53.3,30.7,49.3z M65.6,75.6
			c-1.3,0-2.5,0-3.7,0c-12.3,0-24.5,0-36.8,0c-3,0-5.5,2.5-5.5,5.5c0,3,2.3,5.6,5.3,5.7c2.1,0.1,4.2,0.1,6.3,0.1
			c2.1,0,4.2-0.1,6.3-0.1c9.1,0,18.2,0,27.3,0c0.2,0,0.5,0,0.7,0C62.8,83,62.8,79.4,65.6,75.6z M85.6,14.8c-3.1,0-5.6,2.5-5.6,5.6
			c0,3.1,2.6,5.6,5.6,5.6c3,0,5.6-2.6,5.6-5.6C91.3,17.3,88.7,14.7,85.6,14.8z"/>
		<path d="M12.1,27.7c-0.7-0.6-1.4-1.1-2.1-1.7c-2.7-2.4-4.2-5.4-4.1-9.1c0-0.4,0.1-0.8,0.4-1.1c0.4-0.5,1-0.3,1.5,0
			c2.6,1.5,5.2,3,7.7,4.5c3.1,1.9,6.3,3.9,9,6.3c5.9,5.3,11.6,10.8,16.4,17.2c2.2,2.9,4.1,6,5.4,9.4c0.4,1.2,0.7,2.4,1,3.6
			c0.2,0.7-0.2,1.2-0.8,1.3c-0.5,0.1-1.1-0.2-1.2-0.8c-0.8-4-2.8-7.4-5-10.7c-0.9-1.4-0.9-1.3-2.5-1c-3.1,0.6-6.2,1-9.3,0.9
			c-0.9,0-1.8-0.2-2.6-0.5c-1.5-0.5-1.9-1.8-1-3.2c0.3-0.4,0.6-0.8,1-1.3c-0.6,0-1.1-0.1-1.6-0.1c-1.8-0.1-3.7-0.3-5.4-1
			c-0.6-0.2-1.1-0.6-1.5-1.1c-0.7-0.8-0.5-1.9,0.3-2.8c0.2-0.2,0.4-0.5,0.7-0.8c-0.6-0.2-1.1-0.4-1.6-0.5c-1.6-0.5-3.1-1.2-4.5-2.2
			c-2-1.6-2.1-3.5-0.2-5.2C12,27.8,12,27.8,12.1,27.7z"/>
		<path d="M38.5,31.3c1.3,0,2.5,0.5,3.5,1.3c1,0.8,2.2,1.2,3.5,0.9c0.8-0.2,1.5-0.5,2.2-0.9c1.8-1.2,3.7-1.6,5.8-1
			c0.8,0.2,1.5,0.6,2.1,1.1c1.8,1.2,3.6,1.3,5.5,0c1.8-1.2,3.7-1.7,5.8-1.1c0.8,0.2,1.5,0.6,2.1,1.1c0.8,0.5,1.6,0.9,2.6,0.9
			c0.4,0,0.8,0.2,1,0.5c0.2,0.2,0.2,0.7,0,0.9c-0.2,0.3-0.6,0.5-1,0.5c-1.2,0-2.3-0.3-3.3-1c-0.8-0.5-1.6-0.9-2.4-1.1
			c-1.3-0.4-2.5,0-3.6,0.8c-1.5,1.1-3.3,1.5-5.1,1.2c-1-0.2-1.9-0.6-2.7-1.2c-1.2-0.9-2.5-1.2-3.9-0.8c-0.6,0.1-1.2,0.5-1.7,0.8
			c-1.6,1.1-3.3,1.6-5.1,1.2c-0.8-0.2-1.6-0.5-2.3-0.9c-1-0.6-2.1-1.3-3.3-1.2c-0.6,0-0.9-0.4-0.9-1c0-0.6,0.4-0.9,0.9-1
			C38.3,31.3,38.4,31.3,38.5,31.3z"/>
		<path d="M38.5,21.6c1.4,0,2.6,0.6,3.7,1.4c0.8,0.6,1.8,0.9,2.8,0.8c0.9,0,1.8-0.3,2.5-0.9c1.8-1.3,3.7-1.7,5.8-1.1
			c0.8,0.2,1.5,0.6,2.2,1.1c1.9,1.2,3.9,1.2,5.7-0.1c2.2-1.6,5-1.7,7.2-0.2c1,0.7,2,1.2,3.3,1.2c0.6,0,1,0.5,0.9,1
			c0,0.5-0.4,0.9-1.1,0.9c-1.3,0-2.4-0.3-3.5-1c-0.8-0.6-1.7-1.1-2.8-1.2c-1,0-2,0.1-2.8,0.7c-1.1,0.7-2.2,1.4-3.5,1.5
			c-1.5,0.1-2.9-0.1-4.2-0.9c-0.9-0.6-1.7-1.2-2.8-1.3c-1.1-0.1-2.2,0.1-3.1,0.8c-1.6,1.2-3.4,1.7-5.3,1.4c-1.1-0.2-2.1-0.7-2.9-1.3
			c-0.7-0.5-1.5-0.8-2.4-0.8c-0.8-0.1-1.2-0.4-1.1-1C37.3,21.9,37.7,21.6,38.5,21.6z"/>
		<path d="M38.8,60.3c1.1,0,2.3,0.5,3.4,1.3c1.5,1.1,4,1.1,5.4,0c1.7-1.3,3.7-1.7,5.8-1.1c0.8,0.2,1.6,0.6,2.2,1.1
			c1.5,1.1,3.9,1,5.4,0c2.7-1.9,5.3-1.9,8,0c0.8,0.5,1.6,0.9,2.5,0.9c0.7,0,1.2,0.4,1.2,1c0,0.6-0.5,1-1.3,0.9
			c-1.3-0.1-2.5-0.5-3.6-1.3c-1.3-0.9-2.7-1.2-4.2-0.7c-0.5,0.2-1.1,0.5-1.5,0.8c-1.4,1-3,1.4-4.8,1.1c-1-0.1-1.9-0.6-2.8-1.1
			c-0.7-0.4-1.5-0.8-2.3-1c-1.1-0.3-2.2,0-3.2,0.7c-1.4,1-3,1.6-4.8,1.4c-1.2-0.1-2.3-0.5-3.2-1.2c-0.8-0.6-1.7-1-2.7-1
			c-0.9,0-1.2-0.4-1.2-1C37.3,60.6,37.7,60.3,38.8,60.3z"/>
		<path d="M43.7,43c1.8,0.4,3.1-0.3,4.5-1.1c2.5-1.5,5-1.3,7.3,0.3c1.5,1.1,3.9,1.2,5.6,0c2.6-1.8,5.2-1.8,7.9,0
			c0.8,0.5,1.6,0.9,2.6,0.9c0.9,0,1.3,0.7,1,1.4c-0.2,0.5-0.7,0.5-1.1,0.5c-1.3,0-2.5-0.5-3.6-1.2c-0.6-0.4-1.4-0.8-2.1-1
			c-1.2-0.3-2.3,0-3.3,0.7c-1,0.7-2,1.3-3.3,1.4c-1.7,0.2-3.3-0.1-4.7-1.2c-1.3-0.9-2.7-1.3-4.2-0.8c-0.5,0.2-1.1,0.5-1.5,0.8
			c-1,0.7-2,1.2-3.2,1.2c-0.2,0-0.4,0-0.5-0.1C44.6,44.4,44.2,43.8,43.7,43z"/>
		<path d="M49.3,53.2c-0.2-0.6-0.5-1.2-0.7-1.8c2.1-1,4.1-1,6.2,0.1c0.3,0.2,0.7,0.4,1,0.6c1.7,1.1,3.6,1.2,5.2,0
			c1.4-1,2.9-1.5,4.5-1.3c1.1,0.1,2.1,0.6,3.1,1c0.4,0.2,0.8,0.6,1.2,0.8c0.4,0.2,0.8,0.3,1.2,0.4c0.4,0.1,0.8,0.1,1.2,0.3
			c0.5,0.1,0.6,0.5,0.5,1c-0.1,0.5-0.4,0.8-1,0.7c-0.8-0.1-1.6-0.2-2.4-0.4c-0.7-0.2-1.3-0.6-1.9-1.1c-1.1-0.8-2.3-0.9-3.6-0.6
			c-0.6,0.1-1.2,0.6-1.8,0.9c-1.9,1.3-3.9,1.5-6.1,0.8c-0.7-0.2-1.3-0.6-1.8-1c-1.5-1-3-1.1-4.6-0.3C49.5,53.1,49.4,53.1,49.3,53.2z
			"/>
		<path d="M41.1,53.6c-0.9-0.7-1.9-1.1-3.1-1.1c-0.6,0-0.9-0.5-0.9-1c0-0.5,0.4-0.9,0.9-0.9c0.2,0,0.3,0,0.5,0
			c0.7,0,1.3,0.2,1.6,0.9c0.3,0.7,0.7,1.3,1,2C41.2,53.6,41.2,53.6,41.1,53.6z"/>
		<path class="st0" d="M65.6,75.6c-2.8,3.7-2.8,7.4,0,11.2c-0.3,0-0.5,0-0.7,0c-9.1,0-18.2,0-27.3,0c-2.1,0-4.2,0.1-6.3,0.1
			c-2.1,0-4.2,0-6.3-0.1c-3-0.1-5.3-2.7-5.3-5.7c0-3,2.5-5.5,5.5-5.5c12.3,0,24.5,0,36.8,0C63.1,75.6,64.3,75.6,65.6,75.6z"/>
		<path class="st0" d="M85.6,14.8c3.1,0,5.6,2.5,5.6,5.6c0,3-2.5,5.6-5.6,5.6c-3.1,0-5.6-2.5-5.6-5.6C80.1,17.3,82.6,14.8,85.6,14.8
			z"/>
	</g>
</g>
</svg>
