<?xml version="1.0" encoding="utf-8"?>
<!-- Generator: Adobe Illustrator 25.0.0, SVG Export Plug-In . SVG Version: 6.00 Build 0)  -->
<svg version="1.1" xmlns="http://www.w3.org/2000/svg" xmlns:xlink="http://www.w3.org/1999/xlink" x="0px" y="0px"
	 viewBox="0 0 28 31" height="31" width="28" style="enable-background:new 0 0 28 31;" xml:space="preserve">
<style type="text/css">
	.st0{fill:#EAD82F;}
</style>
<g id="Layer_1" xmlns:serif="http://www.serif.com/">
</g>
<g id="Layer_2">
	<g>
		<g>
			<g>
				<path d="M141.7,353.9c1.6,0,3.3-0.2,4.9-0.2c2.8-0.2,4.3-1.6,4.8-4.4c0.7-3.8,3.6-5.3,6.8-3.3c3.3,2.1,5.9,1.8,8.1-1.3
					c1.6-2.3,3.8-1,5.6-0.8c3,0.2,4-0.7,2.5-3.5c-3.5-6.4-5.8-13.2-8.2-19.9c-1-2.8-4.3-2.5-6.8-3c-2-0.5-4.1-0.3-4.9-2.6
					c-0.8-2.5,1-4,2.5-5.4c3.1-3,6.9-4.1,11.4-4.3c4.1-0.2,5.4,3,7.2,5.4c1,1.3-0.8,2.1-1.8,2.8c-6.4,4.8-6.3,5.3-3.6,13
					c2,5.6,5.3,10.5,6.9,16.3c0.5,1.8,1.5,1.8,2.6,0.5c4.6-5.1,4-13.2-1.5-17.5c-1.3-1-2.6-2.1-1.8-4.1c0.5-1,1.5-1.5,2.5-1.2
					c1.6,0.5,2.3,1.8,2.1,3.6c0,0.8,0,1.8,0.5,2.5c3.5,5.3,3,10.5,0.2,15.8c-0.2,0.3,0,0.7-0.2,1.2c2.1,0,2.8-1.5,3.5-3
					c1-2.3,2.6-3.6,5.3-3.1c0.5,0.2,1,0.2,1.5,0.2c7.2-0.5,8.6-2.1,7.1-9.4c-1.5-7.7-2.8-15.3-4.1-23c-0.3-2-0.8-4-2.1-5.6
					c-3.1-3.8-3.8-7.9-2-12.3c1.5-3.5,1-6.1-2.8-8.1c-3.3-1.6-6.1-4.1-9.1-6.3c-1.5-1.2-3.1-2.8-1.3-4.3c5.4-4.3,6.1-10.9,8.4-16.6
					c5.4-13.7,10.4-27.7,15.6-41.5c1-2.8,1-5.1-1.3-7.2c-1.5-1.3-1.6-3.1-0.8-4.9c4.9-10.7,3.8-22.2,5.3-33.4c0.2-1,0-2,0.2-3
					c0.3-6.6,2.1-8.7,8.7-9.1c4.8-0.2,7.7-2.6,9.5-6.8c1.3-3,0.7-6.9-2.1-8.4c-4.3-2.3-6.6-5.9-7.6-10.2c-1-3.8-3.1-5.1-6.8-4.8
					c-1.5,0.2-3.5,0.5-4-1.3c-0.5-1.5,1.2-2.3,2.1-3.3c2.3-2,3-4.6,3.6-7.2c2-8.7,7.9-13.5,16.3-15.3c4.9-1,9.2,0.2,12.8,3.6
					c4,3.8,7.2,8.4,12.7,10.5c2,0.7,1.6,2.3-0.2,3c-5.9,1.8-6.8,5.1-4.9,10.7c1.6,5.3,3.8,9.4,9.2,11.2c0.5,0.2,1,0.3,1.3,0.7
					c5.4,3.1,6.1,3.1,10.2-1.6c3.6-4.1,6.6-8.9,9.1-13.8c0.7-1.3,1.6-3.6,3-2.8c2,1.3,4.6,2.3,5.6,4.6c0.7,1.6-1,2.5-2.3,3.5
					c-3.5,3-4.3,7.1-4.3,11.2c0,2.8,2.6,3.3,4.8,2.5c2.5-1,4.6-2.5,6.9-3.8c4.9-3,12.5-1,15.1,4.1c10.2,19.4,13,40.2,9.7,61.7
					c-0.7,3.8-1.2,7.7-1.8,11.5c-0.3,3-1.8,4.6-4.9,4.4c-1.3,0-3-0.2-3.3,1.2c-0.5,1.5,1.3,1.5,2.3,2.1c4.8,3,5.1,4,2.5,9.1
					c-1.8,3.8-3.8,7.4-5.6,11.2c-1.2,2.5-3,3.3-5.6,2c-2.5-1.2-5.1-2.3-7.6-3.5c-2.5-1.3-3.5-1.2-4,2.1c-1,7.2,1.5,13.7,3,20.4
					c1.5,7.1,3.5,14,5.3,20.9c0.3,1.3,0.8,2.6,1,4.1s0.5,3.3-1.5,3.8c-1.8,0.3-2.1-1.5-2.6-2.6c-2.6-7.7-5.1-15.5-7.9-23
					c0.5,5.4,2.3,10.5,3.6,15.8c1,3.8,2.3,7.6,3.1,11.4c0.5,2.1,2.1,5.1-1.3,6.1c-3.3,1-3.6-2.1-4.3-4.4c-1.8-6.3-3.5-12.7-5.4-18.9
					c-0.5-1.5-0.5-3.6-2.8-3.5c-2.6,0.2-2.1,2.5-2.3,4.1c-0.5,4.3-1.3,8.6,0.7,12.7c0.3,0.7,0.2,1.8,0,2.6c-1.6,7.4,0,14.5,2.6,21.4
					c0.7,1.8,1.3,3.8,1.8,5.8c0.5,2,0.8,3.6,3.3,3.8c1.5,0.2,1.8,1.6,2.3,2.8c2.1,5.8,4.9,11.4,8.1,16.6c2.3,4,3.1,8.4,3.8,13
					c0.3,2.3-0.5,3.3-2.8,3.5c-5.8,0.3-11.5,1-17.3,1.3c-14.8,0.7-29.8,1.3-44.6,1.8c-25,0.7-50,0.5-74.9,0.5
					c-4.9,0-9.7-0.8-14.7-0.8C141.7,358,141.7,356,141.7,353.9z M246.1,304.6c-1.5-8.2-2.8-16.1-4.3-24.2c-0.3-2.1-1.6-2.1-3.3-1.2
					c-5.6,3.1-11.4,6.1-16.8,9.4c-2.5,1.5-4.1,4.3-3.8,7.2c0.8,6.4,1,12.8,2.5,19.1c0.7,2.6,0.7,5.3,0.2,7.9
					c-0.5,2.6-0.8,5.3-0.8,7.9c0,3.8,1.2,4.4,4.8,4.1c4-0.5,7.9-2,11.7,0.8c1.5,1.2,3.6,0.2,4.8-1.3c1.6-2.1,3.6-2,5.8-1.2
					c0.8,0.3,1.6,0.5,2.5,0.8c4,1.2,5.1,0.3,4.8-4c-0.3-3.1-0.8-6.3-1.5-9.4c-0.3-1.8-0.3-4.1-2.1-5.1
					C246.4,313.2,244.3,309.6,246.1,304.6z M200.2,227.6c8.7-2.8,11.7-10.4,15.8-16.5c1.6-2.5-1.8-4.8-3.1-6.6
					c-1.3-1.6-3,1.2-3.8,2.3C204.6,212.9,202.8,220.2,200.2,227.6z M217.5,247.8c-4.8-1-6.6,1-8.2,4.1c-3.1,6.4-6.8,12.5-10,18.8
					c0.2,0.2,0.3,0.2,0.5,0.3C205.4,263.5,211.4,255.7,217.5,247.8z M195.2,240.6c-2.3,5.8-5.9,10-6.3,16c2-0.7,3-2,4.3-3.3
					C198.7,248.2,198.7,248.2,195.2,240.6z"/>
			</g>
		</g>
		<path class="st0" d="M154.4,312.6c0,0,0.6-1.3,1.4-2s2.2-2.2,3.1-2.7s2.1-1.3,3.3-1.7c1.2-0.4,2.8-0.7,3.3-0.8s2.5-0.4,3.6-0.3
			c1,0.1,1.7,0.2,2.3,0.6c0.6,0.4,1.5,1.1,1.6,1.2c0.1,0.2,0.7,0.8,0.9,1.1c0.2,0.3,0.8,1.1,0.8,1.1s1.1,1.6,1.1,1.6
			c0,0,0.2,0.3,0.1,0.6c0,0.3-0.2,0.5-0.3,0.7c-0.1,0.2-2,1.5-2,1.5s-3,2.3-3.6,3s-1.4,1.6-1.4,2.5c-0.1,0.9-0.1,1.5,0.2,2.6
			c0.3,1.1,1.6,5.1,1.6,5.1l3.8,8.4l2.7,6.5l0.4,1.2c0,0,0.3,0.8,0.5,1s0.5,0.4,0.8,0.3c0.3-0.1,1.1-0.4,2-1.8s2.3-3.5,2.3-5.9
			s0.2-3.1-0.8-5.7c-1-2.6-1.7-3-2.3-3.6s-2.5-2.1-2.8-2.5s-1.1-1.5-0.6-2.5c0.5-1,0.8-1.5,1.4-1.6c0.6-0.1,1.3-0.2,1.9,0.3
			c0.6,0.5,1.1,0.9,1.2,1.5c0.1,0.7,0.1,2.1,0.2,2.6s0.1,1,0.6,1.8c0.5,0.8,1.9,3.2,2.1,5.1s0.3,3.8-0.1,5.4
			c-0.4,1.6-0.9,2.9-1.3,3.9c-0.5,0.9-0.7,1.4-0.7,1.8c0,0.5-0.1,0.6-0.1,0.6s-13.2,11.6-26.4,11s-13.2-0.6-13.2-0.6s6.5,0,7.7-1
			c1.2-1,1.4-1.6,1.5-1.8s0.4-1.4,0.6-2c0.1-0.6,0.7-2.6,1.8-3.2c1.1-0.6,2.2-1,3.4-0.6c1.1,0.5,3,1.7,4,1.9c1,0.2,2.2,0.4,3.1-0.2
			c0.9-0.5,1.6-1.2,1.9-1.5c0.2-0.3,1-1.3,1.2-1.4c0.2-0.2,0.8-0.6,1.1-0.7c0.4,0,0.7-0.2,2.1,0.1s2.9,0.6,3.7,0.3
			c0.8-0.4,1.3-0.6,1.2-1.3s-0.3-1.3-0.5-1.7c-0.2-0.4-2.5-5.1-2.5-5.1l-2.2-5.3l-2.6-7l-0.8-2.2c0,0-0.4-1.3-0.8-1.7
			c-0.4-0.5-0.9-0.9-1.6-1.1c-0.7-0.2-3.7-0.7-4-0.7c-0.3,0-3.8-0.7-4.2-1c-0.5-0.3-1.5-1.3-1.5-2.3
			C154.2,313.2,154.4,312.6,154.4,312.6z"/>
	</g>
</g>
</svg>
