<?xml version="1.0" standalone="no"?>
<!DOCTYPE svg PUBLIC "-//W3C//DTD SVG 20010904//EN"
 "http://www.w3.org/TR/2001/REC-SVG-20010904/DTD/svg10.dtd">
<svg version="1.0" xmlns="http://www.w3.org/2000/svg"
 width="512.000000pt" height="512.000000pt" viewBox="0 0 512.000000 512.000000"
 preserveAspectRatio="xMidYMid meet">

<g transform="translate(0.000000,512.000000) scale(0.100000,-0.100000)"
fill="#000000" stroke="none">
<path d="M1355 4540 l-1200 -579 -3 -156 -3 -155 2411 0 2411 0 -3 155 -3 156
-1203 579 c-661 319 -1203 580 -1205 579 -1 0 -542 -261 -1202 -579z"/>
<path d="M350 3165 l0 -185 195 0 195 0 0 -790 0 -790 385 0 385 0 0 790 0
790 330 0 330 0 0 -790 0 -790 390 0 390 0 0 790 0 790 330 0 330 0 0 -790 0
-790 385 0 385 0 0 790 0 790 195 0 195 0 0 185 0 185 -2210 0 -2210 0 0 -185z"/>
<path d="M417 1093 c-4 -3 -7 -93 -7 -200 l0 -193 2150 0 2150 0 -2 198 -3
197 -2141 3 c-1177 1 -2144 -1 -2147 -5z"/>
<path d="M150 200 l0 -200 2410 0 2410 0 0 200 0 200 -2410 0 -2410 0 0 -200z"/>
</g>
</svg>
