<?xml version="1.0" encoding="utf-8"?>
<!-- Generator: Adobe Illustrator 25.0.0, SVG Export Plug-In . SVG Version: 6.00 Build 0)  -->
<svg version="1.1" id="Layer_1" xmlns="http://www.w3.org/2000/svg" xmlns:xlink="http://www.w3.org/1999/xlink" x="0px" y="0px"
	 viewBox="0 0 100 100" style="enable-background:new 0 0 100 100;" xml:space="preserve">
<style type="text/css">
	.st0{fill:#00000;}
</style>
<g>
	<g>
		<path fill="none" d="M0,0c33.3,0,66.7,0,100,0c0,33.3,0,66.6,0,100c-33.3,0-66.7,0-100,0C0,66.7,0,33.3,0,0z M49.9,93.5
			c1.1,0,2.2,0,3.2,0c5.5,0,11.1,0,16.6,0c3,0,5.3-1.4,6.7-4.1c1.4-2.7,1.3-5.5-0.5-8.1c-0.5-0.7-1-1.5-1.5-2.2
			c-4.1-6.2-8.2-12.3-12.2-18.6c-2.1-3.3-3.5-6.9-3.5-10.8c-0.1-4.6,0-9.3,0-13.9c0-0.5,0.3-1,0.6-1.4c1.2-1.3,1.6-2.8,0.9-4.5
			c-0.6-1.6-1.9-2.6-3.6-2.6c-4.5-0.1-8.9-0.1-13.4,0c-1.7,0-3,1-3.6,2.6c-0.6,1.5-0.5,3,0.7,4.1c0.8,0.8,0.9,1.6,0.9,2.6
			c0,0.7,0,1.3,0,2c0,3.9,0.1,7.8,0,11.6c-0.2,4.6-2.2,8.7-4.7,12.5c-4.1,6.3-8.3,12.5-12.5,18.7c-1.2,1.8-1.7,3.8-1.3,5.9
			c0.8,4,3.7,6.3,8,6.3C37.2,93.5,43.6,93.5,49.9,93.5z M53.5,19.3c0-1.9-1.5-3.4-3.3-3.4c-1.9,0-3.5,1.6-3.5,3.4
			c0,1.9,1.6,3.4,3.5,3.4C52,22.7,53.5,21.2,53.5,19.3z M42.9,8.4c0,1.6,1.3,2.9,2.9,2.8c1.5,0,2.8-1.3,2.8-2.8
			c0-1.6-1.3-2.9-2.9-2.9C44.1,5.6,42.9,6.9,42.9,8.4z"/>
		<path class="st0"  d="M49.9,93.5c-6.4,0-12.8,0-19.1,0c-4.3,0-7.2-2.3-8-6.3c-0.4-2.1,0-4.1,1.3-5.9c4.2-6.2,8.4-12.4,12.5-18.7
			c2.5-3.8,4.5-7.8,4.7-12.5c0.2-3.9,0-7.8,0-11.6c0-0.7,0-1.3,0-2c0-1-0.1-1.8-0.9-2.6c-1.1-1.1-1.3-2.6-0.7-4.1
			c0.7-1.6,1.9-2.5,3.6-2.6c4.5-0.1,8.9-0.1,13.4,0c1.7,0,3,1,3.6,2.6c0.6,1.7,0.2,3.1-0.9,4.5c-0.3,0.4-0.6,0.9-0.6,1.4
			c0,4.6-0.1,9.3,0,13.9c0.1,4,1.4,7.6,3.5,10.8c4,6.3,8.1,12.4,12.2,18.6c0.5,0.7,1,1.5,1.5,2.2c1.8,2.6,1.9,5.3,0.5,8.1
			c-1.4,2.7-3.7,4.1-6.7,4.1c-5.5,0-11.1,0-16.6,0C52.1,93.5,51,93.5,49.9,93.5z M44,35.6c0,0.5,0,0.9,0,1.4c0,4.3,0,8.5,0,12.8
			c0,1.1-0.1,2.3-0.4,3.4c-1,4.9-3.5,9.1-6.2,13.2c-3.7,5.6-7.5,11.1-11.2,16.6c-1.1,1.6-1.2,3.4-0.3,5.1c0.9,1.7,2.3,2.6,4.2,2.6
			c13.2,0,26.3,0,39.5,0c2,0,3.5-0.9,4.4-2.6c0.9-1.7,0.8-3.5-0.3-5.1c-1.2-1.7-2.3-3.4-3.5-5.2c-3.4-5.2-7-10.4-10.3-15.7
			c-2.8-4.5-4.2-9.4-4-14.8c0.2-3.5,0-7,0-10.5c0-0.4,0-0.7-0.1-1.2C52,35.6,48.1,35.6,44,35.6z M50.1,30.1
			C50.1,30.1,50.1,30.1,50.1,30.1c-2.1,0-4.1,0-6.2,0c-1.2,0-1.8,0.5-1.7,1.4c0.1,1,0.8,1.3,1.7,1.3c4.1,0,8.2,0,12.3,0
			c0.9,0,1.6-0.3,1.7-1.3c0-1-0.7-1.3-1.6-1.3C54.2,30.1,52.1,30.1,50.1,30.1z"/>
		<path class="st0"  d="M53.5,19.3c0,1.8-1.5,3.4-3.3,3.4c-1.9,0-3.5-1.5-3.5-3.4c0-1.9,1.6-3.5,3.5-3.4C52,16,53.5,17.5,53.5,19.3z"/>
		<path class="st0"  d="M42.9,8.4c0-1.5,1.2-2.8,2.7-2.8c1.6,0,3,1.3,2.9,2.9c0,1.5-1.3,2.8-2.8,2.8C44.2,11.3,42.9,10,42.9,8.4z"/>
		<path fill="none" d="M44,35.6c4.1,0,8,0,12,0c0,0.4,0.1,0.8,0.1,1.2c0,3.5,0.1,7,0,10.5c-0.3,5.4,1.2,10.3,4,14.8
			c3.3,5.3,6.8,10.5,10.3,15.7c1.1,1.7,2.3,3.4,3.5,5.2c1.1,1.6,1.2,3.4,0.3,5.1c-0.9,1.8-2.4,2.6-4.4,2.6c-13.2,0-26.3,0-39.5,0
			c-1.9,0-3.3-0.9-4.2-2.6c-0.9-1.7-0.8-3.5,0.3-5.1c3.7-5.5,7.5-11.1,11.2-16.6c2.7-4.1,5.2-8.3,6.2-13.2c0.2-1.1,0.4-2.3,0.4-3.4
			c0-4.3,0-8.5,0-12.8C44,36.5,44,36.1,44,35.6z M50,88.7C50,88.7,50,88.7,50,88.7c6.4,0,12.9,0,19.3,0c1.3,0,2.3-0.4,2.9-1.6
			C72.8,86,72.7,85,72,84c-3-4.4-6-8.8-9.1-13.2c-1.7-2.4-4.7-2.9-7.1-1.1c-0.9,0.7-1.8,1.5-2.7,2.2c-3.7,3-9.1,4.5-14,0.5
			c-1.5-1.2-2.6-0.9-3.7,0.6c-2.4,3.6-4.8,7.2-7.3,10.8c-0.8,1.1-1,2.2-0.4,3.5c0.6,1.2,1.7,1.5,3,1.5C37.2,88.7,43.6,88.7,50,88.7z
			 M50.2,65.4c0-1.9-1.5-3.4-3.4-3.4c-1.9,0-3.4,1.6-3.4,3.5c0,1.8,1.7,3.4,3.5,3.3C48.8,68.8,50.3,67.2,50.2,65.4z M51.2,53.2
			c-1.4,0-2.4,1-2.4,2.4c0,1.3,1.1,2.4,2.4,2.4c1.2,0,2.3-1.2,2.3-2.4C53.6,54.3,52.6,53.2,51.2,53.2z M48.8,46.4
			c0.9,0,1.6-0.6,1.6-1.4c-0.1-0.8-0.5-1.3-1.4-1.4c-0.8-0.1-1.5,0.6-1.5,1.4C47.6,45.8,48.1,46.3,48.8,46.4z"/>
		<path  fill="none" d="M50.1,30.1c2,0,4.1,0,6.1,0c0.9,0,1.6,0.3,1.6,1.3c0,1-0.7,1.3-1.7,1.3c-4.1,0-8.2,0-12.3,0
			c-0.9,0-1.6-0.3-1.7-1.3c-0.1-0.9,0.6-1.4,1.7-1.4C46,30.1,48,30.1,50.1,30.1C50.1,30.1,50.1,30.1,50.1,30.1z"/>
		<path class="st0"  d="M50,88.7c-6.4,0-12.8,0-19.2,0c-1.3,0-2.4-0.3-3-1.5c-0.6-1.2-0.4-2.3,0.4-3.5c2.5-3.6,4.8-7.2,7.3-10.8
			c1.1-1.6,2.2-1.8,3.7-0.6c4.9,4,10.3,2.5,14-0.5c0.9-0.7,1.8-1.5,2.7-2.2c2.4-1.7,5.4-1.3,7.1,1.1c3.1,4.4,6,8.8,9.1,13.2
			c0.7,1,0.8,2.1,0.3,3.1c-0.6,1.1-1.6,1.6-2.9,1.6C62.9,88.7,56.5,88.7,50,88.7C50,88.7,50,88.7,50,88.7z"/>
		<path class="st0"  d="M50.2,65.4c0,1.9-1.4,3.4-3.3,3.5c-1.8,0.1-3.4-1.5-3.5-3.3C43.4,63.6,45,62,46.9,62C48.7,62,50.2,63.5,50.2,65.4z"/>
		<path class="st0"  d="M51.2,53.2c1.3,0,2.4,1.1,2.4,2.4c0,1.2-1.1,2.3-2.3,2.4c-1.3,0-2.4-1-2.4-2.4C48.8,54.3,49.9,53.2,51.2,53.2z"/>
		<path class="st0"  d="M48.8,46.4c-0.7-0.1-1.2-0.6-1.3-1.4c0-0.8,0.7-1.5,1.5-1.4c0.8,0.1,1.3,0.6,1.4,1.4C50.4,45.7,49.7,46.4,48.8,46.4z"/>
	</g>
</g>
</svg>
