<?xml version="1.0" encoding="utf-8"?>
<!-- Generator: Adobe Illustrator 25.0.0, SVG Export Plug-In . SVG Version: 6.00 Build 0)  -->
<svg version="1.1" id="Layer_1" xmlns:serif="http://www.serif.com/"
	 xmlns="http://www.w3.org/2000/svg" xmlns:xlink="http://www.w3.org/1999/xlink" x="0px" y="0px" viewBox="0 0 28 31" height="31" width="28"
	 style="enable-background:new 0 0 28 31;" xml:space="preserve">
<style type="text/css">
	.st0{fill:#EAD82F;stroke:#000000;stroke-width:2;stroke-miterlimit:10;}
	.st1{fill:#282828;}
</style>
<circle class="st0" cx="228" cy="228" r="27.2"/>
<g>
	<g>
		<path class="st1" d="M221.8,179.4c-2.2,1.5-4.3,0.9-6.3,0.6c-14-2.2-28.2-3.6-42.4-4.2c-4.3-0.2-4.6,0.3-2.8,4.2
			c5,10.8,10.5,21.4,16.5,31.7c0.6,1,1.3,2,1,3.2c-0.4,1.4-0.7,3.3-2.3,3.7c-1.5,0.4-1.8-1.5-2.4-2.6c-7-11.8-13.5-23.8-19-36.4
			c-1.3-3.1-3.2-4.1-6.5-4c-12.8,0.3-25.6,1.1-37.9,5.1c-2.9,0.9-5.8,2.1-8.5,3.7c-8.5,5.2-9.9,12.2-3.9,20
			c4.6,6.1,10.8,10.5,17.2,14.6c2.2,1.4,3.2-0.1,4.5-1.3c4.4-4,9.6-5.4,15.3-3.4c5.9,2,9.3,6.1,10.3,12.2c0.1,0.6,0.3,1.3,0.1,1.9
			c-1.7,5.3,2,6.3,5.8,7.6c20.5,7.4,41.5,13,62.9,17.4c2.3,0.5,4.1,0.2,6.2-1.1c3.2-2.1,6.6-1.3,8.5,1.4c1.9,2.7,1.4,6.2-1,8.3
			c-2.6,2.2-6.3,1.9-8.9-1.1c-1.4-1.8-3.2-2.4-5.3-2.8c-23-4.5-45.6-10.5-67.6-19c-2.2-0.8-3.6-0.6-5.6,0.9
			c-5.1,4.1-10.6,5.5-16.8,2.5c-5.9-2.9-8.8-7.7-8.5-14.2c0.1-2.4-0.8-3.7-2.8-5c-6.9-4-13.4-8.6-18.8-14.5c-1.9-2-3.4-4.2-4.5-6.6
			c-3.2-6.9-1.8-13.1,4.3-17.7c7.4-5.6,16.2-7.5,25.1-9.1c9.4-1.7,18.8-2.5,28.3-2.4c5.1,0,5,0,3.2-4.6c-4.2-11.3-8.2-22.7-7.8-35
			c0.1-1.8,0.2-3.6,0.7-5.3c2.2-7.8,7.6-11.3,15.7-10.1c10.2,1.4,18.8,6.4,27.4,11.7c8.1,5,15.2,10.9,22.5,16.7
			c0.9,0.7,2.6,1.7,1.4,3c-1.3,1.5-2.5-0.1-3.5-0.9c-8.2-6.6-16.5-12.9-25.9-18c-5.7-3-11.5-6-18-6.3c-7.6-0.4-12.7,4.1-13.1,11.9
			c-0.6,10.3,2.6,19.9,5.6,29.6c1.8,5.6,4.4,7.6,10.5,7.7c14,0.3,28.1,2.2,42,4.3C218.4,178.1,220.2,177.9,221.8,179.4z"/>
		<path class="st1" d="M264.8,274c0.3-3.5,2.2-4.3,3.7-5.4c16.7-11,32.6-23,47.3-36.8c2.9-2.7,5.6-5.6,8.5-8.4
			c1.9-1.8,1.3-2.9-0.8-4c-4.2-2.1-8.4-4.3-12.6-6.6c-1-0.6-2.9-1.1-2.3-2.6c0.8-1.8,2.3-0.2,3.2,0.3c4.4,2.3,8.9,4.5,13.3,6.9
			c1.7,0.9,3.3,1.7,4.7-0.2c5.6-7,11.3-14,13.7-22.9c2.3-8.2-0.9-14.1-9.1-16.2c-8.1-2-16.3-1.3-24.4,0.4c-1.8,0.4-2.2,1.4-2.3,3
			c-0.5,7.3-4.2,12.4-11.4,14.4c-6.8,1.9-12.7-0.2-16.7-6.3c-1.8-2.6-3.6-1.3-5.4-0.6c-10.2,4.1-20.3,8.6-30.1,13.5
			c-13.6,6.9-26.9,14.2-39.7,22.6c-1.1,0.7-2.2,1.9-4,1.3c0.7-3.1,1.9-5.7,4.6-7.4c21.6-13.4,44-25.2,67.8-34.4
			c2.9-1.1,4.3-2.5,4.9-5.9c0.7-6.1,4.4-10.2,10.5-12c6.3-1.8,11.8,0,16,4.6c1.9,2.1,3.5,2.4,6,1.9c8.8-1.9,17.8-2.9,26.7-1
			c11,2.3,15.1,9.4,11.9,20.1c-2.9,9.5-8.9,17.2-15.2,24.8c-3,3.5-2.9,3.4,0.8,6c8.2,5.5,15.9,11.3,21.5,19.5
			c4.1,6.1,4.9,14.6-1.8,19.7c-1.3,1-1.1,2.5-1.3,3.8c-1.3,8.5-9.8,11.7-16.4,6.3c-1.8-1.4-3.3-1.9-5.6-1.5
			c-8.9,1.3-17.9,1.9-26.8,1.7c-0.9,0-2.1,0.2-3.3-1.1c4-1.7,7.7-3.3,11.9-3.8c5.6-0.6,11.3-1.1,16.8-1.8c2.1-0.2,3.4-1,4.1-3.3
			c2.3-6.6,6.9-8.9,13.5-6.5c3.1,1.1,4.2,0,5.3-2.5c2.2-5.8-0.7-10.3-3.9-14.5c-4.7-6-10.7-10.5-17-14.8c-2.1-1.4-3.5-0.6-5,0.9
			c-15.6,16.1-33.2,29.7-51.7,42.3C271.7,269.6,268.6,271.6,264.8,274z"/>
		<path class="st1" d="M318,330.1c0.1,3.9-0.3,7.6-1.9,11.3c-2.2,4.9-5.8,7.1-11,7.4c-9.1,0.5-16.6-3.5-24.2-7.6
			c-9.9-5.5-18.5-12.8-27-20.1c-2.1-1.8-3-2-4.5,0.6c-5.9,10.3-12,20.6-20.8,28.9c-2.8,2.7-5.9,5.1-9.4,6.6c-7,3.1-13.9,0.9-18-5.6
			c-4.4-7.1-6.1-15.2-7.1-23.3c-0.6-5-0.9-9.9-1.2-15c-0.1-1.4-1.1-3.9,1.3-4c2,0,1.4,2.4,1.4,3.8c0.1,7.7,1.1,15.4,3.3,22.7
			c1.3,4.4,3,8.7,6.4,12.1c3.8,3.8,7.6,4.6,12.6,2.6c4.2-1.8,7.5-4.9,10.6-8.1c7-7.2,12.2-15.8,17.1-24.5c1.2-2.3,0.8-3.6-0.9-5.4
			c-4-3.9-7.9-7.9-11.8-12.1c-0.9-1-3.2-2.5-1.9-3.5c1.5-1.3,2.7,1.1,3.8,2.2c3.2,3.2,6.2,6.5,9.3,9.7c4.2,4.1,4.3,4.1,6.7-1
			c2.9-6.3,5.6-12.7,8.4-19c0.3-0.8,0.6-1.8,1.1-2.4c1-1.4,2.8-2.5,4.3-1.8c1.7,0.8,0.2,2.6-0.2,3.7c-2.9,7.6-6,15.3-9.8,22.5
			c-2.7,5.2-2.7,5.1,1.7,8.9c9.4,8.3,19.3,15.6,30.7,21c2.7,1.2,5.5,2.2,8.4,2.8c10.2,2.3,16.7-3,17-13.5
			c0.3-10.4-2.7-20.2-6.1-29.9c-1.4-4.1-3.3-8.1-5-12.1c-0.5-1.2-1.9-2.7,0.1-3.6c2-0.9,3.5,0,4.3,2c1.5,3.8,3.3,7.5,4.7,11.4
			C314.3,308.2,317.6,318.9,318,330.1z"/>
		<path class="st1" d="M293.3,151.3c-0.1,1.4-0.3,3-0.4,4.4c-0.2,2.1-1.1,3.6-3.3,3.3c-2.2-0.3-1.5-2.4-1.5-3.7
			c0.6-11-0.3-22-2.6-32.8c-0.7-3.6-1.9-7.1-3.7-10.4c-6.8-12-14.2-9.8-22.1-3.8c-7.8,6.1-13.3,14.5-18.4,22.9
			c-0.9,1.4-0.3,2.6,0.5,3.8c4.6,7.4,1,15-7.7,15.8c-2.4,0.2-3.7,1.3-4.5,3.4c-2.5,6-5.1,12.1-7.5,18.1c-0.5,1.1-0.6,3.1-2.2,2.6
			c-1.8-0.6-0.4-2.2,0-3.2c2.5-6.3,5-12.6,7.6-18.9c0.8-2.1,0.9-3.4-0.7-5.2c-3-3.2-3.4-7-1.7-11c1.9-4.1,5.4-6,9.6-5.5
			c2.9,0.3,4.1-0.9,5.4-3c5.6-9.2,11.3-18.4,19.9-25.1c1.8-1.3,3.5-2.6,5.5-3.6c7.5-3.8,14.4-2,19,5.1c4.6,7,6,15.2,7.3,23.2
			C293.1,135.5,292.3,143.4,293.3,151.3z"/>
		<path class="st1" d="M142.3,305.6c7.3-0.1,14.6-1.2,21.7-3c2.4-0.5,3.6-1.7,4.1-4.2c1.7-7.6,10.3-10.4,16.2-5.3c2.3,2,4,2,6.5,0.9
			c6-2.6,12.1-5.1,18.1-7.5c0.9-0.4,2.3-1.5,2.9,0.1c0.5,1.2-1.1,1.4-2,1.9c-6,2.6-12,5.3-18.1,7.6c-2.6,1-4,2.1-4.2,5.1
			c-0.3,4.3-2.8,7.5-7,8.7c-4.1,1.1-7.9,0.1-10.7-3.4c-1.5-2-3.1-2.1-5.3-1.4c-10,2.8-20.2,4.3-30.8,3.8c-1.1-0.1-2.3-0.1-3.4-0.2
			c-12.1-1.7-17-9.5-13.3-21.2c2.6-8.1,7.3-15,12.6-21.5c4.7-5.9,10-11.4,15.5-16.5c0.9-0.8,1.8-2,3.1-2.2c1.3-0.3,2.7,0,3.4,1.2
			c0.7,1.2-0.5,1.8-1.2,2.5c-9.2,9.2-18.2,18.4-24.5,29.9c-1.4,2.7-2.6,5.6-3.2,8.6c-1.5,7.5,1.9,13.1,9.3,15.1
			C135.4,305.5,138.8,305.8,142.3,305.6z"/>
	</g>
</g>
</svg>
