<?xml version="1.0" encoding="utf-8"?>
<!-- Generator: Adobe Illustrator 16.0.0, SVG Export Plug-In . SVG Version: 6.00 Build 0)  -->
<!DOCTYPE svg PUBLIC "-//W3C//DTD SVG 1.1//EN" "http://www.w3.org/Graphics/SVG/1.1/DTD/svg11.dtd">
<svg version="1.1" id="Layer_1" xmlns="http://www.w3.org/2000/svg" xmlns:xlink="http://www.w3.org/1999/xlink" x="0px" y="0px"
	 width="210.834px" height="66px" viewBox="0 0 210.834 66" enable-background="new 0 0 210.834 66" xml:space="preserve">
<g>
	<defs>
		<rect id="SVGID_1_" x="-788" y="-292.609" width="285.494" height="110.89"/>
	</defs>
	<clipPath id="SVGID_2_">
		<use xlink:href="#SVGID_1_"  overflow="visible"/>
	</clipPath>
	<path clip-path="url(#SVGID_2_)" fill="#414042" d="M-659.401-240.062v-7.815c-0.736,1.581-1.516,3.16-2.251,4.719h-1.732
		l-2.23-4.697v7.794h-2.642v-12.991h2.879l2.902,5.891c0.952-1.949,1.906-3.963,2.858-5.891h2.857v12.991H-659.401z"/>
	<path clip-path="url(#SVGID_2_)" fill="#414042" d="M-648.299-249.264c-0.477,1.387-0.974,2.794-1.451,4.181h2.923
		L-648.299-249.264z M-645.16-240.062l-0.867-2.489h-4.524c-0.282,0.801-0.606,1.688-0.888,2.489h-2.815l4.504-12.991h2.923
		l4.482,12.991H-645.16z"/>
	<path clip-path="url(#SVGID_2_)" fill="#414042" d="M-636.895-253.138h3.293c1.32,0,2.315,1.104,2.834,1.818
		c0.348,0.477,0.564,0.931,0.738,1.387l-2.447,0.691c-0.281-0.584-0.541-0.953-1.148-1.364h-3.16
		c-0.195,0.131-0.607,0.478-0.844,0.845v6.561c0,0.108,0.454,0.54,0.801,0.714h3.161c0.324-0.151,0.822-0.628,0.822-0.779v-1.948
		h-2.966v-2.468h5.607v4.871c0,0.26,0.065,0.715,0.151,1.233l0.26,1.537h-2.62l-0.087-0.389c-0.063,0.021-0.216,0.13-0.28,0.173
		c-0.261,0.15-0.52,0.303-0.846,0.303h-3.27c-0.539,0-1.06-0.195-1.428-0.411c-0.455-0.282-1.277-1.104-1.58-1.537
		c-0.261-0.411-0.369-0.909-0.369-1.342v-6.582c0-0.477,0.088-0.954,0.369-1.365c0.26-0.346,1.104-1.277,1.58-1.558
		C-637.954-252.965-637.413-253.138-636.895-253.138"/>
</g>
<polygon fill="#414042" points="-621.113,-245.69 -621.113,-240.062 -623.777,-240.062 -623.777,-245.69 -628.129,-253.053 
	-625.142,-253.053 -622.435,-248.483 -619.686,-253.053 -616.697,-253.053 "/>
<g>
	<defs>
		<rect id="SVGID_3_" x="-788" y="-292.609" width="285.494" height="110.89"/>
	</defs>
	<clipPath id="SVGID_4_">
		<use xlink:href="#SVGID_3_"  overflow="visible"/>
	</clipPath>
	<path clip-path="url(#SVGID_4_)" fill="#414042" d="M-610.727-249.264c-0.476,1.387-0.974,2.794-1.449,4.181h2.922
		L-610.727-249.264z M-607.586-240.062l-0.867-2.489h-4.523c-0.283,0.801-0.606,1.688-0.889,2.489h-2.814l4.504-12.991h2.922
		l4.482,12.991H-607.586z"/>
	<path clip-path="url(#SVGID_4_)" fill="#414042" d="M-595.402-250c-0.107-0.172-0.346-0.41-0.563-0.519h-3.68v2.967h3.68
		c0.064,0,0.434-0.303,0.563-0.521V-250z M-593.172-246.687c-0.195,0.303-0.865,0.952-1.168,1.17
		c-0.174,0.129-0.348,0.216-0.521,0.303c1.063,1.948,2.815,5.152,2.815,5.152h-2.944l-2.576-4.957h-2.078v4.957h-2.643v-12.991
		h6.322c0.542,0,1.212,0.195,1.625,0.499c0.303,0.238,0.952,0.909,1.168,1.191c0.282,0.389,0.412,0.952,0.412,1.429v1.84
		C-592.76-247.574-592.89-247.098-593.172-246.687"/>
	<path clip-path="url(#SVGID_4_)" fill="#414042" d="M-575.143-240.062v-7.815c-0.735,1.581-1.516,3.16-2.25,4.719h-1.732
		l-2.23-4.697v7.794h-2.642v-12.991h2.879l2.902,5.891c0.952-1.949,1.905-3.963,2.858-5.891h2.856v12.991H-575.143z"/>
	<path clip-path="url(#SVGID_4_)" fill="#414042" d="M-563.801-254.351l1.58-2.944h2.252l-1.624,2.944H-563.801z M-567.113-254.351
		l1.58-2.944h2.252l-1.625,2.944H-567.113z M-559.515-241.945c-0.259,0.368-1.081,1.3-1.558,1.581
		c-0.391,0.217-0.909,0.411-1.43,0.411h-3.097c-0.54,0-1.06-0.194-1.428-0.411c-0.478-0.281-1.321-1.213-1.58-1.581
		c-0.282-0.41-0.369-0.888-0.369-1.342v-9.765h2.642v9.742c0.26,0.326,0.627,0.716,0.801,0.824h2.967
		c0.173-0.108,0.541-0.455,0.779-0.802v-9.765h2.642v9.765C-559.146-242.833-559.232-242.355-559.515-241.945"/>
	<path clip-path="url(#SVGID_4_)" fill="#414042" d="M-553.045-249.848v1.146c0,0.088,0.066,0.132,0.066,0.132l5.499,1.492
		c1.191,0.326,1.796,1.452,1.796,2.513v1.277c0,0.347-0.107,0.909-0.389,1.343c-0.282,0.41-1.126,1.299-1.581,1.58
		c-0.347,0.195-0.909,0.41-1.429,0.41h-3.313c-1.319,0-2.338-1.103-2.856-1.84c-0.282-0.389-0.541-0.844-0.736-1.385l2.445-0.758
		c0.304,0.542,0.673,1.147,1.127,1.451h3.291c0.324-0.175,0.779-0.715,0.779-0.737v-1.277c0-0.107-0.064-0.129-0.064-0.129
		c-1.797-0.477-3.659-0.996-5.479-1.473c-1.211-0.325-1.797-1.45-1.797-2.512v-1.191c0-0.389,0.065-0.931,0.346-1.363
		c0.261-0.369,1.127-1.256,1.625-1.559c0.347-0.195,0.888-0.411,1.406-0.411h3.074c1.322,0,2.316,1.104,2.838,1.819
		c0.346,0.475,0.563,0.93,0.735,1.385l-2.446,0.692c-0.281-0.585-0.542-0.952-1.148-1.364h-2.987
		C-552.59-250.433-553.045-249.869-553.045-249.848"/>
</g>
<polygon fill="#414042" points="-543.024,-240.062 -543.024,-241.988 -537.459,-250.519 -542.938,-250.519 -542.938,-253.053 
	-534.018,-253.053 -534.018,-251.104 -539.516,-242.595 -534.018,-242.595 -534.018,-240.062 "/>
<g>
	<defs>
		<rect id="SVGID_5_" x="-788" y="-292.609" width="285.494" height="110.89"/>
	</defs>
	<clipPath id="SVGID_6_">
		<use xlink:href="#SVGID_5_"  overflow="visible"/>
	</clipPath>
	<path clip-path="url(#SVGID_6_)" fill="#414042" d="M-525.945-249.264c-0.477,1.387-0.975,2.794-1.45,4.181h2.923L-525.945-249.264
		z M-522.806-240.062l-0.866-2.489h-4.524c-0.282,0.801-0.606,1.688-0.888,2.489h-2.815l4.504-12.991h2.923l4.482,12.991H-522.806z"
		/>
	<path clip-path="url(#SVGID_6_)" fill="#414042" d="M-510.772-240.062l-3.875-5.37h-0.216v5.37h-2.643v-12.991h2.643v5.283h0.216
		c0.087,0,3.897-5.283,3.897-5.283h3.117l-4.785,6.409c0.064,0.044,4.851,6.582,4.851,6.582H-510.772z"/>
</g>
<rect x="-505.169" y="-253.053" fill="#414042" width="2.663" height="12.991"/>
<path fill="#414042" d="M-665.896-231.864l2.014-2.945h2.814l-2.272,2.945H-665.896z M-668.256-217.575v-12.99h8.531v2.534h-5.889
	v2.661h5.694v2.533h-5.694v2.729h5.889v2.532H-668.256z"/>
<g>
	<defs>
		<rect id="SVGID_7_" x="-788" y="-292.609" width="285.494" height="110.89"/>
	</defs>
	<clipPath id="SVGID_8_">
		<use xlink:href="#SVGID_7_"  overflow="visible"/>
	</clipPath>
	<path clip-path="url(#SVGID_8_)" fill="#414042" d="M-654.057-227.362v1.148c0,0.087,0.066,0.13,0.066,0.13l5.499,1.493
		c1.191,0.327,1.797,1.452,1.797,2.513v1.278c0,0.345-0.108,0.909-0.39,1.341c-0.282,0.411-1.126,1.299-1.581,1.581
		c-0.346,0.194-0.909,0.411-1.429,0.411h-3.313c-1.319,0-2.338-1.104-2.857-1.839c-0.281-0.391-0.541-0.847-0.736-1.387l2.446-0.759
		c0.303,0.543,0.672,1.149,1.126,1.452h3.291c0.325-0.174,0.779-0.714,0.779-0.738v-1.276c0-0.108-0.064-0.129-0.064-0.129
		c-1.797-0.478-3.659-0.996-5.478-1.474c-1.212-0.324-1.797-1.449-1.797-2.511v-1.19c0-0.39,0.065-0.933,0.346-1.364
		c0.26-0.369,1.127-1.257,1.625-1.56c0.346-0.194,0.887-0.411,1.406-0.411h3.074c1.322,0,2.317,1.104,2.838,1.817
		c0.346,0.477,0.562,0.933,0.735,1.386l-2.446,0.693c-0.282-0.583-0.542-0.951-1.148-1.362h-2.988
		C-653.603-227.947-654.057-227.383-654.057-227.362"/>
	<path clip-path="url(#SVGID_8_)" fill="#414042" d="M-631.611-217.575l-3.875-5.369h-0.215v5.369h-2.643v-12.99h2.643v5.282h0.215
		c0.088,0,3.897-5.282,3.897-5.282h3.118l-4.785,6.409c0.064,0.043,4.85,6.581,4.85,6.581H-631.611z"/>
	<path clip-path="url(#SVGID_8_)" fill="#414042" d="M-620.594-234.635h2.533v2.642h-2.533V-234.635z M-618.948-227.317
		c-0.151-0.261-0.563-0.672-0.78-0.801h-3.182c-0.174,0.129-0.542,0.453-0.801,0.822v6.496c0.236,0.323,0.605,0.692,0.777,0.801
		h3.185c0.172-0.132,0.562-0.498,0.801-0.801V-227.317z M-624.75-234.635h2.488v2.642h-2.488V-234.635z M-616.676-219.459
		c-0.281,0.369-1.104,1.299-1.58,1.581c-0.368,0.216-0.908,0.411-1.43,0.411h-3.289c-0.541,0-1.063-0.195-1.43-0.411
		c-0.477-0.282-1.32-1.212-1.581-1.581c-0.28-0.411-0.368-0.888-0.368-1.341v-6.518c0-0.477,0.088-0.954,0.368-1.364
		c0.261-0.346,1.104-1.277,1.581-1.56c0.367-0.216,0.889-0.411,1.43-0.411h3.289c0.521,0,1.062,0.195,1.43,0.411
		c0.477,0.282,1.299,1.214,1.58,1.56c0.283,0.41,0.367,0.888,0.367,1.364v6.518C-616.309-220.347-616.393-219.87-616.676-219.459"/>
</g>
<polygon fill="#414042" points="-613.498,-217.575 -613.498,-219.502 -607.933,-228.031 -613.41,-228.031 -613.41,-230.565 
	-604.49,-230.565 -604.49,-228.616 -609.989,-220.107 -604.49,-220.107 -604.49,-217.575 "/>
<polygon fill="#414042" points="-600.986,-217.575 -600.986,-230.565 -598.345,-230.565 -598.345,-220.131 -592.586,-220.131 
	-592.586,-217.575 "/>
<polygon fill="#414042" points="-590.078,-217.575 -590.078,-230.565 -581.548,-230.565 -581.548,-228.031 -587.438,-228.031 
	-587.438,-225.37 -581.742,-225.37 -581.742,-222.837 -587.438,-222.837 -587.438,-220.107 -581.548,-220.107 -581.548,-217.575 "/>
<g>
	<defs>
		<rect id="SVGID_9_" x="-788" y="-292.609" width="285.494" height="110.89"/>
	</defs>
	<clipPath id="SVGID_10_">
		<use xlink:href="#SVGID_9_"  overflow="visible"/>
	</clipPath>
	<path clip-path="url(#SVGID_10_)" fill="#414042" d="M-571.418-217.575l-3.875-5.369h-0.217v5.369h-2.642v-12.99h2.642v5.282h0.217
		c0.086,0,3.896-5.282,3.896-5.282h3.118l-4.785,6.409c0.063,0.043,4.851,6.581,4.851,6.581H-571.418z"/>
</g>
<polygon fill="#414042" points="-565.426,-217.575 -565.426,-230.565 -556.895,-230.565 -556.895,-228.031 -562.784,-228.031 
	-562.784,-225.37 -557.09,-225.37 -557.09,-222.837 -562.784,-222.837 -562.784,-220.107 -556.895,-220.107 -556.895,-217.575 "/>
<g>
	<defs>
		<rect id="SVGID_11_" x="-788" y="-292.609" width="285.494" height="110.89"/>
	</defs>
	<clipPath id="SVGID_12_">
		<use xlink:href="#SVGID_11_"  overflow="visible"/>
	</clipPath>
	<path clip-path="url(#SVGID_12_)" fill="#414042" d="M-546.073-227.144c-0.194-0.477-0.476-0.693-0.802-0.888h-3.549v7.924h3.549
		c0.303-0.174,0.585-0.413,0.802-0.824V-227.144z M-543.778-219.522c-0.303,0.432-1.126,1.254-1.602,1.536
		c-0.368,0.194-0.888,0.411-1.386,0.411h-6.301v-12.99h6.301c0.455,0,1.018,0.129,1.428,0.39c0.477,0.304,1.277,1.233,1.537,1.581
		c0.305,0.433,0.369,0.887,0.369,1.341v6.409C-543.432-220.454-543.518-219.936-543.778-219.522"/>
</g>
<path fill="#414042" d="M-537.244-231.864l2.015-2.945h2.813l-2.273,2.945H-537.244z M-539.604-217.575v-12.99h8.531v2.534h-5.889
	v2.661h5.693v2.533h-5.693v2.729h5.889v2.532H-539.604z"/>
<g>
	<defs>
		<rect id="SVGID_13_" x="-788" y="-292.609" width="285.494" height="110.89"/>
	</defs>
	<clipPath id="SVGID_14_">
		<use xlink:href="#SVGID_13_"  overflow="visible"/>
	</clipPath>
	<path clip-path="url(#SVGID_14_)" fill="#414042" d="M-525.426-227.362v1.148c0,0.087,0.066,0.13,0.066,0.13l5.499,1.493
		c1.19,0.327,1.797,1.452,1.797,2.513v1.278c0,0.345-0.108,0.909-0.39,1.341c-0.282,0.411-1.126,1.299-1.581,1.581
		c-0.347,0.194-0.909,0.411-1.429,0.411h-3.313c-1.319,0-2.338-1.104-2.856-1.839c-0.283-0.391-0.541-0.847-0.736-1.387l2.445-0.759
		c0.304,0.543,0.672,1.149,1.127,1.452h3.291c0.324-0.174,0.778-0.714,0.778-0.738v-1.276c0-0.108-0.063-0.129-0.063-0.129
		c-1.797-0.478-3.659-0.996-5.479-1.474c-1.212-0.324-1.797-1.449-1.797-2.511v-1.19c0-0.39,0.064-0.933,0.346-1.364
		c0.26-0.369,1.127-1.257,1.625-1.56c0.346-0.194,0.887-0.411,1.406-0.411h3.075c1.321,0,2.315,1.104,2.837,1.817
		c0.346,0.477,0.563,0.933,0.734,1.386l-2.445,0.693c-0.282-0.583-0.542-0.951-1.148-1.362h-2.988
		C-524.971-227.947-525.426-227.383-525.426-227.362"/>
</g>
<rect x="-515.23" y="-230.565" fill="#414042" width="2.662" height="12.989"/>
<polygon fill="#414042" points="-658.795,-195.088 -658.795,-206.737 -662.499,-198.573 -663.342,-198.573 -667.023,-206.737 
	-667.023,-195.088 -668.235,-195.088 -668.235,-208.08 -666.438,-208.08 -662.908,-200.48 -659.359,-208.08 -657.583,-208.08 
	-657.583,-195.088 "/>
<g>
	<defs>
		<rect id="SVGID_15_" x="-788" y="-292.609" width="285.494" height="110.89"/>
	</defs>
	<clipPath id="SVGID_16_">
		<use xlink:href="#SVGID_15_"  overflow="visible"/>
	</clipPath>
	<path clip-path="url(#SVGID_16_)" fill="#414042" d="M-650.81-209.529l1.84-2.403h1.516l-2.209,2.793L-650.81-209.529z
		 M-645.116-196.821c-0.237,0.369-1.083,1.256-1.471,1.494c-0.304,0.194-0.759,0.347-1.105,0.347h-2.901
		c-0.346,0-0.823-0.152-1.126-0.347c-0.39-0.238-1.234-1.125-1.473-1.494c-0.194-0.303-0.281-0.672-0.281-1.038v-10.221h1.256
		v10.176c0,0.108,0.044,0.195,0.087,0.282c0.281,0.498,1.017,1.19,1.363,1.364c0.065,0.043,0.174,0.065,0.282,0.065h2.685
		c0.108,0,0.216-0.022,0.281-0.065c0.347-0.174,1.04-0.866,1.32-1.364c0.044-0.087,0.087-0.174,0.087-0.282v-10.176h1.257v10.221
		C-644.855-197.493-644.921-197.124-645.116-196.821"/>
</g>
<polygon fill="#414042" points="-641.158,-195.088 -641.158,-196.171 -634.793,-206.866 -641.158,-206.866 -641.158,-208.08 
	-633.277,-208.08 -633.277,-206.953 -639.6,-196.302 -633.277,-196.302 -633.277,-195.088 "/>
<polygon fill="#414042" points="-629.579,-195.088 -629.579,-208.08 -622.131,-208.08 -622.131,-206.866 -628.322,-206.866 
	-628.322,-202.19 -622.457,-202.19 -622.457,-200.978 -628.322,-200.978 -628.322,-196.302 -622.131,-196.302 -622.131,-195.088 "/>
<g>
	<defs>
		<rect id="SVGID_17_" x="-788" y="-292.609" width="285.494" height="110.89"/>
	</defs>
	<clipPath id="SVGID_18_">
		<use xlink:href="#SVGID_17_"  overflow="visible"/>
	</clipPath>
	<path clip-path="url(#SVGID_18_)" fill="#414042" d="M-610.182-196.821c-0.236,0.369-1.082,1.256-1.471,1.494
		c-0.305,0.194-0.759,0.347-1.105,0.347h-2.9c-0.346,0-0.823-0.152-1.126-0.347c-0.39-0.238-1.234-1.125-1.474-1.494
		c-0.194-0.303-0.28-0.672-0.28-1.038v-10.221h1.256v10.176c0,0.108,0.044,0.195,0.087,0.282c0.281,0.498,1.018,1.19,1.363,1.364
		c0.064,0.043,0.174,0.065,0.281,0.065h2.686c0.107,0,0.216-0.022,0.281-0.065c0.347-0.174,1.039-0.866,1.32-1.364
		c0.043-0.087,0.086-0.174,0.086-0.282v-10.176h1.258v10.221C-609.92-197.493-609.986-197.124-610.182-196.821"/>
</g>
<polygon fill="#414042" points="-596.86,-195.088 -596.86,-206.737 -600.563,-198.573 -601.407,-198.573 -605.088,-206.737 
	-605.088,-195.088 -606.301,-195.088 -606.301,-208.08 -604.504,-208.08 -600.975,-200.48 -597.424,-208.08 -595.648,-208.08 
	-595.648,-195.088 "/>
<path fill="#414042" d="M-787.451-217.462h96.776v-2.819h-87.648c15.907-5.573,32.262-8.396,48.722-8.396h38.926v-2.819h-96.776
	v2.819h29.186c-9.381,1.854-18.66,4.626-27.777,8.292l-1.409,0.574V-217.462z"/>
<path fill="#414042" d="M-748.844-273.542c19.693,0,39.024-5.348,57.456-15.894h0.001l1.214-0.681l-1.314-2.493
	c0,0-1.268,0.71-1.296,0.726c-18.003,10.302-36.864,15.523-56.061,15.523h-38.606v2.818H-748.844z"/>
<path fill="#414042" d="M-690.675-209.063h-38.605c-18.238,0-39.324,1.354-57.443,11.392c-0.02,0.011-1.277,0.732-1.277,0.732
	l1.407,2.441c0,0,1.23-0.707,1.235-0.709c17.557-9.727,38.2-11.038,56.078-11.038h38.605V-209.063z"/>
<path fill="#414042" d="M-692.252-245.996c-18.154,2.18-37.194,3.283-56.593,3.283h-38.606v2.818h38.606
	c19.511,0,38.664-1.113,56.929-3.305l1.384-0.146l-0.294-2.803C-690.826-246.148-692.243-245.997-692.252-245.996"/>
<path fill="#414042" d="M-692.413-260.479c-18.112,4.348-37.098,6.55-56.431,6.55h-38.607v2.819h38.607
	c19.546,0,38.745-2.229,57.065-6.625l1.379-0.32l-0.58-2.758C-690.98-260.813-692.394-260.482-692.413-260.479"/>
<path fill="#414042" d="M-692.611-276.258c-18.053,7.293-36.972,10.99-56.233,10.99h-38.607v2.819h38.607
	c19.624,0,38.898-3.769,57.288-11.196c0.001-0.001,1.3-0.504,1.3-0.504l-1.017-2.629
	C-691.273-276.777-692.602-276.261-692.611-276.258"/>
<path fill="#414042" d="M-690.675-197.849h-38.605c-17.443,0-37.912,1.541-57.471,12.96c-0.011,0.006-1.249,0.727-1.249,0.727
	l1.407,2.442c0,0,1.246-0.727,1.262-0.735c18.979-11.081,38.985-12.574,56.051-12.574h38.605V-197.849z"/>
<rect x="-788" y="-292.609" fill="none" width="285.494" height="110.89"/>
<path fill="#414042" d="M1.903,44.318h54.94v-1.6H7.086c9.029-3.165,18.314-4.768,27.659-4.768h22.099v-1.6H1.903v1.6h16.569
	c-5.325,1.054-10.594,2.627-15.77,4.708l-0.8,0.326V44.318z"/>
<path fill="#414042" d="M23.821,12.482c11.18,0,22.153-3.036,32.617-9.023h0.001l0.688-0.387l-0.746-1.415
	c0,0-0.721,0.402-0.735,0.412c-10.222,5.849-20.928,8.813-31.825,8.813H1.904v1.601H23.821z"/>
<path fill="#414042" d="M56.843,49.086H34.927c-10.353,0-22.324,0.769-32.609,6.467c-0.013,0.007-0.726,0.416-0.726,0.416
	l0.798,1.386c0,0,0.699-0.4,0.702-0.401c9.967-5.521,21.686-6.267,31.835-6.267h21.916V49.086z"/>
<path fill="#414042" d="M55.947,28.12c-10.306,1.237-21.114,1.863-32.127,1.863H1.903v1.601H23.82
	c11.076,0,21.95-0.633,32.318-1.876l0.786-0.084l-0.167-1.591C56.758,28.033,55.954,28.119,55.947,28.12"/>
<path fill="#414042" d="M55.856,19.897c-10.282,2.469-21.061,3.72-32.035,3.72H1.903v1.6h21.918c11.096,0,21.994-1.265,32.396-3.761
	l0.782-0.183l-0.329-1.565C56.67,19.708,55.867,19.896,55.856,19.897"/>
<path fill="#414042" d="M55.744,10.94c-10.248,4.141-20.988,6.239-31.923,6.239H1.903v1.6h21.918c11.141,0,22.082-2.14,32.521-6.355
	l0.739-0.286l-0.578-1.493C56.504,10.645,55.749,10.938,55.744,10.94"/>
<path fill="#414042" d="M56.843,55.453H34.927c-9.902,0-21.521,0.875-32.626,7.357c-0.006,0.004-0.709,0.412-0.709,0.412
	l0.798,1.387c0,0,0.708-0.413,0.718-0.418c10.774-6.29,22.132-7.139,31.819-7.139h21.916V55.453z"/>
<g>
	<polygon fill="#231F20" points="71.17,24.815 71.17,31.569 70.449,31.569 70.449,24.815 68.326,24.815 68.326,24.12 73.293,24.12 
		73.293,24.815 	"/>
	<polygon fill="#231F20" points="79.322,31.569 79.322,28.193 75.81,28.193 75.81,31.569 75.088,31.569 75.088,24.12 75.81,24.12 
		75.81,27.498 79.322,27.498 79.322,24.12 80.041,24.12 80.041,31.569 	"/>
	<polygon fill="#231F20" points="82.166,31.569 82.166,24.12 86.436,24.12 86.436,24.815 82.887,24.815 82.887,27.498 86.25,27.498 
		86.25,28.193 82.887,28.193 82.887,30.874 86.436,30.874 86.436,31.569 	"/>
	<polygon fill="#231F20" points="95.906,31.569 95.906,28.193 92.392,28.193 92.392,31.569 91.672,31.569 91.672,24.12 
		92.392,24.12 92.392,27.498 95.906,27.498 95.906,24.12 96.625,24.12 96.625,31.569 	"/>
	<path fill="#231F20" d="M103.537,30.576c-0.138,0.211-0.622,0.721-0.846,0.856c-0.174,0.112-0.435,0.198-0.633,0.198h-1.664
		c-0.197,0-0.471-0.086-0.645-0.198c-0.224-0.136-0.708-0.646-0.846-0.856c-0.11-0.174-0.16-0.385-0.16-0.596v-5.86h0.722v5.836
		c0,0.061,0.024,0.111,0.049,0.161c0.161,0.285,0.583,0.683,0.782,0.781c0.036,0.025,0.098,0.037,0.16,0.037h1.541
		c0.061,0,0.122-0.012,0.161-0.037c0.196-0.099,0.595-0.496,0.756-0.781c0.025-0.05,0.05-0.101,0.05-0.161V24.12h0.72v5.86
		C103.685,30.191,103.647,30.402,103.537,30.576"/>
	<polygon fill="#231F20" points="109.696,31.569 106.457,25.213 106.457,31.569 105.762,31.569 105.762,24.12 106.717,24.12 
		109.933,30.539 109.933,24.12 110.628,24.12 110.628,31.569 	"/>
	<path fill="#231F20" d="M117.415,31.569l-0.088-0.607c-0.135,0.173-0.333,0.408-0.434,0.472c-0.174,0.111-0.435,0.197-0.632,0.197
		h-1.912c-0.199,0-0.472-0.086-0.646-0.197c-0.224-0.137-0.707-0.647-0.844-0.857c-0.113-0.173-0.162-0.385-0.162-0.597v-4.231
		c0-0.213,0.049-0.436,0.162-0.61c0.137-0.21,0.62-0.731,0.844-0.867c0.175-0.112,0.447-0.198,0.646-0.198h1.912
		c0.197,0,0.471,0.086,0.645,0.198c0.261,0.161,0.597,0.559,0.77,0.793c0.088,0.125,0.211,0.298,0.285,0.472l-0.72,0.213
		c-0.149-0.347-0.585-0.808-0.844-0.945c-0.037-0.023-0.112-0.037-0.175-0.037h-1.824c-0.063,0-0.124,0.014-0.161,0.037
		c-0.198,0.101-0.622,0.497-0.782,0.783c-0.024,0.05-0.037,0.124-0.037,0.187v4.183c0,0.062,0.013,0.112,0.037,0.163
		c0.16,0.285,0.584,0.682,0.782,0.78c0.037,0.025,0.112,0.037,0.174,0.037h1.787c0.063,0,0.124-0.012,0.162-0.037
		c0.198-0.099,0.634-0.509,0.793-0.794c0.024-0.048,0.039-0.1,0.039-0.16v-1.803h-1.702V27.46h2.422v2.645
		c0,0.359,0.123,1.13,0.185,1.465H117.415z"/>
	<path fill="#231F20" d="M124.587,29.844h-3.451l-0.572,1.726h-0.755l2.495-7.449h1.117l2.493,7.449h-0.768L124.587,29.844z
		 M124.361,29.148l-1.425-4.32h-0.163l-1.414,4.32H124.361z"/>
	<path fill="#231F20" d="M132.349,27.398c-0.088,0.137-0.472,0.521-0.634,0.646c-0.199,0.149-0.446,0.236-0.695,0.236l1.85,3.289
		h-0.818l-1.838-3.289h-1.861v3.289h-0.721V24.12h3.353c0.261,0,0.532,0.088,0.731,0.237c0.162,0.123,0.546,0.521,0.634,0.657
		c0.123,0.188,0.185,0.41,0.185,0.646v1.094C132.533,26.989,132.472,27.212,132.349,27.398 M131.814,25.686
		c0-0.074,0-0.161-0.024-0.212c-0.111-0.21-0.41-0.509-0.607-0.621c-0.063-0.037-0.138-0.037-0.213-0.037h-2.618v2.77h2.618
		c0.075,0,0.149-0.014,0.213-0.05c0.197-0.112,0.496-0.387,0.607-0.597c0.024-0.049,0.024-0.136,0.024-0.211V25.686z"/>
	<rect x="134.781" y="24.12" fill="#231F20" width="0.722" height="7.449"/>
	<path fill="#231F20" d="M142.039,29.844h-3.45l-0.571,1.726h-0.756l2.495-7.449h1.117l2.495,7.449h-0.769L142.039,29.844z
		 M141.816,29.148l-1.427-4.32h-0.162l-1.415,4.32H141.816z"/>
	<polygon fill="#231F20" points="149.025,31.569 145.786,25.213 145.786,31.569 145.091,31.569 145.091,24.12 146.047,24.12 
		149.262,30.539 149.262,24.12 149.957,24.12 149.957,31.569 	"/>
	<polygon fill="#231F20" points="160.653,31.569 160.653,24.891 158.533,29.571 158.049,29.571 155.938,24.891 155.938,31.569 
		155.242,31.569 155.242,24.12 156.273,24.12 158.297,28.478 160.331,24.12 161.351,24.12 161.351,31.569 	"/>
	<path fill="#231F20" d="M168.262,30.576c-0.138,0.211-0.622,0.721-0.846,0.856c-0.174,0.112-0.434,0.198-0.633,0.198h-1.663
		c-0.199,0-0.471-0.086-0.645-0.198c-0.224-0.136-0.709-0.646-0.845-0.856c-0.111-0.174-0.162-0.385-0.162-0.596v-5.86h0.72v5.836
		c0,0.061,0.025,0.111,0.051,0.161c0.159,0.285,0.583,0.683,0.782,0.781c0.037,0.025,0.099,0.037,0.16,0.037h1.539
		c0.063,0,0.125-0.012,0.163-0.037c0.198-0.099,0.596-0.496,0.756-0.781c0.026-0.05,0.051-0.101,0.051-0.161V24.12h0.72v5.86
		C168.41,30.191,168.372,30.402,168.262,30.576"/>
	<path fill="#231F20" d="M175.56,30.576c-0.136,0.211-0.632,0.721-0.855,0.856c-0.173,0.112-0.435,0.198-0.634,0.198h-2.061
		c-0.199,0-0.471-0.086-0.646-0.198c-0.263-0.161-0.596-0.546-0.77-0.781c-0.087-0.124-0.198-0.311-0.273-0.485l0.709-0.197
		c0.048,0.109,0.085,0.148,0.085,0.148c0.175,0.297,0.548,0.67,0.758,0.781c0.038,0.025,0.111,0.037,0.174,0.037h1.974
		c0.062,0,0.112-0.012,0.148-0.037c0.2-0.099,0.621-0.458,0.782-0.744c0.025-0.05,0.038-0.1,0.038-0.162v-0.794
		c0-0.247-0.162-0.521-0.397-0.583l-3.402-0.932c-0.482-0.137-0.77-0.646-0.77-1.167v-0.77c0-0.212,0.037-0.435,0.149-0.609
		c0.138-0.209,0.634-0.729,0.857-0.867c0.173-0.112,0.435-0.198,0.633-0.198h1.851c0.197,0,0.459,0.086,0.632,0.198
		c0.261,0.161,0.596,0.545,0.771,0.781c0.087,0.124,0.21,0.311,0.284,0.483l-0.719,0.212c-0.051-0.112-0.088-0.161-0.088-0.161
		c-0.161-0.297-0.544-0.67-0.757-0.783c-0.038-0.023-0.099-0.037-0.16-0.037h-1.752c-0.062,0-0.123,0.014-0.162,0.037
		c-0.198,0.101-0.606,0.437-0.77,0.721c-0.023,0.051-0.048,0.099-0.048,0.162v0.781c0,0.248,0.159,0.497,0.384,0.56l3.39,0.942
		c0.484,0.137,0.796,0.634,0.796,1.156v0.844C175.711,30.18,175.671,30.402,175.56,30.576"/>
	<polygon fill="#231F20" points="177.652,31.569 177.652,24.12 181.924,24.12 181.924,24.815 178.373,24.815 178.373,27.498 
		181.737,27.498 181.737,28.193 178.373,28.193 178.373,30.874 181.924,30.874 181.924,31.569 	"/>
	<path fill="#231F20" d="M188.775,30.576c-0.138,0.211-0.62,0.721-0.846,0.856c-0.174,0.112-0.434,0.198-0.632,0.198h-1.664
		c-0.198,0-0.471-0.086-0.645-0.198c-0.225-0.136-0.709-0.646-0.845-0.856c-0.111-0.174-0.161-0.385-0.161-0.596v-5.86h0.721v5.836
		c0,0.061,0.024,0.111,0.049,0.161c0.161,0.285,0.585,0.683,0.782,0.781c0.037,0.025,0.099,0.037,0.162,0.037h1.54
		c0.061,0,0.122-0.012,0.16-0.037c0.198-0.099,0.596-0.496,0.758-0.781c0.024-0.05,0.049-0.101,0.049-0.161V24.12h0.721v5.86
		C188.925,30.191,188.888,30.402,188.775,30.576"/>
	<polygon fill="#231F20" points="196.412,31.569 196.412,24.891 194.29,29.571 193.806,29.571 191.695,24.891 191.695,31.569 
		191,31.569 191,24.12 192.031,24.12 194.053,28.478 196.089,24.12 197.107,24.12 197.107,31.569 	"/>
	<path fill="#231F20" d="M74.212,43.383c-0.161,0.211-0.633,0.744-0.906,0.906c-0.212,0.124-0.521,0.235-0.82,0.235h-1.888
		c-0.31,0-0.607-0.111-0.817-0.235c-0.274-0.162-0.758-0.695-0.907-0.906c-0.161-0.236-0.21-0.509-0.21-0.77v-3.736
		c0-0.273,0.049-0.546,0.21-0.782c0.149-0.198,0.633-0.732,0.907-0.895c0.21-0.123,0.508-0.235,0.817-0.235h1.888
		c0.299,0,0.608,0.112,0.82,0.235c0.273,0.162,0.745,0.696,0.906,0.895c0.161,0.236,0.209,0.509,0.209,0.782v3.736
		C74.421,42.874,74.373,43.146,74.212,43.383 M72.909,38.877c-0.089-0.148-0.323-0.386-0.448-0.46h-1.824
		c-0.101,0.074-0.311,0.261-0.46,0.472v3.725c0.136,0.186,0.349,0.397,0.446,0.459h1.825c0.099-0.075,0.322-0.285,0.461-0.459
		V38.877z"/>
	<polygon fill="#231F20" points="77.654,38.467 77.654,39.993 80.856,39.993 80.856,41.446 77.654,41.446 77.654,44.462 
		76.139,44.462 76.139,37.016 81.03,37.016 81.03,38.467 	"/>
	<path fill="#231F20" d="M86.874,38.852v0.657c0,0.051,0.038,0.074,0.038,0.074l3.153,0.857c0.683,0.187,1.029,0.833,1.029,1.44
		v0.732c0,0.199-0.062,0.521-0.224,0.77c-0.162,0.235-0.646,0.744-0.905,0.906c-0.199,0.112-0.521,0.236-0.819,0.236h-1.9
		c-0.758,0-1.339-0.634-1.638-1.057c-0.162-0.222-0.311-0.482-0.422-0.794l1.402-0.434c0.174,0.311,0.386,0.657,0.645,0.831h1.889
		c0.186-0.099,0.446-0.408,0.446-0.422v-0.732c0-0.063-0.037-0.074-0.037-0.074C88.5,41.57,87.434,41.273,86.39,41
		c-0.695-0.188-1.03-0.832-1.03-1.44v-0.683c0-0.224,0.037-0.535,0.199-0.782c0.149-0.211,0.645-0.722,0.93-0.895
		c0.199-0.11,0.511-0.235,0.809-0.235h1.763c0.757,0,1.329,0.632,1.625,1.041c0.199,0.274,0.322,0.535,0.424,0.796l-1.404,0.397
		c-0.162-0.336-0.311-0.546-0.657-0.782h-1.715C87.136,38.516,86.874,38.839,86.874,38.852"/>
	<path fill="#231F20" d="M96.908,39.199c-0.16-0.335-0.309-0.546-0.656-0.782H94.7c-0.125,0.088-0.373,0.322-0.484,0.497v3.699
		c0,0.012,0.186,0.285,0.484,0.459h1.576c0.261-0.174,0.46-0.435,0.632-0.744l1.416,0.347c-0.111,0.312-0.26,0.572-0.423,0.794
		c-0.296,0.423-0.882,1.057-1.638,1.057h-1.628c-0.296,0-0.606-0.112-0.817-0.236c-0.261-0.162-0.732-0.658-0.906-0.895
		c-0.148-0.235-0.211-0.521-0.211-0.77v-3.761c0-0.272,0.05-0.533,0.211-0.77c0.149-0.198,0.632-0.72,0.919-0.895
		c0.198-0.112,0.509-0.235,0.805-0.235h1.628c0.756,0,1.328,0.632,1.627,1.041c0.199,0.274,0.322,0.535,0.421,0.796L96.908,39.199z"
		/>
	<rect x="99.935" y="37.016" fill="#231F20" width="1.528" height="7.446"/>
	<polygon fill="#231F20" points="103.249,44.462 103.249,37.016 108.142,37.016 108.142,38.467 104.765,38.467 104.765,39.993 
		108.03,39.993 108.03,41.446 104.765,41.446 104.765,43.011 108.142,43.011 108.142,44.462 	"/>
	<polygon fill="#231F20" points="113.779,44.462 111.373,40.081 111.373,44.462 109.858,44.462 109.858,37.016 111.408,37.016 
		113.792,41.458 113.792,37.016 115.307,37.016 115.307,44.462 	"/>
	<path fill="#231F20" d="M121.257,39.199c-0.161-0.335-0.31-0.546-0.657-0.782h-1.553c-0.124,0.088-0.372,0.322-0.483,0.497v3.699
		c0,0.012,0.186,0.285,0.483,0.459h1.577c0.26-0.174,0.458-0.435,0.633-0.744l1.416,0.347c-0.112,0.312-0.262,0.572-0.422,0.794
		c-0.298,0.423-0.884,1.057-1.64,1.057h-1.626c-0.298,0-0.609-0.112-0.819-0.236c-0.261-0.162-0.732-0.658-0.906-0.895
		c-0.148-0.235-0.212-0.521-0.212-0.77v-3.761c0-0.272,0.051-0.533,0.212-0.77c0.148-0.198,0.632-0.72,0.919-0.895
		c0.197-0.112,0.509-0.235,0.807-0.235h1.626c0.756,0,1.328,0.632,1.627,1.041c0.198,0.274,0.322,0.535,0.422,0.796L121.257,39.199z
		"/>
	<polygon fill="#231F20" points="124.258,44.462 124.258,37.016 129.151,37.016 129.151,38.467 125.773,38.467 125.773,39.993 
		129.039,39.993 129.039,41.446 125.773,41.446 125.773,43.011 129.151,43.011 129.151,44.462 	"/>
	<polygon fill="#231F20" points="132.113,45.492 130.462,45.492 131.677,42.898 133.105,43.333 	"/>
	<polygon fill="#231F20" points="140.354,38.467 140.354,44.462 138.827,44.462 138.827,38.467 136.816,38.467 136.816,37.016 
		142.354,37.016 142.354,38.467 	"/>
	<polygon fill="#231F20" points="143.883,44.462 143.883,37.016 148.775,37.016 148.775,38.467 145.398,38.467 145.398,39.993 
		148.664,39.993 148.664,41.446 145.398,41.446 145.398,43.011 148.775,43.011 148.775,44.462 	"/>
	<path fill="#231F20" d="M154.674,39.199c-0.16-0.335-0.31-0.546-0.656-0.782h-1.552c-0.125,0.088-0.373,0.322-0.484,0.497v3.699
		c0,0.012,0.186,0.285,0.484,0.459h1.575c0.262-0.174,0.46-0.435,0.633-0.744l1.416,0.347c-0.111,0.312-0.26,0.572-0.423,0.794
		c-0.298,0.423-0.882,1.057-1.638,1.057h-1.627c-0.299,0-0.607-0.112-0.818-0.236c-0.261-0.162-0.732-0.658-0.906-0.895
		c-0.15-0.235-0.211-0.521-0.211-0.77v-3.761c0-0.272,0.05-0.533,0.211-0.77c0.148-0.198,0.632-0.72,0.918-0.895
		c0.199-0.112,0.508-0.235,0.807-0.235h1.627c0.756,0,1.328,0.632,1.627,1.041c0.199,0.274,0.322,0.535,0.42,0.796L154.674,39.199z"
		/>
	<polygon fill="#231F20" points="161.674,44.462 161.674,41.458 159.192,41.458 159.192,44.462 157.677,44.462 157.677,37.016 
		159.192,37.016 159.192,40.007 161.674,40.007 161.674,37.016 163.188,37.016 163.188,44.462 	"/>
	<polygon fill="#231F20" points="168.884,44.462 166.478,40.081 166.478,44.462 164.962,44.462 164.962,37.016 166.514,37.016 
		168.896,41.458 168.896,37.016 170.412,37.016 170.412,44.462 	"/>
	<path fill="#231F20" d="M177.696,43.383c-0.161,0.211-0.632,0.744-0.907,0.906c-0.209,0.124-0.521,0.235-0.818,0.235h-1.886
		c-0.313,0-0.61-0.111-0.82-0.235c-0.274-0.162-0.758-0.695-0.906-0.906c-0.162-0.236-0.211-0.509-0.211-0.77v-3.736
		c0-0.273,0.049-0.546,0.211-0.782c0.148-0.198,0.632-0.732,0.906-0.895c0.21-0.123,0.508-0.235,0.82-0.235h1.886
		c0.298,0,0.609,0.112,0.818,0.235c0.275,0.162,0.746,0.696,0.907,0.895c0.161,0.236,0.21,0.509,0.21,0.782v3.736
		C177.906,42.874,177.857,43.146,177.696,43.383 M176.393,38.877c-0.087-0.148-0.322-0.386-0.447-0.46h-1.824
		c-0.099,0.074-0.311,0.261-0.46,0.472v3.725c0.138,0.186,0.349,0.397,0.446,0.459h1.826c0.1-0.075,0.323-0.285,0.459-0.459V38.877z
		"/>
	<polygon fill="#231F20" points="179.623,44.462 179.623,37.016 181.139,37.016 181.139,42.997 184.439,42.997 184.439,44.462 	"/>
	<path fill="#231F20" d="M191.423,43.383c-0.161,0.211-0.632,0.744-0.906,0.906c-0.211,0.124-0.521,0.235-0.819,0.235h-1.887
		c-0.311,0-0.607-0.111-0.818-0.235c-0.275-0.162-0.759-0.695-0.907-0.906c-0.162-0.236-0.212-0.509-0.212-0.77v-3.736
		c0-0.273,0.05-0.546,0.212-0.782c0.148-0.198,0.632-0.732,0.907-0.895c0.211-0.123,0.508-0.235,0.818-0.235h1.887
		c0.298,0,0.608,0.112,0.819,0.235c0.274,0.162,0.745,0.696,0.906,0.895c0.162,0.236,0.21,0.509,0.21,0.782v3.736
		C191.633,42.874,191.585,43.146,191.423,43.383 M190.12,38.877c-0.089-0.148-0.323-0.386-0.447-0.46h-1.825
		c-0.101,0.074-0.311,0.261-0.46,0.472v3.725c0.136,0.186,0.349,0.397,0.447,0.459h1.825c0.1-0.075,0.323-0.285,0.46-0.459V38.877z"
		/>
	<path fill="#231F20" d="M195.255,36.965h1.886c0.76,0,1.329,0.632,1.628,1.042c0.198,0.273,0.324,0.534,0.422,0.795l-1.402,0.397
		c-0.16-0.335-0.312-0.546-0.657-0.782h-1.813c-0.11,0.075-0.348,0.273-0.483,0.484v3.763c0,0.061,0.262,0.31,0.459,0.408h1.813
		c0.185-0.087,0.471-0.36,0.471-0.447v-1.116h-1.702v-1.415h3.218v2.792c0,0.149,0.034,0.41,0.085,0.708l0.148,0.881h-1.501
		l-0.05-0.223c-0.037,0.013-0.124,0.074-0.16,0.099c-0.15,0.088-0.3,0.175-0.484,0.175h-1.876c-0.311,0-0.609-0.112-0.819-0.236
		c-0.261-0.162-0.732-0.634-0.906-0.881c-0.149-0.236-0.211-0.522-0.211-0.771v-3.773c0-0.272,0.051-0.547,0.211-0.782
		c0.149-0.198,0.633-0.733,0.906-0.894C194.646,37.064,194.957,36.965,195.255,36.965"/>
	<polygon fill="#231F20" points="204.065,41.236 204.065,44.462 202.539,44.462 202.539,41.236 200.044,37.016 201.757,37.016 
		203.31,39.634 204.886,37.016 206.599,37.016 	"/>
	<path fill="#231F20" d="M73.306,57.356l-0.498-1.428h-2.594c-0.16,0.459-0.347,0.968-0.509,1.428h-1.614l2.583-7.449h1.676
		l2.568,7.449H73.306z M71.505,52.079c-0.273,0.796-0.559,1.603-0.831,2.396h1.676L71.505,52.079z"/>
	<polygon fill="#231F20" points="80.274,57.356 77.867,52.974 77.867,57.356 76.351,57.356 76.351,49.907 77.903,49.907 
		80.287,54.353 80.287,49.907 81.801,49.907 81.801,57.356 	"/>
	<path fill="#231F20" d="M88.904,56.239c-0.173,0.247-0.645,0.72-0.917,0.881c-0.212,0.112-0.509,0.236-0.795,0.236H83.58v-7.449
		h3.612c0.261,0,0.583,0.075,0.819,0.224c0.273,0.173,0.732,0.707,0.881,0.906c0.174,0.248,0.211,0.509,0.211,0.77v3.675
		C89.104,55.705,89.053,56.002,88.904,56.239 M87.59,51.869c-0.111-0.273-0.272-0.397-0.46-0.509h-2.034v4.543h2.034
		c0.174-0.1,0.335-0.235,0.46-0.472V51.869z"/>
	<polygon fill="#231F20" points="97.232,51.36 97.232,57.356 95.706,57.356 95.706,51.36 93.695,51.36 93.695,49.907 99.232,49.907 
		99.232,51.36 	"/>
	<path fill="#231F20" d="M105.988,53.557c-0.112,0.174-0.496,0.546-0.671,0.672c-0.1,0.073-0.197,0.124-0.299,0.173
		c0.61,1.117,1.616,2.955,1.616,2.955h-1.688l-1.479-2.844h-1.191v2.844h-1.514v-7.449h3.624c0.31,0,0.695,0.112,0.931,0.286
		c0.175,0.136,0.548,0.521,0.671,0.684c0.161,0.221,0.236,0.546,0.236,0.818v1.055C106.225,53.049,106.149,53.322,105.988,53.557
		 M104.71,51.658c-0.063-0.1-0.198-0.235-0.323-0.298h-2.11v1.7h2.11c0.038,0,0.248-0.173,0.323-0.298V51.658z"/>
	<path fill="#231F20" d="M113.078,57.356l-0.496-1.428h-2.594c-0.162,0.459-0.349,0.968-0.511,1.428h-1.612l2.581-7.449h1.678
		l2.567,7.449H113.078z M111.279,52.079c-0.273,0.796-0.561,1.603-0.833,2.396h1.678L111.279,52.079z"/>
	<polygon fill="#231F20" points="120.047,57.356 117.64,52.974 117.64,57.356 116.124,57.356 116.124,49.907 117.677,49.907 
		120.061,54.353 120.061,49.907 121.575,49.907 121.575,57.356 	"/>
	<path fill="#231F20" d="M124.872,51.745v0.658c0,0.048,0.039,0.074,0.039,0.074l3.152,0.855c0.682,0.188,1.03,0.833,1.03,1.44
		v0.732c0,0.199-0.063,0.521-0.224,0.77c-0.16,0.236-0.646,0.745-0.906,0.906c-0.199,0.113-0.521,0.236-0.818,0.236h-1.9
		c-0.757,0-1.341-0.633-1.638-1.055c-0.161-0.224-0.311-0.484-0.423-0.794l1.403-0.436c0.174,0.311,0.385,0.659,0.645,0.832h1.888
		c0.187-0.1,0.445-0.41,0.445-0.422v-0.733c0-0.063-0.035-0.073-0.035-0.073c-1.03-0.275-2.098-0.571-3.142-0.845
		c-0.695-0.187-1.03-0.832-1.03-1.441V51.77c0-0.224,0.036-0.533,0.199-0.782c0.148-0.211,0.645-0.721,0.931-0.894
		c0.198-0.113,0.508-0.235,0.806-0.235h1.765c0.757,0,1.327,0.633,1.626,1.042c0.198,0.273,0.322,0.534,0.422,0.795l-1.402,0.397
		c-0.163-0.336-0.312-0.547-0.659-0.783h-1.712C125.134,51.409,124.872,51.731,124.872,51.745"/>
	<path fill="#231F20" d="M135.931,53.557c-0.111,0.174-0.495,0.546-0.67,0.672c-0.272,0.198-0.607,0.284-0.931,0.284h-2.11v2.844
		h-1.515v-7.449h3.625c0.31,0,0.695,0.112,0.931,0.286c0.175,0.136,0.546,0.521,0.67,0.684c0.163,0.221,0.237,0.546,0.237,0.818
		v1.055C136.168,53.049,136.094,53.322,135.931,53.557 M134.653,51.658c-0.062-0.1-0.199-0.235-0.323-0.298h-2.11v1.7h2.11
		c0.038,0,0.249-0.173,0.323-0.298V51.658z"/>
	<path fill="#231F20" d="M143.235,56.275c-0.162,0.211-0.633,0.745-0.907,0.906c-0.209,0.125-0.521,0.236-0.818,0.236h-1.888
		c-0.31,0-0.607-0.111-0.818-0.236c-0.273-0.161-0.759-0.695-0.907-0.906c-0.16-0.234-0.21-0.509-0.21-0.77V51.77
		c0-0.273,0.05-0.546,0.21-0.782c0.148-0.197,0.634-0.732,0.907-0.894c0.211-0.124,0.509-0.236,0.818-0.236h1.888
		c0.298,0,0.609,0.112,0.818,0.236c0.274,0.161,0.745,0.696,0.907,0.894c0.163,0.236,0.21,0.509,0.21,0.782v3.736
		C143.445,55.767,143.398,56.041,143.235,56.275 M141.932,51.77c-0.087-0.148-0.323-0.384-0.446-0.46h-1.826
		c-0.098,0.076-0.309,0.261-0.458,0.473v3.724c0.136,0.186,0.349,0.397,0.446,0.46h1.825c0.1-0.076,0.322-0.286,0.459-0.46V51.77z"
		/>
	<path fill="#231F20" d="M150.39,53.557c-0.112,0.174-0.497,0.546-0.67,0.672c-0.1,0.073-0.197,0.124-0.299,0.173
		c0.61,1.117,1.616,2.955,1.616,2.955h-1.689l-1.479-2.844h-1.19v2.844h-1.516v-7.449h3.626c0.31,0,0.693,0.112,0.931,0.286
		c0.173,0.136,0.546,0.521,0.67,0.684c0.163,0.221,0.235,0.546,0.235,0.818v1.055C150.625,53.049,150.553,53.322,150.39,53.557
		 M149.111,51.658c-0.063-0.1-0.199-0.235-0.322-0.298h-2.11v1.7h2.11c0.037,0,0.249-0.173,0.322-0.298V51.658z"/>
	<polygon fill="#231F20" points="155.701,51.36 155.701,57.356 154.173,57.356 154.173,51.36 152.162,51.36 152.162,49.907 
		157.699,49.907 157.699,51.36 	"/>
</g>
</svg>
