<?xml version="1.0" encoding="utf-8"?>
<!-- Generator: Adobe Illustrator 25.0.0, SVG Export Plug-In . SVG Version: 6.00 Build 0)  -->
<svg version="1.1" id="Layer_1" xmlns="http://www.w3.org/2000/svg" xmlns:xlink="http://www.w3.org/1999/xlink" x="0px" y="0px"
	 viewBox="0 0 100 100" style="enable-background:new 0 0 100 100;" xml:space="preserve">
<style type="text/css">
	.st0{fill:#000000;}
</style>
<g>
	<path fill="none" d="M0,100C0,66.7,0,33.3,0,0c33.3,0,66.6,0,100,0c0,33.3,0,66.7,0,100C66.7,100,33.3,100,0,100z M39.2,17.7
		c-3.1,0.4-6.3,0.7-9.5,1.2c-7,1.3-13.5,3.9-19,8.6C2.8,34.3-0.2,42.7,2.9,52.8C7.8,68.3,18,79,33.2,85c7.9,3.1,16.2,3.4,24.5,3.2
		c1.5,0,3.1-0.4,4.6-0.9c2.2-0.7,3.7-2.2,4.1-4.5c0.4-1.9,0.6-3.9,0.5-5.9c-0.1-3.6,0-7.2,2.2-10.3c-1.6-0.6-3.1-1.2-4.7-1.9
		c-0.5-0.2-0.9-0.2-1.3,0.2c-0.6,0.7-1.6,1-2.4,0.5c-1.4-1-3.2-1.5-3.8-3.4c-0.1-0.2-0.3-0.3-0.5-0.4c-0.5-0.2-1.1-0.4-1.6-0.6
		c-0.6-0.3-1.2-0.3-1.9-0.1c-1.7,0.6-3.5-0.3-4.3-1.9c-0.1-0.2-0.2-0.4-0.4-0.5c-1-0.5-2.1-0.9-3.2-1.4c0.1,0.8,0.2,1.5,0.2,2.1
		c-0.2,2-1.7,2.9-3.4,3.5c-1.5,0.5-2.8,0.2-3.9-1c-2.8-2.9-5.5-5.9-8.3-8.8c-0.3-0.3-0.8-0.6-1.2-0.8c-3-1.1-5.5-2.9-7.5-5.4
		c-0.2-0.3-0.4-0.5-0.7-0.9c-0.9,5.1-5.2,6.4-7.9,5.6c-3.5-1-5.4-4.6-4.2-8c1.3-3.7,4.9-5,9.2-3.4c-0.1-1.5,0.5-2.6,1.8-3.3
		c-1.9-3.5-1.4-6.6,1.2-8.7c2.4-1.9,5.9-1.7,8.1,0.4c1.4,1.4,2.1,3,1.9,5c-0.1,1.9-1.1,3.4-2.7,4.7c0.3,0,0.4,0.1,0.5,0.1
		c4-0.5,7.3,0.9,9.9,3.9c0.2,0.2,0.6,0.4,0.9,0.4c1.5,0.2,2.5,0.9,3.2,2.3c0.1,0.2,0.3,0.5,0.5,0.6c1.2,0.6,2.4,1.1,3.8,1.6
		c-0.1-0.6-0.2-1.1-0.3-1.6c-0.2-1.1,0.2-2.1,1.1-2.7c0.9-0.7,2-0.8,2.9-0.2c2.3,1.3,4.5,2.7,6.8,4.1c1.1,0.7,1.5,1.9,1.1,3.2
		c-0.2,0.7-0.4,1.4-0.7,2.1c1.1,0.5,2.1,1,3.2,1.5c0.4-0.8,0.8-1.6,1.2-2.3c-3-4.4-6.1-8.8-9.2-13.2c-1-1.5-2.2-3-2.8-4.7
		c-0.5-1.3-1.3-1.6-2.2-2.1c-1.2,3.4-3.8,5.1-6.8,4.7c-2.9-0.4-5.2-2.6-5.5-5.4c-0.4-3.4,1.4-5.6,5.4-7
		C40.1,21.7,39.7,19.9,39.2,17.7z M70.8,48.9c0.1,0.2,0.1,0.3,0.2,0.4c2.6,4.1,5.1,8.3,7.7,12.4c0.2,0.3,0.6,0.6,1,0.8
		c3.6,1.7,7.2,3.4,10.8,5.1c0.7,0.3,1.1,0.3,1.7-0.1c2.9-1.9,4.8-4.5,5.6-7.8c0.9-3.6,0.1-6.9-1.5-10.1c-1.9-3.9-4.7-7.2-7.8-10.2
		C79.5,31,68.8,25.2,57.2,21.1c-0.6-0.2-1.3-0.4-2.1-0.7c1,2.2,1.3,4.2,1.3,6.4c0,0.8,0.2,1.1,1,1.1c4.1,0.2,6.8,3.9,5.8,7.9
		c-0.1,0.3-0.2,0.6-0.1,0.8c0.8,1.4,1.7,2.7,2.5,4.1c1.8-3.6,4.5-5,7.7-4.1c2.9,0.8,4.8,3.6,4.5,6.6C77.7,46.6,75.3,48.5,70.8,48.9z
		 M50.8,56.8c0.2,0.1,0.5,0.2,0.7,0.3c12.6,4.9,25.1,9.8,37.7,14.7c1.2,0.4,2.3,0.9,3.5,1.3c0.3,0.1,1-0.2,1.1-0.4
		c0.1-0.3-0.2-0.8-0.4-1.1c-0.1-0.1-0.3-0.2-0.5-0.3C82,66.3,71.2,61.2,60.4,56.1c-2.6-1.2-5.2-2.4-7.7-3.6
		C52,54,51.4,55.4,50.8,56.8z M33.8,50.5c0.3,0,0.6,0,0.9,0c0.7,0,1.2-0.1,1.4-1c0.3-1,0.8-2,1.3-2.9c0.3-0.5,0.3-0.8,0-1.2
		c-2.2-3.3-5.1-5.2-9.3-4.7c-2.6,0.3-5.2-0.1-7.6-1.4c-0.2-0.1-0.5-0.1-0.8-0.1c0,0.3-0.1,0.7,0,0.9c0.6,1.2,1.1,2.5,1.9,3.6
		C24.4,48.1,28.5,50.5,33.8,50.5z M54,27.1c0.1-4-1.1-7.5-5.1-9.5c-2.4-1.2-4.4-2.9-5.7-5.4c-0.1-0.2-0.4-0.3-0.6-0.5
		c-0.2,0.2-0.4,0.4-0.5,0.6c-0.6,2.9-0.7,5.8,0.1,8.6c1.2,4.2,3.9,7,7.5,8.9C51.3,28.9,52.6,28,54,27.1z M74.8,60.3
		c0-0.1,0.1-0.1,0.1-0.2c-4-6.5-8-12.9-12-19.3c-1.4,0.9-2.7,1.8-3.9,2.6c0,0,0.1,0.1,0.1,0.2c3.2,4.5,6.5,9,9.7,13.5
		c0.1,0.2,0.3,0.4,0.5,0.5C71.2,58.6,73,59.4,74.8,60.3z M54.8,29.4c-0.8,0.5-1.5,0.9-2.2,1.3c-1.1,0.7-1.2,1.3-0.5,2.4
		c1.3,1.9,2.6,3.8,3.8,5.8c1.8,2.9,2,2.4,4.5,0.7c0.8-0.5,0.9-1.2,0.4-2c-1.6-2.5-3.3-4.9-4.9-7.4C55.7,30,55.3,29.8,54.8,29.4z
		 M40.2,47.2c-0.3,0.3-0.8,0.5-1,0.9c-0.3,0.4-0.4,0.9-0.6,1.4c-0.6,1.4-0.4,1.9,1,2.5c2.1,0.9,4.2,1.8,6.3,2.7
		c2.8,1.2,2.9,1.2,4-1.6c0.5-1.2,0.3-1.7-0.9-2.2c-2.6-1.1-5.1-2.2-7.7-3.3C41,47.5,40.7,47.4,40.2,47.2z M78.3,70.1
		c0,0.1-0.1,0.1-0.1,0.2c2.3,3.1,4.5,6.3,6.8,9.4c0.4,0.5,0.8,1,1.4,0.5c0.7-0.5,0.4-1,0-1.5c-1.4-2.2-2.7-4.4-4.1-6.5
		c-0.2-0.3-0.4-0.6-0.7-0.7C80.6,71,79.5,70.6,78.3,70.1z"/>
	<path class="st0" d="M39.2,17.7c0.5,2.2,0.9,4,1.3,5.8c-4.1,1.4-5.8,3.7-5.4,7c0.3,2.8,2.6,5.1,5.5,5.4c3.1,0.4,5.6-1.4,6.8-4.7
		c1,0.5,1.8,0.8,2.2,2.1c0.6,1.7,1.8,3.2,2.8,4.7c3,4.4,6.1,8.8,9.2,13.2c-0.4,0.7-0.8,1.5-1.2,2.3c-1-0.5-2.1-1-3.2-1.5
		c0.2-0.7,0.5-1.4,0.7-2.1c0.4-1.3,0-2.5-1.1-3.2c-2.2-1.4-4.5-2.8-6.8-4.1c-1-0.6-2-0.5-2.9,0.2c-0.9,0.7-1.3,1.6-1.1,2.7
		c0.1,0.5,0.2,0.9,0.3,1.6c-1.4-0.6-2.6-1.1-3.8-1.6c-0.2-0.1-0.4-0.4-0.5-0.6c-0.6-1.4-1.7-2.1-3.2-2.3c-0.3,0-0.7-0.2-0.9-0.4
		c-2.7-3-5.9-4.4-9.9-3.9c-0.1,0-0.2,0-0.5-0.1c1.6-1.3,2.6-2.8,2.7-4.7c0.1-2-0.5-3.6-1.9-5c-2.2-2.1-5.6-2.3-8.1-0.4
		c-2.7,2.1-3.1,5.2-1.2,8.7c-1.3,0.7-1.9,1.8-1.8,3.3c-4.3-1.7-7.9-0.3-9.2,3.4c-1.2,3.4,0.8,7,4.2,8c2.8,0.8,7.1-0.5,7.9-5.6
		c0.3,0.3,0.5,0.6,0.7,0.9c2,2.5,4.5,4.3,7.5,5.4c0.4,0.2,0.9,0.4,1.2,0.8c2.8,2.9,5.5,5.9,8.3,8.8c1.1,1.1,2.4,1.5,3.9,1
		c1.7-0.6,3.2-1.5,3.4-3.5c0.1-0.7-0.1-1.3-0.2-2.1c1.1,0.5,2.1,0.9,3.2,1.4c0.2,0.1,0.3,0.3,0.4,0.5c0.7,1.6,2.6,2.6,4.3,1.9
		c0.7-0.3,1.3-0.2,1.9,0.1c0.5,0.2,1.1,0.4,1.6,0.6c0.2,0.1,0.5,0.2,0.5,0.4c0.6,1.9,2.4,2.4,3.8,3.4c0.8,0.6,1.7,0.3,2.4-0.5
		c0.4-0.5,0.7-0.5,1.3-0.2c1.5,0.6,3.1,1.2,4.7,1.9c-2.2,3.2-2.4,6.7-2.2,10.3c0.1,2-0.1,4-0.5,5.9c-0.4,2.2-1.9,3.8-4.1,4.5
		c-1.5,0.5-3,0.9-4.6,0.9C49.3,88.4,41,88,33.2,85C18,79,7.8,68.3,2.9,52.8c-3.1-10-0.1-18.5,7.8-25.2c5.5-4.7,12-7.3,19-8.6
		C32.9,18.4,36.1,18.1,39.2,17.7z M23,52.6c-0.6,0.3-1.1,0.4-1.6,0.7c-2.2,1.3-4.4,2.5-6.6,3.8c-2,1.2-2.1,2.9-0.4,4.4
		c4.8,4.3,9.6,8.6,14.4,12.9c1.4,1.3,2.9,1.1,4-0.5c1.3-1.9,2.6-3.8,3.8-5.8c0.8-1.3,0.7-2.3-0.3-3.3c-3.9-3.8-7.8-7.5-11.7-11.2
		C24.2,53.1,23.6,52.9,23,52.6z M52.3,81.1c0.9-0.2,2.6-0.5,4.1-1.2c4.3-2,5-6.5,1.6-9.9c-3.3-3.4-9.6-4.4-13.8-2.2
		c-4.1,2.1-4.8,6.5-1.6,9.8C45.1,80,48.2,80.9,52.3,81.1z"/>
	<path class="st0" d="M70.8,48.9c4.5-0.5,6.8-2.3,7.1-5.7c0.3-3-1.6-5.8-4.5-6.6c-3.2-0.9-5.9,0.5-7.7,4.1c-0.9-1.4-1.7-2.8-2.5-4.1
		c-0.1-0.2,0-0.6,0.1-0.8c1-4-1.7-7.7-5.8-7.9c-0.8,0-1.1-0.3-1-1.1c0.1-2.1-0.3-4.2-1.3-6.4c0.8,0.3,1.4,0.4,2.1,0.7
		c11.7,4.1,22.3,9.9,31.3,18.4c3.2,2.9,5.9,6.2,7.8,10.2c1.6,3.2,2.4,6.6,1.5,10.1c-0.9,3.3-2.7,5.9-5.6,7.8
		c-0.6,0.4-1.1,0.4-1.7,0.1c-3.6-1.7-7.2-3.4-10.8-5.1c-0.4-0.2-0.7-0.4-1-0.8c-2.6-4.1-5.2-8.3-7.7-12.4
		C71,49.2,70.9,49.1,70.8,48.9z M83.8,60.2c3.4,0,6.2-2.8,6.3-6.2c0-3.4-2.8-6.3-6.3-6.3c-3.4,0-6.2,2.8-6.2,6.2
		C77.6,57.3,80.4,60.2,83.8,60.2z"/>
	<path class="st0" d="M50.8,56.8c0.6-1.5,1.2-2.9,1.9-4.3c2.5,1.2,5.1,2.4,7.7,3.6C71.2,61.2,82,66.3,92.9,71.3c0.2,0.1,0.4,0.1,0.5,0.3
		c0.2,0.4,0.5,0.8,0.4,1.1c-0.1,0.3-0.8,0.5-1.1,0.4c-1.2-0.4-2.3-0.9-3.5-1.3C76.7,67,64.1,62.1,51.5,57.2
		C51.2,57.1,51,56.9,50.8,56.8z"/>
	<path class="st0" d="M33.8,50.5c-5.3,0-9.4-2.4-12.2-6.8c-0.7-1.1-1.3-2.4-1.9-3.6c-0.1-0.2,0-0.6,0-0.9c0.3,0,0.6,0,0.8,0.1
		c2.4,1.3,4.9,1.7,7.6,1.4c4.2-0.5,7.1,1.4,9.3,4.7c0.3,0.4,0.3,0.7,0,1.2c-0.5,0.9-1,1.9-1.3,2.9c-0.2,0.9-0.7,1.1-1.4,1
		C34.4,50.5,34.1,50.5,33.8,50.5z"/>
	<path class="st0" d="M54,27.1c-1.5,1-2.8,1.8-4.2,2.8c-3.7-1.8-6.4-4.7-7.5-8.9c-0.8-2.9-0.7-5.7-0.1-8.6c0-0.2,0.3-0.4,0.5-0.6
		c0.2,0.2,0.5,0.3,0.6,0.5c1.3,2.4,3.3,4.2,5.7,5.4C53,19.6,54.1,23.1,54,27.1z"/>
	<path class="st0" d="M74.8,60.3c-1.8-0.8-3.6-1.7-5.4-2.6c-0.2-0.1-0.4-0.3-0.5-0.5c-3.2-4.5-6.5-9-9.7-13.5c-0.1-0.1-0.1-0.2-0.1-0.2
		c1.3-0.8,2.5-1.7,3.9-2.6c4,6.4,8,12.8,12,19.3C74.9,60.2,74.9,60.2,74.8,60.3z"/>
	<path class="st0" d="M54.8,29.4c0.4,0.3,0.9,0.5,1.1,0.9c1.7,2.4,3.3,4.9,4.9,7.4c0.5,0.8,0.4,1.5-0.4,2C58,41.4,57.8,41.8,56,39
		c-1.2-2-2.6-3.8-3.8-5.8c-0.7-1.1-0.6-1.7,0.5-2.4C53.3,30.3,54,29.9,54.8,29.4z"/>
	<path class="st0" d="M40.2,47.2c0.5,0.2,0.8,0.2,1,0.4c2.6,1.1,5.1,2.2,7.7,3.3c1.2,0.5,1.4,1,0.9,2.2c-1.2,2.8-1.2,2.9-4,1.6
		c-2.1-0.9-4.2-1.8-6.3-2.7c-1.4-0.6-1.6-1.1-1-2.5c0.2-0.5,0.3-1,0.6-1.4C39.5,47.8,39.9,47.5,40.2,47.2z"/>
	<path class="st0" d="M78.3,70.1c1.1,0.4,2.3,0.9,3.4,1.4c0.3,0.1,0.5,0.4,0.7,0.7c1.4,2.2,2.7,4.4,4.1,6.5c0.3,0.5,0.6,1.1,0,1.5
		c-0.7,0.5-1.1,0-1.4-0.5c-2.2-3.1-4.5-6.3-6.8-9.4C78.3,70.3,78.3,70.2,78.3,70.1z"/>
	<path fill="none" d="M23,52.6c0.5,0.3,1.2,0.5,1.6,0.9c3.9,3.7,7.8,7.5,11.7,11.2c1.1,1,1.2,2.1,0.3,3.3c-1.3,1.9-2.5,3.9-3.8,5.8
		c-1.1,1.6-2.6,1.8-4,0.5c-4.8-4.3-9.6-8.6-14.4-12.9c-1.7-1.5-1.6-3.2,0.4-4.4c2.2-1.3,4.4-2.6,6.6-3.8C21.9,53,22.4,52.8,23,52.6z
		"/>
	<path fill="none" d="M52.3,81.1c-4.2-0.2-7.2-1.1-9.6-3.5c-3.2-3.3-2.5-7.7,1.6-9.8c4.2-2.2,10.4-1.2,13.8,2.2
		c3.4,3.4,2.7,7.9-1.6,9.9C54.9,80.6,53.2,80.8,52.3,81.1z"/>
	<path fill="none" d="M83.8,60.2c-3.4,0-6.2-2.8-6.2-6.2c0-3.4,2.8-6.2,6.2-6.2c3.4,0,6.3,2.8,6.3,6.3C90,57.4,87.2,60.2,83.8,60.2z
		"/>
</g>
</svg>
