<?xml version="1.0" encoding="utf-8"?>
<!-- Generator: Adobe Illustrator 25.0.0, SVG Export Plug-In . SVG Version: 6.00 Build 0)  -->
<svg version="1.1" id="Layer_1" xmlns="http://www.w3.org/2000/svg" xmlns:xlink="http://www.w3.org/1999/xlink" x="0px" y="0px"
	 viewBox="0 0 57 57" style="enable-background:new 0 0 57 57;" xml:space="preserve">
<style type="text/css">
	.st0{fill:url(#SVGID_1_);}
	.st1{fill-rule:evenodd;clip-rule:evenodd;fill:#734D33;}
	.st2{fill-rule:evenodd;clip-rule:evenodd;fill:#F3B37B;}
	.st3{fill-rule:evenodd;clip-rule:evenodd;fill:#5DB2E4;}
	.st4{fill-rule:evenodd;clip-rule:evenodd;fill:#1B4C3C;}
	.st5{fill-rule:evenodd;clip-rule:evenodd;fill:#171710;}
	.st6{fill-rule:evenodd;clip-rule:evenodd;fill:#C5AA77;}
	.st7{fill-rule:evenodd;clip-rule:evenodd;fill:#494537;}
	.st8{fill-rule:evenodd;clip-rule:evenodd;fill:#472A18;}
	.st9{fill-rule:evenodd;clip-rule:evenodd;fill:#E99153;}
	.st10{fill-rule:evenodd;clip-rule:evenodd;fill:#FFFFFF;}
	.st11{fill-rule:evenodd;clip-rule:evenodd;fill:#743110;}
	.st12{fill-rule:evenodd;clip-rule:evenodd;fill:#D61016;}
	.st13{fill-rule:evenodd;clip-rule:evenodd;fill:#8B8832;}
	.st14{fill-rule:evenodd;clip-rule:evenodd;fill:#8D1913;}
	.st15{fill-rule:evenodd;clip-rule:evenodd;fill:#AE734A;}
	.st16{fill-rule:evenodd;clip-rule:evenodd;fill:#9F5B1C;}
	.st17{fill-rule:evenodd;clip-rule:evenodd;fill:#B1AFAC;}
	.st18{fill-rule:evenodd;clip-rule:evenodd;fill:#786756;}
	.st19{fill-rule:evenodd;clip-rule:evenodd;fill:#948870;}
	.st20{fill-rule:evenodd;clip-rule:evenodd;fill:#5A8896;}
	.st21{fill-rule:evenodd;clip-rule:evenodd;fill:#325D69;}
</style>
<g>
	
		<radialGradient id="SVGID_1_" cx="0" cy="57" r="1" gradientTransform="matrix(28.5 0 0 -28.5 28.5 1653)" gradientUnits="userSpaceOnUse">
		<stop  offset="0" style="stop-color:#2FAC66"/>
		<stop  offset="0.7329" style="stop-color:#07A687"/>
		<stop  offset="1" style="stop-color:#00A19A"/>
	</radialGradient>
	<rect class="st0" width="57" height="57"/>
	<path class="st1" d="M22.2,36.1c0.8,1.4,2.8,2.7,3.7,3.9l-1.3-0.2c5.6,1.9,2,2.3,6.9,0.3c-0.1-0.1-0.7-0.1-0.4-0.2
		c1.4-1,2.8-2.6,4-3.9l-0.3,0c0.4-0.6,2.4-4,2.8-4c1.9-4.4,2.5-13.2,1.9-17.8l-22.4,0c-0.1,6.1-0.3,12.3,2.3,17.7
		c-0.1,0-0.4,0-0.4-0.1l-0.1,0.1c0.3,0,0.2,0.2,0.6,0.4c-0.1-0.2-0.1-0.1,0.1-0.3c0.4,0.6,2.1,3.6,2.9,4.5L22.2,36.1z M21.1,34.6
		l0.1,0.3l-0.2,0c0-0.2,0.1-0.1-0.1-0.1c0-0.2,0.1-0.1-0.1-0.1c0-0.1,0.1-0.1-0.1-0.1c0,0.2-0.1,0.2,0.1,0.1c0,0.2-0.1,0.1,0.1,0.1
		c-0.1,0.1,0.2,0.1,0.3,0.4C21.6,35.1,21.3,34.8,21.1,34.6z M20.7,33.8c-0.1-0.2,0.2-0.4-0.1-0.3c0,0.2,0,0.1,0.1,0.2
		c0,0.1,0.1,0.3,0.2,0.4L20.7,33.8z M19.7,32.4c0.2,0.4,0.2,0.5,0.6,0.7c-0.1,0.2-0.1,0.2,0.1,0.2c0-0.2,0.1-0.2-0.1-0.2
		C19.9,32.7,20,32.8,19.7,32.4z M18.9,31.7l-0.1,0.1l0.2-0.1L18.9,31.7z M18.7,31.6L18.7,31.6l0.2,0L18.7,31.6z M16.8,31.5l-1.2,1
		c0.4-0.3,1.3-1.3,2.2-1.1c0.3,0,0.7,0.3,0.8,0.1L16.8,31.5L16.8,31.5z M15.3,32.9c0.2,0.3,0.2-0.2,0.1-0.3L15.3,32.9z M14.9,34
		c0.2,0.3,0.5-0.9,0.3-1L14.9,34z M16.7,34.5c0.5-1.1-0.9-1.3-1.3,0.1c0-0.6,0.1-0.8,0.2-1.4c-1.3,0.6,0.5,5.1,0.9,2.9
		c-0.4,1.2-1.1-0.5-1.1-1.1C15.7,34.3,16.7,32.9,16.7,34.5z M14.7,34.8c0.1,0.3,0.4-0.7,0.2-0.7L14.7,34.8L14.7,34.8z M14.6,35
		c0.1,0.3,0.1-0.1,0-0.2L14.6,35L14.6,35z M14.5,35.3c0.1,0.3,0.1-0.1,0-0.2L14.5,35.3L14.5,35.3z M14.4,35.6c0.1,0.2,0,0.1,0.1,0.1
		l-0.1-0.2L14.4,35.6z M14.2,36.1c0.2,0.3,0.2-0.2,0.1-0.4L14.2,36.1z M14.1,36.3c0.1,0.1,0,0.1,0.1,0l-0.1-0.2L14.1,36.3z M14,36.6
		c0.2,0.2,0.1-0.1,0-0.2L14,36.6z M13.8,37.1c0.1,0.4,0.3-0.4,0.1-0.4L13.8,37.1z M13.6,38.2L13.6,38.2c0-0.3,0.2-0.8,0.1-1
		L13.6,38.2z M37,32.6c0.2-0.2,0.7-0.8,1-0.9L38,31.6C37.7,32,37.1,32,37,32.6z M40.6,31.5c-1.5-0.5-1.2-0.4-2.6,0.1
		c0.3,0.3,0.2-0.2,1.3-0.2C40.5,31.3,40.2,31.7,40.6,31.5z M40.8,31.7c0.2,0.3,0.2,0.2,0.2,0c-0.1,0-0.3-0.1-0.3-0.2l0,0.1
		L40.8,31.7L40.8,31.7z M36.9,32.7c0.2,0,0.1,0,0.1-0.1c-0.3-0.1,0,0.1-0.2,0.3C37,32.8,36.9,32.9,36.9,32.7z M36.8,33l-0.1,0.1
		L36.8,33z M36.5,33.4l0.1-0.2c-0.3-0.1,0,0.1-0.2,0.3L36.5,33.4z M36.1,33.8l0,0.2c0-0.2,0.2-0.3,0.3-0.4
		C36.1,33.4,36.4,33.7,36.1,33.8z M36,34.1c0.2,0,0.1,0,0.1-0.2c-0.3-0.1-0.1,0.1-0.1,0.3L36,34.1z M35.8,35c0.1-0.2,0.3,0,0.2-0.2
		c-0.2,0-0.2,0-0.1,0.1C35.7,34.9,35.8,34.8,35.8,35c-0.2,0-0.2,0-0.2-0.2l-0.3,0.6L35.8,35z M32.4,39.7l-1,0.2
		C31.5,40.2,32.9,39.9,32.4,39.7z M33.3,39.4l-0.8,0.2C32.6,39.9,33.7,39.5,33.3,39.4L33.3,39.4z M33.5,39.3l-0.2,0l0.3,0.2
		C33.7,39.3,33.7,39.5,33.5,39.3z M34.2,39.1l-0.6,0.2c0.2,0.2,0.1,0.2,0.5,0C34.5,39.1,34.2,39.1,34.2,39.1z M34.4,39l-0.1,0
		c0.2,0.2,0,0.1,0.3,0.1L34.4,39z M22.2,34.5c-0.3-0.1,0,0.2-0.3-0.2c-0.2-0.3-0.1,0-0.1-0.4c-0.5-0.5-1.1-1.3-1.3-2.2
		c-0.1,0-0.2,0.2-0.1-0.2c-0.2-0.1,0-0.1,0.1-0.2c-0.5,0-0.8-1-0.8-1.5c-0.5-0.3-1-2.3-0.9-2.9c0.4-0.1,8.9-0.1,9.1,0
		c0.1,3.2,0.3,9.6,0.1,12.7c-0.5-0.1-0.9-0.2-1.1-0.6C25.5,38.5,23,36,22.2,34.5L22.2,34.5z M23.4,35.8c0.5,0.5,1.2,1.2,1.7,1.7
		L23.4,35.8z M26.6,38.6l0.1,0.1L26.6,38.6z M27.2,39L27.2,39L27.2,39z M27.5,39.2L27.5,39.2L27.5,39.2z M27.7,39.3L27.7,39.3
		L27.7,39.3z M19.2,27.9L19.2,27.9L19.2,27.9z M20,30.3L20,30.3L20,30.3z M20.1,30.5L20.1,30.5L20.1,30.5z M20.3,30.9
		C20.3,31,20.2,31.1,20.3,30.9L20.3,30.9z M20.4,31.1L20.4,31.1L20.4,31.1z M21.3,32.9L21.3,32.9L21.3,32.9z M21.9,33.7L21.9,33.7
		L21.9,33.7z M23,35.2L22.8,35L23,35.2z M29,39.6c0.9-13.2-4.4-12.9,8.8-12.7C37.4,31.3,33.2,37.8,29,39.6z M22.8,15.3
		c1.5,0.2,3.5-0.2,5.2-0.1c-0.2,11.3,2.7,11.3-9.3,10.6c0.6,0.4,2.1-0.1,2.6,0.2l-2.8-0.1c0.1-0.1,0.3-0.4,0.1-0.5l-0.1,0.2
		c-0.2-1.6-0.3-4.4-0.2-5.9c-0.2-0.1-0.1-0.7,0-0.7c-0.3-0.3-0.2-3-0.1-3.7L22.8,15.3L22.8,15.3z M38.2,15.5l0,5.1
		c0.1-0.9-0.3-4.4,0.3-5.2c0,1.6,0,8.8-0.1,9.7c-0.3-0.3-0.2-0.3-0.2-0.7c1.4,3-6.1,1.2-8.2,1.6c-2.4,0.4-0.8-8.9-0.8-10.5
		c-0.4,0.4,0.2,1.2-0.4,1.4l0.1-1.7l9.5,0c0,0.5-1.7,0.1-2.2,0.2C36.7,15.4,37.7,15.4,38.2,15.5z"/>
	<path class="st2" d="M25.8,43.2c0.1-0.3,0.1-0.3-0.1-0.5c0.6-0.2-0.1-1.6,0.6-0.8c-0.1,0.2-0.4,0.9,0.2,0.8c0.1-0.3,0-0.8,0-1
		c0.7,0,0.4,1.5-0.3,1.2l0,0.4C25.9,43.3,26.2,43.3,25.8,43.2z M24.4,41.7c-0.4-0.4-1.1-0.3-1.5-0.6c-0.2,0.5,2.4,0.5,0.9,1.1
		l0.2,0.2c-0.6,0.1-1,0-1.5-0.2c0.3,0.1,0.3,0.2,0.5,0c-0.3-0.3-0.3-0.2-0.6-0.1l0-0.3c0.4-0.1,0.3,0,0.7,0c-1.1-0.7,0.4-1.6,1.2-1
		L24.1,41c-0.3-0.3-0.5-0.7-0.9-0.1c0.4,0.2,2.4,0.8,0.9,1.4l0,0C24.4,42.1,24.4,41.9,24.4,41.7L24.4,41.7z M31.5,41.6
		c0.1-0.1,0.2-0.5,0.3-0.6l0.2,0.2c0.2-0.5,0.5-0.6,0.9-0.4c-0.3,0.4-0.2,0.1-0.6,0.3l0.3,1.3l0.6-0.3C33,43,31.4,42.7,31.5,41.6z
		 M32.2,41.3c0.2,0.4,0.2,0.6-0.1,0.9c0.1,0.1,0.3,0.1,0.5,0.1L32.3,41L32.2,41.3z M31.9,41.3l-0.1-0.2c-0.2,0.4-0.2,0.7,0.1,1.1
		C32.1,41.9,32,41.6,31.9,41.3z M28.9,41.8c0.2,0,0.1,0,0.1,0.1l0.2,0c0.2-0.4,0.4,0,0.6,0c0.6-0.2,0-0.2,0.8-0.2l0-0.3
		c0,1.5,0.7,1.5-1.1,1.7c-0.3-0.3-0.2-0.7-0.2-1c-0.4,0.1,0.1,0.9-0.4,1.1c-0.4-0.4,0-0.2-0.2-1.2c-0.1,0.1-0.3,0.3-0.4,0.5
		c0-0.2,0-0.3-0.2-0.5c-0.2,0.4,0,0.5,0,0.5c0.1,0.3,0.1-0.2,0,0.1c-0.2,0.2,0.1,0.4,0.2,0.5c-0.8,0.5-0.8-1.3-0.1-1.3l0.3,0.3
		L28.9,41.8L28.9,41.8z M29.8,42c-0.4,0.1-0.3,0.8,0,1.1l0.3-0.4C29.9,42.3,29.8,42.5,29.8,42z M27.4,43l-0.3,0.2
		C26.8,41.9,27.3,41,27.4,43z M25.7,41.7c-0.2,0.4,0,1.7-0.6,0.9l-0.3,0.2c-0.4-0.4,0.1-0.7,0.1-1.2C25.3,41.3,26,41.6,25.7,41.7z
		 M33.2,41.2c0.8-1.3,1.7,1.4,0.2,0.9L33.2,41.2L33.2,41.2z M22,40.4l0.1,0.3c-0.7-0.2-0.5,0.5-0.4,1c-0.5,0.1-0.3,0-0.4-0.5
		l-0.5,0.3l-0.1-0.2c0.6,0,0.9-0.5,0.4-0.9l0.4-0.1l0.2,0.5L22,40.4z M34.7,40.5c0.6-0.4,1,1.2,0.3,1.2c0.1,0.3-0.1,0.1,0.2,0.4
		l-0.5,0c-0.2-0.4-0.1-1.1-0.6-1.4c0.6-0.8,0.4,0.9,1,0.6C35,40.9,34.9,40.8,34.7,40.5z M35.3,40.2c0.4-0.1,0.6,0.9,0.7,1.1
		C35.5,41.4,35.2,40.3,35.3,40.2z M35.8,40.1c0.5-0.9,1-0.2,1.2,0.5C36.5,41.5,36,40.7,35.8,40.1z M20.3,41.1
		C20.2,39.4,21.6,39.5,20.3,41.1L20.3,41.1z M39.9,40l0.3-0.3c2.8-2.4-1.4-1.8,0.6-5.1c-0.3,0.3-1,1.2-1.5,1.3
		c0.2-0.4,0.6-0.5,0.8-0.8c-0.4-1.5,0.8-2.1,1.5-0.6c0-0.5-0.2-1-0.2-1.4c1.3,0.7-0.8,5.3-0.9,3c0.3,0.3,0,0.1,0.2,0.5
		c2-0.3-0.3-4.7-0.4-1.7c0.4-0.4,0.3-0.3,0.4-0.8c1.1,0.6-0.9,1.9-0.2,2.9c1,0.9,1.9,3.2,2.9,1.4l0.1-0.1c-0.3-0.2,0-0.4,0-0.6
		c-0.2,0.1,0,0.2-0.2,0c0-0.1,0.2-0.2,0.1-0.3c-0.1,0.4-0.5-0.6-0.2-0.7L43,36.5c0,0-0.1,0.4-0.2-0.1c-0.1-0.4,0-0.2,0.1-0.3
		L42.8,36c-0.2,0.3-0.4-0.6-0.2-0.6l-0.1-0.1l-0.2,0.1l0.2-0.3l-0.3,0l0.1-0.2c-0.2-0.2-0.1,0.3-0.3-0.2c-0.1-0.3-0.5-0.8-0.2-1
		c-0.1,0-0.5-0.5-0.3-0.7l-0.2-0.1l0-0.2c-0.1,0.2-0.1-0.2-0.2-0.3c-0.2-0.3-0.3-0.2-0.1-0.3L41,31.7l0,0.1c0,0.3-0.2-0.2-0.4-0.1
		l0-0.2c-0.4,0.2-0.1-0.2-1.3-0.1c-1,0-1,0.5-1.3,0.2l0.1,0.2c-0.4,0-0.8,0.6-1,0.9l0,0c0,0.2,0,0.1-0.1,0.1c0,0.1,0.1,0.1-0.1,0.1
		l-0.2,0.2c0.1,0.2-0.2,0.2-0.2,0.4l0,0l-0.2,0.3c-0.1,0.1,0,0.4-0.2,0.4c0.1,0.2-0.7,0.9-0.2,0.9c0-0.2-0.1-0.2,0.1-0.1
		c0.4-0.9,2.3-1.1,3.3-0.5l-0.1,0.3l0.2-0.1l0.2,0.3l-0.2-0.1c0.1,0.1,0.2,0.2,0.4,0.1c0,0.3,0.5,0.1,0,0.4
		c-0.1,0.4-0.4,0.2-0.6,0.7c0.2,0.1-0.2,0.5-0.4,0.4l0.3-0.3c-0.1,0.1-0.5,0.3-0.3,0.5c-1.4,0.8-2.5,2.1-4,2.5l0.1-0.2L34.4,39
		l0.1,0.1c-0.2,0-0.1,0.1-0.3-0.1c-0.2,0.1,0.3,0-0.2,0.3c-0.3,0.1-0.3,0.2-0.5,0l-0.1,0.1c0.2,0.2,0.2,0,0.1,0.2l-0.3-0.2l-0.1,0.1
		c0.5,0.1-0.6,0.5-0.8,0.2l-0.1,0.1c0.4,0.3-1.3,0.5-1.3,0.1l0.1-0.1c-0.1,0.1-0.4,0.3-0.2,0.3l0-0.1c0.1,0.1,0.3,0.2,0.4,0.2
		c-2.6,0.2-1.7,2.6-5,0.3c-1-0.4-2.8-0.5-3.1-1c0.1,0.2-0.8,0-0.4-0.1c-0.3-0.2,0,0.2-0.4-0.1c-0.5-0.1,0.3-0.2-0.1-0.2
		c-0.3,0.2-0.1,0-0.6,0c-0.2,0.1-0.1,0.1-0.1-0.1c-0.2,0-0.2,0.1-0.2-0.1c-0.2-0.3-1.4-0.7-1.5-0.8c-0.3-0.2-1.7-1.3-2.2-1.7
		c0.2-0.2,0.2-0.2,0-0.3l0.1,0.1c-0.2,0.3-1.2-0.8-1.3-1c-0.3-0.1-0.2-0.2-0.5-0.3l0,0.1c0.7,0.7,1.1,2.5-0.3,3.1
		c2-1.5-0.6-2.7,0.6-3.8c-0.4,0.3,0.1,0.5,0.3,0.7c0.1-1.8-0.8-0.9-1.3,0.1c0.1,0.7,0.7,2.3,1.1,1.1c-0.4,2.2-2.2-2.3-0.9-2.9
		c-0.1,0.6-0.2,0.8-0.2,1.4c1-1.9,1.6-0.7,1.6,0.6c0.9-0.9,3-1.7,3.8-0.5c0.2,0,0.2-0.1,0.1,0.1c0.2,0,0.1-0.1,0.1,0.1l0.2,0
		c0-0.4-0.5-0.8-0.6-1.2c-0.1,0-0.2-0.3-0.3-0.4c-0.2,0-0.1,0-0.1-0.2c-0.6-0.3-0.8-1.1-1.4-1.3l0.1-0.1c0-0.1-0.2,0-0.3,0l0.1-0.1
		l-0.1-0.1l-0.3,0.1l0.1-0.1l-0.1-0.1c-0.2,0.2-0.6-0.1-0.8-0.1c-1-0.3-1.9,0.8-2.2,1.1c-0.2,0,0,0.8-0.2,0.4c0,0.1-0.1,1.4-0.4,1.1
		l-0.1,0.1c0.2,0-0.1,1.1-0.2,0.7c-0.1,0.1,0,0.2,0,0.3c-0.1,0.1,0,0.1-0.1,0c-0.1,0.1,0.1,0.6-0.1,0.3c-0.1,0.1,0,0.2,0,0.3
		c-0.1,0.1,0,0.1-0.1-0.1c-0.2,0.1,0.1,0.8-0.2,0.5c-0.1,0.1,0,0.2,0,0.3c-0.1,0.1,0,0.1-0.1,0c-0.1,0.1,0.1,0.5-0.1,0.3l-0.1,0.1
		c0.2,0.1,0,0.8-0.1,0.4c-0.1,0.5-0.2,1.5,0.2,1.6c0.2,0.2,0,0.1,0,0.1c0,0.2,0.2,0.1,0.3,0.3L14.1,39c0.1,0,0.6,0.2,0.7,0.2
		l-0.1,0.1l0.3-0.1c-0.1-0.2,0.6-1,0.9-1.2c-0.7,0.7,0.5,1,0.7,1.5l-0.1-0.1c0.1,0.1,0.2,0.2,0.3,0.2c0.1,0.7,2.3,1.9,2.9,2.3
		c0-0.3,0.6,0,0.7,0.2c0.8,0.1,1.5,0.7,2.3,0.9c0.3,0.1,0.5,0,0.3,0.2c0.2,0.1,0.5-0.1,0.9,0.1l-0.2,0l0.1,0.1
		c0.5-0.3,1.2,0.2,1.8,0.2l-0.2,0.1c2.4,0.4,6.2-0.1,8.6-0.5l0.1-0.1l-0.2-0.1c1.2-0.3,2.8-1.5,3.6-1.5l0.1-0.1l-0.1-0.1l0.2,0
		c0,0-0.3,0,0.1-0.1c0.3-0.1,0,0,0.2,0.1c0-0.1,0.6-0.8,0.8-0.5c0.2-0.2-0.3,0,0.1-0.3c0.3-0.1,0.1-0.1,0.2,0L39,40.6l0.2-0.1
		c-0.2-0.1,0.2-0.5,0.3-0.2l0.2-0.2l-0.2,0.1c0.1-0.2,0.3-0.3,0.5-0.4L39.9,40L39.9,40z M19.1,39.8c-0.2,0.5,0.2,0.3,0.4,0.5
		c0.1-0.1,0.7-1.2,0.7-1.3c0.2,0.2,0.1,0.1,0.4,0.2c-0.4,0.4-0.8,1-0.7,1.6c-0.4,0.1-0.3-0.2-0.5-0.4c-0.4,0.1-0.8,0-0.9-0.5
		c0.5-0.5,1-1.5,1.3-0.2L19.1,39.8L19.1,39.8z M21,39.7c0-0.3,0-0.4,0.3-0.2L21,39.7z M37.7,38.9c0.3-0.7,0.6,0.3,0.9,0.6
		c0.5-0.4-0.4-0.8-0.2-1.2c0.5,0,0.1,0.1,0.7,0.8c0.3,0.1,0.1,0.5-0.3,0.3l-0.2,0.5C38,39.6,38.1,39.3,37.7,38.9L37.7,38.9z
		 M37.4,38.8c0.2,0.2,0.1,0.3,0.1,0.6c0.8,0.2,0.6,0.9-0.1,1.3c0.2-0.6-0.3-0.5-0.5-1c0-0.3,0.2-0.6,0.6-0.6
		C37.4,39,37.3,38.8,37.4,38.8L37.4,38.8z M17.3,39.5c0.6-0.2,0.9-0.7,1.3-1.4c-0.7,0.4-1.2,2.1-2.1,0.9c0.4-0.3,0.4,0,0.7,0.3
		c0.3-0.2,0.6-0.7,0.7-1.1L17.4,38c0.7,0,1.4-0.2,2.1,0.4c-0.6,0.3-0.2-0.1-0.7-0.1c-0.1,0.5,0,0.1,0.2,0.5l-0.5-0.1
		C18.2,39.5,18,39.6,17.3,39.5z M39.1,38.2c0.3,0.3,0.2,0,0.4,0.4c-0.8,0.4-0.8-0.9-0.1-0.9c0-0.2-0.1-0.2,0-0.4
		c0.1,0.3,0.1,0.3,0.1,0.7c1,0.2,0.6,0.8-0.1,1.2c0-0.8,0.3-0.3,0.4-0.7c-0.2-0.3,0-0.1-0.4-0.1c0-0.1,0-0.3-0.1-0.4L39.1,38.2z"/>
	<path class="st3" d="M32.6,22.2c-0.1-0.1-0.5-0.1-0.6-0.1l-0.1-0.7c-0.2,0-1.1,0-1.3,0.1c0-0.6,0.5-0.8,0.4-1.3
		c-0.4-0.1-1-0.2-1.3-0.4c5-1.4,3.3-1.2,8.1,0.1c-1.2,0.4-3.7,1.4-5,0.8c1.3,0.9,3.4-1.2,3.7,0.8c-1.7-0.1-2.2,1.1-3.8,0
		C32.7,21.8,32.8,22,32.6,22.2z M29.1,15.5c-0.2,0.5,0,9.5,0,10.3l8.9,0c0.4-2.8,0.1-7.4,0.1-10.3C36.8,15.3,30.6,15.5,29.1,15.5z"
		/>
	<path class="st3" d="M25,33.6L25,33.6c0.4,0.1,0.3,0.3,0.4,0.1c0.3,0,0.8,0.1,0.9-0.4c-0.4-0.3-0.1-0.4,0.3-0.5l0,0
		c1,0.2,0.8,0.2,0.5,0.8c0.7,2.9-0.9,1.7-2.9,1.9c0-1.1,0.3-1.5,0-2.6c0.4,0.1,0.1,0.1,0.5,0c0.3,0,0.1,0.3,0.5,0L25,33.6z
		 M26.2,29.4l0.3-0.1c-0.1-0.3-0.2-0.3-0.1-0.6c0.2,0,0.1,0,0.2,0.1c0.2-0.2,0-0.1,0.3-0.2c0.1,0.2,0,0,0,0.1l0.4-0.1
		c-0.1,0.8-0.2,0.8-0.1,1.6c0.3-0.2,0.1,0.8,0.1,1c-0.8,0-2.2,0-2.9,0c-0.1-0.4-0.1-0.5,0.1-0.8l-0.2,0c0.5-0.7,0-1.2,0.1-1.7
		c0.5,0,0.1,0.1,0.2,0.1c0.3-0.2,0.7,0.1,0.9,0l0,0.8C25.7,29.3,25.8,29.4,26.2,29.4L26.2,29.4z M23.1,27.5c0.1,0.1,0.2,0.1,0.3,0
		c-0.1,0.8,0,1.8,0,2.5c-0.8,0.1-1.8,0-2.6,0l0,0l-0.4,0c-0.1-0.9,0.3-1.6,0-2.5c0.3-0.2,0.8,0,1.1,0.1c-0.2,0.4,0.1,0.1-0.3,0.2
		c0.3,0.2,0.3,0,0.1,0.3c0.3,0.1,0.9,0.2,1.3,0c-0.1-0.1-0.2-0.4-0.2-0.6C22.9,27.5,22.5,27.8,23.1,27.5L23.1,27.5z M19.2,27.9
		c0.2,0.5,0.6,1.5,0.6,2c0.2,0,0.2,0.3,0.3,0.6l0,0c0.1,0.3,0.3,0.6,0.4,0.9l0.1,0l-0.1,0.2c0.2,0,0.2-0.2,0.1,0.2
		c0.4,0.2,0.4,0.9,0.8,1.1l-0.1,0.2c0.3,0.1,0.3,0.1,0.3,0.5l0.2,0l0.1,0.2l0,0.2c0.3,0.1,0.3,0.3,0.4,0.5c0.8,0.6,2,2.3,2.8,3
		c0.5,0.6,1.5,0.9,1.9,1.6l0.2,0l0,0c0.1,0,0.3,0.2,0.5,0.2l0,0l0.2,0l0-12.2l-8.8,0L19.2,27.9z"/>
	<path class="st4" d="M30.4,33.1c0.1-0.6,1.9-0.6,1.9-0.1c0.3,0,0.1,0,0.3,0.2c0.5-0.2,0.3,0.5,0.5,0.7c0.1,0.2,0.1-0.1,0.2,0.3
		c0.1,0.8-0.2,0.2-0.2,0.9c-0.2,0.5,0,0.2-0.2,0.3l-0.3,0.4l-0.3-0.2c1.3,1.2-3.7,0.6-2.4-1.7c0.5,0.1,0,0.3,0.4,0.1
		C29.8,33.8,29.8,33.3,30.4,33.1z M31.9,31.4l-0.1,0.3c-0.2,0-1.3-0.1-1.4,0.1l-0.6-0.6c0.4,0.1,0.2,0.2,0.3,0
		c-0.1-0.1-0.2-0.2-0.3-0.1c-0.2-0.6-0.6-0.8-0.2-1.2c-0.2-0.1-0.2-0.2-0.2-0.2c0.4,0,0.2,0,0.3,0c0.2,0.1,0.1-0.2,0.2,0.2L29.6,30
		c0.1,0,0.4-0.1,0.5-0.2l-0.2-0.2l0.2,0l-0.3-0.2c-0.5,0.3,0.3-0.9,0.6-0.9c-0.2,0.3-0.2,0.3-0.4,0.4c0.5-0.2,0.4-0.5,0.6-0.2
		c-0.2-0.1-0.2-0.1-0.1,0.1c-0.2-0.1-0.1-0.1-0.1,0.1l-0.1-0.1l0,0.1l-0.4,0.2l0-0.2c-0.3,0-0.4,0.4-0.2,0.5l0.1-0.3
		c0.3,0.1,0.4-0.1,0.6-0.4l0,0.1l0.1,0l0-0.1l-0.1,0l0.2-0.1l-0.2-0.1c-0.2-0.3-0.1,0.2,0-0.1c0.1-0.3,0.2,0.1,0-0.1
		c0.1,0.1,0.2,0.2,0.3,0.3l0.2-0.3c-0.3,0.4-0.3,0.1,0.1,0.4l-0.3,0l0.3,0.5c0.2-0.2-0.1-1.1,0.1-0.7l0.1-0.1
		c-0.4-0.1,0.6,0,0.5,0.2l-0.2,0l0.2,0.2c0.1-0.1,0.1-0.1,0.2,0c-0.2,0.1-0.7-0.1-0.3-0.2c0.1-0.4-0.3,0-0.3,0.2
		c0.2,0.1,0.5,0.3,0.7,0.4l-0.1-0.2c0.4,0.1,0.2,0,0.3,0.3l0.1-0.1l-0.1,0.3l0.3-0.1c-0.3,0.5,0.2,0.8-0.1,1.1
		c-0.2-0.3-0.2,0-0.1-0.4c-0.3,0-0.1,0.9-0.2,1.1l-0.3,0.1c0,0.4-0.1-0.3,0,0.1l0,0.1l0,0.1c-0.3-0.1-0.1,0-0.3-0.2L31.9,31.4
		L31.9,31.4z M36.6,30.3c-0.3,0-0.3,0-0.4,0.2c-1.2,1.4-3.6-0.4-2.7-1.9C34.5,26.2,37.8,28.1,36.6,30.3c4.2-5.2-5-2.7-7.4-3.1
		c-0.1,3.1-0.1,9.1,0,12.1C30.6,39.4,36.7,32.6,36.6,30.3L36.6,30.3z"/>
	<path class="st5" d="M18.4,20.8l0,0.2c0.4-0.2,0.9-0.4,0.7,0c-0.1,0.1,0.2,0.2,0.2,0.2c1.5,0,1.4,1.3,1.8,2.4c0.2,0,0.2,0,0.1,0.1
		l0.1-0.5c-0.5-1.8-0.2-3.6,0.1-4.4c-0.3,0.1,0-0.1-0.2,0.1c-0.3,0.4,0-0.1,0,0.1c-0.2-0.2-0.1,0-0.2-0.4c-0.6,0.1,0,0.1-0.3,0.1
		c-0.2-0.2-0.1-0.1-0.1-0.4c0.5,0.1,0.2,0.1,0.5,0.4c0.5-0.3,0.5-0.7,0.9-0.3c-0.1-0.5-0.1-0.2,0-0.3c0.4-0.1,0-0.8,0.5-0.8l0.1,0.1
		c0.6-0.6,0.6,0.6,0.1,0.8c0-0.3,0-0.5-0.1-0.7c0.1,0.3-0.4,0.7-0.3,1.1c0.5,0.1,0.3-0.2,0.6-0.2l0,0.1c0.1,0,0.2,0.1,0-0.1l0.1-0.2
		c0.1,0.2,0.2,0.2,0.5,0.4l0.1-0.1c0,0.1,0.2,0.4,0.3,0.4c0.1-0.4,0-0.3,0.2-0.6c0.1,0.3,0,0.3,0.1,0.6c0.1-0.4-0.1,0.3,0-0.2
		c0-0.2,0-0.1,0.1-0.2c0.3,0.7,1.4,0,2,0.3c0.2-0.5,0-0.2-0.2-0.5c0.3-0.6-0.2-0.6,0.2-1.1c0.4,0,0.3,0.1,0.4,0.4
		c0.6-0.1,0.9-1.1,0-1.2l0.2-0.1c0-0.3-0.1-0.1,0.1-0.4c-0.3,0.1-0.6,0-0.9-0.2l0.4-0.4c-1.2,0-3.2-0.2-4.3-0.1l0,0.3
		c-0.9-0.7-1.4,0.2-0.4,0.7c-0.5,0.8,0.2,0.1-0.1,0.5l-0.3-0.2c0.1,0.7,0.5,0.1,0.4,0.6l-0.8,0.1l0.4,0.5c-0.5,0.2-0.3,0.1-0.6,0.4
		L20.8,18c0.3-0.2,0.2,0.2,0.4-0.4l-0.5-0.1c0-0.3,0-0.6,0.3-0.6c-0.3-0.3-0.2-0.2,0-0.4c0.1,0.3-0.1,0.5,0.4,0.8
		c0.5-0.4,0.1-0.2,0.1-0.6c0.4-0.7-0.2-1-0.8-0.5c-0.1-0.3,0-0.2-0.3-0.3c0.1,0.3-0.1,0.5,0.2,0.9l-0.5,0.2c0-0.5-0.3-0.2,0.1-0.4
		l-0.2-0.3c0.1,0,0,0,0.1,0l-0.2-0.3l0.2-0.1c-0.2-0.1-0.4-0.3-0.7-0.3c0.1,0.3,0.2,0.2,0.2,0.2c-0.3,0.3,0,0.2,0,0.7L19,16.4
		c0.3,0,0,0,0.5,0.2c-0.2-0.6-0.1,0.3-0.2-0.6c-0.2,0.3,0,0.1-0.2,0.3c0-0.3,0.1-0.6,0.2-0.8l-0.6,0c-0.1,0.2-0.1,0.5,0,0.7
		l-0.4,0.1c0.5,0.7-0.4,1.5,0.3,1.9c-0.5,0.1-0.3,0.9-0.3,1.2l0.5,0l0.2-0.2c0.5,0.6,0.7,0.6,1.4,0.9c-0.3,0.2-0.6,0-1.2-0.2
		l0.1,0.2c-0.8,0-0.3,0.1-0.9-0.2C18.3,20.1,18.6,20.7,18.4,20.8L18.4,20.8z M18.4,19.7l-0.1,0.2c0.2,0,0.1,0.1,0.2-0.1L18.4,19.7z
		 M24.5,16.7c0-0.3-0.1-0.4,0-0.4L24.3,16c0.5,0,0.2,0,0.6,0.3l-0.3,0c0.2,0.3,0.2,0.3,0,0.7l0.3,0.2c-0.5,0.2-0.3,0.2-0.1,0.5
		c-0.6,0-0.2-0.2-0.7,0.1l0.2-0.2c-0.3,0-0.1,0-0.4,0c0.4-0.3,0.1,0,0.1-0.3c0.1-0.5,0.3-0.6,0.1-1.1L24.5,16.7z M23.8,16.8
		c-0.6,0-0.5-0.9-0.3-1.3c0.6,0.9,0.1,0.4,0.5,1c-0.4,0,0-0.1-0.3,0L23.8,16.8z"/>
	<path class="st5" d="M31,20.1l0.6,0.2c-0.6,0-0.7,0.5-0.9,1c0.1,0.1,1,0,1.2,0l0.1,0.7l0.4,0c0-0.1-0.3-0.1-0.3-0.2
		c-0.1-0.4,0.3-1.5-0.4-1.6c0.3,0,0.4-0.1,0.5-0.3c0.5,0.1,1-0.3,1.5-0.2l-1,0.5c0,0.4,0,1.3-0.1,1.8c0.2-0.1,0.1-0.4,0.2-0.7
		c1.6,1.1,2-0.1,3.8,0c-0.3-1.9-2.4,0.1-3.7-0.8c1.2,0.6,3.8-0.4,5-0.8c-4.8-1.3-3.1-1.4-8.1-0.1C30,19.9,30.6,20.1,31,20.1L31,20.1
		z"/>
	<path class="st5" d="M26.4,22.3c0.1-0.5-0.2-0.5,0.2-0.7l-0.5-0.1c0,0.5,0.2,0.5,0.1,0.8c-0.5-0.2-0.5-0.7-0.5-1.2l0.6-0.1
		l-0.1-0.2l-0.1,0c-0.1-0.3,0.1-0.1-0.4,0C25,21,25,20.6,24.8,20.3c0.4-0.1,0.5-0.1,0.9,0l0,0c-0.2,0.1,0-0.1-0.2-0.2
		c-0.3-0.1-0.9-0.3-0.9-0.7c-0.2,0.3,0.2,0.6-0.3,0.9c-0.3-0.5,0.1-0.4,0-0.9c-0.1,0.4-0.4,1.1-0.1,1.4c-0.7,0.6-0.5-0.4-0.8-0.7
		c-0.3,0,0-0.2-0.2-0.4l0.1,0.7c0-0.3-0.1-0.2-0.3-0.3c0.3,0.1-0.1,0.3,0.2-0.1c-0.5-0.4-0.4,0-0.5-0.5l-0.2,0
		c-2.2,1.4,1.9,1.5,2.7,2.3c-0.2,0.1-3.6-0.8-3.5-1.1c-0.1-0.1-0.4-0.2-0.3-0.3c0.1,0.2,0.1,1.2,0.2,1.4l-0.1-0.9
		c1.1-0.1,0.1,1.7,1.5,1.7c0.1-0.9,1.2-1,1.3-0.1c0.7,0.5,1,0.8,1.5,1.5c0.6,0.5,1,2.2,2,1.9c0.1-0.5,0.1-1.5,0-2l-0.4,0l-0.1-0.6
		c-0.2,0-0.4,0.2-0.5,0l0.1,0c-0.3,0.1-0.1,0.1,0,0.6c-1-0.4-1.3-0.8-2.1-1.4c0.5-0.4,0.7,0.9,1.8,0.7
		C26.6,22.7,26.5,22.7,26.4,22.3z M26.8,23.1l-0.2,0L26.8,23.1L26.8,23.1L26.8,23.1z"/>
	<path class="st6" d="M19.8,24.3l0.2,0L19.8,24.3L19.8,24.3z M20,24.3L20,24.3L20,24.3z M21.5,25.1c0.6-0.1-0.1-1.1-0.2-1.3
		c-0.7-1.8-0.4-2.5-2.8-2.7c0,0.3,0.1,4.6,0.2,4.7l2.5,0l0.1-0.3c-0.6-0.5-2.1-0.8-1.9-1.7C20.1,24.4,20.8,24.6,21.5,25.1L21.5,25.1
		z"/>
	<path class="st1" d="M41.5,32.6c-0.1-0.4-0.2-0.4-0.4-0.7c-0.2,0.1,0,0.1,0.1,0.3C41.4,32.4,41.4,32.8,41.5,32.6z M41.6,32.9l0-0.1
		L41.6,32.9L41.6,32.9z M41.9,33.6L41.7,33C41.5,33,41.7,33.8,41.9,33.6z M42.3,34.8l-0.4-1.1C41.7,33.8,42.2,35.1,42.3,34.8z
		 M42.4,35.1l0-0.2l-0.1,0.2L42.4,35.1L42.4,35.1z M42.5,35.3l0-0.2l-0.2,0.3L42.5,35.3z M42.8,36l-0.2-0.6
		C42.3,35.4,42.6,36.3,42.8,36z M43,36.5l-0.1-0.4c-0.1,0.1-0.2-0.1-0.1,0.3C42.9,36.8,42.9,36.5,43,36.5z M43.2,37.2L43,36.5
		C42.8,36.6,43.1,37.6,43.2,37.2z M43.3,37.5l0-0.2l-0.1,0.2C43.3,37.7,43.2,37.6,43.3,37.5L43.3,37.5z M43.4,38.1l0-0.5
		C43.2,37.8,43.2,37.9,43.4,38.1z M40.1,39.7c2-2.6,2,0.9,3.2-1.5c-1,1.9-1.9-0.5-2.9-1.4c-0.7-0.9,1.3-2.3,0.2-2.9
		c0,0.5,0,0.4-0.4,0.8c0-3,2.4,1.3,0.4,1.7c-0.1-0.4,0.1-0.1-0.2-0.5c0.1,2.4,2.2-2.3,0.9-3c0,0.4,0.2,0.9,0.2,1.4
		c-0.7-1.5-1.8-0.9-1.5,0.6c-0.3,0.3-0.6,0.5-0.8,0.8c0.4-0.1,1.1-1,1.5-1.3C38.7,37.9,42.9,37.3,40.1,39.7L40.1,39.7z M39.7,40.1
		c0.1-0.2,0.2-0.2,0.3-0.4c-0.3,0.1-0.4,0.2-0.5,0.4L39.7,40.1z M39.2,40.5l0.3-0.2C39.4,40,39,40.4,39.2,40.5z M38.8,40.7l0.3-0.2
		c-0.1-0.1,0.1-0.2-0.2,0C38.6,40.7,38.8,40.7,38.8,40.7z M38,41.3l0.8-0.4C38.7,40.5,38,41.1,38,41.3z M37.7,41.4l0.2-0.1
		c-0.1-0.1,0.1-0.1-0.2-0.1C37.4,41.4,37.7,41.4,37.7,41.4z M37.5,41.5L37.5,41.5L37.5,41.5L37.5,41.5z M36.6,41.8l0.3,0.2l0.3-0.2
		c0,0.5-0.1,0.7,0.1,1c0.1-0.4-0.1-1,0.1-1.2C37.2,41.4,37,41.7,36.6,41.8L36.6,41.8z M37.2,43.3l0-0.5
		C37.1,43.4,37.1,43.1,37.2,43.3z M37.1,43.5l0-0.2C37,43.1,37,43.4,37.1,43.5z M37,43.7L37,43.7C37.1,43.6,36.8,43.3,37,43.7z
		 M36.3,44.6c0.3-0.3,0.5-0.4,0.7-0.8C36.9,43.8,36.1,44.5,36.3,44.6z M35.2,45.1c0.4-0.1,0.6-0.3,1-0.5c-0.4-0.1,0-0.1-0.5,0.2
		C35.5,44.9,35,45,35.2,45.1L35.2,45.1z M34.8,45.3l0.4-0.1C35.2,45,34.5,45.2,34.8,45.3z M33.9,43.9l-1.1,0.4l1.5,0.1l0,1l0.5-0.1
		c-0.3-0.2-0.1-0.1-0.4-0.1l0.1-0.9c-0.4-0.2-0.4-0.1-0.9-0.1C34,44,34,44.2,33.9,43.9z M34.1,43.8l-0.2,0
		C34.4,44.1,34.1,44,34.1,43.8z M34.4,43.8l0.1,0C34.5,43.7,34.4,43.8,34.4,43.8l-0.3-0.1C34.3,43.9,34.2,44,34.4,43.8z M34,43.2
		l0.9-0.3c0,0.4,0.2,0.3,0.3-0.1c0.2-0.2,2-0.7,1.3-0.9c-0.4,0.4-2.1,0.9-2.7,1.2L34,43.2z M34.8,43.3l0.1,0.1l-0.1-0.2L34.8,43.3z
		 M25.5,43.8c2.8,0.5,5.6,0.2,8.4-0.6C31.5,43.7,27.9,44,25.5,43.8z M23.7,43.4c0.2,0,1.7,0.4,1.8,0.2C25,43.6,24.2,43.2,23.7,43.4z
		 M23,43.2c0.1,0,0.7,0.1,0.8,0.1C23.6,43.3,23.2,43.1,23,43.2z M21.3,42.4c-0.3-0.1-0.2-0.1-0.4,0c0.4,0.2,1,0.6,1.2,0.8l0-0.2
		l0.8,0.3C23.1,42.9,21.6,42.7,21.3,42.4L21.3,42.4z M22.2,43.3c0.1,0.4,0.6,0.6,1,0.8l0.1-0.2c-0.7-0.2-0.8-0.3-1-0.8
		C22,43.4,22.1,43.3,22.2,43.3z M20.3,42c-0.1-0.2,0-0.1-0.3-0.3c-0.7-0.5-0.3,0.7-0.3,1c0.2-0.3,0.1-0.4,0.1-0.8
		C20.2,42,20,42,20.3,42c0,0.1-0.1,0.2,0.3,0.2c0.5,0.1,0.1,0.1,0.4-0.1C20.5,42.1,20.8,42,20.3,42z M19.8,43l0.2,0.8
		c0.2-0.3-0.2-0.7-0.1-1.1L19.8,43z M20.4,44.4l0.2,0c-0.2-0.2-0.4-0.8-0.6-0.5L20.4,44.4L20.4,44.4z M20.6,44.6l0.3,0.2
		c0.3-0.2-0.2-0.3-0.3-0.3L20.6,44.6z M21.2,44.9c0.1-0.2,0.1-0.1-0.1,0L21.2,44.9z M21.3,45c0-0.1,0.3-0.2-0.2,0L21.3,45z
		 M21.6,45.1c0.2-0.1,0.1,0,0-0.1l-0.2,0.1L21.6,45.1L21.6,45.1z M22.1,45.3c0.1-0.2,0.2,0-0.1-0.2c-0.4-0.2-0.3,0-0.4,0L22.1,45.3z
		 M22.3,45.4l0.1-0.2l-0.3,0.1L22.3,45.4z M24,44.4l0.1-0.2l-0.6-0.1c0.1,0.1-0.2,0,0.2,0.2c-1.9-0.2-0.5,0.6-1.4,1.1l0.5,0.1
		c0-0.5-0.1-0.6,0-1.1L24,44.4z M38.9,36l-0.3,0.3c0.2,0,0.7-0.4,0.4-0.4L38.9,36z M37.9,36.9c-0.1,0.1-0.2,0-0.2,0.2
		c0.4-0.2,0.4-0.3,0.9-0.6l-0.1-0.2L37.9,36.9z M39.7,35.1l-0.1-0.2l-0.2,0.1L39.7,35.1l0,0.2C40,35,39.8,35.1,39.7,35.1z
		 M39.1,34.6c0.2,0,0.2,0.1,0.4,0.2l-0.2-0.3L39.1,34.6z M38.2,34.1l-0.1,0.2c0.5,0,0.6,0,0.9,0.3l0.1-0.2
		C38.8,34.3,38.7,34.1,38.2,34.1z"/>
	<path class="st7" d="M29.1,15.5c1.5-0.4,8.3,0.4,9.3-0.3l-9.5,0l-0.1,1.7C29.4,16.7,28.9,16,29.1,15.5z M38.1,25L38,25.8l-8.9,0
		l0-9c0,1.6-1.3,9.6,0.9,9.2C31.5,25.7,39.4,27.1,38.1,25z M38.2,20.6c0.1,0.5-0.3,4.2,0.1,4.5c0.2-0.9,0.1-8.1,0.1-9.7
		C37.9,16.2,38.3,19.7,38.2,20.6L38.2,20.6z"/>
	<path class="st1" d="M22.1,21.2c0-0.5-0.1-0.4-0.5-0.4l0.1,0.9c0-0.3-0.1-1.3-0.2-1.4c-0.1,0.1,0.2,0.2,0.3,0.3
		c-0.1,0.3,3.3,1.2,3.5,1.1c-0.8-0.7-5-0.9-2.7-2.3c0.1-0.4,0.5-0.5,0.5-1l-0.1,0c-0.4,0.9-0.9-0.3-0.2-0.7c0-0.1-0.1-0.3-0.1-0.4
		c-0.6,0-0.1,0.7-0.5,0.8l0,0.4l-0.1-0.1c0,0.4-0.4,0.4-0.4,0.9c-0.1,0.5,0,0-0.4,0.5c0,0.3,0.3,3.8,0.1,3.9
		c0.1-0.1,0.1-0.1-0.1-0.1c0.6,1.1,1.5,2.6,3,2.1c0-0.7-0.2-0.6-0.7-0.9c-0.5-0.3-0.8-0.9-1.1-1.5c-0.2,0.2-0.3,0.2-0.1,0.5
		C23.3,21.9,22.1,23.3,22.1,21.2L22.1,21.2z M22.9,25.9c0.2-0.2,0.2,0,0-0.3L22.9,25.9z"/>
	<path class="st8" d="M26.6,25.5c-0.3,0.3,0,0,0,0.3c-0.7,0.1-1.4-0.4-2.1-0.7c0,0.1,0,0.1,0.1,0.1c-0.2,0.4-0.8-0.4-1.1-0.3
		c0.1-0.1,0.1-0.1-0.1-0.1c-0.8-0.8-0.6-2,0.2-2.9c-0.3,0-0.2,0.1-0.2-0.2l0.2-0.1c-0.3,0.1-0.4,0.5-0.5,0.7c-0.9,0-0.8-0.7-1-1.3
		c0,2.1,1.2,0.7,0.2,2.7c-0.2-0.2,0-0.3,0.1-0.5c0.3,0.6,0.7,1.3,1.1,1.5c0.5,0.3,0.8,0.2,0.7,0.9c-0.7,0.2-1.2,0.1-1.5-0.3l0.1,0.2
		l0-0.1c0.4,0.4-0.1,0.1-0.3,0.2c-0.2-0.3,0-0.1-0.3-0.2c-0.3,0.3-0.9,0.4-0.8-0.1c0.3,0.3,0.1,0.2,0.6,0.2
		c-0.2-0.6-2.1-1.4-2.6-1.8c0.2,0.7,1.4,1,1.9,1.5c-0.1,1.1,2.3,0.2,3.1,0.5c1.1,0,2.4,0.1,3.5,0c0.2-0.4,0.1-9.6,0.1-10.7
		c-0.6,0-2.6-0.1-2.9,0.1c0.7,0,2,0,2.6,0c0.3,0.6,0.4,2.6-0.1,3.1c-0.2,0.4,0.1,0.4-0.2,0.6c-0.4-0.5-1-0.1-1-1.6
		c0.1,0.1,0.3,0.2,0.4,0c-0.6-0.9-0.5,0.3-0.6,0.8c0.3,0.3,0.4,0,0.2,0.5c0.3,0.6-0.3-0.2,0.1,0.1l0.1,0.1c0.1,0.1,0.3-0.1,0.2,0.1
		c0.2-0.1,0.2-0.1,0.1,0.1c0.2-0.1,0.2-0.1,0.1,0.1c0.2,0.3,0.5,0.3,0.8,0.3c0.1,0.2,0,0.4,0,0.5c0.1,0.2,0.1,0.4-0.1,0.3
		c0.2,0.2,0.2,0.2,0.2,0.1c-0.3-0.4,0.4,1.3-0.2,1.2l0.2,0c0,0.2,0,0.8,0,1c-0.5-0.2-0.4-0.6-1-0.7c0,0.5,0.5,0.6,0.4,1L27,23.1
		c0.2,0.2,0.6-0.1,0.8,0.1c0.1,0.7,0.1,1.7,0,2.5c-0.6,0.1-0.3,0.2-0.9-0.2l0.1,0.2L26.6,25.5L26.6,25.5z M18.7,25.8l0-0.2l-0.2,0.3
		l2.8,0.1C20.8,25.7,19.3,26.2,18.7,25.8z M18.7,25.4l-0.1-4.3l0.8,0.1c-1.6-2.1-0.9,3.3-0.8,4.3L18.7,25.4z"/>
	<path class="st7" d="M19.8,29.9c0,0.5,0.3,1.3,0.7,1.5c0-0.2-0.1-0.3-0.2-0.5c-0.1,0.2-0.1-0.4-0.2-0.5l0,0
		C20,30.3,20,29.9,19.8,29.9c0-0.8-0.6-1.9-0.7-2.8l8.8,0l0,12.2l-0.2,0l0,0c-0.1,0-0.3-0.2-0.5-0.2l0,0l-0.2,0
		c-1.6-1.3-3.3-3-4.7-4.6c0-0.3-0.1-0.4-0.4-0.5l0-0.2l-0.1-0.2l-0.2,0c0-0.3,0-0.4-0.3-0.5l0.1-0.2c-0.4-0.2-0.4-1-0.8-1.1
		c0.1-0.4,0.1-0.2-0.1-0.2l0.1-0.2c-0.1,0.1-0.2,0.1-0.1,0.2c-0.1,0.4-0.1,0.1,0.1,0.2c1,2.6,3.6,5.9,6.4,7.3
		c0.2,0.4,0.6,0.5,1.1,0.6c0.2-3.1,0-9.5-0.1-12.7c-0.2-0.1-8.7-0.1-9.1,0C18.8,27.7,19.3,29.6,19.8,29.9L19.8,29.9z"/>
	<path class="st9" d="M20.4,44.4l0.2,0.2l0-0.1c0.1,0.1,0.7,0.2,0.3,0.3l0,0.1c0.3-0.2,0.1-0.1,0.2,0.1c0.5-0.2,0-0.1,0.2,0.1
		l0.2-0.1c0.1,0.1,0.1,0,0,0.1l0,0.1c0.1,0,0-0.2,0.4,0c0.4,0.1,0,0,0.1,0.2l0.3-0.1l-0.1,0.2c0.7-0.2-0.3-1.3,0.8-1.1
		c0-0.5-1.3-0.7-1-1.1c-0.3-0.2-0.8-0.6-1.3-0.9c0.2,0,0.1,0,0.4,0c-0.4-0.2-0.2,0-0.3-0.2c-0.3,0.3,0.1,0.2-0.4,0.1
		c-0.4-0.1-0.2-0.2-0.3-0.2c-0.3,0-0.2,0-0.5-0.1c0.1,0.5-0.2,0.7-0.1,1.1l0-0.3c0.1,0.4,0.2,0.8,0.2,1.2c0.2-0.2,0.3,0.3,0.6,0.5
		L20.4,44.4z"/>
	<path class="st9" d="M36.6,41.8c-0.4,0.2,0.6,0.2-0.4,0.5l-1,0.5c-0.2,0.2,0,0.5-0.3,0.3l0,0.3c-0.2,0.2-0.6,0.8-0.8,0.4
		c-0.1,0.2,0.3,0.3-0.2,0.1c0,0.4,0.1,0.1-0.3,0.4c0.4,0,0.4-0.1,0.9,0.1l-0.1,0.9c0.3,0,0-0.1,0.4,0.1c0.2-0.1-0.4-0.1,0.2-0.3
		c0.4-0.1,0.1-0.1,0.3,0.1c0.1-0.2-0.3-0.1,0.2-0.3c0.3,0,0.7-0.4,0.9-0.3c0-0.3-0.1-0.1,0.3-0.5c0.1-0.2,0.3-0.3,0.4-0.4
		c-0.2-0.5,0,0.1,0.1-0.2c-0.1-0.2-0.1-0.5,0-0.2l0.1-0.1c-0.2-0.3-0.2,0.1,0-0.5l0,0.1c0.1-0.4-0.1-0.7-0.1-1.2L36.9,42L36.6,41.8z
		"/>
	<path class="st8" d="M36.6,30.3L36.6,30.3c0.1,2.3-5.9,9.1-7.4,9c-0.1-3-0.1-9,0-12.1C31.6,27.6,40.7,25,36.6,30.3L36.6,30.3z
		 M29,39.6c4.2-1.8,8.4-8.4,8.8-12.7C24.6,26.7,29.9,26.4,29,39.6L29,39.6z"/>
	<path class="st10" d="M31.6,28.5c-0.4-0.1-0.3,0.5-0.4,0.8c-0.1-0.2-0.4-0.6-0.5-0.7l-0.1,0.2l0,0.1l-0.1-0.1
		c-0.2,0.3-0.3,0.5-0.6,0.4c-0.2,0.4,0.2,0.4,0.4,0.7c-1.6,0.3-0.1,0.5-0.4,1.2c0.3,0.3,0.5-0.3,0.8-0.3l-0.3,0.7
		c0.1,0.2,1.3,0.2,1.5,0.2c0.1-0.2,0-0.7,0-0.9c0.4,0,0.3,0.2,0.8,0.3c0-0.2-0.1-1,0.1-1.2l0.2,0.1l0,0c-0.2,0-0.7-0.1-0.8-0.2
		c0.2-0.2,0.8-0.7,0.2-0.8l0.1,0.2c-0.4-0.1-0.5,0.5-0.7,0.6l0.4,0.5c-0.4,0-0.7,0.3-0.7,0.7c-0.3-0.5-0.1-0.5-0.7-0.6
		c0.3-0.2,0.3-0.5,0.2-0.8c0.6,0.3,1,0,1.3-0.5l-0.4-0.2L31.6,28.5L31.6,28.5z M32,28.8l-0.2-0.2l0,0c-0.4,0.2,0.1,0.3,0.3,0.2
		L32,28.8z M30.3,29L30.3,29L30.3,29c0-0.2,0-0.2,0.2-0.1c-0.1-0.2-0.1-0.2,0.1-0.1c-0.2-0.3-0.1,0-0.6,0.2l0,0l0,0.2L30.3,29z
		 M30.6,28.5l0.2,0.1L30.6,28.5z"/>
	<path class="st11" d="M19.6,36.9l0.1-1c0.5,0.5,1.8,0.4,2.3,1c0.2-0.1,0.1-0.1,0.1,0.1c0.2-0.3-0.2-0.8,0.2-0.8l0.3,0.3
		c-0.8-1-2.5-3.9-2.9-4.5c-0.3,0.3-0.1,0.3,0.1,0.5c0.3,0.4,0.3,0.3,0.6,0.7c0.1-0.1,0,0.3,0.3,0.4c0.3-0.1,0,0.4,0.3,0.5
		c0.1,0.4,1,1,0.4,1.1c0.3,0.1,0.6,0.7,0.6,1.1c-0.7-0.2-1.3-0.7-2.5-0.8l0.1,0.3l0.1-0.2c0,0.4-0.1,1.2,0,1.7
		c-0.3-0.1-1.2-0.8-1.4-1l-0.2,0.2c0.1,0,2,1.8,1.8,1.1C19.5,37.2,19.6,37.3,19.6,36.9L19.6,36.9z M19.8,37.7c0.2-0.1,0.2,0,0.1-0.2
		c-0.4-0.1-0.1,0-0.3,0.1C19.9,37.6,19.8,37.5,19.8,37.7L19.8,37.7z M20.1,37.9L20.1,37.9C20.7,37.8,19.7,37.5,20.1,37.9z
		 M21.6,38.7c0.7-0.1-0.8-0.6-0.9-0.7c-0.4-0.2-0.2-0.2-0.4,0C20.5,38.1,21.4,38.6,21.6,38.7z M21.8,38.8l0.2-0.1
		C21.5,38.7,21.9,38.7,21.8,38.8L21.8,38.8z M22.5,39l-0.3-0.1l0-1.3c-0.3,0.3,0.1,1.1-0.3,1.4C22.4,39,22.2,39.2,22.5,39z
		 M22.1,37.3l0-0.3l-0.1,0l0,0.5L22.1,37.3z M23,39.2l-0.3-0.1c-0.2,0.1-0.2,0,0,0.1C23,39.4,22.9,39.2,23,39.2z M23.5,39.3
		l-0.4-0.1C22.6,39.4,23.6,39.5,23.5,39.3z M24,39.6c0.2,0.2,0.3,0.2,0.6,0.2c-0.2-0.1-0.8-0.2-1.1-0.4C23.2,39.6,23.9,39.6,24,39.6
		z M17.9,35.9l-0.6-0.5c0.3-0.5,0.8-0.9,1.4-1l0-0.2C18,34,17,35.7,16.9,34.8l-0.3,0.1c-0.1-0.3-0.6-0.5-0.4-0.5l0.1-0.2
		c-1,1.2,1.5,2.2-0.5,3.8c1.2-0.7,1.2-2,0.4-2.9c-0.3-0.4,0.3-0.5,0.4,0l0,0C16.7,35.2,17.8,36.3,17.9,35.9L17.9,35.9z M14.9,39.1
		c0.4-1.2,1.2,0,1.6,0.4c-0.2-0.5-1.4-0.8-0.7-1.5C15.6,38.1,14.8,38.9,14.9,39.1z M16.8,39.7l0-0.1l-0.1,0L16.8,39.7L16.8,39.7z
		 M14.1,39c0.2,0.1,0.5,0.3,0.7,0.2C14.7,39.2,14.1,39,14.1,39L14.1,39z M13.8,38.7l0.2,0.2c0-0.1,0.1,0.1,0-0.1
		C13.8,38.5,13.9,38.7,13.8,38.7L13.8,38.7z M13.7,38.3L13.7,38.3l0.1,0.3C13.8,38.4,13.8,38.6,13.7,38.3L13.7,38.3z"/>
	<path class="st12" d="M34.4,29.4c0.3-0.5,0.2-0.2,0.2-0.7c0.3,0,0.6,0,0.9,0c-0.1,0.4,0,0.4,0.2,0.6c-0.5,0.3-0.3,0.1-0.7,0.6
		C34.5,29.4,35.2,29.7,34.4,29.4z M35.3,29.4c0.1-0.6-0.7-0.5-0.4,0.1L35.3,29.4z M33.8,28.2l-0.2,0.2c0.1,0.2,0.7,0.4,0.6,0.7
		l-0.7,0.2c0,0.4,0.7,0.9,0.2,1c0.5,0.1,0.3-0.5,0.9-0.4c0,0.5-0.1,0.2-0.2,0.6l1.3,0.1c-0.1-0.5,0.1-1.1,0.3-0.7
		c0.1,0.1,0.3,0.1,0.4,0.1c-0.1-0.4,0-0.5,0.1-0.9c-0.1-0.1-0.5-0.3-0.6-0.3c0.2-0.1-0.1-0.4,0.2-0.2c-0.1-0.2-0.1-0.2,0.1-0.1
		c-0.1-0.2-0.1-0.1,0.1-0.1c-0.1-0.4-0.1-0.2-0.4-0.3c-0.4-0.2-0.1-0.3-0.6-0.3c-0.1,0.3,0,0.2-0.2,0.4c-0.1-0.4-0.4-0.1-0.3-0.4
		c-0.1,0-0.7,0.4-0.8,0.5L33.8,28.2z"/>
	<path class="st8" d="M35.6,34.8c0.1-0.1,0.4-0.6,0.3-0.7c0-0.2-0.1-0.2,0.1-0.2c0-0.1,0.1-0.2,0.2-0.3c-0.1-0.2,0-0.2,0.1-0.1
		c0.1-0.2-0.1-0.3,0.2-0.3c0.2,0,0,0,0.1-0.2c0.3-0.1,0.1-0.6,0.4-0.5c0-0.5,0.4-0.3,0.5-0.7l0,0c-0.5,0-2.5,3.5-2.8,4l0.3,0
		c0.3,0.6,1.6-0.6,2.4-0.2c0,0.3,0.1,0.7,0,1l0.1,0c0-0.8,0.1-2.2,0.7-2.7c-1.3-0.3-2.2,0.6-2.9,1.3L35.6,34.8L35.6,34.8z M35,36.5
		c0,0.3,0,0.1,0.1,0.2c0-0.4,0-0.2-0.1-0.4L35,36.5z"/>
	<path class="st12" d="M30.9,33.7c0.6,0.3,0.6,0,1.3-0.2l-0.3,0.6l0.4,0.4c-0.5,0.3-0.5,0.3-0.9,0.8c-0.3-0.7-0.2-0.2-0.7-0.8
		C31.1,34,30.8,34.4,30.9,33.7z M30.2,33.4c0.1,0.2,0.1,0.1-0.2,0.1L30,33.7c0.3,0.1,0.4,0.1,0.5,0.4l-0.7,0.3
		c0.2,0.3,0.4,0.8,0.5,1l0.5-0.3c0,0.4-0.1,0.3-0.2,0.7l1.5,0c0-0.5-0.2-0.4-0.1-0.7c0.6,0,0.3,0.2,0.6,0.2c0-0.3,0-0.9,0.2-1.1
		l-0.7-0.1c0-0.1,0.1-0.4,0.2-0.4c0-0.2,0-0.1,0.1-0.1c-0.1-0.5-0.5-0.3-0.9-0.6c-0.1,0.1-0.3,0.4-0.3,0.6
		C31,32.5,30.8,33.8,30.2,33.4L30.2,33.4z"/>
	<path class="st8" d="M22.8,15.3l-4.5,0c-0.1,0.6-0.1,3.4,0.1,3.7c0-0.2-0.1-0.8,0.3-0.8c-0.7-0.4,0.1-1.2-0.3-1.9l0.4-0.1
		c-0.1-0.3-0.1-0.5,0-0.7l0.6,0c-0.1,0.2-0.2,0.6-0.2,0.8c0.2-0.1,0,0.1,0.2-0.3c0.1,0.9,0,0,0.2,0.6c-0.5-0.2-0.2-0.2-0.5-0.2
		l0.6,0.3c0-0.5-0.3-0.4,0-0.7c0,0-0.1,0.1-0.2-0.2c0.3,0,0.6,0.2,0.9,0.4l0,0L20.3,16c0.3,0.1,0.2,0,0.3,0.3
		c0.6-0.5,1.2-0.2,0.8,0.5c0,0.4,0.4,0.2-0.1,0.6c-0.4-0.4-0.2-0.5-0.4-0.8c-0.3,0.2-0.3,0.1,0,0.4c-0.2,0-0.3,0.4-0.3,0.6l0.5,0.1
		c-0.2,0.5-0.1,0.2-0.4,0.4l0.2,0.3c0.4-0.3,0.2-0.2,0.6-0.4l-0.4-0.5l0.8-0.1c0.1-0.5-0.3,0.1-0.4-0.6l0.3,0.2
		c0.3-0.4-0.4,0.2,0.1-0.5c-1-0.5-0.4-1.3,0.4-0.7l0-0.3L22.8,15.3L22.8,15.3z"/>
	<path class="st7" d="M25.9,35.1l-0.1,0L25.9,35.1c-0.2,0.5,0.9,0.1,1,0.1c0.1,0.2,0.2-0.1,0,0.3l0.2,0c0.1-0.3-0.1-0.2-0.2-0.4
		c0.3-0.1,0.2,0,0.2-0.2c-0.7,0.8-0.8,0-0.8-0.7c-0.4,0.2-0.1,0.3-0.3,0.6l-0.1-0.1c0,0.1,0.2,0.3,0.3,0.4L25.9,35.1L25.9,35.1z
		 M27.1,33.6c0.1-0.1,0.1-0.4,0.1-0.5l-0.3,0l0.1,0.2c-0.3,0.4-0.4-0.1-0.3-0.4c-0.2,0.2-0.1,0.2-0.4,0.2c0.1-0.2,0.1-0.1,0-0.1
		c0,0.2,0.1,0.5,0.2,0.7c-0.6,0.4-0.3,0.2-1,0.2l0.3-0.1l-0.3,0c-0.1,0.2,0,0-0.4-0.1c-0.2,0.2-0.4-0.1,0,0.2
		c-0.5-0.1-0.4,0.1-0.3-0.2l0.3,0l0.2-0.7c-0.4,0.3-0.2,0-0.5,0c-0.4,0.1-0.1,0.1-0.5,0c0.3,1,0,1.4,0,2.6l0.8,0l0-0.1l0.2,0l0-0.2
		l-0.2,0l0,0.2l-0.4,0c-0.1-0.4,0-0.9,0.1-1.3c0.1,0.3,0,0.2,0.1,0.5l0.2-0.4c0.1,0.3-0.2,0.1,0.2,0.3l-0.4,0l0.1,0.1l-0.2,0.2
		c0.3,0,0.3,0.1,0.5,0.2l0-0.2c0.2,0.4-0.1,0.4,0.2,0.4c0.2,0.1,0.2-0.4-0.1-0.4l0.4-0.2l-0.1-0.2c0.2-0.2,0.2-0.2,0.3-0.3
		c0.4,0.2-0.3,0,0.2-0.2c-0.3,0-0.3,0-0.5-0.2c0.5-0.1,0.3,0.1,0.8,0l0,0.4c0.6-0.3,0.3-0.6-0.1-0.7C26.9,33.5,26.6,33.5,27.1,33.6z
		 M25.9,34.8l0.1,0.1C26,34.7,26.1,34.8,25.9,34.8z M25.4,34.5c0.7,0.1,0.3,0.1,0.3,0.3c-0.4-0.1-0.3-0.1-0.4-0.4L25.4,34.5
		L25.4,34.5z M25.2,33.3c-0.6,0.2-0.7,0-0.6,0C24.5,33.1,25,33.2,25.2,33.3z"/>
	<path class="st9" d="M19.6,36.9c0,0.4-0.1,0.3,0.1,0.5c0,0.2,0.1,0-0.2,0.2c0,0.2-0.1,0.2,0.1,0.1c0.2-0.1-0.1-0.2,0.3-0.1
		c0.1,0.2,0.1,0-0.1,0.2l0.3,0.2c-0.4-0.4,0.6,0,0,0c0,0.2-0.1,0.2,0.1,0.1c0.1-0.4,1,0.4,1.3,0.5c0.6,0.2-0.3,0.3,0.2,0.4
		c0.2-0.2-0.2-0.2,0.3-0.1c-0.1,0-0.4,0.3-0.1,0.2c0.4-0.3,0.2-1.2,0.3-1.6l-0.1,0.2l0-0.5c-0.2,0-0.1,0-0.1-0.1
		c-0.2,0-0.2,0.1-0.1-0.1C21.4,37.1,19.9,36.3,19.6,36.9z"/>
	<path class="st9" d="M35.1,36.8c-0.1,0.7-0.5,1.7,0.2,1.9c0.2-0.2-0.2-0.1,0-0.3c0.5-0.1,0.4-0.4,0.7-0.1c0.2,0,0.1,0.1,0.1-0.1
		c-0.2-0.2-0.2,0-0.1-0.2c0.6-0.3,1.7-0.7,1.5-1.5C36.7,36.4,35.6,37,35.1,36.8z"/>
	<path class="st8" d="M32.8,35.3c0.2,0.1,0.3-0.4,0.3-0.7c0.1-0.1,0.3,0.1,0.1-0.5c-0.1-0.3,0-0.1-0.2-0.3c-0.3-0.3,0.1-0.7-0.5-0.8
		c0.2,0.4,0.2,0.6-0.2,0.7c0.1,0.4,0.5,0.1,0.6,0.4C33.4,34.5,32.7,34.8,32.8,35.3c-0.5,0-0.2-0.3-0.8-0.2c-0.1,0.4,0.1,0.3,0.1,0.7
		l-1.5,0c0.1-0.4,0.2-0.3,0.2-0.7l-0.5,0.3c0-0.3-0.3-0.7-0.5-1l0.7-0.3c-0.1-0.3-0.2-0.4-0.5-0.4c0.1-0.1,0-0.4,0.2-0.3
		c0.2-0.4,0.3-0.4,0.8-0.5c0,0.3,0.2,0.5,0.4,0.6c0.1-0.8,0.6-0.7,0.8-0.3l0.2,0C32.4,33,32.6,33,32.3,33c-0.3-1-3.3,0.2-2,1
		c-0.4,0.2,0.1,0-0.4-0.1c-1.3,2.2,3.7,2.9,2.4,1.7l0.3,0.2L32.8,35.3z"/>
	<path class="st1" d="M25.8,23.9c-0.4-0.4-0.1-0.3-0.5-0.7c-0.3-0.1-0.6,0-1-0.3c0,0.2-0.4,0.1,0.2,0.3L24,23.1
		c0.7-0.4-0.2-0.1,0.3-0.4c-0.2-0.3,0-0.1-0.3-0.3c-1.3,2.6,1.2,2.8,3,3.3c-0.1-0.2-0.2-0.6-0.4-0.7c-0.3,0.4,0,0.1-0.1,0.3
		c-0.8-0.1-1.9-0.5-2.5-1.1c0.5,0.2,1.6,0.7,2,0.6c-0.2-0.2-0.9-0.3-1.3-0.6c0.8-0.1,0.1,0.2,0.8,0.1c-0.2-0.3,0-0.2-0.5-0.2
		l0.1-0.3l-0.4,0c0,0.1,0,0,0.1,0.1c0.3,0.4,0.1-0.2,0.1,0.1c-0.4,0-0.9-0.1-1.1-0.5l0.8,0.3l-0.2-0.3
		C25.7,23.1,25.2,24.2,25.8,23.9z"/>
	<path class="st8" d="M18.6,34.2l0,0.2c0.4,0.1,0.6,0.7,0.6,1.1c1.2,0.1,1.9,0.6,2.5,0.8c0.1-0.7-0.8-1.2-0.9-1.5
		c-0.2,0-0.1,0.1-0.1-0.1C20.5,34.2,19.4,34,18.6,34.2z M19.4,35.7l-0.1,0.2c0.2-0.3,0.2,0,0.1-0.4L19.4,35.7z"/>
	<path class="st6" d="M27.7,21.8c0.3-0.2,0.2-1,0.1-1.2c-0.2-0.6,0.4,0.4-0.1-0.2c-0.6,0.3-1.4,0.6-2,0.7c0,0.4,0,1,0.5,1.2
		c0.2-0.3,0-0.3-0.1-0.8l0.5,0.1c-0.5,0.1,0,1.1,0.2,1.4c0.2-0.1,0.3-0.2,0.2,0.1l-0.1,0l0.2,0.1c0.1-0.5-0.4-0.6-0.4-1
		c0.7,0.1,0.5,0.5,1,0.7c0-0.5,0-0.9-0.7-1.1L27.7,21.8L27.7,21.8z M27.6,21.8c0,0.2,0.1-0.1,0.2,0L27.6,21.8z"/>
	<path class="st11" d="M26.6,25.5c-0.8-0.2-1.7-0.7-2.6-0.7c0.7,0.6,1.7,1.1,2.5,1.1C26.5,25.5,26.3,25.8,26.6,25.5z M26.8,25.1
		c-0.5-0.4-0.7-1-1-1.3c-0.6,0.3-0.1-0.7-1.2-0.5l0.2,0.3L24,23.4c0.2,0.3,0.7,0.4,1.1,0.5c0-0.2,0.2,0.3-0.1-0.1
		c-0.1-0.2-0.1,0-0.1-0.1l0.4,0l-0.1,0.3c0.5,0.1,0.3-0.1,0.5,0.2c-0.7,0.2-0.1-0.1-0.8-0.1c0.4,0.3,1,0.4,1.3,0.6
		c-0.5,0.1-1.5-0.4-2-0.6c0.6,0.5,1.7,0.9,2.5,1.1c0-0.3-0.2,0.1,0.1-0.3L26.8,25.1L26.8,25.1z M25.3,23.2c-0.2-0.2-0.6-0.5-0.9-0.6
		c0,0.1,0,0.1-0.1,0c-0.5,0.3,0.3,0-0.3,0.4l0.5,0.1c-0.6-0.2-0.2-0.1-0.2-0.3C24.8,23.2,25,23.1,25.3,23.2z"/>
	<path class="st8" d="M20.4,29.8l0,0.3l0.4,0l0,0c0.7,0,1.3,0.1,0.8-0.7c0.1,0.1,0.1,0.2,0.3,0.1c-0.3-0.3-0.5-0.2-0.4-0.6l0.2,0.3
		c0.3,0.1,0.8-0.7,0.8-0.1c0,0.1-0.1,0.2-0.2,0.3l0-0.1l0.1,0.3l-0.3,0l0-0.1c-0.4-0.2-0.1-0.1-0.2,0l0.2,0.1L22,29.9
		c0.4,0.3,0.6,0.2,1,0.3c-0.1,0-0.4-0.1-0.5-0.1c0.1-0.2,0-0.4,0-0.8c0.1,0.1,0.2,0.1,0.3,0.1c-0.5,0.1-0.2-0.6,0.3-0.5l0-0.3
		c0.4,0.3,0,0,0.1,0.4l-0.5,0.2l0.2,0l-0.1-0.1l0.4,0l0.2,0.7l-0.1-0.9l-0.1,0c0.3-0.2-0.6-0.8-0.8-0.5c-0.3,0.3,0.3,0-0.1,0.1
		c-0.4,0.1,0.2,0-0.2,0l-0.3-0.1c0.3,0,0.9,0.3,1,0c0,0.4,0,0.6-0.2,0.2c-0.3,0.2-0.2,0.3-0.7,0.2l0.5-0.1c-0.4,0-0.8,0.4-1-0.1
		l0.4-0.1c-0.2,0-0.2-0.2-0.5-0.3c0.2-0.3,0.2-0.2-0.1-0.3c0.4-0.1,0.1,0.2,0.3-0.2l-0.6-0.2l0.2,0.1c-0.1,0.2,0.2,0.1-0.1,0.2
		l0.2,0.1c-0.1,0.2-0.4,0.1-0.6,0l0.1-0.4l-0.2,0.1c0,0.4,0.2,0.6,0.3,0.9c0.3-0.6-0.1-0.3,0.4-0.4c0,0.4,0.1,0.6,0.1,0.9
		c-0.4,0-0.3,0.2-0.5,0.3c0-0.5,0.2-0.2-0.1-0.4c0.4-0.1,0.1-0.1,0.5,0L21,28.4c-0.1,0.1-0.3,0.3-0.3,0.4l-0.2-0.2
		c0,0.5-0.4,1.1,0.2,1.2c0.1-0.4,0.1,0,0-0.3c0.2,0-0.1-0.1,0.3,0.1c-0.5-0.4,0.3-0.7,0.3-0.3l-0.3-0.2c0,0.3-0.1,0.1,0.2,0.3
		C20.9,29.8,21.7,30.4,20.4,29.8z"/>
	<path class="st7" d="M25.3,30.9c0.1,0.3,0.6,0.3,0.3-0.1c-0.2-0.4,0,0.3-0.1-0.2l0.1-0.3c-0.3,0.1-0.2,0-0.6,0l0.3,0.1l-0.3,0.3
		C25.3,30.8,25.2,30.8,25.3,30.9L25.3,30.9z M26.3,30.3l0,0.4l0.3-0.3c-0.2,0-0.1-0.3,0.2-0.3c-0.2-0.2-0.1-0.2-0.1-0.3
		c-0.3,0-0.6,0.1-1,0.1c0.2,0.5,0.1-0.3,0.1,0.2c-0.5-0.2-0.4-0.3-0.4-0.3c0.1-0.1,1-0.2,0.7,0l0.1-0.2c-0.4,0-0.5-0.1-0.7,0.1
		l0-0.8c-0.2,0.1-0.6-0.2-0.9,0c-0.2,0,0.3-0.1-0.2-0.1c-0.1,0.5,0.4,1-0.1,1.7l0.2,0c-0.2,0.3-0.2,0.5-0.1,0.8l0.4,0
		c-0.3-0.5,0-0.6,0-1.1c0.3,0.3,0.1-0.2,0.6,0.3c0.1-0.2,0.2-0.2,0-0.3c0.4,0.1,0.1,0,0.5,0.2c0.1-0.4,0-0.2,0.4-0.2l-0.5-0.1
		C26.3,29.8,26.5,29.9,26.3,30.3z M25,29.3c0,0.2-0.1,0.1,0.1,0.2c-0.1,0.1-0.3,0.1-0.5,0.2c0.1,0.1,0-0.2,0.1,0.1
		c0.1,0.3,0,0,0,0.1C24.5,29.6,24.7,29.4,25,29.3z M24.8,29c0.2-0.1-0.1-0.3,0.3,0C24.7,29.3,24.9,29.1,24.8,29z"/>
	<path class="st5" d="M33.8,28.2c0.2-0.2,0.8-0.9,0.9-0.3c0.3-0.2,0,0.2,0.3,0.4c0.2-0.2,0.2-0.4,0.3-0.6c0.4,0,0.4,0.2,0.6,0.1
		c-3.1-1.4-3.6,3.9-0.2,3.2c0.3-0.2,0.5-0.8,0.9-0.6c0.3-1,0.4-2.2-0.6-2.4c-0.1,0,0.3,0.2,0.5,0.3c-0.1,0.5,0,0.2-0.2,0.3
		c0.1,0.2,0.1,0.2-0.1,0.1c0.1,0.2,0.1,0.2-0.1,0.1c0.1,0.2,0.1,0.1-0.1,0.1c0,0.2,0.6,0.1,0.7,0.1c0.1,0.5-0.2,0.9-0.3,1.3
		c-0.2-0.2-0.5,0-0.4-0.2c-0.6,0.2,0.1,0.5-0.3,0.8l-1.4,0c-0.1-0.3-0.1-0.6-0.6-0.5c0-0.2,0-0.4-0.2-0.4c0-0.1,0.1-0.3-0.2-0.3
		l0-0.5c0.7-0.1,0.9-0.2,0.3-0.7L33.8,28.2z"/>
	<path class="st5" d="M23.4,24.8C23.6,24.8,23.6,24.8,23.4,24.8c0.3,0,1,0.8,1.2,0.4c-1.3-0.4-0.5-2.4-1-3.3
		C22.8,22.9,22.6,24,23.4,24.8z"/>
	<path class="st6" d="M24.9,19l-0.1,0.6c0.2,0.1,1,0.3,0.9,0.5c0.5,0,1.3-0.2,1.6-0.6c-0.4-0.2-0.2-0.1-0.3-0.3
		c-0.2,0.1-0.2,0.1-0.1-0.1c-0.2,0.1-0.2,0.1-0.1-0.1c-0.2,0.1-0.2,0.1-0.1-0.1C26,19,25.6,18.8,24.9,19L24.9,19z"/>
	<path class="st1" d="M24.4,41.7c0,0.3-0.1,0.4-0.2,0.6l0,0c1.5-0.6-0.6-1.3-0.9-1.4c0.4-0.5,0.5-0.1,0.9,0.1l0.3-0.3
		c-0.8-0.5-2.3,0.4-1.2,1c-0.4,0-0.3-0.1-0.7,0l0,0.3c0.3-0.1,0.3-0.3,0.6,0.1c-0.2,0.2-0.2,0.1-0.5,0c0.5,0.2,0.9,0.3,1.5,0.2
		l-0.2-0.2c1.5-0.6-1.1-0.6-0.9-1.1C23.3,41.3,24,41.3,24.4,41.7L24.4,41.7z M23.3,41.8c0.4,0,0.4,0,0.7,0.2
		C23.8,42.3,23.3,42.1,23.3,41.8z"/>
	<path class="st11" d="M35.1,36.1c-0.2,0.3,0.1,0,0,0.5C35,36.5,35,36.8,35,36.5c-0.6,0.6,0.1,1.9-0.4,2.5l0.7-0.2
		c-0.8-0.2-0.3-1.4-0.2-2.1c0.7,0,1.6-0.7,2.3-0.4l0-0.5C36.6,35.5,35.7,36.2,35.1,36.1L35.1,36.1z M35.9,38.4
		c0-0.3-0.9,0.1-0.6,0.3L35.9,38.4z M37.8,37.1c0-0.2,0.1,0,0.2-0.2l-0.4,0.2l0-0.3l-0.1,0c0.5,0.8-1.9,1.2-1.3,1.5
		C36.5,37.9,37.5,37.5,37.8,37.1L37.8,37.1z"/>
	<path class="st1" d="M17.3,39.5c0.7,0.1,0.9,0,1.2-0.7l0.5,0.1c-0.1-0.4-0.2,0-0.2-0.5c0.5-0.1,0.1,0.3,0.7,0.1
		c-0.7-0.6-1.4-0.4-2.1-0.4l0.5,0.2c-0.1,0.3-0.4,0.9-0.7,1.1c-0.3-0.3-0.4-0.5-0.7-0.3c0.9,1.2,1.4-0.5,2.1-0.9
		C18.2,38.8,17.9,39.3,17.3,39.5z"/>
	<path class="st13" d="M25.8,34.8c0.2,0,0.2-0.1,0.2,0.1c0.2-0.3-0.1-0.4,0.3-0.6c0,0.6,0.1,1.4,0.8,0.7c-0.1,0.2,0,0.1-0.2,0.2
		c0.1,0.2,0.3,0.1,0.2,0.4c0.3-0.3,0-1.4,0-1.9c-0.5-0.1-0.2-0.1-0.6,0c0.4,0.1,0.6,0.4,0.1,0.7l0-0.4c-0.5,0-0.3-0.1-0.8,0
		c0.2,0.2,0.2,0.2,0.5,0.2c-0.5,0.2,0.2,0.4-0.2,0.2c-0.2,0.2-0.2,0.2-0.3,0.3L25.8,34.8L25.8,34.8z M26.1,35.4
		c0.3,0,1.2,0.3,0.9-0.1L26.1,35.4z M26,35.2L26,35.2L26,35.2z M25.9,35.1c0,0.1,0.1,0.2,0.2,0.2L25.9,35.1z"/>
	<path class="st1" d="M26.2,29.4l-0.1,0.2c0.3-0.1-0.6-0.1-0.7,0c0.1,0.1,0,0.2,0.4,0.3c0.1-0.4,0.2,0.3-0.1-0.2c0.4,0,0.7,0,1-0.1
		c-0.1,0.4,0,0.1,0.4,0.3c-0.1,0.1-0.3,0.1-0.5,0.2l0.6,0c-0.1,0.2-0.1,0.2,0.1,0.2c0-0.2,0.1-0.2-0.1-0.2c-0.1-0.7,0-0.8,0.1-1.6
		l-0.4,0.1c0-0.1,0,0.1,0-0.1c-0.3,0.1-0.1-0.1-0.3,0.2c-0.1-0.1,0-0.1-0.2-0.1c-0.1,0.4,0,0.4,0.1,0.6L26.2,29.4z"/>
	<path class="st14" d="M35.3,27.9c0.5,0,0.1,0.1,0.6,0.3c0.3,0.1,0.3-0.1,0.4,0.3c-0.2-0.1-0.2-0.1-0.1,0.1
		c-0.2-0.1-0.2-0.1-0.1,0.1c-0.3-0.2,0.1,0.2-0.2,0.2c0.1,0,0.5,0.2,0.6,0.3c-0.1,0.4-0.2,0.5-0.1,0.9c-0.1,0-0.3,0-0.4-0.1
		c-0.3-0.4-0.5,0.2-0.3,0.7l-1.3-0.1c0-0.4,0.2-0.1,0.2-0.6c-0.4,0-0.4,0-0.6,0.4c0.4,0.3,0.1,0.2,0.3,0.5l1.4,0
		c0.4-0.3-0.3-0.6,0.3-0.8c-0.1,0.3,0.2,0,0.4,0.2c0.2-0.3,0.4-0.8,0.3-1.3c-0.1,0-0.8,0.1-0.7-0.1c0.2,0,0.1,0,0.1-0.1
		c0.2,0.1,0.2,0.1,0.1-0.1c0.2,0.1,0.2,0.1,0.1-0.1c0.2-0.1,0.1,0.3,0.2-0.3c-0.1-0.2-0.5-0.3-0.5-0.3l-0.1-0.1
		c-0.2,0.1-0.1-0.1-0.6-0.1L35.3,27.9L35.3,27.9z"/>
	<path class="st1" d="M27.9,20.3c0-0.2-0.2-0.1,0-0.3l-0.3,0c0-0.4-0.1-0.1,0.2-0.3l0,0.1c0-0.2-0.4-0.1-0.5-0.2
		c-0.3-0.2-0.1-0.5-0.4-0.4c0.1-0.2,0.1-0.1-0.1-0.1c0.1-0.2-0.1,0-0.2-0.1L26.5,19c-0.4-0.3,0.1,0.4-0.1-0.1
		c-0.6-0.2-1.1-0.1-1.7,0l0.1,0.4c0.5-0.5,1.2-0.2,1.9-0.1c-0.1,0.2-0.1,0.1,0.1,0.1c-0.1,0.2-0.1,0.1,0.1,0.1
		c-0.1,0.2-0.1,0.2,0.1,0.1c0.1,0.2-0.1,0.1,0.3,0.3c-0.2,0.5-1,0.6-1.6,0.6c0.1-0.2-0.1-0.1-0.2-0.2c0.1,0.1,0,0.3,0.2,0.2l0,0
		c0.6,0.1,0.8,0.2,0.3,0.7l0.1,0l0.1,0.2c0.1-0.1,0.2-0.2,0.4-0.2l-0.1-0.1c0.4-0.1,0.3,0.1,0.2-0.3l0.4,0.1c-0.6-0.2-0.5,0-0.3-0.1
		c-0.2-0.2-0.1,0.1-0.1-0.2c-0.1-0.6-0.1,0.2,0.1-0.2c0.5,0.4-0.1,0.3,0.6,0.5c-0.2-0.1-0.3-0.3-0.4-0.5c0.2,0.1,0.5,0.3,0.6,0.4
		c-0.2-0.3-0.2-0.2-0.4-0.5C27.9,19.9,27.3,20.2,27.9,20.3z M26.4,20.4c0-0.1,0-0.2,0.1,0C26.6,20.5,26.4,20.4,26.4,20.4z"/>
	<path class="st14" d="M31.6,34.5c-0.3,0-0.2,0-0.4-0.2l0.3-0.1C31.6,34.5,31.6,34.2,31.6,34.5z M30.9,33.7
		c-0.2,0.6,0.2,0.3-0.3,0.8c0.6,0.6,0.4,0.1,0.7,0.8c0.3-0.5,0.3-0.5,0.9-0.8l-0.4-0.4l0.3-0.6C31.6,33.8,31.5,34.1,30.9,33.7z"/>
	<path class="st11" d="M30.1,42.7c0.2-0.2,0.1-0.2,0.4-0.2l0,0.4L30.1,42.7z M30.2,42.3c-0.2-0.2-0.1,0-0.1-0.4l0.3,0.1
		C30.3,42.4,30.4,42.2,30.2,42.3z M29.8,41.9c0,0.5,0.1,0.4,0.3,0.7L29.8,43c-0.4-0.3-0.1-0.8-0.4-1.2l-0.3,0.1
		c0.3,0.4,0,0.9,0.3,1.2c1.9-0.3,1.2-0.3,1.1-1.7l0,0.3C29.8,41.7,30.4,41.7,29.8,41.9z"/>
	<path class="st15" d="M24.3,19.7l0.2-0.5c0.1,0.5-0.3,0.5,0,0.9c0.5-0.3,0.1-0.6,0.3-0.9l0.1,0.4l0.1-0.6l-0.1,0.2
		c0-0.5-0.3-0.3-0.4-0.7c-0.1,0.1,0,0-0.1,0.2c-0.1,0.4,0.1-0.2,0,0.2c-0.1-0.3,0.1-0.3-0.1-0.6c-0.3,0.3-0.2,0.2-0.2,0.6
		c-0.1-0.1-0.2-0.1-0.3,0c0-0.1-0.1-0.4-0.2-0.4c-0.2,0.3,0,0.1-0.1,0.6c0.3-0.2,0.2-0.1,0.6-0.1c0,0.3-0.1-0.1-0.1,0.1
		C23.9,19.3,23.9,19.9,24.3,19.7z"/>
	<path class="st8" d="M21.4,23.3l-0.2-3.5c0.7-0.4,0.1-0.8,0.8-1.2c0-0.8-0.4-0.3-0.8,0.1c-0.3-0.3-0.1-0.2-0.5-0.4
		c0,0.3-0.1,0.1,0.1,0.4c0.3,0-0.2,0,0.3-0.1c0.1,0.4,0,0.2,0.2,0.4c0.1-0.2-0.2,0.2,0-0.1c0.2-0.2-0.1,0,0.2-0.1
		C21.2,19.6,20.8,21.4,21.4,23.3L21.4,23.3z M22.1,18.2c-0.2,0-0.1,0,0,0.4L22.1,18.2z"/>
	<path class="st6" d="M27.1,16.5l0,0.1c0.7,0.1,0.2,0.6,0.1,1c0.9,0.7,0.5-1.1,0.6-1.6c-0.2,0-0.1-0.1-0.1-0.6l-0.3,0l0,0.7
		c-0.1-0.2-0.3,0.1-0.1,0.1L27.1,16.5z"/>
	<path class="st16" d="M19.6,36.9c0.3-0.6,1.8,0.2,2.3,0C21.8,37,21.8,37,22,36.9c-0.1,0.2,0,0.1,0.2,0.1c0-0.4,0-0.2-0.1-0.3l0,0.2
		c0-0.2,0.1-0.2-0.1-0.1c-0.4-0.6-1.8-0.5-2.3-1L19.6,36.9L19.6,36.9z"/>
	<path class="st11" d="M34.7,40.5c0.2,0.4,0.3,0.4,0.4,0.9c-0.6,0.3-0.4-1.4-1-0.6c0.5,0.3,0.4,1,0.6,1.4l0.5,0
		c-0.3-0.2-0.1-0.1-0.2-0.4C35.8,41.7,35.3,40.1,34.7,40.5z"/>
	<path class="st7" d="M19.3,19.4l-0.1-0.2L19,19.4c0.4,0,0.3,0.1,0.6,0.5c-0.3,0-0.4-0.2-0.4-0.2c-0.4-0.3,0,0.4-0.2-0.3l-0.4,0.1
		L18.4,19c-0.1,0.1-0.2,0.8,0.2,0.7c-0.1,0.2,0,0.1-0.2,0.1l0,0.9c0.2-0.1,0-0.7,0.2-1c0.6,0.3,0.1,0.2,0.9,0.2l-0.1-0.2
		c0.5,0.2,0.9,0.4,1.2,0.2C19.9,19.8,19.8,19.8,19.3,19.4L19.3,19.4z"/>
	<path class="st8" d="M22.9,18.4c-0.2,0.3-0.1,0.3-0.5,0.2c0-0.3,0.1-0.7,0.3-0.9C22.1,18.1,22.5,19.3,22.9,18.4z M22.5,19.4
		C22.4,19.3,22.4,19.3,22.5,19.4C22.6,19.5,22.6,19.5,22.5,19.4l0.2,0c0.1,0.5,0,0,0.5,0.5C23,20.1,23.3,20,23,19.9
		c0.2,0.1,0.3,0,0.3,0.3l-0.1-0.7c0.2,0.3-0.1,0.4,0.2,0.4c0-0.4,0.1-0.2-0.1-0.2l0-0.1l-0.1,0c0.1-0.4-0.1-0.1,0.2-0.3l-0.6-0.1
		c0.9,0,0.4-0.3,0.6-0.7c0.1,0,0.2,0.3,0.2,0.4l0.2-0.1l-0.2-0.3l-0.1,0.1c-0.2-0.2-0.4-0.2-0.5-0.4L23,18.4
		C23.2,18.6,22.6,19,22.5,19.4z"/>
	<path class="st6" d="M23.4,19.1l-0.5,0.1l0.6,0.1c-0.3,0.1-0.1-0.1-0.2,0.3c0.7,0.3,0.3,0.6,0.6,1.2c0.3,0.2,0.4-0.8,0.4-1
		c-0.4,0.2-0.3-0.4-0.3-0.6c0-0.2,0,0.2,0.1-0.1C23.6,19,23.7,18.9,23.4,19.1z"/>
	<path class="st13" d="M25.5,30.7c0.2,0.1,0.8-0.4,0.7,0.1l0.2,0c-0.3-0.4,0.5-1.1-0.5-0.8l0.5,0.1c-0.3,0-0.3-0.2-0.4,0.2
		c-0.4-0.2-0.1-0.1-0.5-0.2c0.2,0.1,0.1,0.1,0,0.3c-0.5-0.5-0.3,0.1-0.6-0.3c-0.5,2.2,1.1,0.5,0.2,0.7l0.3-0.3L25,30.4
		c0.3,0,0.3,0.1,0.6,0L25.5,30.7L25.5,30.7z"/>
	<path class="st8" d="M25.8,43.2c0.4,0.1,0.1,0,0.4,0.2l0-0.4c0.7,0.2,1-1.2,0.3-1.2c0,0.2,0.1,0.7,0,1c-0.5,0.1-0.3-0.6-0.2-0.8
		c-0.7-0.8-0.1,0.6-0.6,0.8C25.9,42.9,25.9,42.9,25.8,43.2L25.8,43.2z"/>
	<path class="st8" d="M29.1,42.9c-0.2-0.2,0-0.8-0.2-1.1l-0.4,0.3l-0.3-0.3c-0.7,0-0.7,1.8,0.1,1.3c-0.1-0.1-0.4-0.4-0.2-0.5
		c0.1-0.3,0.1,0.2,0-0.1c0,0-0.2-0.1,0-0.5c0.2,0.1,0.2,0.3,0.2,0.5c0.2-0.2,0.3-0.4,0.4-0.5c0.2,1-0.2,0.8,0.2,1.2L29.1,42.9z"/>
	<path class="st17" d="M32.6,21.5l0-1.1l-0.2,0.1l-0.1-0.3l-0.1,1.5c0.2-0.4,0-0.4,0.2-0.8l0,0.8L32.6,21.5z M32.7,20.4l0.9-0.5
		c-0.5-0.1-0.9,0.1-1.3,0.3l0.3,0.3c0-0.2,0,0,0-0.1c0-0.4-0.1,0.3,0-0.1L32.7,20.4z M32,20.3c0.2,0.5,0,1.1,0.2,1.5
		c0-0.4-0.2-1.2,0.1-1.5L32,20.3z M32.1,20L32.1,20l0.2,0L32.1,20L32.1,20z"/>
	<path class="st16" d="M35.1,36.6c0,0.7,1.7-0.3,2.3,0l0-0.4C36.7,36,35.8,36.6,35.1,36.6L35.1,36.6z"/>
	<path class="st4" d="M24.2,16.3c0.1,0.5-0.1,0.6-0.1,1.1c0,0.3,0.3,0-0.1,0.3c0.3-0.1,0.1,0,0.4,0l-0.2,0.2
		c0.6-0.3,0.2-0.1,0.7-0.1c-0.2-0.4-0.4-0.3,0.1-0.5L24.6,17c0.2-0.4,0.2-0.4,0-0.7l0.3,0c-0.4-0.2-0.1-0.2-0.6-0.3l0.2,0.2
		c-0.1,0.1,0,0.1,0,0.4L24.2,16.3z"/>
	<path class="st1" d="M37.4,40.2c0-0.3,0-0.4,0.3-0.4C37.8,40.2,37.8,40,37.4,40.2z M37.3,39.4c0.1,0.1,0.3,0,0,0.4
		C36.9,39.5,37,39.5,37.3,39.4z M37.4,38.8c-0.1,0.1,0,0.2,0,0.4c-0.3,0-0.5,0.2-0.6,0.6c0.2,0.4,0.7,0.4,0.5,1
		c0.7-0.4,0.9-1.1,0.1-1.3C37.5,39.1,37.6,39,37.4,38.8z"/>
	<path class="st1" d="M39.1,38.2l0.3-0.2c0.1,0.1,0.1,0.3,0.1,0.4c0.4,0,0.2-0.1,0.4,0.1c-0.1,0.4-0.4-0.1-0.4,0.7
		c0.6-0.4,1.1-1,0.1-1.2c0-0.3,0.1-0.4-0.1-0.7c-0.1,0.1,0,0.2,0,0.4c-0.7,0-0.7,1.3,0.1,0.9C39.3,38.3,39.4,38.5,39.1,38.2
		L39.1,38.2z"/>
	<path class="st11" d="M33.9,41.9c-0.4-0.1-0.3-0.3-0.4-0.8C33.9,40.9,34.1,41.7,33.9,41.9z M33.5,42.1c1,0.2,0.8-0.6,0.5-1.3
		C33.1,40.6,33.3,41.6,33.5,42.1L33.5,42.1z"/>
	<path class="st1" d="M37.7,39c0.4,0.3,0.4,0.6,0.9,0.9l0.2-0.5c0.4,0.3,0.6-0.1,0.3-0.3c-0.6-0.7-0.2-0.8-0.7-0.8
		c-0.2,0.4,0.7,0.8,0.2,1.2C38.3,39.3,38,38.2,37.7,39z"/>
	<path class="st5" d="M30.9,30.1c0.1-0.4,0.8-0.2,0.5,0.2C31,30.4,31,30.4,30.9,30.1z M31.6,29.7c0-0.2-0.1-0.2,0.1-0.1l-0.1-0.1
		c-0.4,0.3-0.5,0.1-1,0c0.1,0.3,0.1,0.7-0.2,0.8c0.6,0.1,0.5,0.1,0.7,0.6c0-0.4,0.3-0.7,0.7-0.7L31.6,29.7z"/>
	<path class="st11" d="M31.9,41.3c0.1,0.3,0.2,0.6,0.1,0.9c-0.3-0.3-0.3-0.4-0.3-0.9c-0.8,1,1.1,2.1,1.5,0.7
		c-0.4,0.1-0.5,0.5-0.8,0.4c-0.4,0-0.1-0.1-0.4-0.3c0.3-0.3,0.3-0.5,0.1-0.9c-0.4-0.3,0,0.2-0.1-0.1l0,0
		C32.1,41.3,32.1,41.3,31.9,41.3z"/>
	<path class="st15" d="M26.6,20.9c0.4-0.2,1.2-0.2,1.3-0.6c-0.6-0.1,0-0.4-0.7-0.5c0.1,0.4,0.1,0.3,0.4,0.5
		c-0.2-0.1-0.4-0.3-0.6-0.4c0.1,0.2,0.2,0.4,0.4,0.5c-0.7-0.2-0.1,0-0.6-0.5c-0.2,0.4-0.2-0.4-0.1,0.2c0.1,0.3-0.1,0,0.1,0.2
		c-0.1,0.1-0.2-0.1,0.3,0.1l-0.4-0.1c0.1,0.3,0.2,0.1-0.2,0.3L26.6,20.9L26.6,20.9z M27.8,20c-0.2,0.2-0.1,0.1,0,0.2V20z M27.8,20
		l0-0.3c-0.3,0.2-0.2-0.1-0.2,0.3L27.8,20z"/>
	<path class="st11" d="M26.1,20.9c0.1-0.2,0.5-0.4,0.2-0.6l0.1,0.2c-0.2,0-0.4-0.1-0.3-0.3c-0.5-0.1-0.7-0.2-1.2-0.1
		c0.1,0.4,0.2,0.7,0.8,0.6C26.2,20.8,26,20.7,26.1,20.9L26.1,20.9z"/>
	<path class="st13" d="M20.4,29.7c-0.1,0.2,0.5,0.3,0.6,0.3c0.5-0.1-0.2-0.4,0.3-0.6c-0.4-0.2-0.2,0.1-0.2-0.3l0.3,0.2
		c-0.1-0.4-0.8-0.1-0.3,0.3c-0.4-0.2-0.1-0.1-0.3-0.1c0.1,0.3,0.1,0,0,0.3C20.4,29.8,20.6,29.9,20.4,29.7L20.4,29.7z M20.8,30.1
		L20.8,30.1L20.8,30.1z M20.5,28.1c0.2,0.3-0.1,0.5,0.2,0.8c0-0.2,0.2-0.3,0.3-0.4l0.1,0.5c-0.3-0.1-0.1-0.1-0.5,0
		c0.3,0.2,0.1-0.1,0.1,0.4c0.1-0.1,0-0.3,0.5-0.3c0-0.4-0.1-0.6-0.1-0.9c-0.5,0.1-0.1-0.2-0.4,0.4C20.6,28.3,20.7,28.2,20.5,28.1
		L20.5,28.1z"/>
	<path class="st8" d="M34.9,29.5c-0.3-0.5,0.6-0.7,0.4-0.1L34.9,29.5z M34.4,29.4c0.8,0.2,0.1-0.1,0.6,0.5c0.4-0.5,0.2-0.3,0.7-0.6
		c-0.2-0.3-0.3-0.2-0.2-0.6c-0.3,0-0.6,0-0.9,0C34.6,29.3,34.7,29,34.4,29.4z"/>
	<path class="st11" d="M36.7,40.7c-0.5,0.2-0.5-0.4-0.6-0.7C36.6,39.9,36.6,40.2,36.7,40.7z M36.2,41c1,0.1,0.7-0.7,0.4-1.3
		C35.6,39.6,35.9,40.5,36.2,41z"/>
	<path class="st18" d="M22.8,29.3l-0.1-0.1l0.5-0.2c-0.2-0.4,0.2-0.1-0.1-0.4l0,0.3C22.6,28.7,22.3,29.4,22.8,29.3z M23.3,28.8
		L23.3,28.8L23.3,28.8L23.3,28.8z M22.9,29.1L22.9,29.1L22.9,29.1L22.9,29.1z M22.6,29.3l-0.1-0.1L22.6,29.3z M22.4,28.5
		c0.1,0.2-0.4,0.2-0.5,0.3c0.5,0.1,0.3,0.1,0.7-0.2c0.2,0.4,0.3,0.1,0.2-0.2C22.7,28.6,22.7,28.6,22.4,28.5z M21.6,28.4
		c0.1,0.2,0.4,0,0.6,0.2c0.4,0-0.2,0.1,0.2,0c0.4-0.1-0.1,0.2,0.1-0.1C22.1,28.2,21.8,28.2,21.6,28.4z M23.3,28.6l0.1-0.7
		c-0.1,0.1-0.2,0.2-0.2,0.4l0,0.1c0-0.4-0.5-0.4-0.8-0.5C22.6,28.4,23.1,28.4,23.3,28.6z"/>
	<path class="st19" d="M27.1,23.1c0.1-0.3-0.2,0-0.4,0l0.2,0l-0.4-0.8c0.1,0.4,0.1,0.4,0.3,0.7c-1.1,0.1-1.3-1.1-1.8-0.7
		c0.9,0.5,1.1,1,2.1,1.4C27,23.3,26.8,23.3,27.1,23.1z"/>
	<path class="st1" d="M26.2,30.7c0-0.6-0.2,0.3-0.1,0.4C26.5,31.2,26.5,30.8,26.2,30.7z M26.9,31.3l0.5,0l0.1-0.6
		c-0.3,0.3-0.5,0.4-0.8,0.2c0.5-0.3,0.3-0.2,0.2-0.2c0.3-0.3-0.4-0.2-0.5,0.1l0-0.4c-0.3,0.4,0.5,0.6,0.1,0.9L26.9,31.3z"/>
	<path class="st1" d="M21.6,40.7l-0.2-0.5l-0.4,0.1c0.5,0.4,0.2,0.9-0.4,0.9l0.1,0.2l0.5-0.3c0.1,0.5-0.1,0.6,0.4,0.5
		c-0.1-0.5-0.3-1.1,0.4-1L22,40.4L21.6,40.7z"/>
	<path class="st18" d="M27.1,16.5l-0.2,0.1l0.2,0.1c0-0.1,0.2-0.3,0.2-0.3c-0.2,0,0-0.2,0.1-0.1l0-0.7c-0.4-0.1-0.9,0-1.1,0.4
		c0.3,0.2,0.6,0.3,0.9,0.2C27,16.3,27.1,16.1,27.1,16.5z"/>
	<path class="st14" d="M31.5,33.5c-0.1-0.1,0,0-0.2-0.1l0.1,0.3c0-0.1,0.3-0.5,0.3-0.6c0.3,0.3,0.8,0.1,0.9,0.6
		c-0.2,0-0.2-0.1-0.1,0.1c-0.1,0-0.2,0.3-0.2,0.4l0.7,0.1c-0.2,0.2-0.2,0.7-0.2,1.1l0.1,0c-0.2-0.6,0.6-0.9,0.1-1.1
		c0-0.2-0.5,0-0.6-0.4c0.5-0.2,0.5-0.3,0.2-0.7l-0.3,0.1C32.1,32.8,31.6,32.7,31.5,33.5L31.5,33.5z"/>
	<path class="st1" d="M19.4,39.3c0.2,0.4,0.1,0.3-0.1,0.4C19.3,39.5,19.3,39.4,19.4,39.3L19.4,39.3z M18.7,39.7
		c-0.1,0.3,0,0.4,0.2,0.6c0.1-0.3,0-0.1,0.1-0.3c0-0.2-0.2,0.1,0-0.2l0.7-0.1C19.7,38.7,19,39.1,18.7,39.7z"/>
	<path class="st18" d="M25.1,23c-0.1-0.4-0.5-0.3-0.7-0.6c-0.2-0.5-0.2-0.8-1-0.6c0,0.2,0,0.2,0.2,0.2c0.3,0.1,0.2,0.9,0.2,1.2
		l0.3-0.8c0.3,0.1,0.3,0.5,0.4,0.3C24.5,22.6,25.2,22.9,25.1,23z"/>
	<path class="st14" d="M27.1,18.9c0.3,0.1,0.4-0.1,0.5-0.4c-1.2-0.1-0.5-0.7-1.2-1C26.3,18.7,27,18.7,27.1,18.9z"/>
	<path class="st11" d="M25.2,41.7l0.3,0.1c-0.1,0.3-0.1,0.8-0.4,0.8c-0.2-0.3-0.1-0.1-0.1-0.5c-0.3,0.1-0.4,0.4-0.1,0.7l0.3-0.2
		c0.6,0.8,0.4-0.5,0.6-0.9c-0.2-0.1-0.3-0.1-0.5-0.3L25.2,41.7L25.2,41.7z"/>
	<path class="st13" d="M22.4,28.7l0-0.2c-0.3-0.1-0.8-0.1-1,0.1C21.5,29,22,28.7,22.4,28.7L22.4,28.7z M21.9,29.5
		c0.1-0.2-0.2-0.3,0.2-0.1c0.3,0,0.3-0.2,0.2-0.4l0.1,0.1c0-0.6-0.5,0.1-0.8,0.1l-0.2-0.3C21.4,29.3,21.6,29.2,21.9,29.5z
		 M21.6,29.5l0.1,0l-0.1-0.1L21.6,29.5z"/>
	<path class="st1" d="M19.4,24c0.1,0.1,0.4,0.3,0.6,0.2l-0.1,0c0.4,0.2,2.2,1.1,2.2,1.5c-0.5,0-0.3,0.1-0.6-0.2
		c-0.1,0.6,1.2,0.2,0.7-0.3c-0.1,0.5-0.4-0.1-0.6-0.2c0.3-0.1,0.2,0,0.3-0.3c-0.2,0.7-1-0.3-1.4-0.4c-0.6-0.4-0.3,0-0.9-0.6L19.4,24
		L19.4,24z"/>
	<path class="st1" d="M19.7,40.2c0,0.2-0.2,0.7,0.3,0.6c0-0.6,0.3-1.2,0.7-1.6c-0.4-0.1-0.2,0-0.4-0.2L19.7,40.2L19.7,40.2z"/>
	<path class="st10" d="M32.4,20.1c-0.2-0.1-0.4,0-0.5,0.2l0.3,0c-0.3,0.3-0.1,1.1-0.1,1.5c-0.3-0.4,0.1-0.8-0.2-1.2c0,0.3,0,1,0,1.4
		c0.1,0,0.4,0.1,0.6,0.1l0.1-0.6l-0.2,0.4l0-0.8c-0.2,0.4,0.1,0.4-0.2,0.8l0.1-1.5l0.1,0.3l0.3-0.2l-0.2-0.1c-0.1,0.4,0-0.3,0,0.1
		c0,0.1,0,0,0,0.1l-0.3-0.3L32.4,20.1L32.4,20.1z"/>
	<path class="st5" d="M22.9,25.9l0-0.3l0,0.1c-0.2-0.3-0.7-0.8-1-0.9c0,0.4,0,0.3-0.3,0.3c0.2,0.1,0.5,0.7,0.6,0.2
		c0.1,0.5,0.2,0.2,0.4,0.5C22.7,25.8,22.7,25.8,22.9,25.9L22.9,25.9z"/>
	<path class="st2" d="M27.6,18.6l0.1-0.6c-0.4-0.1-0.6-0.2-1-0.3C26.6,18.2,27,18.5,27.6,18.6z"/>
	<path class="st13" d="M22.8,30.1c0.4,0.1,0.3-0.2,0.6-0.3c0-0.1-0.2-0.6-0.2-0.8l-0.4,0c-0.1,0.3,0.1,0.4-0.3,0.6l0.2,0L22.8,30.1
		L22.8,30.1z"/>
	<path class="st18" d="M27.2,17.6l-0.4,0.1l0-0.1l-0.2,0.1c0.4,0.1,0.5,0.2,1,0.3l-0.1,0.6c0.5-0.5,0.4-2.5,0.1-3.1
		c0,0.5-0.1,0.6,0.1,0.6C27.7,16.5,28.1,18.3,27.2,17.6L27.2,17.6z"/>
	<path class="st1" d="M32,41.1L31.8,41c-0.1,0.1-0.2,0.5-0.3,0.6c0.3,0,0-0.2,0.3-0.5C31.8,41.3,32.2,41.5,32,41.1
		c0.1,0.4-0.2-0.1,0.1,0.2l0.1-0.3l0.3,1.4l-0.3,0c0.1,0.1-0.2,0.1,0.3,0.1c0.7,0.2-0.2-1.2-0.1-1.4c0.5-0.2,0.3,0.1,0.6-0.3
		C32.5,40.6,32.2,40.7,32,41.1z"/>
	<path class="st5" d="M29.5,30c-0.3,0.2,0.2,0.7,0.3,1.1C29.7,30.6,29.4,30.5,29.5,30C29.5,30.1,29.5,30.1,29.5,30
		c0.1,0.1,0.3-0.1,0.4-0.2c-0.1-0.4,0-0.1-0.2-0.2c-0.1-0.1,0-0.1-0.3,0c0.1,0,0.1,0.1,0.2,0.2L29.5,30z M30.1,29.6l-0.2,0l0.2,0.2
		l-0.2,0.2c0.4,0,0.2,0,0.4-0.1L30.1,29.6z M29.8,29.4c-0.3,0-0.2-0.4,0.2-0.5l0,0c0.2-0.2,0.3-0.2,0.4-0.4
		C29.9,28.6,29.3,29.8,29.8,29.4z M30.7,28.6L30.7,28.6c0.1,0.2,0.3,0.2,0.5,0.2c-0.3-0.4-0.3-0.1-0.1-0.4l-0.2,0.3
		c-0.1-0.1-0.2-0.3-0.3-0.3c0.1,0.2,0.1-0.3,0,0.1c-0.1,0.3-0.2-0.1,0,0.1L30.7,28.6z M31.4,28.8l0-0.1
		C31.2,28.4,31.1,28.5,31.4,28.8z M31.6,28.5c0.2-0.1,0.2-0.1,0.1,0.1l0.2,0C31.9,28.4,30.8,28.4,31.6,28.5L31.6,28.5z M32.1,28.8
		c0-0.1-0.1-0.1-0.2,0L32.1,28.8z M30.6,28.9L30.6,28.9L30.6,28.9L30.6,28.9L30.6,28.9L30.6,28.9L30.6,28.9z M30.3,28.9L30.3,28.9
		L30.3,28.9L30.3,28.9L30.3,28.9z"/>
	<path class="st7" d="M23.7,16.4c0.3-0.1-0.1,0,0.3,0c-0.4-0.5,0.1-0.1-0.5-1c-0.2,0.5-0.3,1.3,0.3,1.3L23.7,16.4z"/>
	<path class="st13" d="M26.6,30.4c0.5,0.2,0.2,0.1,0.2,0.2c0.1,0,0.3-0.1-0.2,0.2c0.3,0.2,0.9,0,0.8-0.4c-0.2,0-0.2,0-0.1-0.2
		l-0.6,0c0.1-0.1,0.3-0.1,0.5-0.2c-0.4-0.2-0.1-0.1-0.4,0C26.5,30.1,26.4,30.4,26.6,30.4z"/>
	<path class="st5" d="M25.5,30.7c0.1,0.5-0.1-0.3,0.1,0.2c0.3,0.4-0.3,0.4-0.3,0.1c-0.1,0.3,0,0.2-0.2,0.3l1.7,0l-0.5-0.1
		c0.3-0.2,0-0.4-0.2-0.4c0.3,0.1,0.3,0.5-0.1,0.4l0-0.6L25.5,30.7L25.5,30.7z"/>
	<path class="st5" d="M25.2,35.1l0,0.3l-0.2,0l0,0.1l1.7,0c-0.2-0.2-0.9,0-0.8-0.3l-0.2,0l0.1,0l-0.1-0.3L26,35c0-0.3-0.5,0-0.6,0
		c0.2,0,0.2,0.5,0.1,0.4c-0.2,0,0,0.1-0.1-0.1c-0.1-0.1,0.1-0.1-0.1-0.4L25.2,35.1L25.2,35.1z"/>
	<path class="st7" d="M23.1,27.5c-0.4,0.3-0.8-0.2-0.7,0.5c0.3,0.1,0.8,0.1,0.8,0.5l0-0.1c0.1-0.2,0.3-0.5,0.2-0.8
		c-0.1,0-0.3,0.1-0.4,0.2c0.2,0.2,0.2,0.1,0,0.3c-0.2-0.2,0.1,0-0.2-0.2c0.1-0.1,0.1-0.3,0.3-0.2L23.1,27.5z"/>
	<path class="st20" d="M26.3,33c-0.2,0.2-0.1-0.3-0.1,0.3l0.2,0.1c-0.1,0.5-0.6,0.3-0.9,0.5c0.7,0,0.4,0.2,1-0.2
		C26.3,33.5,26.3,33.1,26.3,33c0.2,0.1,0.1-0.1,0,0.1c0.3,0,0.2,0,0.4-0.2l0,0.2c0.1-0.1,0.4,0,0.5,0l0,0.3c0.3-0.5,0.1-0.4-0.6-0.6
		l0,0C26.3,32.9,26.4,32.8,26.3,33z"/>
	<path class="st13" d="M25.1,35.4l0-0.2l0.2,0c0-0.2-0.2-0.3-0.5-0.3l0.2-0.2l-0.1-0.1l0.4,0c-0.3-0.2-0.1,0-0.2-0.3l-0.2,0.4
		c0-0.2,0.1-0.1-0.1-0.5c-0.1,0.4-0.2,0.9-0.1,1.3L25.1,35.4z"/>
	<path class="st11" d="M35.7,40.7c-0.2-0.4,0-0.5-0.4-0.5c0,0.2,0.2,1.3,0.7,1.1C36,41,35.9,41.1,35.7,40.7z"/>
	<path class="st7" d="M20.4,16.2L20.4,16.2c-0.2-0.1-0.3-0.2-0.5,0l0.2,0.3c-0.1,0.1-0.1,0-0.1,0l0.2,0.3c-0.4,0.2-0.1-0.1-0.1,0.4
		l0.5-0.2C20.3,16.6,20.1,16.4,20.4,16.2L20.4,16.2z"/>
	<path class="st8" d="M27.4,43c-0.2-2-0.6-1-0.3,0.2L27.4,43z"/>
	<path class="st5" d="M32.5,29.3L32,29.8l0.2,0.1c0.4-0.4,0.7,0.2,0.6,0.6c0.3-0.3-0.2-0.6,0.1-1.1l-0.3,0.1l0.1-0.3L32.5,29.3z"/>
	<path class="st14" d="M33.4,29.6c0.3,0,0.2,0.2,0.2,0.3c0.2,0,0.1,0.2,0.2,0.4c0.5-0.1-0.2-0.6-0.2-1l0.7-0.2
		c0-0.3,0.1-0.1-0.1-0.2c0.1,0.3-0.6,0.3-0.7,0.3L33.4,29.6z"/>
	<path class="st14" d="M33.8,28.2l0.1,0.2c0.1-0.1,0.8-0.5,0.8-0.5c-0.1,0.4,0,0.1,0.1,0.2c0-0.5,0.1-0.2-0.1-0.2
		C34.7,27.3,34,28,33.8,28.2z"/>
	<path class="st14" d="M30.4,33.1l-0.2,0.3c-0.2,0-0.2-0.1-0.2,0.1c0.2,0,0.2,0.1,0.2-0.1c0.4,0.3,0.5-0.3,0.9-0.3l-0.1-0.2
		C30.6,33,30.8,33.1,30.4,33.1L30.4,33.1z"/>
	<path class="st5" d="M30,31.2c-0.1,0.2,0.1,0.1-0.3,0l0.6,0.6l0.2-0.1l-0.2-0.1l0.3-0.7C30.3,30.8,30.4,31,30,31.2z"/>
	<path class="st1" d="M22.4,29.3c0-0.1,0-0.2-0.1-0.3L22.4,29.3z M22.5,30l0.4,0.1l0-0.4l-0.2,0c0.4-0.2,0.1-0.3,0.3-0.6l0.1,0
		l-0.2,0l0.1,0.1c-0.1,0-0.2,0-0.3-0.1C22.5,29.7,22.6,29.8,22.5,30z M22.3,29.4l-0.2,0l0,0.1l0.3,0l-0.1-0.3L22.3,29.4z"/>
	<path class="st2" d="M36.7,40.7c-0.1-0.5-0.2-0.8-0.6-0.7C36.2,40.3,36.2,40.8,36.7,40.7z"/>
	<path class="st8" d="M22.7,17.5l-0.1-0.1c0.2,0.3,0.2,0.5,0.2,0.9C23.3,18.1,23.3,16.9,22.7,17.5z"/>
	<path class="st15" d="M25.3,42.2l0.1-0.4l-0.2-0.1L25.3,42.2L25.3,42.2z M25.7,41.7c0-0.1,0.2,0.2,0-0.2c-0.5-0.1-0.9-0.1-0.9,0.5
		l0.4,0l-0.2-0.3c0.2,0,0.2-0.2,0.2-0.3C25.5,41.6,25.5,41.6,25.7,41.7z"/>
	<path class="st5" d="M31.9,31.4l0.1-0.1c0.2,0.2,0,0.1,0.3,0.2l0-0.1l0-0.1c-0.1-0.4,0,0.3,0-0.1l0.3-0.1c-0.4-0.1-0.4-0.3-0.8-0.3
		L31.9,31.4z"/>
	<path class="st2" d="M33.9,41.9c0.1-0.2,0-1-0.4-0.8C33.6,41.6,33.6,41.8,33.9,41.9z"/>
	<path class="st5" d="M21.6,30.1l0.9,0c-0.3-0.3-0.3,0.1-0.6-0.3l0.1-0.3l-0.2-0.1l0,0.1l-0.2,0C21.9,29.7,21.8,29.9,21.6,30.1
		L21.6,30.1z"/>
	<path class="st20" d="M32,21.1c0-0.3-0.1-0.8,0.1-1c-0.1,0.2-0.2,0.3-0.5,0.3C32,20.3,32,20.8,32,21.1z M31,20.1
		c0,0.5-0.4,0.8-0.4,1.3l0.3-0.1l-0.2-0.1c0.3-0.5,0.4-1,0.9-1L31,20.1z"/>
	<path class="st6" d="M29.2,41.9l-0.2,0c0-0.2,0.1-0.1-0.1-0.1c0.2,0.3,0,0.9,0.2,1.1c0-0.3-0.2-0.7,0.1-0.8c0,0.3,0,0.6,0.1,0.9
		C29.3,42.5,29.3,42.3,29.2,41.9l0.3-0.1l0.1,0.3c0.1-0.1,0.1-0.1,0.2-0.1C29.6,41.9,29.3,41.6,29.2,41.9z"/>
	<path class="st18" d="M23.5,20c0.3,0.3,0.1,1.3,0.8,0.7l-0.1-0.2c-0.8,0.8-0.2-0.7-0.8-0.9l0,0.1C23.5,19.8,23.5,19.5,23.5,20z"/>
	<path class="st19" d="M29.4,30.1c0,0.5,0.3,0.5,0.3,1c0.7-0.1-0.4-0.8-0.1-1.1L29.4,30.1C29.5,30.1,29.5,30.1,29.4,30.1z"/>
	<polygon class="st19" points="27.9,23.8 27.8,23.2 27.5,23.2 27.5,23.8 	"/>
	<path class="st10" d="M30.9,30.1C31.5,31.1,31.6,29.2,30.9,30.1L30.9,30.1z"/>
	<path class="st2" d="M25,42.1c0,0.4-0.1,0.2,0.1,0.5c0.4,0,0.2-0.6,0.2-0.8l-0.2,0.1l0.2,0.3L25,42.1z"/>
	<path class="st16" d="M16.2,34.7c0.3,0.1,0.2,0.1,0.5,0.3C16.5,34.7,16.4,34.6,16.2,34.7z M16.6,34.9l0.3-0.1l-0.1-0.8
		C16.8,34.4,16.7,34.5,16.6,34.9C16.3,34.4,16,34.2,16.6,34.9z M16.3,34.3l0.2-0.2l-0.4,0.2l0.3-0.2L16.3,34.3z M16.2,35
		c0-0.4,0-0.1-0.1-0.2L16.2,35z"/>
	<path class="st2" d="M23.3,41.8c0.1,0.3,0.5,0.6,0.7,0.2C23.7,41.8,23.7,41.8,23.3,41.8L23.3,41.8z"/>
	<path class="st15" d="M19.6,40.6l0.1-0.4l-0.1,0.2c-0.2-0.3-0.6-0.1-0.4-0.5c-0.2,0.3,0,0,0,0.2c0,0.2,0.1,0.1-0.1,0.3
		c-0.3-0.3-0.4-0.3-0.2-0.6l-0.2,0.2C18.7,40.7,19.4,40.1,19.6,40.6z"/>
	<path class="st17" d="M32.8,30.4c0-0.2,0.1-0.5-0.1-0.6l-0.1,0.2l0.2-0.1C32.6,30.4,32.6,30.1,32.8,30.4L32.8,30.4z M32.2,29.9
		l0.6,0.1C32.7,29.8,32.3,29.6,32.2,29.9z"/>
	<path class="st18" d="M20.9,27.5c-0.3-0.1-0.3,0.2-0.3,0.4l0.3,0.1l-0.1,0c-0.1-0.4,0.3,0,0.2-0.4L20.9,27.5L20.9,27.5z"/>
	<path class="st19" d="M31.6,29.5l0.1,0.1c-0.2,0-0.1,0-0.1,0.1c0.2-0.1,0.3-0.6,0.7-0.6L31.9,29C31.7,29.4,31.8,29,31.6,29.5
		L31.6,29.5z"/>
	<path class="st18" d="M24.8,29.9C24.8,29.9,24.8,30.2,24.8,29.9c-0.1-0.4,0.1-0.1-0.1-0.2c0.1-0.1,0.3-0.1,0.5-0.2
		c-0.2-0.2-0.1,0-0.1-0.2C24.7,29.4,24.5,29.6,24.8,29.9z"/>
	<path class="st17" d="M19.3,19.4l-0.4-0.1c0.2,0.7-0.2,0,0.2,0.3c0,0,0,0.1,0.4,0.2C19.4,19.4,19.4,19.7,19.3,19.4z"/>
	<path class="st2" d="M37.4,40.2c0.4-0.2,0.4,0,0.3-0.4C37.3,39.8,37.4,39.9,37.4,40.2z"/>
	<path class="st19" d="M23.1,44.3l0.6,0c-0.5-0.2,0-0.1-0.5-0.4C23.1,44,23.1,44.2,23.1,44.3z"/>
	<path class="st19" d="M34.3,43.8l0.1,0c0-0.1,0.1-0.1,0.1,0l0.4-0.4l-0.1-0.1L34.3,43.8z"/>
	<path class="st2" d="M30.1,42.7l0.4,0.1l0-0.4C30.2,42.4,30.2,42.4,30.1,42.7z"/>
	<path class="st2" d="M30.2,42.3c0.2-0.1,0.1,0.1,0.3-0.3l-0.3-0.1C30,42.3,30,42.1,30.2,42.3z"/>
	<path class="st13" d="M26.9,33.1c-0.5,0-0.1,0.7,0.1,0.2L26.9,33.1z"/>
	<path class="st19" d="M23.2,27.6l-0.2-0.1l0,0.2c-0.1-0.1-0.2,0.1-0.3,0.2c0.3,0.1,0.1,0,0.2,0.2c0.2-0.2,0.2-0.1,0-0.3L23.2,27.6
		L23.2,27.6z"/>
	<path class="st6" d="M24.6,33.3c-0.1,0,0,0.1,0.6,0C25,33.2,24.5,33.1,24.6,33.3z"/>
	<path class="st15" d="M27.8,22.2l0-0.4c-0.1,0-0.2,0.2-0.2,0l0.1,0l-0.6-0.1C27.7,21.9,27.5,22,27.8,22.2L27.8,22.2z"/>
	<path class="st12" d="M31.2,34.4c0.2,0.2,0.1,0.2,0.4,0.2c0-0.3,0.1-0.1-0.1-0.3L31.2,34.4z"/>
	<path class="st2" d="M37.3,39.7c0.3-0.4,0.1-0.2,0-0.4C37,39.5,36.9,39.5,37.3,39.7z"/>
	<path class="st13" d="M25.7,34.8c0.2-0.3-0.1-0.1-0.4-0.4C25.4,34.7,25.3,34.7,25.7,34.8z"/>
	<path class="st6" d="M20.8,28c0.3,0,0.2,0.1,0.3-0.1C21,27.8,20.7,27.6,20.8,28z"/>
	<path class="st2" d="M19.3,39.7c0.2-0.1,0.3,0,0.1-0.4C19.3,39.4,19.3,39.5,19.3,39.7L19.3,39.7z"/>
	<path class="st15" d="M26.3,20.6c0-0.2-0.1-0.3-0.3-0.3C25.9,20.5,26.1,20.6,26.3,20.6z"/>
	<path class="st6" d="M27.4,18.9l-0.4,0l0.3,0.2C27.6,18.9,27.6,19.2,27.4,18.9L27.4,18.9z"/>
	<path class="st19" d="M25,33.6L25,33.6l-0.3,0c0,0.3-0.2,0.2,0.3,0.2C24.6,33.5,24.9,33.8,25,33.6z"/>
	<path class="st2" d="M24.8,29c0.1,0.1,0,0.2,0.3,0C24.7,28.8,24.9,28.9,24.8,29z"/>
	<path class="st7" d="M23.2,30.1l0.2,0l0-0.3C23.1,30,23.4,29.8,23.2,30.1L23.2,30.1z"/>
	<path class="st19" d="M24,44.4l0.3,0c-0.1-0.1,0.1-0.1-0.2-0.2L24,44.4z"/>
	<path class="st15" d="M21.2,39.5c-0.3-0.2-0.3-0.1-0.3,0.2L21.2,39.5z"/>
	<path class="st21" d="M32.6,22.2c0-0.1-0.2-0.1-0.3-0.2C32.2,22.1,32.5,22.1,32.6,22.2z"/>
	<path class="st9" d="M26.4,20.4c0,0,0.2,0.2,0.1,0C26.4,20.2,26.3,20.3,26.4,20.4z"/>
</g>
</svg>
